<?xml version="1.0" encoding="utf-8" standalone="no"?>
<!DOCTYPE svg PUBLIC "-//W3C//DTD SVG 1.1//EN"
  "http://www.w3.org/Graphics/SVG/1.1/DTD/svg11.dtd">
<svg xmlns:xlink="http://www.w3.org/1999/xlink" width="460.8pt" height="288pt" viewBox="0 0 460.8 288" xmlns="http://www.w3.org/2000/svg" version="1.1">
 <metadata>
  <rdf:RDF xmlns:dc="http://purl.org/dc/elements/1.1/" xmlns:cc="http://creativecommons.org/ns#" xmlns:rdf="http://www.w3.org/1999/02/22-rdf-syntax-ns#">
   <cc:Work>
    <dc:type rdf:resource="http://purl.org/dc/dcmitype/StillImage"/>
    <dc:date>2026-08-01T06:17:44.968192</dc:date>
    <dc:format>image/svg+xml</dc:format>
    <dc:creator>
     <cc:Agent>
      <dc:title>Matplotlib v3.10.9, https://matplotlib.org/</dc:title>
     </cc:Agent>
    </dc:creator>
   </cc:Work>
  </rdf:RDF>
 </metadata>
 <defs>
  <style type="text/css">*{stroke-linejoin: round; stroke-linecap: butt}</style>
 </defs>
 <g id="figure_1">
  <g id="patch_1">
   <path d="M 0 288 
L 460.8 288 
L 460.8 0 
L 0 0 
z
" style="fill: #ffffff"/>
  </g>
  <g id="axes_1">
   <g id="patch_2">
    <path d="M 44.52 251.97875 
L 451.6 251.97875 
L 451.6 9.2 
L 44.52 9.2 
z
" style="fill: #ffffff"/>
   </g>
   <g id="matplotlib.axis_1">
    <g id="xtick_1">
     <g id="line2d_1">
      <defs>
       <path id="m4d1cb5e691" d="M 0 0 
L 0 3.2 
" style="stroke: #92949a; stroke-width: 0.65"/>
      </defs>
      <g>
       <use xlink:href="#m4d1cb5e691" x="55.290537" y="251.97875" style="fill: #92949a; stroke: #92949a; stroke-width: 0.65"/>
      </g>
     </g>
     <g id="text_1">
      <text style="font-size: 8.4px; font-family: 'Arial', 'Helvetica', 'DejaVu Sans', sans-serif; text-anchor: middle; fill: #273840" x="55.290537" y="264.691312" transform="rotate(-0 55.290537 264.691312)">−0.4</text>
     </g>
    </g>
    <g id="xtick_2">
     <g id="line2d_2">
      <g>
       <use xlink:href="#m4d1cb5e691" x="131.618379" y="251.97875" style="fill: #92949a; stroke: #92949a; stroke-width: 0.65"/>
      </g>
     </g>
     <g id="text_2">
      <text style="font-size: 8.4px; font-family: 'Arial', 'Helvetica', 'DejaVu Sans', sans-serif; text-anchor: middle; fill: #273840" x="131.618379" y="264.691312" transform="rotate(-0 131.618379 264.691312)">−0.2</text>
     </g>
    </g>
    <g id="xtick_3">
     <g id="line2d_3">
      <g>
       <use xlink:href="#m4d1cb5e691" x="207.946222" y="251.97875" style="fill: #92949a; stroke: #92949a; stroke-width: 0.65"/>
      </g>
     </g>
     <g id="text_3">
      <text style="font-size: 8.4px; font-family: 'Arial', 'Helvetica', 'DejaVu Sans', sans-serif; text-anchor: middle; fill: #273840" x="207.946222" y="264.691312" transform="rotate(-0 207.946222 264.691312)">0.0</text>
     </g>
    </g>
    <g id="xtick_4">
     <g id="line2d_4">
      <g>
       <use xlink:href="#m4d1cb5e691" x="284.274065" y="251.97875" style="fill: #92949a; stroke: #92949a; stroke-width: 0.65"/>
      </g>
     </g>
     <g id="text_4">
      <text style="font-size: 8.4px; font-family: 'Arial', 'Helvetica', 'DejaVu Sans', sans-serif; text-anchor: middle; fill: #273840" x="284.274065" y="264.691312" transform="rotate(-0 284.274065 264.691312)">0.2</text>
     </g>
    </g>
    <g id="xtick_5">
     <g id="line2d_5">
      <g>
       <use xlink:href="#m4d1cb5e691" x="360.601908" y="251.97875" style="fill: #92949a; stroke: #92949a; stroke-width: 0.65"/>
      </g>
     </g>
     <g id="text_5">
      <text style="font-size: 8.4px; font-family: 'Arial', 'Helvetica', 'DejaVu Sans', sans-serif; text-anchor: middle; fill: #273840" x="360.601908" y="264.691312" transform="rotate(-0 360.601908 264.691312)">0.4</text>
     </g>
    </g>
    <g id="xtick_6">
     <g id="line2d_6">
      <g>
       <use xlink:href="#m4d1cb5e691" x="436.929751" y="251.97875" style="fill: #92949a; stroke: #92949a; stroke-width: 0.65"/>
      </g>
     </g>
     <g id="text_6">
      <text style="font-size: 8.4px; font-family: 'Arial', 'Helvetica', 'DejaVu Sans', sans-serif; text-anchor: middle; fill: #273840" x="436.929751" y="264.691312" transform="rotate(-0 436.929751 264.691312)">0.6</text>
     </g>
    </g>
    <g id="text_7">
     <text style="font-size: 9.4px; font-family: 'Arial', 'Helvetica', 'DejaVu Sans', sans-serif; text-anchor: middle; fill: #273840" x="248.06" y="277.203719" transform="rotate(-0 248.06 277.203719)">Effect size (95% CI)</text>
    </g>
   </g>
   <g id="matplotlib.axis_2">
    <g id="ytick_1">
     <g id="line2d_7">
      <defs>
       <path id="m3c9c038670" d="M 0 0 
L -3.2 0 
" style="stroke: #92949a; stroke-width: 0.65"/>
      </defs>
      <g>
       <use xlink:href="#m3c9c038670" x="44.52" y="20.235398" style="fill: #92949a; stroke: #92949a; stroke-width: 0.65"/>
      </g>
     </g>
     <g id="text_8">
      <text style="font-size: 8.4px; font-family: 'Arial', 'Helvetica', 'DejaVu Sans', sans-serif; text-anchor: end; fill: #273840" x="37.82" y="23.292866" transform="rotate(-0 37.82 23.292866)">Study 1</text>
     </g>
    </g>
    <g id="ytick_2">
     <g id="line2d_8">
      <g>
       <use xlink:href="#m3c9c038670" x="44.52" y="93.804716" style="fill: #92949a; stroke: #92949a; stroke-width: 0.65"/>
      </g>
     </g>
     <g id="text_9">
      <text style="font-size: 8.4px; font-family: 'Arial', 'Helvetica', 'DejaVu Sans', sans-serif; text-anchor: end; fill: #273840" x="37.82" y="96.862185" transform="rotate(-0 37.82 96.862185)">Study 2</text>
     </g>
    </g>
    <g id="ytick_3">
     <g id="line2d_9">
      <g>
       <use xlink:href="#m3c9c038670" x="44.52" y="167.374034" style="fill: #92949a; stroke: #92949a; stroke-width: 0.65"/>
      </g>
     </g>
     <g id="text_10">
      <text style="font-size: 8.4px; font-family: 'Arial', 'Helvetica', 'DejaVu Sans', sans-serif; text-anchor: end; fill: #273840" x="37.82" y="170.431503" transform="rotate(-0 37.82 170.431503)">Study 3</text>
     </g>
    </g>
    <g id="ytick_4">
     <g id="line2d_10">
      <g>
       <use xlink:href="#m3c9c038670" x="44.52" y="240.943352" style="fill: #92949a; stroke: #92949a; stroke-width: 0.65"/>
      </g>
     </g>
     <g id="text_11">
      <text style="font-size: 8.4px; font-family: 'Arial', 'Helvetica', 'DejaVu Sans', sans-serif; text-anchor: end; fill: #273840" x="37.82" y="244.000821" transform="rotate(-0 37.82 244.000821)">Study 4</text>
     </g>
    </g>
   </g>
   <g id="line2d_11">
    <path d="M 207.946222 251.97875 
L 207.946222 9.2 
" clip-path="url(#p58d6d120c1)" style="fill: none; stroke-dasharray: 2.7,1.8; stroke-dashoffset: 0; stroke: #aeb1b6; stroke-width: 0.9"/>
   </g>
   <g id="LineCollection_1">
    <path d="M 63.023636 20.235398 
L 188.894802 20.235398 
" clip-path="url(#p58d6d120c1)" style="fill: none; stroke: #56a0ab; stroke-width: 1.5"/>
   </g>
   <g id="line2d_12">
    <defs>
     <path id="md04acf2b00" d="M 0 3.5 
L 0 -3.5 
"/>
    </defs>
    <g clip-path="url(#p58d6d120c1)">
     <use xlink:href="#md04acf2b00" x="63.023636" y="20.235398" style="fill: #56a0ab"/>
    </g>
   </g>
   <g id="line2d_13">
    <g clip-path="url(#p58d6d120c1)">
     <use xlink:href="#md04acf2b00" x="188.894802" y="20.235398" style="fill: #56a0ab"/>
    </g>
   </g>
   <g id="LineCollection_2">
    <path d="M 84.842872 93.804716 
L 243.023448 93.804716 
" clip-path="url(#p58d6d120c1)" style="fill: none; stroke: #e6cbc6; stroke-width: 1.5"/>
   </g>
   <g id="line2d_14">
    <defs>
     <path id="m6ce3d28456" d="M 0 3.5 
L 0 -3.5 
"/>
    </defs>
    <g clip-path="url(#p58d6d120c1)">
     <use xlink:href="#m6ce3d28456" x="84.842872" y="93.804716" style="fill: #e6cbc6"/>
    </g>
   </g>
   <g id="line2d_15">
    <g clip-path="url(#p58d6d120c1)">
     <use xlink:href="#m6ce3d28456" x="243.023448" y="93.804716" style="fill: #e6cbc6"/>
    </g>
   </g>
   <g id="LineCollection_3">
    <path d="M 223.778697 167.374034 
L 364.061265 167.374034 
" clip-path="url(#p58d6d120c1)" style="fill: none; stroke: #f2bab7; stroke-width: 1.5"/>
   </g>
   <g id="line2d_16">
    <defs>
     <path id="m12afcd282a" d="M 0 3.5 
L 0 -3.5 
"/>
    </defs>
    <g clip-path="url(#p58d6d120c1)">
     <use xlink:href="#m12afcd282a" x="223.778697" y="167.374034" style="fill: #f2bab7"/>
    </g>
   </g>
   <g id="line2d_17">
    <g clip-path="url(#p58d6d120c1)">
     <use xlink:href="#m12afcd282a" x="364.061265" y="167.374034" style="fill: #f2bab7"/>
    </g>
   </g>
   <g id="LineCollection_4">
    <path d="M 337.892429 240.943352 
L 433.096364 240.943352 
" clip-path="url(#p58d6d120c1)" style="fill: none; stroke: #ff7c66; stroke-width: 1.5"/>
   </g>
   <g id="line2d_18">
    <defs>
     <path id="ma9cbf8b69d" d="M 0 3.5 
L 0 -3.5 
"/>
    </defs>
    <g clip-path="url(#p58d6d120c1)">
     <use xlink:href="#ma9cbf8b69d" x="337.892429" y="240.943352" style="fill: #ff7c66"/>
    </g>
   </g>
   <g id="line2d_19">
    <g clip-path="url(#p58d6d120c1)">
     <use xlink:href="#ma9cbf8b69d" x="433.096364" y="240.943352" style="fill: #ff7c66"/>
    </g>
   </g>
   <g id="line2d_20">
    <defs>
     <path id="m79780a23fc" d="M 0 3.75 
C 0.994512 3.75 1.948425 3.354876 2.65165 2.65165 
C 3.354876 1.948425 3.75 0.994512 3.75 0 
C 3.75 -0.994512 3.354876 -1.948425 2.65165 -2.65165 
C 1.948425 -3.354876 0.994512 -3.75 0 -3.75 
C -0.994512 -3.75 -1.948425 -3.354876 -2.65165 -2.65165 
C -3.354876 -1.948425 -3.75 -0.994512 -3.75 0 
C -3.75 0.994512 -3.354876 1.948425 -2.65165 2.65165 
C -1.948425 3.354876 -0.994512 3.75 0 3.75 
z
"/>
    </defs>
    <g clip-path="url(#p58d6d120c1)">
     <use xlink:href="#m79780a23fc" x="125.959219" y="20.235398" style="fill: #56a0ab"/>
    </g>
   </g>
   <g id="line2d_21">
    <defs>
     <path id="m217274039e" d="M 0 3.75 
C 0.994512 3.75 1.948425 3.354876 2.65165 2.65165 
C 3.354876 1.948425 3.75 0.994512 3.75 0 
C 3.75 -0.994512 3.354876 -1.948425 2.65165 -2.65165 
C 1.948425 -3.354876 0.994512 -3.75 0 -3.75 
C -0.994512 -3.75 -1.948425 -3.354876 -2.65165 -2.65165 
C -3.354876 -1.948425 -3.75 -0.994512 -3.75 0 
C -3.75 0.994512 -3.354876 1.948425 -2.65165 2.65165 
C -1.948425 3.354876 -0.994512 3.75 0 3.75 
z
"/>
    </defs>
    <g clip-path="url(#p58d6d120c1)">
     <use xlink:href="#m217274039e" x="163.93316" y="93.804716" style="fill: #e6cbc6"/>
    </g>
   </g>
   <g id="line2d_22">
    <defs>
     <path id="mf2ed3a93ee" d="M 0 3.75 
C 0.994512 3.75 1.948425 3.354876 2.65165 2.65165 
C 3.354876 1.948425 3.75 0.994512 3.75 0 
C 3.75 -0.994512 3.354876 -1.948425 2.65165 -2.65165 
C 1.948425 -3.354876 0.994512 -3.75 0 -3.75 
C -0.994512 -3.75 -1.948425 -3.354876 -2.65165 -2.65165 
C -3.354876 -1.948425 -3.75 -0.994512 -3.75 0 
C -3.75 0.994512 -3.354876 1.948425 -2.65165 2.65165 
C -1.948425 3.354876 -0.994512 3.75 0 3.75 
z
"/>
    </defs>
    <g clip-path="url(#p58d6d120c1)">
     <use xlink:href="#mf2ed3a93ee" x="293.919981" y="167.374034" style="fill: #f2bab7"/>
    </g>
   </g>
   <g id="line2d_23">
    <defs>
     <path id="m84eb8fa5a3" d="M 0 3.75 
C 0.994512 3.75 1.948425 3.354876 2.65165 2.65165 
C 3.354876 1.948425 3.75 0.994512 3.75 0 
C 3.75 -0.994512 3.354876 -1.948425 2.65165 -2.65165 
C 1.948425 -3.354876 0.994512 -3.75 0 -3.75 
C -0.994512 -3.75 -1.948425 -3.354876 -2.65165 -2.65165 
C -3.354876 -1.948425 -3.75 -0.994512 -3.75 0 
C -3.75 0.994512 -3.354876 1.948425 -2.65165 2.65165 
C -1.948425 3.354876 -0.994512 3.75 0 3.75 
z
"/>
    </defs>
    <g clip-path="url(#p58d6d120c1)">
     <use xlink:href="#m84eb8fa5a3" x="385.494396" y="240.943352" style="fill: #ff7c66"/>
    </g>
   </g>
   <g id="patch_3">
    <path d="M 44.52 251.97875 
L 451.6 251.97875 
" style="fill: none; stroke: #bfc1c5; stroke-width: 0.7; stroke-linejoin: miter; stroke-linecap: square"/>
   </g>
  </g>
 </g>
 <defs>
  <clipPath id="p58d6d120c1">
   <rect x="44.52" y="9.2" width="407.08" height="242.77875"/>
  </clipPath>
 </defs>
</svg>
