<?xml version="1.0" encoding="utf-8" standalone="no"?>
<!DOCTYPE svg PUBLIC "-//W3C//DTD SVG 1.1//EN"
  "http://www.w3.org/Graphics/SVG/1.1/DTD/svg11.dtd">
<svg xmlns:xlink="http://www.w3.org/1999/xlink" width="460.8pt" height="288pt" viewBox="0 0 460.8 288" xmlns="http://www.w3.org/2000/svg" version="1.1">
 <metadata>
  <rdf:RDF xmlns:dc="http://purl.org/dc/elements/1.1/" xmlns:cc="http://creativecommons.org/ns#" xmlns:rdf="http://www.w3.org/1999/02/22-rdf-syntax-ns#">
   <cc:Work>
    <dc:type rdf:resource="http://purl.org/dc/dcmitype/StillImage"/>
    <dc:date>2026-07-31T21:25:26.137787</dc:date>
    <dc:format>image/svg+xml</dc:format>
    <dc:creator>
     <cc:Agent>
      <dc:title>Matplotlib v3.10.9, https://matplotlib.org/</dc:title>
     </cc:Agent>
    </dc:creator>
   </cc:Work>
  </rdf:RDF>
 </metadata>
 <defs>
  <style type="text/css">*{stroke-linejoin: round; stroke-linecap: butt}</style>
 </defs>
 <g id="figure_1">
  <g id="patch_1">
   <path d="M 0 288 
L 460.8 288 
L 460.8 0 
L 0 0 
z
" style="fill: #ffffff"/>
  </g>
  <g id="axes_1">
   <g id="patch_2">
    <path d="M 40.15 264.9 
L 451.6 264.9 
L 451.6 12.08 
L 40.15 12.08 
z
" style="fill: #ffffff"/>
   </g>
   <g id="line2d_1">
    <path d="M 58.852273 264.9 
L 58.852273 12.08 
" clip-path="url(#p01af627258)" style="fill: none; stroke: #d8d9dc; stroke-width: 0.75; stroke-linecap: square"/>
   </g>
   <g id="line2d_2">
    <path d="M 152.363636 264.9 
L 152.363636 12.08 
" clip-path="url(#p01af627258)" style="fill: none; stroke: #d8d9dc; stroke-width: 0.75; stroke-linecap: square"/>
   </g>
   <g id="line2d_3">
    <path d="M 245.875 264.9 
L 245.875 12.08 
" clip-path="url(#p01af627258)" style="fill: none; stroke: #d8d9dc; stroke-width: 0.75; stroke-linecap: square"/>
   </g>
   <g id="line2d_4">
    <path d="M 339.386364 264.9 
L 339.386364 12.08 
" clip-path="url(#p01af627258)" style="fill: none; stroke: #d8d9dc; stroke-width: 0.75; stroke-linecap: square"/>
   </g>
   <g id="line2d_5">
    <path d="M 432.897727 264.9 
L 432.897727 12.08 
" clip-path="url(#p01af627258)" style="fill: none; stroke: #d8d9dc; stroke-width: 0.75; stroke-linecap: square"/>
   </g>
   <g id="matplotlib.axis_1">
    <g id="xtick_1">
     <g id="line2d_6">
      <defs>
       <path id="m4d1cb5e691" d="M 0 0 
L 0 3.2 
" style="stroke: #92949a; stroke-width: 0.65"/>
      </defs>
      <g>
       <use xlink:href="#m4d1cb5e691" x="58.852273" y="264.9" style="fill: #92949a; stroke: #92949a; stroke-width: 0.65"/>
      </g>
     </g>
     <g id="text_1">
      <text style="font-size: 8.4px; font-family: 'Arial', 'Helvetica', 'DejaVu Sans', sans-serif; text-anchor: middle; fill: #273840" x="58.852273" y="277.612563" transform="rotate(-0 58.852273 277.612563)">Metric 1</text>
     </g>
    </g>
    <g id="xtick_2">
     <g id="line2d_7">
      <g>
       <use xlink:href="#m4d1cb5e691" x="152.363636" y="264.9" style="fill: #92949a; stroke: #92949a; stroke-width: 0.65"/>
      </g>
     </g>
     <g id="text_2">
      <text style="font-size: 8.4px; font-family: 'Arial', 'Helvetica', 'DejaVu Sans', sans-serif; text-anchor: middle; fill: #273840" x="152.363636" y="277.612563" transform="rotate(-0 152.363636 277.612563)">Metric 2</text>
     </g>
    </g>
    <g id="xtick_3">
     <g id="line2d_8">
      <g>
       <use xlink:href="#m4d1cb5e691" x="245.875" y="264.9" style="fill: #92949a; stroke: #92949a; stroke-width: 0.65"/>
      </g>
     </g>
     <g id="text_3">
      <text style="font-size: 8.4px; font-family: 'Arial', 'Helvetica', 'DejaVu Sans', sans-serif; text-anchor: middle; fill: #273840" x="245.875" y="277.612563" transform="rotate(-0 245.875 277.612563)">Metric 3</text>
     </g>
    </g>
    <g id="xtick_4">
     <g id="line2d_9">
      <g>
       <use xlink:href="#m4d1cb5e691" x="339.386364" y="264.9" style="fill: #92949a; stroke: #92949a; stroke-width: 0.65"/>
      </g>
     </g>
     <g id="text_4">
      <text style="font-size: 8.4px; font-family: 'Arial', 'Helvetica', 'DejaVu Sans', sans-serif; text-anchor: middle; fill: #273840" x="339.386364" y="277.612563" transform="rotate(-0 339.386364 277.612563)">Metric 4</text>
     </g>
    </g>
    <g id="xtick_5">
     <g id="line2d_10">
      <g>
       <use xlink:href="#m4d1cb5e691" x="432.897727" y="264.9" style="fill: #92949a; stroke: #92949a; stroke-width: 0.65"/>
      </g>
     </g>
     <g id="text_5">
      <text style="font-size: 8.4px; font-family: 'Arial', 'Helvetica', 'DejaVu Sans', sans-serif; text-anchor: middle; fill: #273840" x="432.897727" y="277.612563" transform="rotate(-0 432.897727 277.612563)">Metric 5</text>
     </g>
    </g>
   </g>
   <g id="matplotlib.axis_2">
    <g id="ytick_1">
     <g id="line2d_11">
      <defs>
       <path id="m3c9c038670" d="M 0 0 
L -3.2 0 
" style="stroke: #92949a; stroke-width: 0.65"/>
      </defs>
      <g>
       <use xlink:href="#m3c9c038670" x="40.15" y="264.9" style="fill: #92949a; stroke: #92949a; stroke-width: 0.65"/>
      </g>
     </g>
     <g id="text_6">
      <text style="font-size: 8.4px; font-family: 'Arial', 'Helvetica', 'DejaVu Sans', sans-serif; text-anchor: end; fill: #273840" x="33.45" y="267.906281" transform="rotate(-0 33.45 267.906281)">0.0</text>
     </g>
    </g>
    <g id="ytick_2">
     <g id="line2d_12">
      <g>
       <use xlink:href="#m3c9c038670" x="40.15" y="214.336" style="fill: #92949a; stroke: #92949a; stroke-width: 0.65"/>
      </g>
     </g>
     <g id="text_7">
      <text style="font-size: 8.4px; font-family: 'Arial', 'Helvetica', 'DejaVu Sans', sans-serif; text-anchor: end; fill: #273840" x="33.45" y="217.342281" transform="rotate(-0 33.45 217.342281)">0.2</text>
     </g>
    </g>
    <g id="ytick_3">
     <g id="line2d_13">
      <g>
       <use xlink:href="#m3c9c038670" x="40.15" y="163.772" style="fill: #92949a; stroke: #92949a; stroke-width: 0.65"/>
      </g>
     </g>
     <g id="text_8">
      <text style="font-size: 8.4px; font-family: 'Arial', 'Helvetica', 'DejaVu Sans', sans-serif; text-anchor: end; fill: #273840" x="33.45" y="166.778281" transform="rotate(-0 33.45 166.778281)">0.4</text>
     </g>
    </g>
    <g id="ytick_4">
     <g id="line2d_14">
      <g>
       <use xlink:href="#m3c9c038670" x="40.15" y="113.208" style="fill: #92949a; stroke: #92949a; stroke-width: 0.65"/>
      </g>
     </g>
     <g id="text_9">
      <text style="font-size: 8.4px; font-family: 'Arial', 'Helvetica', 'DejaVu Sans', sans-serif; text-anchor: end; fill: #273840" x="33.45" y="116.214281" transform="rotate(-0 33.45 116.214281)">0.6</text>
     </g>
    </g>
    <g id="ytick_5">
     <g id="line2d_15">
      <g>
       <use xlink:href="#m3c9c038670" x="40.15" y="62.644" style="fill: #92949a; stroke: #92949a; stroke-width: 0.65"/>
      </g>
     </g>
     <g id="text_10">
      <text style="font-size: 8.4px; font-family: 'Arial', 'Helvetica', 'DejaVu Sans', sans-serif; text-anchor: end; fill: #273840" x="33.45" y="65.650281" transform="rotate(-0 33.45 65.650281)">0.8</text>
     </g>
    </g>
    <g id="ytick_6">
     <g id="line2d_16">
      <g>
       <use xlink:href="#m3c9c038670" x="40.15" y="12.08" style="fill: #92949a; stroke: #92949a; stroke-width: 0.65"/>
      </g>
     </g>
     <g id="text_11">
      <text style="font-size: 8.4px; font-family: 'Arial', 'Helvetica', 'DejaVu Sans', sans-serif; text-anchor: end; fill: #273840" x="33.45" y="15.086281" transform="rotate(-0 33.45 15.086281)">1.0</text>
     </g>
    </g>
    <g id="text_12">
     <text style="font-size: 9.4px; font-family: 'Arial', 'Helvetica', 'DejaVu Sans', sans-serif; text-anchor: middle; fill: #273840" x="15.90575" y="138.49" transform="rotate(-90 15.90575 138.49)">Normalized score</text>
    </g>
   </g>
   <g id="line2d_17">
    <path d="M 58.852273 177.515003 
L 152.363636 150.557426 
L 245.875 133.416721 
L 339.386364 191.936629 
L 432.897727 234.223303 
" clip-path="url(#p01af627258)" style="fill: none; stroke: #56a0ab; stroke-opacity: 0.9; stroke-width: 2; stroke-linecap: square"/>
   </g>
   <g id="line2d_18">
    <path d="M 58.852273 145.747792 
L 152.363636 118.347546 
L 245.875 177.854242 
L 339.386364 224.418632 
L 432.897727 196.035962 
" clip-path="url(#p01af627258)" style="fill: none; stroke: #86b9c3; stroke-opacity: 0.9; stroke-width: 2; stroke-linecap: square"/>
   </g>
   <g id="line2d_19">
    <path d="M 58.852273 112.372326 
L 152.363636 158.715149 
L 245.875 208.462407 
L 339.386364 190.392898 
L 432.897727 146.703286 
" clip-path="url(#p01af627258)" style="fill: none; stroke: #e6cbc6; stroke-opacity: 0.9; stroke-width: 2; stroke-linecap: square"/>
   </g>
   <g id="line2d_20">
    <path d="M 58.852273 114.741614 
L 152.363636 185.871791 
L 245.875 186.616329 
L 339.386364 138.542532 
L 432.897727 89.585145 
" clip-path="url(#p01af627258)" style="fill: none; stroke: #f2bab7; stroke-opacity: 0.9; stroke-width: 2; stroke-linecap: square"/>
   </g>
   <g id="line2d_21">
    <path d="M 58.852273 167.385964 
L 152.363636 163.940115 
L 245.875 130.10016 
L 339.386364 74.720861 
L 432.897727 90.986008 
" clip-path="url(#p01af627258)" style="fill: none; stroke: #d69b95; stroke-opacity: 0.9; stroke-width: 2; stroke-linecap: square"/>
   </g>
   <g id="line2d_22">
    <path d="M 58.852273 165.656067 
L 152.363636 102.278744 
L 245.875 63.481383 
L 339.386364 68.247795 
L 432.897727 123.738046 
" clip-path="url(#p01af627258)" style="fill: none; stroke: #c97064; stroke-opacity: 0.9; stroke-width: 2; stroke-linecap: square"/>
   </g>
   <g id="line2d_23">
    <path d="M 58.852273 95.113282 
L 152.363636 54.384126 
L 245.875 59.136517 
L 339.386364 91.333248 
L 432.897727 136.581054 
" clip-path="url(#p01af627258)" style="fill: none; stroke: #ff7c66; stroke-opacity: 0.9; stroke-width: 2; stroke-linecap: square"/>
   </g>
   <g id="patch_3">
    <path d="M 40.15 264.9 
L 40.15 12.08 
" style="fill: none; stroke: #bfc1c5; stroke-width: 0.7; stroke-linejoin: miter; stroke-linecap: square"/>
   </g>
   <g id="PathCollection_1">
    <defs>
     <path id="C0_0_0b61a138b2" d="M 0 2.44949 
C 0.649612 2.44949 1.272706 2.191396 1.732051 1.732051 
C 2.191396 1.272706 2.44949 0.649612 2.44949 -0 
C 2.44949 -0.649612 2.191396 -1.272706 1.732051 -1.732051 
C 1.272706 -2.191396 0.649612 -2.44949 0 -2.44949 
C -0.649612 -2.44949 -1.272706 -2.191396 -1.732051 -1.732051 
C -2.191396 -1.272706 -2.44949 -0.649612 -2.44949 0 
C -2.44949 0.649612 -2.191396 1.272706 -1.732051 1.732051 
C -1.272706 2.191396 -0.649612 2.44949 0 2.44949 
z
"/>
    </defs>
    <g clip-path="url(#p01af627258)">
     <use xlink:href="#C0_0_0b61a138b2" x="58.852273" y="177.515003" style="fill: #56a0ab"/>
    </g>
    <g clip-path="url(#p01af627258)">
     <use xlink:href="#C0_0_0b61a138b2" x="152.363636" y="150.557426" style="fill: #56a0ab"/>
    </g>
    <g clip-path="url(#p01af627258)">
     <use xlink:href="#C0_0_0b61a138b2" x="245.875" y="133.416721" style="fill: #56a0ab"/>
    </g>
    <g clip-path="url(#p01af627258)">
     <use xlink:href="#C0_0_0b61a138b2" x="339.386364" y="191.936629" style="fill: #56a0ab"/>
    </g>
    <g clip-path="url(#p01af627258)">
     <use xlink:href="#C0_0_0b61a138b2" x="432.897727" y="234.223303" style="fill: #56a0ab"/>
    </g>
   </g>
   <g id="PathCollection_2">
    <defs>
     <path id="C1_0_0b61a138b2" d="M 0 2.44949 
C 0.649612 2.44949 1.272706 2.191396 1.732051 1.732051 
C 2.191396 1.272706 2.44949 0.649612 2.44949 -0 
C 2.44949 -0.649612 2.191396 -1.272706 1.732051 -1.732051 
C 1.272706 -2.191396 0.649612 -2.44949 0 -2.44949 
C -0.649612 -2.44949 -1.272706 -2.191396 -1.732051 -1.732051 
C -2.191396 -1.272706 -2.44949 -0.649612 -2.44949 0 
C -2.44949 0.649612 -2.191396 1.272706 -1.732051 1.732051 
C -1.272706 2.191396 -0.649612 2.44949 0 2.44949 
z
"/>
    </defs>
    <g clip-path="url(#p01af627258)">
     <use xlink:href="#C1_0_0b61a138b2" x="58.852273" y="145.747792" style="fill: #86b9c3"/>
    </g>
    <g clip-path="url(#p01af627258)">
     <use xlink:href="#C1_0_0b61a138b2" x="152.363636" y="118.347546" style="fill: #86b9c3"/>
    </g>
    <g clip-path="url(#p01af627258)">
     <use xlink:href="#C1_0_0b61a138b2" x="245.875" y="177.854242" style="fill: #86b9c3"/>
    </g>
    <g clip-path="url(#p01af627258)">
     <use xlink:href="#C1_0_0b61a138b2" x="339.386364" y="224.418632" style="fill: #86b9c3"/>
    </g>
    <g clip-path="url(#p01af627258)">
     <use xlink:href="#C1_0_0b61a138b2" x="432.897727" y="196.035962" style="fill: #86b9c3"/>
    </g>
   </g>
   <g id="PathCollection_3">
    <defs>
     <path id="C2_0_0b61a138b2" d="M 0 2.44949 
C 0.649612 2.44949 1.272706 2.191396 1.732051 1.732051 
C 2.191396 1.272706 2.44949 0.649612 2.44949 -0 
C 2.44949 -0.649612 2.191396 -1.272706 1.732051 -1.732051 
C 1.272706 -2.191396 0.649612 -2.44949 0 -2.44949 
C -0.649612 -2.44949 -1.272706 -2.191396 -1.732051 -1.732051 
C -2.191396 -1.272706 -2.44949 -0.649612 -2.44949 0 
C -2.44949 0.649612 -2.191396 1.272706 -1.732051 1.732051 
C -1.272706 2.191396 -0.649612 2.44949 0 2.44949 
z
"/>
    </defs>
    <g clip-path="url(#p01af627258)">
     <use xlink:href="#C2_0_0b61a138b2" x="58.852273" y="112.372326" style="fill: #e6cbc6"/>
    </g>
    <g clip-path="url(#p01af627258)">
     <use xlink:href="#C2_0_0b61a138b2" x="152.363636" y="158.715149" style="fill: #e6cbc6"/>
    </g>
    <g clip-path="url(#p01af627258)">
     <use xlink:href="#C2_0_0b61a138b2" x="245.875" y="208.462407" style="fill: #e6cbc6"/>
    </g>
    <g clip-path="url(#p01af627258)">
     <use xlink:href="#C2_0_0b61a138b2" x="339.386364" y="190.392898" style="fill: #e6cbc6"/>
    </g>
    <g clip-path="url(#p01af627258)">
     <use xlink:href="#C2_0_0b61a138b2" x="432.897727" y="146.703286" style="fill: #e6cbc6"/>
    </g>
   </g>
   <g id="PathCollection_4">
    <defs>
     <path id="C3_0_0b61a138b2" d="M 0 2.44949 
C 0.649612 2.44949 1.272706 2.191396 1.732051 1.732051 
C 2.191396 1.272706 2.44949 0.649612 2.44949 -0 
C 2.44949 -0.649612 2.191396 -1.272706 1.732051 -1.732051 
C 1.272706 -2.191396 0.649612 -2.44949 0 -2.44949 
C -0.649612 -2.44949 -1.272706 -2.191396 -1.732051 -1.732051 
C -2.191396 -1.272706 -2.44949 -0.649612 -2.44949 0 
C -2.44949 0.649612 -2.191396 1.272706 -1.732051 1.732051 
C -1.272706 2.191396 -0.649612 2.44949 0 2.44949 
z
"/>
    </defs>
    <g clip-path="url(#p01af627258)">
     <use xlink:href="#C3_0_0b61a138b2" x="58.852273" y="114.741614" style="fill: #f2bab7"/>
    </g>
    <g clip-path="url(#p01af627258)">
     <use xlink:href="#C3_0_0b61a138b2" x="152.363636" y="185.871791" style="fill: #f2bab7"/>
    </g>
    <g clip-path="url(#p01af627258)">
     <use xlink:href="#C3_0_0b61a138b2" x="245.875" y="186.616329" style="fill: #f2bab7"/>
    </g>
    <g clip-path="url(#p01af627258)">
     <use xlink:href="#C3_0_0b61a138b2" x="339.386364" y="138.542532" style="fill: #f2bab7"/>
    </g>
    <g clip-path="url(#p01af627258)">
     <use xlink:href="#C3_0_0b61a138b2" x="432.897727" y="89.585145" style="fill: #f2bab7"/>
    </g>
   </g>
   <g id="PathCollection_5">
    <defs>
     <path id="C4_0_0b61a138b2" d="M 0 2.44949 
C 0.649612 2.44949 1.272706 2.191396 1.732051 1.732051 
C 2.191396 1.272706 2.44949 0.649612 2.44949 -0 
C 2.44949 -0.649612 2.191396 -1.272706 1.732051 -1.732051 
C 1.272706 -2.191396 0.649612 -2.44949 0 -2.44949 
C -0.649612 -2.44949 -1.272706 -2.191396 -1.732051 -1.732051 
C -2.191396 -1.272706 -2.44949 -0.649612 -2.44949 0 
C -2.44949 0.649612 -2.191396 1.272706 -1.732051 1.732051 
C -1.272706 2.191396 -0.649612 2.44949 0 2.44949 
z
"/>
    </defs>
    <g clip-path="url(#p01af627258)">
     <use xlink:href="#C4_0_0b61a138b2" x="58.852273" y="167.385964" style="fill: #d69b95"/>
    </g>
    <g clip-path="url(#p01af627258)">
     <use xlink:href="#C4_0_0b61a138b2" x="152.363636" y="163.940115" style="fill: #d69b95"/>
    </g>
    <g clip-path="url(#p01af627258)">
     <use xlink:href="#C4_0_0b61a138b2" x="245.875" y="130.10016" style="fill: #d69b95"/>
    </g>
    <g clip-path="url(#p01af627258)">
     <use xlink:href="#C4_0_0b61a138b2" x="339.386364" y="74.720861" style="fill: #d69b95"/>
    </g>
    <g clip-path="url(#p01af627258)">
     <use xlink:href="#C4_0_0b61a138b2" x="432.897727" y="90.986008" style="fill: #d69b95"/>
    </g>
   </g>
   <g id="PathCollection_6">
    <defs>
     <path id="C5_0_0b61a138b2" d="M 0 2.44949 
C 0.649612 2.44949 1.272706 2.191396 1.732051 1.732051 
C 2.191396 1.272706 2.44949 0.649612 2.44949 -0 
C 2.44949 -0.649612 2.191396 -1.272706 1.732051 -1.732051 
C 1.272706 -2.191396 0.649612 -2.44949 0 -2.44949 
C -0.649612 -2.44949 -1.272706 -2.191396 -1.732051 -1.732051 
C -2.191396 -1.272706 -2.44949 -0.649612 -2.44949 0 
C -2.44949 0.649612 -2.191396 1.272706 -1.732051 1.732051 
C -1.272706 2.191396 -0.649612 2.44949 0 2.44949 
z
"/>
    </defs>
    <g clip-path="url(#p01af627258)">
     <use xlink:href="#C5_0_0b61a138b2" x="58.852273" y="165.656067" style="fill: #c97064"/>
    </g>
    <g clip-path="url(#p01af627258)">
     <use xlink:href="#C5_0_0b61a138b2" x="152.363636" y="102.278744" style="fill: #c97064"/>
    </g>
    <g clip-path="url(#p01af627258)">
     <use xlink:href="#C5_0_0b61a138b2" x="245.875" y="63.481383" style="fill: #c97064"/>
    </g>
    <g clip-path="url(#p01af627258)">
     <use xlink:href="#C5_0_0b61a138b2" x="339.386364" y="68.247795" style="fill: #c97064"/>
    </g>
    <g clip-path="url(#p01af627258)">
     <use xlink:href="#C5_0_0b61a138b2" x="432.897727" y="123.738046" style="fill: #c97064"/>
    </g>
   </g>
   <g id="PathCollection_7">
    <defs>
     <path id="C6_0_0b61a138b2" d="M 0 2.44949 
C 0.649612 2.44949 1.272706 2.191396 1.732051 1.732051 
C 2.191396 1.272706 2.44949 0.649612 2.44949 -0 
C 2.44949 -0.649612 2.191396 -1.272706 1.732051 -1.732051 
C 1.272706 -2.191396 0.649612 -2.44949 0 -2.44949 
C -0.649612 -2.44949 -1.272706 -2.191396 -1.732051 -1.732051 
C -2.191396 -1.272706 -2.44949 -0.649612 -2.44949 0 
C -2.44949 0.649612 -2.191396 1.272706 -1.732051 1.732051 
C -1.272706 2.191396 -0.649612 2.44949 0 2.44949 
z
"/>
    </defs>
    <g clip-path="url(#p01af627258)">
     <use xlink:href="#C6_0_0b61a138b2" x="58.852273" y="95.113282" style="fill: #ff7c66"/>
    </g>
    <g clip-path="url(#p01af627258)">
     <use xlink:href="#C6_0_0b61a138b2" x="152.363636" y="54.384126" style="fill: #ff7c66"/>
    </g>
    <g clip-path="url(#p01af627258)">
     <use xlink:href="#C6_0_0b61a138b2" x="245.875" y="59.136517" style="fill: #ff7c66"/>
    </g>
    <g clip-path="url(#p01af627258)">
     <use xlink:href="#C6_0_0b61a138b2" x="339.386364" y="91.333248" style="fill: #ff7c66"/>
    </g>
    <g clip-path="url(#p01af627258)">
     <use xlink:href="#C6_0_0b61a138b2" x="432.897727" y="136.581054" style="fill: #ff7c66"/>
    </g>
   </g>
  </g>
 </g>
 <defs>
  <clipPath id="p01af627258">
   <rect x="40.15" y="12.08" width="411.45" height="252.82"/>
  </clipPath>
 </defs>
</svg>
