<?xml version="1.0" encoding="utf-8" standalone="no"?>
<!DOCTYPE svg PUBLIC "-//W3C//DTD SVG 1.1//EN"
  "http://www.w3.org/Graphics/SVG/1.1/DTD/svg11.dtd">
<svg xmlns:xlink="http://www.w3.org/1999/xlink" width="460.8pt" height="288pt" viewBox="0 0 460.8 288" xmlns="http://www.w3.org/2000/svg" version="1.1">
 <metadata>
  <rdf:RDF xmlns:dc="http://purl.org/dc/elements/1.1/" xmlns:cc="http://creativecommons.org/ns#" xmlns:rdf="http://www.w3.org/1999/02/22-rdf-syntax-ns#">
   <cc:Work>
    <dc:type rdf:resource="http://purl.org/dc/dcmitype/StillImage"/>
    <dc:date>2026-09-08T04:43:15.953740</dc:date>
    <dc:format>image/svg+xml</dc:format>
    <dc:creator>
     <cc:Agent>
      <dc:title>Matplotlib v3.10.9, https://matplotlib.org/</dc:title>
     </cc:Agent>
    </dc:creator>
   </cc:Work>
  </rdf:RDF>
 </metadata>
 <defs>
  <style type="text/css">*{stroke-linejoin: round; stroke-linecap: butt}</style>
 </defs>
 <g id="figure_1">
  <g id="patch_1">
   <path d="M 0 288 
L 460.8 288 
L 460.8 0 
L 0 0 
z
" style="fill: #fafbfb"/>
  </g>
  <g id="axes_1">
   <g id="patch_2">
    <path d="M 100.95 268.1 
L 359.85 268.1 
L 359.85 9.2 
L 100.95 9.2 
z
" style="fill: #fafbfb"/>
   </g>
   <g id="matplotlib.axis_1">
    <g id="xtick_1">
     <g id="line2d_1"/>
     <g id="text_1">
      <text style="font-size: 8.4px; font-family: 'Arial', 'Helvetica', 'DejaVu Sans', sans-serif; text-anchor: middle" x="116.179412" y="277.612562" transform="rotate(-0 116.179412 277.612562)">V1</text>
     </g>
    </g>
    <g id="xtick_2">
     <g id="line2d_2"/>
     <g id="text_2">
      <text style="font-size: 8.4px; font-family: 'Arial', 'Helvetica', 'DejaVu Sans', sans-serif; text-anchor: middle" x="141.561765" y="277.612562" transform="rotate(-0 141.561765 277.612562)">V2</text>
     </g>
    </g>
    <g id="xtick_3">
     <g id="line2d_3"/>
     <g id="text_3">
      <text style="font-size: 8.4px; font-family: 'Arial', 'Helvetica', 'DejaVu Sans', sans-serif; text-anchor: middle" x="166.944118" y="277.612562" transform="rotate(-0 166.944118 277.612562)">V3</text>
     </g>
    </g>
    <g id="xtick_4">
     <g id="line2d_4"/>
     <g id="text_4">
      <text style="font-size: 8.4px; font-family: 'Arial', 'Helvetica', 'DejaVu Sans', sans-serif; text-anchor: middle" x="192.326471" y="277.612562" transform="rotate(-0 192.326471 277.612562)">V4</text>
     </g>
    </g>
    <g id="xtick_5">
     <g id="line2d_5"/>
     <g id="text_5">
      <text style="font-size: 8.4px; font-family: 'Arial', 'Helvetica', 'DejaVu Sans', sans-serif; text-anchor: middle" x="217.708824" y="277.612562" transform="rotate(-0 217.708824 277.612562)">V5</text>
     </g>
    </g>
    <g id="xtick_6">
     <g id="line2d_6"/>
     <g id="text_6">
      <text style="font-size: 8.4px; font-family: 'Arial', 'Helvetica', 'DejaVu Sans', sans-serif; text-anchor: middle" x="243.091176" y="277.612562" transform="rotate(-0 243.091176 277.612562)">V6</text>
     </g>
    </g>
    <g id="xtick_7">
     <g id="line2d_7"/>
     <g id="text_7">
      <text style="font-size: 8.4px; font-family: 'Arial', 'Helvetica', 'DejaVu Sans', sans-serif; text-anchor: middle" x="268.473529" y="277.612562" transform="rotate(-0 268.473529 277.612562)">V7</text>
     </g>
    </g>
    <g id="xtick_8">
     <g id="line2d_8"/>
     <g id="text_8">
      <text style="font-size: 8.4px; font-family: 'Arial', 'Helvetica', 'DejaVu Sans', sans-serif; text-anchor: middle" x="293.855882" y="277.612562" transform="rotate(-0 293.855882 277.612562)">V8</text>
     </g>
    </g>
    <g id="xtick_9">
     <g id="line2d_9"/>
     <g id="text_9">
      <text style="font-size: 8.4px; font-family: 'Arial', 'Helvetica', 'DejaVu Sans', sans-serif; text-anchor: middle" x="319.238235" y="277.612562" transform="rotate(-0 319.238235 277.612562)">V9</text>
     </g>
    </g>
    <g id="xtick_10">
     <g id="line2d_10"/>
     <g id="text_10">
      <text style="font-size: 8.4px; font-family: 'Arial', 'Helvetica', 'DejaVu Sans', sans-serif; text-anchor: middle" x="344.620588" y="277.612562" transform="rotate(-0 344.620588 277.612562)">V10</text>
     </g>
    </g>
   </g>
   <g id="matplotlib.axis_2">
    <g id="ytick_1">
     <g id="line2d_11"/>
     <g id="text_11">
      <text style="font-size: 8.4px; font-family: 'Arial', 'Helvetica', 'DejaVu Sans', sans-serif; text-anchor: end" x="97.45" y="27.435693" transform="rotate(-0 97.45 27.435693)">V1</text>
     </g>
    </g>
    <g id="ytick_2">
     <g id="line2d_12"/>
     <g id="text_12">
      <text style="font-size: 8.4px; font-family: 'Arial', 'Helvetica', 'DejaVu Sans', sans-serif; text-anchor: end" x="97.45" y="52.818046" transform="rotate(-0 97.45 52.818046)">V2</text>
     </g>
    </g>
    <g id="ytick_3">
     <g id="line2d_13"/>
     <g id="text_13">
      <text style="font-size: 8.4px; font-family: 'Arial', 'Helvetica', 'DejaVu Sans', sans-serif; text-anchor: end" x="97.45" y="78.200399" transform="rotate(-0 97.45 78.200399)">V3</text>
     </g>
    </g>
    <g id="ytick_4">
     <g id="line2d_14"/>
     <g id="text_14">
      <text style="font-size: 8.4px; font-family: 'Arial', 'Helvetica', 'DejaVu Sans', sans-serif; text-anchor: end" x="97.45" y="103.582752" transform="rotate(-0 97.45 103.582752)">V4</text>
     </g>
    </g>
    <g id="ytick_5">
     <g id="line2d_15"/>
     <g id="text_15">
      <text style="font-size: 8.4px; font-family: 'Arial', 'Helvetica', 'DejaVu Sans', sans-serif; text-anchor: end" x="97.45" y="128.965105" transform="rotate(-0 97.45 128.965105)">V5</text>
     </g>
    </g>
    <g id="ytick_6">
     <g id="line2d_16"/>
     <g id="text_16">
      <text style="font-size: 8.4px; font-family: 'Arial', 'Helvetica', 'DejaVu Sans', sans-serif; text-anchor: end" x="97.45" y="154.347458" transform="rotate(-0 97.45 154.347458)">V6</text>
     </g>
    </g>
    <g id="ytick_7">
     <g id="line2d_17"/>
     <g id="text_17">
      <text style="font-size: 8.4px; font-family: 'Arial', 'Helvetica', 'DejaVu Sans', sans-serif; text-anchor: end" x="97.45" y="179.729811" transform="rotate(-0 97.45 179.729811)">V7</text>
     </g>
    </g>
    <g id="ytick_8">
     <g id="line2d_18"/>
     <g id="text_18">
      <text style="font-size: 8.4px; font-family: 'Arial', 'Helvetica', 'DejaVu Sans', sans-serif; text-anchor: end" x="97.45" y="205.112164" transform="rotate(-0 97.45 205.112164)">V8</text>
     </g>
    </g>
    <g id="ytick_9">
     <g id="line2d_19"/>
     <g id="text_19">
      <text style="font-size: 8.4px; font-family: 'Arial', 'Helvetica', 'DejaVu Sans', sans-serif; text-anchor: end" x="97.45" y="230.494517" transform="rotate(-0 97.45 230.494517)">V9</text>
     </g>
    </g>
    <g id="ytick_10">
     <g id="line2d_20"/>
     <g id="text_20">
      <text style="font-size: 8.4px; font-family: 'Arial', 'Helvetica', 'DejaVu Sans', sans-serif; text-anchor: end" x="97.45" y="255.876869" transform="rotate(-0 97.45 255.876869)">V10</text>
     </g>
    </g>
   </g>
   <g id="PathCollection_1">
    <path d="M 116.179412 35.199741 
C 119.035737 35.199741 121.775458 34.064912 123.795185 32.045185 
C 125.814912 30.025458 126.949741 27.285737 126.949741 24.429412 
C 126.949741 21.573087 125.814912 18.833365 123.795185 16.813639 
C 121.775458 14.793912 119.035737 13.659082 116.179412 13.659082 
C 113.323087 13.659082 110.583365 14.793912 108.563639 16.813639 
C 106.543912 18.833365 105.409082 21.573087 105.409082 24.429412 
C 105.409082 27.285737 106.543912 30.025458 108.563639 32.045185 
C 110.583365 34.064912 113.323087 35.199741 116.179412 35.199741 
z
" clip-path="url(#pbe1bfd3c72)" style="fill: #9fb8ca; fill-opacity: 0.92"/>
   </g>
   <g id="PathCollection_2">
    <path d="M 141.561765 28.356154 
C 142.603149 28.356154 143.602021 27.942408 144.338391 27.206038 
C 145.07476 26.469668 145.488507 25.470796 145.488507 24.429412 
C 145.488507 23.388028 145.07476 22.389156 144.338391 21.652786 
C 143.602021 20.916416 142.603149 20.50267 141.561765 20.50267 
C 140.520381 20.50267 139.521509 20.916416 138.785139 21.652786 
C 138.048769 22.389156 137.635023 23.388028 137.635023 24.429412 
C 137.635023 25.470796 138.048769 26.469668 138.785139 27.206038 
C 139.521509 27.942408 140.520381 28.356154 141.561765 28.356154 
z
" clip-path="url(#pbe1bfd3c72)" style="fill: #9fb8ca; fill-opacity: 0.283769"/>
   </g>
   <g id="PathCollection_3">
    <path d="M 166.944118 30.789643 
C 168.630871 30.789643 170.248766 30.119489 171.44148 28.926774 
C 172.634194 27.73406 173.304348 26.116165 173.304348 24.429412 
C 173.304348 22.742659 172.634194 21.124764 171.44148 19.932049 
C 170.248766 18.739335 168.630871 18.069181 166.944118 18.069181 
C 165.257365 18.069181 163.63947 18.739335 162.446755 19.932049 
C 161.254041 21.124764 160.583887 22.742659 160.583887 24.429412 
C 160.583887 26.116165 161.254041 27.73406 162.446755 28.926774 
C 163.63947 30.119489 165.257365 30.789643 166.944118 30.789643 
z
" clip-path="url(#pbe1bfd3c72)" style="fill: #9fb8ca; fill-opacity: 0.442118"/>
   </g>
   <g id="PathCollection_4">
    <path d="M 192.326471 28.834133 
C 193.494616 28.834133 194.615075 28.370024 195.441079 27.54402 
C 196.267083 26.718016 196.731192 25.597558 196.731192 24.429412 
C 196.731192 23.261266 196.267083 22.140807 195.441079 21.314803 
C 194.615075 20.4888 193.494616 20.02469 192.326471 20.02469 
C 191.158325 20.02469 190.037866 20.4888 189.211862 21.314803 
C 188.385859 22.140807 187.921749 23.261266 187.921749 24.429412 
C 187.921749 25.597558 188.385859 26.718016 189.211862 27.54402 
C 190.037866 28.370024 191.158325 28.834133 192.326471 28.834133 
z
" clip-path="url(#pbe1bfd3c72)" style="fill: #9fb8ca; fill-opacity: 0.308959"/>
   </g>
   <g id="PathCollection_5">
    <path d="M 217.708824 28.540363 
C 218.79906 28.540363 219.844791 28.107207 220.615705 27.336293 
C 221.386619 26.565379 221.819774 25.519649 221.819774 24.429412 
C 221.819774 23.339175 221.386619 22.293444 220.615705 21.522531 
C 219.844791 20.751617 218.79906 20.318461 217.708824 20.318461 
C 216.618587 20.318461 215.572856 20.751617 214.801942 21.522531 
C 214.031028 22.293444 213.597873 23.339175 213.597873 24.429412 
C 213.597873 25.519649 214.031028 26.565379 214.801942 27.336293 
C 215.572856 28.107207 216.618587 28.540363 217.708824 28.540363 
z
" clip-path="url(#pbe1bfd3c72)" style="fill: #9fb8ca; fill-opacity: 0.293134"/>
   </g>
   <g id="PathCollection_6">
    <path d="M 243.091176 31.645636 
C 245.004941 31.645636 246.840581 30.885289 248.193817 29.532053 
C 249.547054 28.178816 250.3074 26.343177 250.3074 24.429412 
C 250.3074 22.515647 249.547054 20.680007 248.193817 19.326771 
C 246.840581 17.973535 245.004941 17.213188 243.091176 17.213188 
C 241.177412 17.213188 239.341772 17.973535 237.988536 19.326771 
C 236.635299 20.680007 235.874953 22.515647 235.874953 24.429412 
C 235.874953 26.343177 236.635299 28.178816 237.988536 29.532053 
C 239.341772 30.885289 241.177412 31.645636 243.091176 31.645636 
z
" clip-path="url(#pbe1bfd3c72)" style="fill: #9fb8ca; fill-opacity: 0.51563"/>
   </g>
   <g id="PathCollection_7">
    <path d="M 268.473529 30.184089 
C 269.999688 30.184089 271.463544 29.57774 272.542701 28.498583 
C 273.621858 27.419426 274.228207 25.95557 274.228207 24.429412 
C 274.228207 22.903253 273.621858 21.439397 272.542701 20.36024 
C 271.463544 19.281083 269.999688 18.674734 268.473529 18.674734 
C 266.947371 18.674734 265.483515 19.281083 264.404358 20.36024 
C 263.325201 21.439397 262.718852 22.903253 262.718852 24.429412 
C 262.718852 25.95557 263.325201 27.419426 264.404358 28.498583 
C 265.483515 29.57774 266.947371 30.184089 268.473529 30.184089 
z
" clip-path="url(#pbe1bfd3c72)" style="fill: #9fb8ca; fill-opacity: 0.395712"/>
   </g>
   <g id="PathCollection_8">
    <path d="M 293.855882 28.907906 
C 295.043593 28.907906 296.182818 28.436024 297.022656 27.596186 
C 297.862495 26.756347 298.334377 25.617122 298.334377 24.429412 
C 298.334377 23.241701 297.862495 22.102476 297.022656 21.262638 
C 296.182818 20.4228 295.043593 19.950917 293.855882 19.950917 
C 292.668172 19.950917 291.528947 20.4228 290.689108 21.262638 
C 289.84927 22.102476 289.377388 23.241701 289.377388 24.429412 
C 289.377388 25.617122 289.84927 26.756347 290.689108 27.596186 
C 291.528947 28.436024 292.668172 28.907906 293.855882 28.907906 
z
" clip-path="url(#pbe1bfd3c72)" style="fill: #9fb8ca; fill-opacity: 0.313104"/>
   </g>
   <g id="PathCollection_9">
    <path d="M 319.238235 28.854873 
C 320.411881 28.854873 321.537616 28.388578 322.367509 27.558685 
C 323.197402 26.728792 323.663696 25.603058 323.663696 24.429412 
C 323.663696 23.255766 323.197402 22.130031 322.367509 21.300138 
C 321.537616 20.470245 320.411881 20.003951 319.238235 20.003951 
C 318.064589 20.003951 316.938855 20.470245 316.108962 21.300138 
C 315.279069 22.130031 314.812775 23.255766 314.812775 24.429412 
C 314.812775 25.603058 315.279069 26.728792 316.108962 27.558685 
C 316.938855 28.388578 318.064589 28.854873 319.238235 28.854873 
z
" clip-path="url(#pbe1bfd3c72)" style="fill: #9fb8ca; fill-opacity: 0.310117"/>
   </g>
   <g id="PathCollection_10">
    <path d="M 344.620588 29.107255 
C 345.861167 29.107255 347.051101 28.614368 347.928323 27.737146 
C 348.805544 26.859925 349.298431 25.66999 349.298431 24.429412 
C 349.298431 23.188833 348.805544 21.998899 347.928323 21.121677 
C 347.051101 20.244456 345.861167 19.751569 344.620588 19.751569 
C 343.38001 19.751569 342.190075 20.244456 341.312854 21.121677 
C 340.435632 21.998899 339.942745 23.188833 339.942745 24.429412 
C 339.942745 25.66999 340.435632 26.859925 341.312854 27.737146 
C 342.190075 28.614368 343.38001 29.107255 344.620588 29.107255 
z
" clip-path="url(#pbe1bfd3c72)" style="fill: #9fb8ca; fill-opacity: 0.32465"/>
   </g>
   <g id="PathCollection_11">
    <path d="M 116.179412 53.738507 
C 117.220796 53.738507 118.219668 53.32476 118.956038 52.588391 
C 119.692408 51.852021 120.106154 50.853149 120.106154 49.811765 
C 120.106154 48.770381 119.692408 47.771509 118.956038 47.035139 
C 118.219668 46.298769 117.220796 45.885023 116.179412 45.885023 
C 115.138028 45.885023 114.139156 46.298769 113.402786 47.035139 
C 112.666416 47.771509 112.25267 48.770381 112.25267 49.811765 
C 112.25267 50.853149 112.666416 51.852021 113.402786 52.588391 
C 114.139156 53.32476 115.138028 53.738507 116.179412 53.738507 
z
" clip-path="url(#pbe1bfd3c72)" style="fill: #b0c5d2; fill-opacity: 0.283769"/>
   </g>
   <g id="PathCollection_12">
    <path d="M 141.561765 60.582094 
C 144.41809 60.582094 147.157811 59.447264 149.177538 57.427538 
C 151.197264 55.407811 152.332094 52.66809 152.332094 49.811765 
C 152.332094 46.95544 151.197264 44.215718 149.177538 42.195992 
C 147.157811 40.176265 144.41809 39.041435 141.561765 39.041435 
C 138.70544 39.041435 135.965718 40.176265 133.945992 42.195992 
C 131.926265 44.215718 130.791435 46.95544 130.791435 49.811765 
C 130.791435 52.66809 131.926265 55.407811 133.945992 57.427538 
C 135.965718 59.447264 138.70544 60.582094 141.561765 60.582094 
z
" clip-path="url(#pbe1bfd3c72)" style="fill: #b0c5d2; fill-opacity: 0.92"/>
   </g>
   <g id="PathCollection_13">
    <path d="M 166.944118 56.49246 
C 168.715859 56.49246 170.415272 55.788539 171.668082 54.535729 
C 172.920892 53.282919 173.624813 51.583506 173.624813 49.811765 
C 173.624813 48.040024 172.920892 46.34061 171.668082 45.0878 
C 170.415272 43.83499 168.715859 43.13107 166.944118 43.13107 
C 165.172377 43.13107 163.472963 43.83499 162.220153 45.0878 
C 160.967343 46.34061 160.263423 48.040024 160.263423 49.811765 
C 160.263423 51.583506 160.967343 53.282919 162.220153 54.535729 
C 163.472963 55.788539 165.172377 56.49246 166.944118 56.49246 
z
" clip-path="url(#pbe1bfd3c72)" style="fill: #b0c5d2; fill-opacity: 0.468554"/>
   </g>
   <g id="PathCollection_14">
    <path d="M 192.326471 59.130544 
C 194.79784 59.130544 197.168321 58.148659 198.915843 56.401137 
C 200.663365 54.653615 201.64525 52.283134 201.64525 49.811765 
C 201.64525 47.340396 200.663365 44.969915 198.915843 43.222393 
C 197.168321 41.474871 194.79784 40.492985 192.326471 40.492985 
C 189.855101 40.492985 187.48462 41.474871 185.737099 43.222393 
C 183.989577 44.969915 183.007691 47.340396 183.007691 49.811765 
C 183.007691 52.283134 183.989577 54.653615 185.737099 56.401137 
C 187.48462 58.148659 189.855101 59.130544 192.326471 59.130544 
z
" clip-path="url(#pbe1bfd3c72)" style="fill: #b0c5d2; fill-opacity: 0.735544"/>
   </g>
   <g id="PathCollection_15">
    <path d="M 217.708824 57.515907 
C 219.751986 57.515907 221.711741 56.70415 223.156474 55.259416 
C 224.601208 53.814682 225.412965 51.854927 225.412965 49.811765 
C 225.412965 47.768602 224.601208 45.808848 223.156474 44.364114 
C 221.711741 42.91938 219.751986 42.107623 217.708824 42.107623 
C 215.665661 42.107623 213.705907 42.91938 212.261173 44.364114 
C 210.816439 45.808848 210.004682 47.768602 210.004682 49.811765 
C 210.004682 51.854927 210.816439 53.814682 212.261173 55.259416 
C 213.705907 56.70415 215.665661 57.515907 217.708824 57.515907 
z
" clip-path="url(#pbe1bfd3c72)" style="fill: #b0c5d2; fill-opacity: 0.56168"/>
   </g>
   <g id="PathCollection_16">
    <path d="M 243.091176 57.214732 
C 245.054466 57.214732 246.937609 56.434709 248.325865 55.046453 
C 249.71412 53.658197 250.494144 51.775055 250.494144 49.811765 
C 250.494144 47.848475 249.71412 45.965332 248.325865 44.577076 
C 246.937609 43.188821 245.054466 42.408797 243.091176 42.408797 
C 241.127887 42.408797 239.244744 43.188821 237.856488 44.577076 
C 236.468233 45.965332 235.688209 47.848475 235.688209 49.811765 
C 235.688209 51.775055 236.468233 53.658197 237.856488 55.046453 
C 239.244744 56.434709 241.127887 57.214732 243.091176 57.214732 
z
" clip-path="url(#pbe1bfd3c72)" style="fill: #b0c5d2; fill-opacity: 0.532899"/>
   </g>
   <g id="PathCollection_17">
    <path d="M 268.473529 53.214841 
C 269.376036 53.214841 270.2417 52.856272 270.879868 52.218103 
C 271.518036 51.579935 271.876606 50.714271 271.876606 49.811765 
C 271.876606 48.909258 271.518036 48.043595 270.879868 47.405426 
C 270.2417 46.767258 269.376036 46.408688 268.473529 46.408688 
C 267.571023 46.408688 266.705359 46.767258 266.067191 47.405426 
C 265.429022 48.043595 265.070453 48.909258 265.070453 49.811765 
C 265.070453 50.714271 265.429022 51.579935 266.067191 52.218103 
C 266.705359 52.856272 267.571023 53.214841 268.473529 53.214841 
z
" clip-path="url(#pbe1bfd3c72)" style="fill: #b0c5d2; fill-opacity: 0.259489"/>
   </g>
   <g id="PathCollection_18">
    <path d="M 293.855882 56.778307 
C 295.703431 56.778307 297.475557 56.044268 298.781972 54.737854 
C 300.088386 53.43144 300.822425 51.659313 300.822425 49.811765 
C 300.822425 47.964216 300.088386 46.19209 298.781972 44.885675 
C 297.475557 43.579261 295.703431 42.845222 293.855882 42.845222 
C 292.008334 42.845222 290.236207 43.579261 288.929793 44.885675 
C 287.623379 46.19209 286.88934 47.964216 286.88934 49.811765 
C 286.88934 51.659313 287.623379 53.43144 288.929793 54.737854 
C 290.236207 56.044268 292.008334 56.778307 293.855882 56.778307 
z
" clip-path="url(#pbe1bfd3c72)" style="fill: #b0c5d2; fill-opacity: 0.49323"/>
   </g>
   <g id="PathCollection_19">
    <path d="M 319.238235 57.426424 
C 321.257666 57.426424 323.194659 56.624095 324.622612 55.196142 
C 326.050566 53.768188 326.852894 51.831196 326.852894 49.811765 
C 326.852894 47.792334 326.050566 45.855341 324.622612 44.427388 
C 323.194659 42.999434 321.257666 42.197106 319.238235 42.197106 
C 317.218804 42.197106 315.281812 42.999434 313.853858 44.427388 
C 312.425905 45.855341 311.623576 47.792334 311.623576 49.811765 
C 311.623576 51.831196 312.425905 53.768188 313.853858 55.196142 
C 315.281812 56.624095 317.218804 57.426424 319.238235 57.426424 
z
" clip-path="url(#pbe1bfd3c72)" style="fill: #b0c5d2; fill-opacity: 0.553009"/>
   </g>
   <g id="PathCollection_20">
    <path d="M 344.620588 56.428618 
C 346.375398 56.428618 348.058572 55.731425 349.29941 54.490587 
C 350.540248 53.249749 351.237442 51.566575 351.237442 49.811765 
C 351.237442 48.056955 350.540248 46.373781 349.29941 45.132943 
C 348.058572 43.892105 346.375398 43.194911 344.620588 43.194911 
C 342.865778 43.194911 341.182604 43.892105 339.941766 45.132943 
C 338.700928 46.373781 338.003735 48.056955 338.003735 49.811765 
C 338.003735 51.566575 338.700928 53.249749 339.941766 54.490587 
C 341.182604 55.731425 342.865778 56.428618 344.620588 56.428618 
z
" clip-path="url(#pbe1bfd3c72)" style="fill: #b0c5d2; fill-opacity: 0.463184"/>
   </g>
   <g id="PathCollection_21">
    <path d="M 116.179412 81.554348 
C 117.866165 81.554348 119.48406 80.884194 120.676774 79.69148 
C 121.869489 78.498766 122.539643 76.880871 122.539643 75.194118 
C 122.539643 73.507365 121.869489 71.88947 120.676774 70.696755 
C 119.48406 69.504041 117.866165 68.833887 116.179412 68.833887 
C 114.492659 68.833887 112.874764 69.504041 111.682049 70.696755 
C 110.489335 71.88947 109.819181 73.507365 109.819181 75.194118 
C 109.819181 76.880871 110.489335 78.498766 111.682049 79.69148 
C 112.874764 80.884194 114.492659 81.554348 116.179412 81.554348 
z
" clip-path="url(#pbe1bfd3c72)" style="fill: #c1d2de; fill-opacity: 0.442118"/>
   </g>
   <g id="PathCollection_22">
    <path d="M 141.561765 81.874813 
C 143.333506 81.874813 145.032919 81.170892 146.285729 79.918082 
C 147.538539 78.665272 148.24246 76.965859 148.24246 75.194118 
C 148.24246 73.422377 147.538539 71.722963 146.285729 70.470153 
C 145.032919 69.217343 143.333506 68.513423 141.561765 68.513423 
C 139.790024 68.513423 138.09061 69.217343 136.8378 70.470153 
C 135.58499 71.722963 134.88107 73.422377 134.88107 75.194118 
C 134.88107 76.965859 135.58499 78.665272 136.8378 79.918082 
C 138.09061 81.170892 139.790024 81.874813 141.561765 81.874813 
z
" clip-path="url(#pbe1bfd3c72)" style="fill: #c1d2de; fill-opacity: 0.468554"/>
   </g>
   <g id="PathCollection_23">
    <path d="M 166.944118 85.964447 
C 169.800442 85.964447 172.540164 84.829617 174.559891 82.809891 
C 176.579617 80.790164 177.714447 78.050442 177.714447 75.194118 
C 177.714447 72.337793 176.579617 69.598071 174.559891 67.578345 
C 172.540164 65.558618 169.800442 64.423788 166.944118 64.423788 
C 164.087793 64.423788 161.348071 65.558618 159.328345 67.578345 
C 157.308618 69.598071 156.173788 72.337793 156.173788 75.194118 
C 156.173788 78.050442 157.308618 80.790164 159.328345 82.809891 
C 161.348071 84.829617 164.087793 85.964447 166.944118 85.964447 
z
" clip-path="url(#pbe1bfd3c72)" style="fill: #c1d2de; fill-opacity: 0.92"/>
   </g>
   <g id="PathCollection_24">
    <path d="M 192.326471 83.858129 
C 194.624193 83.858129 196.828117 82.945234 198.452852 81.320499 
C 200.077587 79.695764 200.990482 77.49184 200.990482 75.194118 
C 200.990482 72.896395 200.077587 70.692472 198.452852 69.067736 
C 196.828117 67.443001 194.624193 66.530106 192.326471 66.530106 
C 190.028748 66.530106 187.824825 67.443001 186.200089 69.067736 
C 184.575354 70.692472 183.662459 72.896395 183.662459 75.194118 
C 183.662459 77.49184 184.575354 79.695764 186.200089 81.320499 
C 187.824825 82.945234 190.028748 83.858129 192.326471 83.858129 
z
" clip-path="url(#pbe1bfd3c72)" style="fill: #c1d2de; fill-opacity: 0.661063"/>
   </g>
   <g id="PathCollection_25">
    <path d="M 217.708824 81.460541 
C 219.370698 81.460541 220.964731 80.800271 222.139854 79.625148 
C 223.314977 78.450025 223.975247 76.855993 223.975247 75.194118 
C 223.975247 73.532243 223.314977 71.93821 222.139854 70.763087 
C 220.964731 69.587964 219.370698 68.927694 217.708824 68.927694 
C 216.046949 68.927694 214.452916 69.587964 213.277793 70.763087 
C 212.10267 71.93821 211.4424 73.532243 211.4424 75.194118 
C 211.4424 76.855993 212.10267 78.450025 213.277793 79.625148 
C 214.452916 80.800271 216.046949 81.460541 217.708824 81.460541 
z
" clip-path="url(#pbe1bfd3c72)" style="fill: #c1d2de; fill-opacity: 0.434626"/>
   </g>
   <g id="PathCollection_26">
    <path d="M 243.091176 82.928193 
C 245.142277 82.928193 247.109646 82.113282 248.559993 80.662935 
C 250.010341 79.212587 250.825252 77.245218 250.825252 75.194118 
C 250.825252 73.143017 250.010341 71.175648 248.559993 69.725301 
C 247.109646 68.274953 245.142277 67.460043 243.091176 67.460043 
C 241.040076 67.460043 239.072707 68.274953 237.62236 69.725301 
C 236.172012 71.175648 235.357101 73.143017 235.357101 75.194118 
C 235.357101 77.245218 236.172012 79.212587 237.62236 80.662935 
C 239.072707 82.113282 241.040076 82.928193 243.091176 82.928193 
z
" clip-path="url(#pbe1bfd3c72)" style="fill: #c1d2de; fill-opacity: 0.564603"/>
   </g>
   <g id="PathCollection_27">
    <path d="M 268.473529 82.117014 
C 270.309503 82.117014 272.070527 81.387574 273.368757 80.089345 
C 274.666986 78.791115 275.396426 77.030091 275.396426 75.194118 
C 275.396426 73.358144 274.666986 71.59712 273.368757 70.29889 
C 272.070527 69.000661 270.309503 68.271221 268.473529 68.271221 
C 266.637556 68.271221 264.876532 69.000661 263.578302 70.29889 
C 262.280073 71.59712 261.550633 73.358144 261.550633 75.194118 
C 261.550633 77.030091 262.280073 78.791115 263.578302 80.089345 
C 264.876532 81.387574 266.637556 82.117014 268.473529 82.117014 
z
" clip-path="url(#pbe1bfd3c72)" style="fill: #c1d2de; fill-opacity: 0.489396"/>
   </g>
   <g id="PathCollection_28">
    <path d="M 293.855882 81.15703 
C 295.437265 81.15703 296.954091 80.52874 298.072298 79.410533 
C 299.190504 78.292327 299.818794 76.7755 299.818794 75.194118 
C 299.818794 73.612735 299.190504 72.095909 298.072298 70.977702 
C 296.954091 69.859496 295.437265 69.231206 293.855882 69.231206 
C 292.2745 69.231206 290.757673 69.859496 289.639467 70.977702 
C 288.52126 72.095909 287.89297 73.612735 287.89297 75.194118 
C 287.89297 76.7755 288.52126 78.292327 289.639467 79.410533 
C 290.757673 80.52874 292.2745 81.15703 293.855882 81.15703 
z
" clip-path="url(#pbe1bfd3c72)" style="fill: #c1d2de; fill-opacity: 0.411147"/>
   </g>
   <g id="PathCollection_29">
    <path d="M 319.238235 79.898548 
C 320.485865 79.898548 321.682563 79.402859 322.56477 78.520652 
C 323.446977 77.638445 323.942666 76.441747 323.942666 75.194118 
C 323.942666 73.946488 323.446977 72.74979 322.56477 71.867583 
C 321.682563 70.985376 320.485865 70.489687 319.238235 70.489687 
C 317.990606 70.489687 316.793908 70.985376 315.911701 71.867583 
C 315.029493 72.74979 314.533805 73.946488 314.533805 75.194118 
C 314.533805 76.441747 315.029493 77.638445 315.911701 78.520652 
C 316.793908 79.402859 317.990606 79.898548 319.238235 79.898548 
z
" clip-path="url(#pbe1bfd3c72)" style="fill: #c1d2de; fill-opacity: 0.326228"/>
   </g>
   <g id="PathCollection_30">
    <path d="M 344.620588 81.982119 
C 346.420787 81.982119 348.147497 81.266892 349.42043 79.99396 
C 350.693363 78.721027 351.40859 76.994317 351.40859 75.194118 
C 351.40859 73.393919 350.693363 71.667209 349.42043 70.394276 
C 348.147497 69.121343 346.420787 68.406116 344.620588 68.406116 
C 342.820389 68.406116 341.093679 69.121343 339.820746 70.394276 
C 338.547813 71.667209 337.832587 73.393919 337.832587 75.194118 
C 337.832587 76.994317 338.547813 78.721027 339.820746 79.99396 
C 341.093679 81.266892 342.820389 81.982119 344.620588 81.982119 
z
" clip-path="url(#pbe1bfd3c72)" style="fill: #c1d2de; fill-opacity: 0.477696"/>
   </g>
   <g id="PathCollection_31">
    <path d="M 116.179412 104.981192 
C 117.347558 104.981192 118.468016 104.517083 119.29402 103.691079 
C 120.120024 102.865075 120.584133 101.744616 120.584133 100.576471 
C 120.584133 99.408325 120.120024 98.287866 119.29402 97.461862 
C 118.468016 96.635859 117.347558 96.171749 116.179412 96.171749 
C 115.011266 96.171749 113.890807 96.635859 113.064803 97.461862 
C 112.2388 98.287866 111.77469 99.408325 111.77469 100.576471 
C 111.77469 101.744616 112.2388 102.865075 113.064803 103.691079 
C 113.890807 104.517083 115.011266 104.981192 116.179412 104.981192 
z
" clip-path="url(#pbe1bfd3c72)" style="fill: #d6e0e8; fill-opacity: 0.308959"/>
   </g>
   <g id="PathCollection_32">
    <path d="M 141.561765 109.89525 
C 144.033134 109.89525 146.403615 108.913365 148.151137 107.165843 
C 149.898659 105.418321 150.880544 103.04784 150.880544 100.576471 
C 150.880544 98.105101 149.898659 95.73462 148.151137 93.987099 
C 146.403615 92.239577 144.033134 91.257691 141.561765 91.257691 
C 139.090396 91.257691 136.719915 92.239577 134.972393 93.987099 
C 133.224871 95.73462 132.242985 98.105101 132.242985 100.576471 
C 132.242985 103.04784 133.224871 105.418321 134.972393 107.165843 
C 136.719915 108.913365 139.090396 109.89525 141.561765 109.89525 
z
" clip-path="url(#pbe1bfd3c72)" style="fill: #d6e0e8; fill-opacity: 0.735544"/>
   </g>
   <g id="PathCollection_33">
    <path d="M 166.944118 109.240482 
C 169.24184 109.240482 171.445764 108.327587 173.070499 106.702852 
C 174.695234 105.078117 175.608129 102.874193 175.608129 100.576471 
C 175.608129 98.278748 174.695234 96.074825 173.070499 94.450089 
C 171.445764 92.825354 169.24184 91.912459 166.944118 91.912459 
C 164.646395 91.912459 162.442472 92.825354 160.817736 94.450089 
C 159.193001 96.074825 158.280106 98.278748 158.280106 100.576471 
C 158.280106 102.874193 159.193001 105.078117 160.817736 106.702852 
C 162.442472 108.327587 164.646395 109.240482 166.944118 109.240482 
z
" clip-path="url(#pbe1bfd3c72)" style="fill: #d6e0e8; fill-opacity: 0.661063"/>
   </g>
   <g id="PathCollection_34">
    <path d="M 192.326471 111.3468 
C 195.182795 111.3468 197.922517 110.21197 199.942244 108.192244 
C 201.96197 106.172517 203.0968 103.432795 203.0968 100.576471 
C 203.0968 97.720146 201.96197 94.980424 199.942244 92.960697 
C 197.922517 90.940971 195.182795 89.806141 192.326471 89.806141 
C 189.470146 89.806141 186.730424 90.940971 184.710697 92.960697 
C 182.690971 94.980424 181.556141 97.720146 181.556141 100.576471 
C 181.556141 103.432795 182.690971 106.172517 184.710697 108.192244 
C 186.730424 110.21197 189.470146 111.3468 192.326471 111.3468 
z
" clip-path="url(#pbe1bfd3c72)" style="fill: #d6e0e8; fill-opacity: 0.92"/>
   </g>
   <g id="PathCollection_35">
    <path d="M 217.708824 106.806051 
C 219.360927 106.806051 220.945588 106.149663 222.113802 104.981449 
C 223.282016 103.813235 223.938404 102.228575 223.938404 100.576471 
C 223.938404 98.924367 223.282016 97.339706 222.113802 96.171492 
C 220.945588 95.003278 219.360927 94.346891 217.708824 94.346891 
C 216.05672 94.346891 214.472059 95.003278 213.303845 96.171492 
C 212.135631 97.339706 211.479243 98.924367 211.479243 100.576471 
C 211.479243 102.228575 212.135631 103.813235 213.303845 104.981449 
C 214.472059 106.149663 216.05672 106.806051 217.708824 106.806051 
z
" clip-path="url(#pbe1bfd3c72)" style="fill: #d6e0e8; fill-opacity: 0.431714"/>
   </g>
   <g id="PathCollection_36">
    <path d="M 243.091176 106.881832 
C 244.763378 106.881832 246.367315 106.217459 247.54974 105.035034 
C 248.732165 103.852609 249.396538 102.248672 249.396538 100.576471 
C 249.396538 98.904269 248.732165 97.300332 247.54974 96.117907 
C 246.367315 94.935482 244.763378 94.271109 243.091176 94.271109 
C 241.418975 94.271109 239.815038 94.935482 238.632613 96.117907 
C 237.450188 97.300332 236.785815 98.904269 236.785815 100.576471 
C 236.785815 102.248672 237.450188 103.852609 238.632613 105.035034 
C 239.815038 106.217459 241.418975 106.881832 243.091176 106.881832 
z
" clip-path="url(#pbe1bfd3c72)" style="fill: #d6e0e8; fill-opacity: 0.437722"/>
   </g>
   <g id="PathCollection_37">
    <path d="M 268.473529 104.279839 
C 269.455674 104.279839 270.397725 103.889629 271.092206 103.195148 
C 271.786688 102.500666 272.176898 101.558615 272.176898 100.576471 
C 272.176898 99.594326 271.786688 98.652275 271.092206 97.957794 
C 270.397725 97.263312 269.455674 96.873102 268.473529 96.873102 
C 267.491385 96.873102 266.549334 97.263312 265.854852 97.957794 
C 265.160371 98.652275 264.770161 99.594326 264.770161 100.576471 
C 264.770161 101.558615 265.160371 102.500666 265.854852 103.195148 
C 266.549334 103.889629 267.491385 104.279839 268.473529 104.279839 
z
" clip-path="url(#pbe1bfd3c72)" style="fill: #d6e0e8; fill-opacity: 0.272988"/>
   </g>
   <g id="PathCollection_38">
    <path d="M 293.855882 106.123335 
C 295.326928 106.123335 296.737921 105.538882 297.778108 104.498696 
C 298.818294 103.45851 299.402746 102.047516 299.402746 100.576471 
C 299.402746 99.105425 298.818294 97.694432 297.778108 96.654245 
C 296.737921 95.614059 295.326928 95.029606 293.855882 95.029606 
C 292.384837 95.029606 290.973843 95.614059 289.933657 96.654245 
C 288.893471 97.694432 288.309018 99.105425 288.309018 100.576471 
C 288.309018 102.047516 288.893471 103.45851 289.933657 104.498696 
C 290.973843 105.538882 292.384837 106.123335 293.855882 106.123335 
z
" clip-path="url(#pbe1bfd3c72)" style="fill: #d6e0e8; fill-opacity: 0.380856"/>
   </g>
   <g id="PathCollection_39">
    <path d="M 319.238235 104.159995 
C 320.188597 104.159995 321.100163 103.782413 321.77217 103.110405 
C 322.444177 102.438398 322.82176 101.526832 322.82176 100.576471 
C 322.82176 99.626109 322.444177 98.714543 321.77217 98.042536 
C 321.100163 97.370529 320.188597 96.992946 319.238235 96.992946 
C 318.287873 96.992946 317.376308 97.370529 316.704301 98.042536 
C 316.032293 98.714543 315.65471 99.626109 315.65471 100.576471 
C 315.65471 101.526832 316.032293 102.438398 316.704301 103.110405 
C 317.376308 103.782413 318.287873 104.159995 319.238235 104.159995 
z
" clip-path="url(#pbe1bfd3c72)" style="fill: #d6e0e8; fill-opacity: 0.267463"/>
   </g>
   <g id="PathCollection_40">
    <path d="M 344.620588 108.386177 
C 346.691747 108.386177 348.678355 107.563297 350.142885 106.098767 
C 351.607415 104.634237 352.430295 102.647629 352.430295 100.576471 
C 352.430295 98.505312 351.607415 96.518704 350.142885 95.054174 
C 348.678355 93.589644 346.691747 92.766764 344.620588 92.766764 
C 342.54943 92.766764 340.562822 93.589644 339.098292 95.054174 
C 337.633762 96.518704 336.810882 98.505312 336.810882 100.576471 
C 336.810882 102.647629 337.633762 104.634237 339.098292 106.098767 
C 340.562822 107.563297 342.54943 108.386177 344.620588 108.386177 
z
" clip-path="url(#pbe1bfd3c72)" style="fill: #d6e0e8; fill-opacity: 0.572039"/>
   </g>
   <g id="PathCollection_41">
    <path d="M 116.179412 130.069774 
C 117.269649 130.069774 118.315379 129.636619 119.086293 128.865705 
C 119.857207 128.094791 120.290363 127.04906 120.290363 125.958824 
C 120.290363 124.868587 119.857207 123.822856 119.086293 123.051942 
C 118.315379 122.281028 117.269649 121.847873 116.179412 121.847873 
C 115.089175 121.847873 114.043444 122.281028 113.272531 123.051942 
C 112.501617 123.822856 112.068461 124.868587 112.068461 125.958824 
C 112.068461 127.04906 112.501617 128.094791 113.272531 128.865705 
C 114.043444 129.636619 115.089175 130.069774 116.179412 130.069774 
z
" clip-path="url(#pbe1bfd3c72)" style="fill: #e6ecf1; fill-opacity: 0.293134"/>
   </g>
   <g id="PathCollection_42">
    <path d="M 141.561765 133.662965 
C 143.604927 133.662965 145.564682 132.851208 147.009416 131.406474 
C 148.45415 129.961741 149.265907 128.001986 149.265907 125.958824 
C 149.265907 123.915661 148.45415 121.955907 147.009416 120.511173 
C 145.564682 119.066439 143.604927 118.254682 141.561765 118.254682 
C 139.518602 118.254682 137.558848 119.066439 136.114114 120.511173 
C 134.66938 121.955907 133.857623 123.915661 133.857623 125.958824 
C 133.857623 128.001986 134.66938 129.961741 136.114114 131.406474 
C 137.558848 132.851208 139.518602 133.662965 141.561765 133.662965 
z
" clip-path="url(#pbe1bfd3c72)" style="fill: #e6ecf1; fill-opacity: 0.56168"/>
   </g>
   <g id="PathCollection_43">
    <path d="M 166.944118 132.225247 
C 168.605993 132.225247 170.200025 131.564977 171.375148 130.389854 
C 172.550271 129.214731 173.210541 127.620698 173.210541 125.958824 
C 173.210541 124.296949 172.550271 122.702916 171.375148 121.527793 
C 170.200025 120.35267 168.605993 119.6924 166.944118 119.6924 
C 165.282243 119.6924 163.68821 120.35267 162.513087 121.527793 
C 161.337964 122.702916 160.677694 124.296949 160.677694 125.958824 
C 160.677694 127.620698 161.337964 129.214731 162.513087 130.389854 
C 163.68821 131.564977 165.282243 132.225247 166.944118 132.225247 
z
" clip-path="url(#pbe1bfd3c72)" style="fill: #e6ecf1; fill-opacity: 0.434626"/>
   </g>
   <g id="PathCollection_44">
    <path d="M 192.326471 132.188404 
C 193.978575 132.188404 195.563235 131.532016 196.731449 130.363802 
C 197.899663 129.195588 198.556051 127.610927 198.556051 125.958824 
C 198.556051 124.30672 197.899663 122.722059 196.731449 121.553845 
C 195.563235 120.385631 193.978575 119.729243 192.326471 119.729243 
C 190.674367 119.729243 189.089706 120.385631 187.921492 121.553845 
C 186.753278 122.722059 186.096891 124.30672 186.096891 125.958824 
C 186.096891 127.610927 186.753278 129.195588 187.921492 130.363802 
C 189.089706 131.532016 190.674367 132.188404 192.326471 132.188404 
z
" clip-path="url(#pbe1bfd3c72)" style="fill: #e6ecf1; fill-opacity: 0.431714"/>
   </g>
   <g id="PathCollection_45">
    <path d="M 217.708824 136.729153 
C 220.565148 136.729153 223.30487 135.594323 225.324597 133.574597 
C 227.344323 131.55487 228.479153 128.815148 228.479153 125.958824 
C 228.479153 123.102499 227.344323 120.362777 225.324597 118.34305 
C 223.30487 116.323324 220.565148 115.188494 217.708824 115.188494 
C 214.852499 115.188494 212.112777 116.323324 210.09305 118.34305 
C 208.073324 120.362777 206.938494 123.102499 206.938494 125.958824 
C 206.938494 128.815148 208.073324 131.55487 210.09305 133.574597 
C 212.112777 135.594323 214.852499 136.729153 217.708824 136.729153 
z
" clip-path="url(#pbe1bfd3c72)" style="fill: #e6ecf1; fill-opacity: 0.92"/>
   </g>
   <g id="PathCollection_46">
    <path d="M 243.091176 129.527991 
C 244.037731 129.527991 244.945644 129.151921 245.614959 128.482606 
C 246.284274 127.813291 246.660344 126.905378 246.660344 125.958824 
C 246.660344 125.012269 246.284274 124.104356 245.614959 123.435041 
C 244.945644 122.765726 244.037731 122.389656 243.091176 122.389656 
C 242.144622 122.389656 241.236709 122.765726 240.567394 123.435041 
C 239.898079 124.104356 239.522009 125.012269 239.522009 125.958824 
C 239.522009 126.905378 239.898079 127.813291 240.567394 128.482606 
C 241.236709 129.151921 242.144622 129.527991 243.091176 129.527991 
z
" clip-path="url(#pbe1bfd3c72)" style="fill: #e6ecf1; fill-opacity: 0.266814"/>
   </g>
   <g id="PathCollection_47">
    <path d="M 268.473529 134.51258 
C 270.742012 134.51258 272.917889 133.611302 274.521948 132.007242 
C 276.126008 130.403183 277.027285 128.227306 277.027285 125.958824 
C 277.027285 123.690341 276.126008 121.514464 274.521948 119.910405 
C 272.917889 118.306345 270.742012 117.405068 268.473529 117.405068 
C 266.205047 117.405068 264.02917 118.306345 262.425111 119.910405 
C 260.821051 121.514464 259.919773 123.690341 259.919773 125.958824 
C 259.919773 128.227306 260.821051 130.403183 262.425111 132.007242 
C 264.02917 133.611302 266.205047 134.51258 268.473529 134.51258 
z
" clip-path="url(#pbe1bfd3c72)" style="fill: #e6ecf1; fill-opacity: 0.649055"/>
   </g>
   <g id="PathCollection_48">
    <path d="M 293.855882 132.246386 
C 295.523363 132.246386 297.122773 131.583889 298.30186 130.404802 
C 299.480948 129.225714 300.143445 127.626305 300.143445 125.958824 
C 300.143445 124.291342 299.480948 122.691933 298.30186 121.512845 
C 297.122773 120.333758 295.523363 119.671261 293.855882 119.671261 
C 292.188401 119.671261 290.588991 120.333758 289.409904 121.512845 
C 288.230817 122.691933 287.56832 124.291342 287.56832 125.958824 
C 287.56832 127.626305 288.230817 129.225714 289.409904 130.404802 
C 290.588991 131.583889 292.188401 132.246386 293.855882 132.246386 
z
" clip-path="url(#pbe1bfd3c72)" style="fill: #e6ecf1; fill-opacity: 0.436305"/>
   </g>
   <g id="PathCollection_49">
    <path d="M 319.238235 133.016536 
C 321.109963 133.016536 322.905281 132.272891 324.228792 130.94938 
C 325.552303 129.625869 326.295948 127.830551 326.295948 125.958824 
C 326.295948 124.087096 325.552303 122.291778 324.228792 120.968267 
C 322.905281 119.644756 321.109963 118.901111 319.238235 118.901111 
C 317.366508 118.901111 315.57119 119.644756 314.247679 120.968267 
C 312.924168 122.291778 312.180522 124.087096 312.180522 125.958824 
C 312.180522 127.830551 312.924168 129.625869 314.247679 130.94938 
C 315.57119 132.272891 317.366508 133.016536 319.238235 133.016536 
z
" clip-path="url(#pbe1bfd3c72)" style="fill: #e6ecf1; fill-opacity: 0.501318"/>
   </g>
   <g id="PathCollection_50">
    <path d="M 344.620588 132.930581 
C 346.46952 132.930581 348.242973 132.195993 349.550365 130.8886 
C 350.857757 129.581208 351.592346 127.807755 351.592346 125.958824 
C 351.592346 124.109892 350.857757 122.336439 349.550365 121.029047 
C 348.242973 119.721655 346.46952 118.987066 344.620588 118.987066 
C 342.771657 118.987066 340.998203 119.721655 339.690811 121.029047 
C 338.383419 122.336439 337.648831 124.109892 337.648831 125.958824 
C 337.648831 127.807755 338.383419 129.581208 339.690811 130.8886 
C 340.998203 132.195993 342.771657 132.930581 344.620588 132.930581 
z
" clip-path="url(#pbe1bfd3c72)" style="fill: #e6ecf1; fill-opacity: 0.49369"/>
   </g>
   <g id="PathCollection_51">
    <path d="M 116.179412 158.5574 
C 118.093177 158.5574 119.928816 157.797054 121.282053 156.443817 
C 122.635289 155.090581 123.395636 153.254941 123.395636 151.341176 
C 123.395636 149.427412 122.635289 147.591772 121.282053 146.238536 
C 119.928816 144.885299 118.093177 144.124953 116.179412 144.124953 
C 114.265647 144.124953 112.430007 144.885299 111.076771 146.238536 
C 109.723535 147.591772 108.963188 149.427412 108.963188 151.341176 
C 108.963188 153.254941 109.723535 155.090581 111.076771 156.443817 
C 112.430007 157.797054 114.265647 158.5574 116.179412 158.5574 
z
" clip-path="url(#pbe1bfd3c72)" style="fill: #f1d9d1; fill-opacity: 0.51563"/>
   </g>
   <g id="PathCollection_52">
    <path d="M 141.561765 158.744144 
C 143.525055 158.744144 145.408197 157.96412 146.796453 156.575865 
C 148.184709 155.187609 148.964732 153.304466 148.964732 151.341176 
C 148.964732 149.377887 148.184709 147.494744 146.796453 146.106488 
C 145.408197 144.718233 143.525055 143.938209 141.561765 143.938209 
C 139.598475 143.938209 137.715332 144.718233 136.327076 146.106488 
C 134.938821 147.494744 134.158797 149.377887 134.158797 151.341176 
C 134.158797 153.304466 134.938821 155.187609 136.327076 156.575865 
C 137.715332 157.96412 139.598475 158.744144 141.561765 158.744144 
z
" clip-path="url(#pbe1bfd3c72)" style="fill: #f1d9d1; fill-opacity: 0.532899"/>
   </g>
   <g id="PathCollection_53">
    <path d="M 166.944118 159.075252 
C 168.995218 159.075252 170.962587 158.260341 172.412935 156.809993 
C 173.863282 155.359646 174.678193 153.392277 174.678193 151.341176 
C 174.678193 149.290076 173.863282 147.322707 172.412935 145.87236 
C 170.962587 144.422012 168.995218 143.607101 166.944118 143.607101 
C 164.893017 143.607101 162.925648 144.422012 161.475301 145.87236 
C 160.024953 147.322707 159.210043 149.290076 159.210043 151.341176 
C 159.210043 153.392277 160.024953 155.359646 161.475301 156.809993 
C 162.925648 158.260341 164.893017 159.075252 166.944118 159.075252 
z
" clip-path="url(#pbe1bfd3c72)" style="fill: #f1d9d1; fill-opacity: 0.564603"/>
   </g>
   <g id="PathCollection_54">
    <path d="M 192.326471 157.646538 
C 193.998672 157.646538 195.602609 156.982165 196.785034 155.79974 
C 197.967459 154.617315 198.631832 153.013378 198.631832 151.341176 
C 198.631832 149.668975 197.967459 148.065038 196.785034 146.882613 
C 195.602609 145.700188 193.998672 145.035815 192.326471 145.035815 
C 190.654269 145.035815 189.050332 145.700188 187.867907 146.882613 
C 186.685482 148.065038 186.021109 149.668975 186.021109 151.341176 
C 186.021109 153.013378 186.685482 154.617315 187.867907 155.79974 
C 189.050332 156.982165 190.654269 157.646538 192.326471 157.646538 
z
" clip-path="url(#pbe1bfd3c72)" style="fill: #f1d9d1; fill-opacity: 0.437722"/>
   </g>
   <g id="PathCollection_55">
    <path d="M 217.708824 154.910344 
C 218.655378 154.910344 219.563291 154.534274 220.232606 153.864959 
C 220.901921 153.195644 221.277991 152.287731 221.277991 151.341176 
C 221.277991 150.394622 220.901921 149.486709 220.232606 148.817394 
C 219.563291 148.148079 218.655378 147.772009 217.708824 147.772009 
C 216.762269 147.772009 215.854356 148.148079 215.185041 148.817394 
C 214.515726 149.486709 214.139656 150.394622 214.139656 151.341176 
C 214.139656 152.287731 214.515726 153.195644 215.185041 153.864959 
C 215.854356 154.534274 216.762269 154.910344 217.708824 154.910344 
z
" clip-path="url(#pbe1bfd3c72)" style="fill: #f1d9d1; fill-opacity: 0.266814"/>
   </g>
   <g id="PathCollection_56">
    <path d="M 243.091176 162.111506 
C 245.947501 162.111506 248.687223 160.976676 250.70695 158.95695 
C 252.726676 156.937223 253.861506 154.197501 253.861506 151.341176 
C 253.861506 148.484852 252.726676 145.74513 250.70695 143.725403 
C 248.687223 141.705677 245.947501 140.570847 243.091176 140.570847 
C 240.234852 140.570847 237.49513 141.705677 235.475403 143.725403 
C 233.455677 145.74513 232.320847 148.484852 232.320847 151.341176 
C 232.320847 154.197501 233.455677 156.937223 235.475403 158.95695 
C 237.49513 160.976676 240.234852 162.111506 243.091176 162.111506 
z
" clip-path="url(#pbe1bfd3c72)" style="fill: #f1d9d1; fill-opacity: 0.92"/>
   </g>
   <g id="PathCollection_57">
    <path d="M 268.473529 156.380545 
C 269.809986 156.380545 271.091884 155.849565 272.036901 154.904548 
C 272.981918 153.959531 273.512898 152.677633 273.512898 151.341176 
C 273.512898 150.00472 272.981918 148.722822 272.036901 147.777805 
C 271.091884 146.832788 269.809986 146.301808 268.473529 146.301808 
C 267.137073 146.301808 265.855175 146.832788 264.910158 147.777805 
C 263.965141 148.722822 263.434161 150.00472 263.434161 151.341176 
C 263.434161 152.677633 263.965141 153.959531 264.910158 154.904548 
C 265.855175 155.849565 267.137073 156.380545 268.473529 156.380545 
z
" clip-path="url(#pbe1bfd3c72)" style="fill: #f1d9d1; fill-opacity: 0.346872"/>
   </g>
   <g id="PathCollection_58">
    <path d="M 293.855882 158.344865 
C 295.713282 158.344865 297.494858 157.606912 298.808238 156.293532 
C 300.121618 154.980152 300.859571 153.198576 300.859571 151.341176 
C 300.859571 149.483777 300.121618 147.702201 298.808238 146.388821 
C 297.494858 145.075441 295.713282 144.337488 293.855882 144.337488 
C 291.998483 144.337488 290.216907 145.075441 288.903527 146.388821 
C 287.590147 147.702201 286.852194 149.483777 286.852194 151.341176 
C 286.852194 153.198576 287.590147 154.980152 288.903527 156.293532 
C 290.216907 157.606912 291.998483 158.344865 293.855882 158.344865 
z
" clip-path="url(#pbe1bfd3c72)" style="fill: #f1d9d1; fill-opacity: 0.496513"/>
   </g>
   <g id="PathCollection_59">
    <path d="M 319.238235 155.280849 
C 320.283049 155.280849 321.28521 154.865741 322.024005 154.126946 
C 322.762799 153.388151 323.177908 152.38599 323.177908 151.341176 
C 323.177908 150.296363 322.762799 149.294202 322.024005 148.555407 
C 321.28521 147.816612 320.283049 147.401504 319.238235 147.401504 
C 318.193422 147.401504 317.191261 147.816612 316.452466 148.555407 
C 315.713671 149.294202 315.298562 150.296363 315.298562 151.341176 
C 315.298562 152.38599 315.713671 153.388151 316.452466 154.126946 
C 317.191261 154.865741 318.193422 155.280849 319.238235 155.280849 
z
" clip-path="url(#pbe1bfd3c72)" style="fill: #f1d9d1; fill-opacity: 0.284412"/>
   </g>
   <g id="PathCollection_60">
    <path d="M 344.620588 157.243975 
C 346.186029 157.243975 347.687563 156.622019 348.794497 155.515085 
C 349.90143 154.408152 350.523386 152.906617 350.523386 151.341176 
C 350.523386 149.775736 349.90143 148.274201 348.794497 147.167268 
C 347.687563 146.060334 346.186029 145.438378 344.620588 145.438378 
C 343.055148 145.438378 341.553613 146.060334 340.44668 147.167268 
C 339.339746 148.274201 338.71779 149.775736 338.71779 151.341176 
C 338.71779 152.906617 339.339746 154.408152 340.44668 155.515085 
C 341.553613 156.622019 343.055148 157.243975 344.620588 157.243975 
z
" clip-path="url(#pbe1bfd3c72)" style="fill: #f1d9d1; fill-opacity: 0.406635"/>
   </g>
   <g id="PathCollection_61">
    <path d="M 116.179412 182.478207 
C 117.70557 182.478207 119.169426 181.871858 120.248583 180.792701 
C 121.32774 179.713544 121.934089 178.249688 121.934089 176.723529 
C 121.934089 175.197371 121.32774 173.733515 120.248583 172.654358 
C 119.169426 171.575201 117.70557 170.968852 116.179412 170.968852 
C 114.653253 170.968852 113.189397 171.575201 112.11024 172.654358 
C 111.031083 173.733515 110.424734 175.197371 110.424734 176.723529 
C 110.424734 178.249688 111.031083 179.713544 112.11024 180.792701 
C 113.189397 181.871858 114.653253 182.478207 116.179412 182.478207 
z
" clip-path="url(#pbe1bfd3c72)" style="fill: #eab9a8; fill-opacity: 0.395712"/>
   </g>
   <g id="PathCollection_62">
    <path d="M 141.561765 180.126606 
C 142.464271 180.126606 143.329935 179.768036 143.968103 179.129868 
C 144.606272 178.4917 144.964841 177.626036 144.964841 176.723529 
C 144.964841 175.821023 144.606272 174.955359 143.968103 174.317191 
C 143.329935 173.679022 142.464271 173.320453 141.561765 173.320453 
C 140.659258 173.320453 139.793595 173.679022 139.155426 174.317191 
C 138.517258 174.955359 138.158688 175.821023 138.158688 176.723529 
C 138.158688 177.626036 138.517258 178.4917 139.155426 179.129868 
C 139.793595 179.768036 140.659258 180.126606 141.561765 180.126606 
z
" clip-path="url(#pbe1bfd3c72)" style="fill: #eab9a8; fill-opacity: 0.259489"/>
   </g>
   <g id="PathCollection_63">
    <path d="M 166.944118 183.646426 
C 168.780091 183.646426 170.541115 182.916986 171.839345 181.618757 
C 173.137574 180.320527 173.867014 178.559503 173.867014 176.723529 
C 173.867014 174.887556 173.137574 173.126532 171.839345 171.828302 
C 170.541115 170.530073 168.780091 169.800633 166.944118 169.800633 
C 165.108144 169.800633 163.34712 170.530073 162.04889 171.828302 
C 160.750661 173.126532 160.021221 174.887556 160.021221 176.723529 
C 160.021221 178.559503 160.750661 180.320527 162.04889 181.618757 
C 163.34712 182.916986 165.108144 183.646426 166.944118 183.646426 
z
" clip-path="url(#pbe1bfd3c72)" style="fill: #eab9a8; fill-opacity: 0.489396"/>
   </g>
   <g id="PathCollection_64">
    <path d="M 192.326471 180.426898 
C 193.308615 180.426898 194.250666 180.036688 194.945148 179.342206 
C 195.639629 178.647725 196.029839 177.705674 196.029839 176.723529 
C 196.029839 175.741385 195.639629 174.799334 194.945148 174.104852 
C 194.250666 173.410371 193.308615 173.020161 192.326471 173.020161 
C 191.344326 173.020161 190.402275 173.410371 189.707794 174.104852 
C 189.013312 174.799334 188.623102 175.741385 188.623102 176.723529 
C 188.623102 177.705674 189.013312 178.647725 189.707794 179.342206 
C 190.402275 180.036688 191.344326 180.426898 192.326471 180.426898 
z
" clip-path="url(#pbe1bfd3c72)" style="fill: #eab9a8; fill-opacity: 0.272988"/>
   </g>
   <g id="PathCollection_65">
    <path d="M 217.708824 185.277285 
C 219.977306 185.277285 222.153183 184.376008 223.757242 182.771948 
C 225.361302 181.167889 226.26258 178.992012 226.26258 176.723529 
C 226.26258 174.455047 225.361302 172.27917 223.757242 170.675111 
C 222.153183 169.071051 219.977306 168.169773 217.708824 168.169773 
C 215.440341 168.169773 213.264464 169.071051 211.660405 170.675111 
C 210.056345 172.27917 209.155068 174.455047 209.155068 176.723529 
C 209.155068 178.992012 210.056345 181.167889 211.660405 182.771948 
C 213.264464 184.376008 215.440341 185.277285 217.708824 185.277285 
z
" clip-path="url(#pbe1bfd3c72)" style="fill: #eab9a8; fill-opacity: 0.649055"/>
   </g>
   <g id="PathCollection_66">
    <path d="M 243.091176 181.762898 
C 244.427633 181.762898 245.709531 181.231918 246.654548 180.286901 
C 247.599565 179.341884 248.130545 178.059986 248.130545 176.723529 
C 248.130545 175.387073 247.599565 174.105175 246.654548 173.160158 
C 245.709531 172.215141 244.427633 171.684161 243.091176 171.684161 
C 241.75472 171.684161 240.472822 172.215141 239.527805 173.160158 
C 238.582788 174.105175 238.051808 175.387073 238.051808 176.723529 
C 238.051808 178.059986 238.582788 179.341884 239.527805 180.286901 
C 240.472822 181.231918 241.75472 181.762898 243.091176 181.762898 
z
" clip-path="url(#pbe1bfd3c72)" style="fill: #eab9a8; fill-opacity: 0.346872"/>
   </g>
   <g id="PathCollection_67">
    <path d="M 268.473529 187.493859 
C 271.329854 187.493859 274.069576 186.359029 276.089303 184.339303 
C 278.109029 182.319576 279.243859 179.579854 279.243859 176.723529 
C 279.243859 173.867205 278.109029 171.127483 276.089303 169.107756 
C 274.069576 167.08803 271.329854 165.9532 268.473529 165.9532 
C 265.617205 165.9532 262.877483 167.08803 260.857756 169.107756 
C 258.83803 171.127483 257.7032 173.867205 257.7032 176.723529 
C 257.7032 179.579854 258.83803 182.319576 260.857756 184.339303 
C 262.877483 186.359029 265.617205 187.493859 268.473529 187.493859 
z
" clip-path="url(#pbe1bfd3c72)" style="fill: #eab9a8; fill-opacity: 0.92"/>
   </g>
   <g id="PathCollection_68">
    <path d="M 293.855882 183.530078 
C 295.661 183.530078 297.392428 182.812897 298.668839 181.536486 
C 299.94525 180.260075 300.662431 178.528647 300.662431 176.723529 
C 300.662431 174.918412 299.94525 173.186984 298.668839 171.910573 
C 297.392428 170.634162 295.661 169.916981 293.855882 169.916981 
C 292.050765 169.916981 290.319337 170.634162 289.042926 171.910573 
C 287.766515 173.186984 287.049334 174.918412 287.049334 176.723529 
C 287.049334 178.528647 287.766515 180.260075 289.042926 181.536486 
C 290.319337 182.812897 292.050765 183.530078 293.855882 183.530078 
z
" clip-path="url(#pbe1bfd3c72)" style="fill: #eab9a8; fill-opacity: 0.479291"/>
   </g>
   <g id="PathCollection_69">
    <path d="M 319.238235 179.800267 
C 320.054196 179.800267 320.836846 179.476083 321.413818 178.899112 
C 321.990789 178.322141 322.314973 177.53949 322.314973 176.723529 
C 322.314973 175.907569 321.990789 175.124918 321.413818 174.547947 
C 320.836846 173.970976 320.054196 173.646791 319.238235 173.646791 
C 318.422275 173.646791 317.639624 173.970976 317.062653 174.547947 
C 316.485682 175.124918 316.161497 175.907569 316.161497 176.723529 
C 316.161497 177.53949 316.485682 178.322141 317.062653 178.899112 
C 317.639624 179.476083 318.422275 179.800267 319.238235 179.800267 
z
" clip-path="url(#pbe1bfd3c72)" style="fill: #eab9a8; fill-opacity: 0.246113"/>
   </g>
   <g id="PathCollection_70">
    <path d="M 344.620588 184.256787 
C 346.618432 184.256787 348.534717 183.463036 349.947406 182.050347 
C 351.360094 180.637659 352.153846 178.721373 352.153846 176.723529 
C 352.153846 174.725686 351.360094 172.8094 349.947406 171.396712 
C 348.534717 169.984023 346.618432 169.190272 344.620588 169.190272 
C 342.622745 169.190272 340.706459 169.984023 339.293771 171.396712 
C 337.881082 172.8094 337.08733 174.725686 337.08733 176.723529 
C 337.08733 178.721373 337.881082 180.637659 339.293771 182.050347 
C 340.706459 183.463036 342.622745 184.256787 344.620588 184.256787 
z
" clip-path="url(#pbe1bfd3c72)" style="fill: #eab9a8; fill-opacity: 0.545209"/>
   </g>
   <g id="PathCollection_71">
    <path d="M 116.179412 206.584377 
C 117.367122 206.584377 118.506347 206.112495 119.346186 205.272656 
C 120.186024 204.432818 120.657906 203.293593 120.657906 202.105882 
C 120.657906 200.918172 120.186024 199.778947 119.346186 198.939108 
C 118.506347 198.09927 117.367122 197.627388 116.179412 197.627388 
C 114.991701 197.627388 113.852476 198.09927 113.012638 198.939108 
C 112.1728 199.778947 111.700917 200.918172 111.700917 202.105882 
C 111.700917 203.293593 112.1728 204.432818 113.012638 205.272656 
C 113.852476 206.112495 114.991701 206.584377 116.179412 206.584377 
z
" clip-path="url(#pbe1bfd3c72)" style="fill: #e3987d; fill-opacity: 0.313104"/>
   </g>
   <g id="PathCollection_72">
    <path d="M 141.561765 209.072425 
C 143.409313 209.072425 145.18144 208.338386 146.487854 207.031972 
C 147.794268 205.725557 148.528307 203.953431 148.528307 202.105882 
C 148.528307 200.258334 147.794268 198.486207 146.487854 197.179793 
C 145.18144 195.873379 143.409313 195.13934 141.561765 195.13934 
C 139.714216 195.13934 137.94209 195.873379 136.635675 197.179793 
C 135.329261 198.486207 134.595222 200.258334 134.595222 202.105882 
C 134.595222 203.953431 135.329261 205.725557 136.635675 207.031972 
C 137.94209 208.338386 139.714216 209.072425 141.561765 209.072425 
z
" clip-path="url(#pbe1bfd3c72)" style="fill: #e3987d; fill-opacity: 0.49323"/>
   </g>
   <g id="PathCollection_73">
    <path d="M 166.944118 208.068794 
C 168.5255 208.068794 170.042327 207.440504 171.160533 206.322298 
C 172.27874 205.204091 172.90703 203.687265 172.90703 202.105882 
C 172.90703 200.5245 172.27874 199.007673 171.160533 197.889467 
C 170.042327 196.77126 168.5255 196.14297 166.944118 196.14297 
C 165.362735 196.14297 163.845909 196.77126 162.727702 197.889467 
C 161.609496 199.007673 160.981206 200.5245 160.981206 202.105882 
C 160.981206 203.687265 161.609496 205.204091 162.727702 206.322298 
C 163.845909 207.440504 165.362735 208.068794 166.944118 208.068794 
z
" clip-path="url(#pbe1bfd3c72)" style="fill: #e3987d; fill-opacity: 0.411147"/>
   </g>
   <g id="PathCollection_74">
    <path d="M 192.326471 207.652746 
C 193.797516 207.652746 195.20851 207.068294 196.248696 206.028108 
C 197.288882 204.987921 197.873335 203.576928 197.873335 202.105882 
C 197.873335 200.634837 197.288882 199.223843 196.248696 198.183657 
C 195.20851 197.143471 193.797516 196.559018 192.326471 196.559018 
C 190.855425 196.559018 189.444432 197.143471 188.404245 198.183657 
C 187.364059 199.223843 186.779606 200.634837 186.779606 202.105882 
C 186.779606 203.576928 187.364059 204.987921 188.404245 206.028108 
C 189.444432 207.068294 190.855425 207.652746 192.326471 207.652746 
z
" clip-path="url(#pbe1bfd3c72)" style="fill: #e3987d; fill-opacity: 0.380856"/>
   </g>
   <g id="PathCollection_75">
    <path d="M 217.708824 208.393445 
C 219.376305 208.393445 220.975714 207.730948 222.154802 206.55186 
C 223.333889 205.372773 223.996386 203.773363 223.996386 202.105882 
C 223.996386 200.438401 223.333889 198.838991 222.154802 197.659904 
C 220.975714 196.480817 219.376305 195.81832 217.708824 195.81832 
C 216.041342 195.81832 214.441933 196.480817 213.262845 197.659904 
C 212.083758 198.838991 211.421261 200.438401 211.421261 202.105882 
C 211.421261 203.773363 212.083758 205.372773 213.262845 206.55186 
C 214.441933 207.730948 216.041342 208.393445 217.708824 208.393445 
z
" clip-path="url(#pbe1bfd3c72)" style="fill: #e3987d; fill-opacity: 0.436305"/>
   </g>
   <g id="PathCollection_76">
    <path d="M 243.091176 209.109571 
C 244.948576 209.109571 246.730152 208.371618 248.043532 207.058238 
C 249.356912 205.744858 250.094865 203.963282 250.094865 202.105882 
C 250.094865 200.248483 249.356912 198.466907 248.043532 197.153527 
C 246.730152 195.840147 244.948576 195.102194 243.091176 195.102194 
C 241.233777 195.102194 239.452201 195.840147 238.138821 197.153527 
C 236.825441 198.466907 236.087488 200.248483 236.087488 202.105882 
C 236.087488 203.963282 236.825441 205.744858 238.138821 207.058238 
C 239.452201 208.371618 241.233777 209.109571 243.091176 209.109571 
z
" clip-path="url(#pbe1bfd3c72)" style="fill: #e3987d; fill-opacity: 0.496513"/>
   </g>
   <g id="PathCollection_77">
    <path d="M 268.473529 208.912431 
C 270.278647 208.912431 272.010075 208.19525 273.286486 206.918839 
C 274.562897 205.642428 275.280078 203.911 275.280078 202.105882 
C 275.280078 200.300765 274.562897 198.569337 273.286486 197.292926 
C 272.010075 196.016515 270.278647 195.299334 268.473529 195.299334 
C 266.668412 195.299334 264.936984 196.016515 263.660573 197.292926 
C 262.384162 198.569337 261.666981 200.300765 261.666981 202.105882 
C 261.666981 203.911 262.384162 205.642428 263.660573 206.918839 
C 264.936984 208.19525 266.668412 208.912431 268.473529 208.912431 
z
" clip-path="url(#pbe1bfd3c72)" style="fill: #e3987d; fill-opacity: 0.479291"/>
   </g>
   <g id="PathCollection_78">
    <path d="M 293.855882 212.876212 
C 296.712207 212.876212 299.451929 211.741382 301.471655 209.721655 
C 303.491382 207.701929 304.626212 204.962207 304.626212 202.105882 
C 304.626212 199.249558 303.491382 196.509836 301.471655 194.490109 
C 299.451929 192.470383 296.712207 191.335553 293.855882 191.335553 
C 290.999558 191.335553 288.259836 192.470383 286.240109 194.490109 
C 284.220383 196.509836 283.085553 199.249558 283.085553 202.105882 
C 283.085553 204.962207 284.220383 207.701929 286.240109 209.721655 
C 288.259836 211.741382 290.999558 212.876212 293.855882 212.876212 
z
" clip-path="url(#pbe1bfd3c72)" style="fill: #e3987d; fill-opacity: 0.92"/>
   </g>
   <g id="PathCollection_79">
    <path d="M 319.238235 208.024798 
C 320.80795 208.024798 322.313585 207.401144 323.423541 206.291188 
C 324.533497 205.181232 325.157151 203.675597 325.157151 202.105882 
C 325.157151 200.536168 324.533497 199.030533 323.423541 197.920577 
C 322.313585 196.810621 320.80795 196.186967 319.238235 196.186967 
C 317.668521 196.186967 316.162886 196.810621 315.05293 197.920577 
C 313.942974 199.030533 313.31932 200.536168 313.31932 202.105882 
C 313.31932 203.675597 313.942974 205.181232 315.05293 206.291188 
C 316.162886 207.401144 317.668521 208.024798 319.238235 208.024798 
z
" clip-path="url(#pbe1bfd3c72)" style="fill: #e3987d; fill-opacity: 0.40784"/>
   </g>
   <g id="PathCollection_80">
    <path d="M 344.620588 205.996003 
C 345.65226 205.996003 346.641817 205.586116 347.371319 204.856613 
C 348.100822 204.127111 348.510709 203.137555 348.510709 202.105882 
C 348.510709 201.07421 348.100822 200.084654 347.371319 199.355151 
C 346.641817 198.625649 345.65226 198.215761 344.620588 198.215761 
C 343.588916 198.215761 342.59936 198.625649 341.869857 199.355151 
C 341.140355 200.084654 340.730467 201.07421 340.730467 202.105882 
C 340.730467 203.137555 341.140355 204.127111 341.869857 204.856613 
C 342.59936 205.586116 343.588916 205.996003 344.620588 205.996003 
z
" clip-path="url(#pbe1bfd3c72)" style="fill: #e3987d; fill-opacity: 0.281958"/>
   </g>
   <g id="PathCollection_81">
    <path d="M 116.179412 231.913696 
C 117.353058 231.913696 118.478792 231.447402 119.308685 230.617509 
C 120.138578 229.787616 120.604873 228.661881 120.604873 227.488235 
C 120.604873 226.314589 120.138578 225.188855 119.308685 224.358962 
C 118.478792 223.529069 117.353058 223.062775 116.179412 223.062775 
C 115.005766 223.062775 113.880031 223.529069 113.050138 224.358962 
C 112.220245 225.188855 111.753951 226.314589 111.753951 227.488235 
C 111.753951 228.661881 112.220245 229.787616 113.050138 230.617509 
C 113.880031 231.447402 115.005766 231.913696 116.179412 231.913696 
z
" clip-path="url(#pbe1bfd3c72)" style="fill: #e07452; fill-opacity: 0.310117"/>
   </g>
   <g id="PathCollection_82">
    <path d="M 141.561765 235.102894 
C 143.581196 235.102894 145.518188 234.300566 146.946142 232.872612 
C 148.374095 231.444659 149.176424 229.507666 149.176424 227.488235 
C 149.176424 225.468804 148.374095 223.531812 146.946142 222.103858 
C 145.518188 220.675905 143.581196 219.873576 141.561765 219.873576 
C 139.542334 219.873576 137.605341 220.675905 136.177388 222.103858 
C 134.749434 223.531812 133.947106 225.468804 133.947106 227.488235 
C 133.947106 229.507666 134.749434 231.444659 136.177388 232.872612 
C 137.605341 234.300566 139.542334 235.102894 141.561765 235.102894 
z
" clip-path="url(#pbe1bfd3c72)" style="fill: #e07452; fill-opacity: 0.553009"/>
   </g>
   <g id="PathCollection_83">
    <path d="M 166.944118 232.192666 
C 168.191747 232.192666 169.388445 231.696977 170.270652 230.81477 
C 171.152859 229.932563 171.648548 228.735865 171.648548 227.488235 
C 171.648548 226.240606 171.152859 225.043908 170.270652 224.161701 
C 169.388445 223.279493 168.191747 222.783805 166.944118 222.783805 
C 165.696488 222.783805 164.49979 223.279493 163.617583 224.161701 
C 162.735376 225.043908 162.239687 226.240606 162.239687 227.488235 
C 162.239687 228.735865 162.735376 229.932563 163.617583 230.81477 
C 164.49979 231.696977 165.696488 232.192666 166.944118 232.192666 
z
" clip-path="url(#pbe1bfd3c72)" style="fill: #e07452; fill-opacity: 0.326228"/>
   </g>
   <g id="PathCollection_84">
    <path d="M 192.326471 231.07176 
C 193.276832 231.07176 194.188398 230.694177 194.860405 230.02217 
C 195.532413 229.350163 195.909995 228.438597 195.909995 227.488235 
C 195.909995 226.537873 195.532413 225.626308 194.860405 224.954301 
C 194.188398 224.282293 193.276832 223.90471 192.326471 223.90471 
C 191.376109 223.90471 190.464543 224.282293 189.792536 224.954301 
C 189.120529 225.626308 188.742946 226.537873 188.742946 227.488235 
C 188.742946 228.438597 189.120529 229.350163 189.792536 230.02217 
C 190.464543 230.694177 191.376109 231.07176 192.326471 231.07176 
z
" clip-path="url(#pbe1bfd3c72)" style="fill: #e07452; fill-opacity: 0.267463"/>
   </g>
   <g id="PathCollection_85">
    <path d="M 217.708824 234.545948 
C 219.580551 234.545948 221.375869 233.802303 222.69938 232.478792 
C 224.022891 231.155281 224.766536 229.359963 224.766536 227.488235 
C 224.766536 225.616508 224.022891 223.82119 222.69938 222.497679 
C 221.375869 221.174168 219.580551 220.430522 217.708824 220.430522 
C 215.837096 220.430522 214.041778 221.174168 212.718267 222.497679 
C 211.394756 223.82119 210.651111 225.616508 210.651111 227.488235 
C 210.651111 229.359963 211.394756 231.155281 212.718267 232.478792 
C 214.041778 233.802303 215.837096 234.545948 217.708824 234.545948 
z
" clip-path="url(#pbe1bfd3c72)" style="fill: #e07452; fill-opacity: 0.501318"/>
   </g>
   <g id="PathCollection_86">
    <path d="M 243.091176 231.427908 
C 244.13599 231.427908 245.138151 231.012799 245.876946 230.274005 
C 246.615741 229.53521 247.030849 228.533049 247.030849 227.488235 
C 247.030849 226.443422 246.615741 225.441261 245.876946 224.702466 
C 245.138151 223.963671 244.13599 223.548562 243.091176 223.548562 
C 242.046363 223.548562 241.044202 223.963671 240.305407 224.702466 
C 239.566612 225.441261 239.151504 226.443422 239.151504 227.488235 
C 239.151504 228.533049 239.566612 229.53521 240.305407 230.274005 
C 241.044202 231.012799 242.046363 231.427908 243.091176 231.427908 
z
" clip-path="url(#pbe1bfd3c72)" style="fill: #e07452; fill-opacity: 0.284412"/>
   </g>
   <g id="PathCollection_87">
    <path d="M 268.473529 230.564973 
C 269.28949 230.564973 270.072141 230.240789 270.649112 229.663818 
C 271.226083 229.086846 271.550267 228.304196 271.550267 227.488235 
C 271.550267 226.672275 271.226083 225.889624 270.649112 225.312653 
C 270.072141 224.735682 269.28949 224.411497 268.473529 224.411497 
C 267.657569 224.411497 266.874918 224.735682 266.297947 225.312653 
C 265.720976 225.889624 265.396791 226.672275 265.396791 227.488235 
C 265.396791 228.304196 265.720976 229.086846 266.297947 229.663818 
C 266.874918 230.240789 267.657569 230.564973 268.473529 230.564973 
z
" clip-path="url(#pbe1bfd3c72)" style="fill: #e07452; fill-opacity: 0.246113"/>
   </g>
   <g id="PathCollection_88">
    <path d="M 293.855882 233.407151 
C 295.425597 233.407151 296.931232 232.783497 298.041188 231.673541 
C 299.151144 230.563585 299.774798 229.05795 299.774798 227.488235 
C 299.774798 225.918521 299.151144 224.412886 298.041188 223.30293 
C 296.931232 222.192974 295.425597 221.56932 293.855882 221.56932 
C 292.286168 221.56932 290.780533 222.192974 289.670577 223.30293 
C 288.560621 224.412886 287.936967 225.918521 287.936967 227.488235 
C 287.936967 229.05795 288.560621 230.563585 289.670577 231.673541 
C 290.780533 232.783497 292.286168 233.407151 293.855882 233.407151 
z
" clip-path="url(#pbe1bfd3c72)" style="fill: #e07452; fill-opacity: 0.40784"/>
   </g>
   <g id="PathCollection_89">
    <path d="M 319.238235 238.258565 
C 322.09456 238.258565 324.834282 237.123735 326.854008 235.104008 
C 328.873735 233.084282 330.008565 230.34456 330.008565 227.488235 
C 330.008565 224.63191 328.873735 221.892189 326.854008 219.872462 
C 324.834282 217.852736 322.09456 216.717906 319.238235 216.717906 
C 316.38191 216.717906 313.642189 217.852736 311.622462 219.872462 
C 309.602736 221.892189 308.467906 224.63191 308.467906 227.488235 
C 308.467906 230.34456 309.602736 233.084282 311.622462 235.104008 
C 313.642189 237.123735 316.38191 238.258565 319.238235 238.258565 
z
" clip-path="url(#pbe1bfd3c72)" style="fill: #e07452; fill-opacity: 0.92"/>
   </g>
   <g id="PathCollection_90">
    <path d="M 344.620588 233.590181 
C 346.238843 233.590181 347.791036 232.947242 348.935315 231.802963 
C 350.079594 230.658683 350.722534 229.10649 350.722534 227.488235 
C 350.722534 225.86998 350.079594 224.317787 348.935315 223.173508 
C 347.791036 222.029229 346.238843 221.38629 344.620588 221.38629 
C 343.002333 221.38629 341.45014 222.029229 340.305861 223.173508 
C 339.161582 224.317787 338.518642 225.86998 338.518642 227.488235 
C 338.518642 229.10649 339.161582 230.658683 340.305861 231.802963 
C 341.45014 232.947242 343.002333 233.590181 344.620588 233.590181 
z
" clip-path="url(#pbe1bfd3c72)" style="fill: #e07452; fill-opacity: 0.421758"/>
   </g>
   <g id="PathCollection_91">
    <path d="M 116.179412 257.548431 
C 117.41999 257.548431 118.609925 257.055544 119.487146 256.178323 
C 120.364368 255.301101 120.857255 254.111167 120.857255 252.870588 
C 120.857255 251.63001 120.364368 250.440075 119.487146 249.562854 
C 118.609925 248.685632 117.41999 248.192745 116.179412 248.192745 
C 114.938833 248.192745 113.748899 248.685632 112.871677 249.562854 
C 111.994456 250.440075 111.501569 251.63001 111.501569 252.870588 
C 111.501569 254.111167 111.994456 255.301101 112.871677 256.178323 
C 113.748899 257.055544 114.938833 257.548431 116.179412 257.548431 
z
" clip-path="url(#pbe1bfd3c72)" style="fill: #d9542b; fill-opacity: 0.32465"/>
   </g>
   <g id="PathCollection_92">
    <path d="M 141.561765 259.487442 
C 143.316575 259.487442 144.999749 258.790248 146.240587 257.54941 
C 147.481425 256.308572 148.178618 254.625398 148.178618 252.870588 
C 148.178618 251.115778 147.481425 249.432604 146.240587 248.191766 
C 144.999749 246.950928 143.316575 246.253735 141.561765 246.253735 
C 139.806955 246.253735 138.123781 246.950928 136.882943 248.191766 
C 135.642105 249.432604 134.944911 251.115778 134.944911 252.870588 
C 134.944911 254.625398 135.642105 256.308572 136.882943 257.54941 
C 138.123781 258.790248 139.806955 259.487442 141.561765 259.487442 
z
" clip-path="url(#pbe1bfd3c72)" style="fill: #d9542b; fill-opacity: 0.463184"/>
   </g>
   <g id="PathCollection_93">
    <path d="M 166.944118 259.65859 
C 168.744317 259.65859 170.471027 258.943363 171.74396 257.67043 
C 173.016892 256.397497 173.732119 254.670787 173.732119 252.870588 
C 173.732119 251.070389 173.016892 249.343679 171.74396 248.070746 
C 170.471027 246.797813 168.744317 246.082587 166.944118 246.082587 
C 165.143919 246.082587 163.417209 246.797813 162.144276 248.070746 
C 160.871343 249.343679 160.156116 251.070389 160.156116 252.870588 
C 160.156116 254.670787 160.871343 256.397497 162.144276 257.67043 
C 163.417209 258.943363 165.143919 259.65859 166.944118 259.65859 
z
" clip-path="url(#pbe1bfd3c72)" style="fill: #d9542b; fill-opacity: 0.477696"/>
   </g>
   <g id="PathCollection_94">
    <path d="M 192.326471 260.680295 
C 194.397629 260.680295 196.384237 259.857415 197.848767 258.392885 
C 199.313297 256.928355 200.136177 254.941747 200.136177 252.870588 
C 200.136177 250.79943 199.313297 248.812822 197.848767 247.348292 
C 196.384237 245.883762 194.397629 245.060882 192.326471 245.060882 
C 190.255312 245.060882 188.268704 245.883762 186.804174 247.348292 
C 185.339644 248.812822 184.516764 250.79943 184.516764 252.870588 
C 184.516764 254.941747 185.339644 256.928355 186.804174 258.392885 
C 188.268704 259.857415 190.255312 260.680295 192.326471 260.680295 
z
" clip-path="url(#pbe1bfd3c72)" style="fill: #d9542b; fill-opacity: 0.572039"/>
   </g>
   <g id="PathCollection_95">
    <path d="M 217.708824 259.842346 
C 219.557755 259.842346 221.331208 259.107757 222.6386 257.800365 
C 223.945993 256.492973 224.680581 254.71952 224.680581 252.870588 
C 224.680581 251.021657 223.945993 249.248203 222.6386 247.940811 
C 221.331208 246.633419 219.557755 245.898831 217.708824 245.898831 
C 215.859892 245.898831 214.086439 246.633419 212.779047 247.940811 
C 211.471655 249.248203 210.737066 251.021657 210.737066 252.870588 
C 210.737066 254.71952 211.471655 256.492973 212.779047 257.800365 
C 214.086439 259.107757 215.859892 259.842346 217.708824 259.842346 
z
" clip-path="url(#pbe1bfd3c72)" style="fill: #d9542b; fill-opacity: 0.49369"/>
   </g>
   <g id="PathCollection_96">
    <path d="M 243.091176 258.773386 
C 244.656617 258.773386 246.158152 258.15143 247.265085 257.044497 
C 248.372019 255.937563 248.993975 254.436029 248.993975 252.870588 
C 248.993975 251.305148 248.372019 249.803613 247.265085 248.69668 
C 246.158152 247.589746 244.656617 246.96779 243.091176 246.96779 
C 241.525736 246.96779 240.024201 247.589746 238.917268 248.69668 
C 237.810334 249.803613 237.188378 251.305148 237.188378 252.870588 
C 237.188378 254.436029 237.810334 255.937563 238.917268 257.044497 
C 240.024201 258.15143 241.525736 258.773386 243.091176 258.773386 
z
" clip-path="url(#pbe1bfd3c72)" style="fill: #d9542b; fill-opacity: 0.406635"/>
   </g>
   <g id="PathCollection_97">
    <path d="M 268.473529 260.403846 
C 270.471373 260.403846 272.387659 259.610094 273.800347 258.197406 
C 275.213036 256.784717 276.006787 254.868432 276.006787 252.870588 
C 276.006787 250.872745 275.213036 248.956459 273.800347 247.543771 
C 272.387659 246.131082 270.471373 245.33733 268.473529 245.33733 
C 266.475686 245.33733 264.5594 246.131082 263.146712 247.543771 
C 261.734023 248.956459 260.940272 250.872745 260.940272 252.870588 
C 260.940272 254.868432 261.734023 256.784717 263.146712 258.197406 
C 264.5594 259.610094 266.475686 260.403846 268.473529 260.403846 
z
" clip-path="url(#pbe1bfd3c72)" style="fill: #d9542b; fill-opacity: 0.545209"/>
   </g>
   <g id="PathCollection_98">
    <path d="M 293.855882 256.760709 
C 294.887555 256.760709 295.877111 256.350822 296.606613 255.621319 
C 297.336116 254.891817 297.746003 253.90226 297.746003 252.870588 
C 297.746003 251.838916 297.336116 250.84936 296.606613 250.119857 
C 295.877111 249.390355 294.887555 248.980467 293.855882 248.980467 
C 292.82421 248.980467 291.834654 249.390355 291.105151 250.119857 
C 290.375649 250.84936 289.965761 251.838916 289.965761 252.870588 
C 289.965761 253.90226 290.375649 254.891817 291.105151 255.621319 
C 291.834654 256.350822 292.82421 256.760709 293.855882 256.760709 
z
" clip-path="url(#pbe1bfd3c72)" style="fill: #d9542b; fill-opacity: 0.281958"/>
   </g>
   <g id="PathCollection_99">
    <path d="M 319.238235 258.972534 
C 320.85649 258.972534 322.408683 258.329594 323.552963 257.185315 
C 324.697242 256.041036 325.340181 254.488843 325.340181 252.870588 
C 325.340181 251.252333 324.697242 249.70014 323.552963 248.555861 
C 322.408683 247.411582 320.85649 246.768642 319.238235 246.768642 
C 317.61998 246.768642 316.067787 247.411582 314.923508 248.555861 
C 313.779229 249.70014 313.13629 251.252333 313.13629 252.870588 
C 313.13629 254.488843 313.779229 256.041036 314.923508 257.185315 
C 316.067787 258.329594 317.61998 258.972534 319.238235 258.972534 
z
" clip-path="url(#pbe1bfd3c72)" style="fill: #d9542b; fill-opacity: 0.421758"/>
   </g>
   <g id="PathCollection_100">
    <path d="M 344.620588 263.640918 
C 347.476913 263.640918 350.216635 262.506088 352.236361 260.486361 
C 354.256088 258.466635 355.390918 255.726913 355.390918 252.870588 
C 355.390918 250.014263 354.256088 247.274542 352.236361 245.254815 
C 350.216635 243.235088 347.476913 242.100259 344.620588 242.100259 
C 341.764263 242.100259 339.024542 243.235088 337.004815 245.254815 
C 334.985088 247.274542 333.850259 250.014263 333.850259 252.870588 
C 333.850259 255.726913 334.985088 258.466635 337.004815 260.486361 
C 339.024542 262.506088 341.764263 263.640918 344.620588 263.640918 
z
" clip-path="url(#pbe1bfd3c72)" style="fill: #d9542b; fill-opacity: 0.92"/>
   </g>
  </g>
 </g>
 <defs>
  <clipPath id="pbe1bfd3c72">
   <rect x="100.95" y="9.2" width="258.9" height="258.9"/>
  </clipPath>
 </defs>
</svg>
