<?xml version="1.0" encoding="utf-8" standalone="no"?>
<!DOCTYPE svg PUBLIC "-//W3C//DTD SVG 1.1//EN"
  "http://www.w3.org/Graphics/SVG/1.1/DTD/svg11.dtd">
<svg xmlns:xlink="http://www.w3.org/1999/xlink" width="460.8pt" height="288pt" viewBox="0 0 460.8 288" xmlns="http://www.w3.org/2000/svg" version="1.1">
 <metadata>
  <rdf:RDF xmlns:dc="http://purl.org/dc/elements/1.1/" xmlns:cc="http://creativecommons.org/ns#" xmlns:rdf="http://www.w3.org/1999/02/22-rdf-syntax-ns#">
   <cc:Work>
    <dc:type rdf:resource="http://purl.org/dc/dcmitype/StillImage"/>
    <dc:date>2026-08-03T03:03:16.800285</dc:date>
    <dc:format>image/svg+xml</dc:format>
    <dc:creator>
     <cc:Agent>
      <dc:title>Matplotlib v3.10.9, https://matplotlib.org/</dc:title>
     </cc:Agent>
    </dc:creator>
   </cc:Work>
  </rdf:RDF>
 </metadata>
 <defs>
  <style type="text/css">*{stroke-linejoin: round; stroke-linecap: butt}</style>
 </defs>
 <g id="figure_1">
  <g id="patch_1">
   <path d="M 0 288 
L 460.8 288 
L 460.8 0 
L 0 0 
z
" style="fill: #ffffff"/>
  </g>
  <g id="axes_1">
   <g id="patch_2">
    <path d="M 45.02125 251.97875 
L 447.01 251.97875 
L 447.01 9.2 
L 45.02125 9.2 
z
" style="fill: #ffffff"/>
   </g>
   <g id="FillBetweenPolyCollection_1">
    <path d="M 45.02125 245.695589 
L 45.02125 251.97875 
L 50.109715 251.97875 
L 55.19818 251.97875 
L 60.286646 251.97875 
L 65.375111 251.97875 
L 70.463576 251.97875 
L 75.552041 251.97875 
L 80.640506 251.97875 
L 85.728972 251.97875 
L 90.817437 251.97875 
L 95.905902 251.97875 
L 100.994367 251.97875 
L 106.082832 251.97875 
L 111.171297 251.97875 
L 116.259763 251.97875 
L 121.348228 251.97875 
L 126.436693 251.97875 
L 131.525158 251.97875 
L 136.613623 251.97875 
L 141.702089 251.97875 
L 146.790554 251.97875 
L 151.879019 251.97875 
L 156.967484 251.97875 
L 162.055949 251.97875 
L 167.144415 251.97875 
L 172.23288 251.97875 
L 177.321345 251.97875 
L 182.40981 251.97875 
L 187.498275 251.97875 
L 192.586741 251.97875 
L 197.675206 251.97875 
L 202.763671 251.97875 
L 207.852136 251.97875 
L 212.940601 251.97875 
L 218.029066 251.97875 
L 223.117532 251.97875 
L 228.205997 251.97875 
L 233.294462 251.97875 
L 238.382927 251.97875 
L 243.471392 251.97875 
L 248.559858 251.97875 
L 253.648323 251.97875 
L 258.736788 251.97875 
L 263.825253 251.97875 
L 268.913718 251.97875 
L 274.002184 251.97875 
L 279.090649 251.97875 
L 284.179114 251.97875 
L 289.267579 251.97875 
L 294.356044 251.97875 
L 299.444509 251.97875 
L 304.532975 251.97875 
L 309.62144 251.97875 
L 314.709905 251.97875 
L 319.79837 251.97875 
L 324.886835 251.97875 
L 329.975301 251.97875 
L 335.063766 251.97875 
L 340.152231 251.97875 
L 345.240696 251.97875 
L 350.329161 251.97875 
L 355.417627 251.97875 
L 360.506092 251.97875 
L 365.594557 251.97875 
L 370.683022 251.97875 
L 375.771487 251.97875 
L 380.859953 251.97875 
L 385.948418 251.97875 
L 391.036883 251.97875 
L 396.125348 251.97875 
L 401.213813 251.97875 
L 406.302278 251.97875 
L 411.390744 251.97875 
L 416.479209 251.97875 
L 421.567674 251.97875 
L 426.656139 251.97875 
L 431.744604 251.97875 
L 436.83307 251.97875 
L 441.921535 251.97875 
L 447.01 251.97875 
L 447.01 248.207391 
L 447.01 248.207391 
L 441.921535 248.251722 
L 436.83307 248.278294 
L 431.744604 248.288933 
L 426.656139 248.285745 
L 421.567674 248.271026 
L 416.479209 248.247175 
L 411.390744 248.216591 
L 406.302278 248.181589 
L 401.213813 248.144302 
L 396.125348 248.106606 
L 391.036883 248.07005 
L 385.948418 248.035794 
L 380.859953 248.004577 
L 375.771487 247.976682 
L 370.683022 247.951941 
L 365.594557 247.929736 
L 360.506092 247.909037 
L 355.417627 247.888441 
L 350.329161 247.866235 
L 345.240696 247.840473 
L 340.152231 247.809051 
L 335.063766 247.769801 
L 329.975301 247.720587 
L 324.886835 247.659391 
L 319.79837 247.584413 
L 314.709905 247.494144 
L 309.62144 247.387448 
L 304.532975 247.263618 
L 299.444509 247.122427 
L 294.356044 246.964154 
L 289.267579 246.789599 
L 284.179114 246.600077 
L 279.090649 246.397391 
L 274.002184 246.183794 
L 268.913718 245.961931 
L 263.825253 245.734765 
L 258.736788 245.505498 
L 253.648323 245.277474 
L 248.559858 245.054085 
L 243.471392 244.838672 
L 238.382927 244.634426 
L 233.294462 244.444292 
L 228.205997 244.270888 
L 223.117532 244.116427 
L 218.029066 243.982659 
L 212.940601 243.870824 
L 207.852136 243.781625 
L 202.763671 243.715217 
L 197.675206 243.671218 
L 192.586741 243.648734 
L 187.498275 243.6464 
L 182.40981 243.662448 
L 177.321345 243.694767 
L 172.23288 243.740998 
L 167.144415 243.798614 
L 162.055949 243.865023 
L 156.967484 243.93766 
L 151.879019 244.014077 
L 146.790554 244.092038 
L 141.702089 244.169589 
L 136.613623 244.245131 
L 131.525158 244.317465 
L 126.436693 244.385835 
L 121.348228 244.44994 
L 116.259763 244.509942 
L 111.171297 244.566442 
L 106.082832 244.620448 
L 100.994367 244.673326 
L 95.905902 244.726734 
L 90.817437 244.782546 
L 85.728972 244.842765 
L 80.640506 244.909438 
L 75.552041 244.984556 
L 70.463576 245.069966 
L 65.375111 245.167282 
L 60.286646 245.277806 
L 55.19818 245.402456 
L 50.109715 245.541716 
L 45.02125 245.695589 
z
" clip-path="url(#p4cf3f3d039)" style="fill: #d6f0f1; fill-opacity: 0.92"/>
   </g>
   <g id="FillBetweenPolyCollection_2">
    <path d="M 45.02125 237.289659 
L 45.02125 245.695589 
L 50.109715 245.541716 
L 55.19818 245.402456 
L 60.286646 245.277806 
L 65.375111 245.167282 
L 70.463576 245.069966 
L 75.552041 244.984556 
L 80.640506 244.909438 
L 85.728972 244.842765 
L 90.817437 244.782546 
L 95.905902 244.726734 
L 100.994367 244.673326 
L 106.082832 244.620448 
L 111.171297 244.566442 
L 116.259763 244.509942 
L 121.348228 244.44994 
L 126.436693 244.385835 
L 131.525158 244.317465 
L 136.613623 244.245131 
L 141.702089 244.169589 
L 146.790554 244.092038 
L 151.879019 244.014077 
L 156.967484 243.93766 
L 162.055949 243.865023 
L 167.144415 243.798614 
L 172.23288 243.740998 
L 177.321345 243.694767 
L 182.40981 243.662448 
L 187.498275 243.6464 
L 192.586741 243.648734 
L 197.675206 243.671218 
L 202.763671 243.715217 
L 207.852136 243.781625 
L 212.940601 243.870824 
L 218.029066 243.982659 
L 223.117532 244.116427 
L 228.205997 244.270888 
L 233.294462 244.444292 
L 238.382927 244.634426 
L 243.471392 244.838672 
L 248.559858 245.054085 
L 253.648323 245.277474 
L 258.736788 245.505498 
L 263.825253 245.734765 
L 268.913718 245.961931 
L 274.002184 246.183794 
L 279.090649 246.397391 
L 284.179114 246.600077 
L 289.267579 246.789599 
L 294.356044 246.964154 
L 299.444509 247.122427 
L 304.532975 247.263618 
L 309.62144 247.387448 
L 314.709905 247.494144 
L 319.79837 247.584413 
L 324.886835 247.659391 
L 329.975301 247.720587 
L 335.063766 247.769801 
L 340.152231 247.809051 
L 345.240696 247.840473 
L 350.329161 247.866235 
L 355.417627 247.888441 
L 360.506092 247.909037 
L 365.594557 247.929736 
L 370.683022 247.951941 
L 375.771487 247.976682 
L 380.859953 248.004577 
L 385.948418 248.035794 
L 391.036883 248.07005 
L 396.125348 248.106606 
L 401.213813 248.144302 
L 406.302278 248.181589 
L 411.390744 248.216591 
L 416.479209 248.247175 
L 421.567674 248.271026 
L 426.656139 248.285745 
L 431.744604 248.288933 
L 436.83307 248.278294 
L 441.921535 248.251722 
L 447.01 248.207391 
L 447.01 240.788709 
L 447.01 240.788709 
L 441.921535 240.930042 
L 436.83307 241.061028 
L 431.744604 241.18498 
L 426.656139 241.305229 
L 421.567674 241.424964 
L 416.479209 241.547075 
L 411.390744 241.674016 
L 406.302278 241.807675 
L 401.213813 241.949274 
L 396.125348 242.099294 
L 391.036883 242.257422 
L 385.948418 242.422542 
L 380.859953 242.592742 
L 375.771487 242.765364 
L 370.683022 242.937082 
L 365.594557 243.103998 
L 360.506092 243.261774 
L 355.417627 243.405774 
L 350.329161 243.531225 
L 345.240696 243.633384 
L 340.152231 243.707705 
L 335.063766 243.750007 
L 329.975301 243.756629 
L 324.886835 243.724571 
L 319.79837 243.651614 
L 314.709905 243.536411 
L 309.62144 243.378561 
L 304.532975 243.178639 
L 299.444509 242.938201 
L 294.356044 242.659756 
L 289.267579 242.346707 
L 284.179114 242.003256 
L 279.090649 241.634293 
L 274.002184 241.245254 
L 268.913718 240.841969 
L 263.825253 240.430485 
L 258.736788 240.0169 
L 253.648323 239.607181 
L 248.559858 239.206999 
L 243.471392 238.82157 
L 238.382927 238.45551 
L 233.294462 238.112724 
L 228.205997 237.796308 
L 223.117532 237.508483 
L 218.029066 237.25057 
L 212.940601 237.022982 
L 207.852136 236.825258 
L 202.763671 236.656124 
L 197.675206 236.513585 
L 192.586741 236.395035 
L 187.498275 236.297393 
L 182.40981 236.217253 
L 177.321345 236.151045 
L 172.23288 236.095192 
L 167.144415 236.046277 
L 162.055949 236.00119 
L 156.967484 235.95727 
L 151.879019 235.912422 
L 146.790554 235.865213 
L 141.702089 235.814943 
L 136.613623 235.761681 
L 131.525158 235.706275 
L 126.436693 235.650327 
L 121.348228 235.596142 
L 116.259763 235.546645 
L 111.171297 235.50527 
L 106.082832 235.47583 
L 100.994367 235.462373 
L 95.905902 235.469021 
L 90.817437 235.499803 
L 85.728972 235.558493 
L 80.640506 235.648448 
L 75.552041 235.772462 
L 70.463576 235.932637 
L 65.375111 236.130273 
L 60.286646 236.365788 
L 55.19818 236.638664 
L 50.109715 236.947428 
L 45.02125 237.289659 
z
" clip-path="url(#p4cf3f3d039)" style="fill: #f9e8d4; fill-opacity: 0.92"/>
   </g>
   <g id="FillBetweenPolyCollection_3">
    <path d="M 45.02125 227.669923 
L 45.02125 237.289659 
L 50.109715 236.947428 
L 55.19818 236.638664 
L 60.286646 236.365788 
L 65.375111 236.130273 
L 70.463576 235.932637 
L 75.552041 235.772462 
L 80.640506 235.648448 
L 85.728972 235.558493 
L 90.817437 235.499803 
L 95.905902 235.469021 
L 100.994367 235.462373 
L 106.082832 235.47583 
L 111.171297 235.50527 
L 116.259763 235.546645 
L 121.348228 235.596142 
L 126.436693 235.650327 
L 131.525158 235.706275 
L 136.613623 235.761681 
L 141.702089 235.814943 
L 146.790554 235.865213 
L 151.879019 235.912422 
L 156.967484 235.95727 
L 162.055949 236.00119 
L 167.144415 236.046277 
L 172.23288 236.095192 
L 177.321345 236.151045 
L 182.40981 236.217253 
L 187.498275 236.297393 
L 192.586741 236.395035 
L 197.675206 236.513585 
L 202.763671 236.656124 
L 207.852136 236.825258 
L 212.940601 237.022982 
L 218.029066 237.25057 
L 223.117532 237.508483 
L 228.205997 237.796308 
L 233.294462 238.112724 
L 238.382927 238.45551 
L 243.471392 238.82157 
L 248.559858 239.206999 
L 253.648323 239.607181 
L 258.736788 240.0169 
L 263.825253 240.430485 
L 268.913718 240.841969 
L 274.002184 241.245254 
L 279.090649 241.634293 
L 284.179114 242.003256 
L 289.267579 242.346707 
L 294.356044 242.659756 
L 299.444509 242.938201 
L 304.532975 243.178639 
L 309.62144 243.378561 
L 314.709905 243.536411 
L 319.79837 243.651614 
L 324.886835 243.724571 
L 329.975301 243.756629 
L 335.063766 243.750007 
L 340.152231 243.707705 
L 345.240696 243.633384 
L 350.329161 243.531225 
L 355.417627 243.405774 
L 360.506092 243.261774 
L 365.594557 243.103998 
L 370.683022 242.937082 
L 375.771487 242.765364 
L 380.859953 242.592742 
L 385.948418 242.422542 
L 391.036883 242.257422 
L 396.125348 242.099294 
L 401.213813 241.949274 
L 406.302278 241.807675 
L 411.390744 241.674016 
L 416.479209 241.547075 
L 421.567674 241.424964 
L 426.656139 241.305229 
L 431.744604 241.18498 
L 436.83307 241.061028 
L 441.921535 240.930042 
L 447.01 240.788709 
L 447.01 230.625316 
L 447.01 230.625316 
L 441.921535 230.767292 
L 436.83307 230.92765 
L 431.744604 231.109837 
L 426.656139 231.316718 
L 421.567674 231.550418 
L 416.479209 231.812193 
L 411.390744 232.102334 
L 406.302278 232.420098 
L 401.213813 232.76368 
L 396.125348 233.130222 
L 391.036883 233.515861 
L 385.948418 233.915812 
L 380.859953 234.324484 
L 375.771487 234.735628 
L 370.683022 235.142513 
L 365.594557 235.538109 
L 360.506092 235.915303 
L 355.417627 236.267097 
L 350.329161 236.586825 
L 345.240696 236.868348 
L 340.152231 237.106235 
L 335.063766 237.295932 
L 329.975301 237.433888 
L 324.886835 237.51766 
L 319.79837 237.545977 
L 314.709905 237.518772 
L 309.62144 237.437163 
L 304.532975 237.303412 
L 299.444509 237.120833 
L 294.356044 236.893679 
L 289.267579 236.626989 
L 284.179114 236.326419 
L 279.090649 235.998053 
L 274.002184 235.648205 
L 268.913718 235.283212 
L 263.825253 234.909239 
L 258.736788 234.532087 
L 253.648323 234.157023 
L 248.559858 233.788634 
L 243.471392 233.430699 
L 238.382927 233.086113 
L 233.294462 232.756826 
L 228.205997 232.443833 
L 223.117532 232.147191 
L 218.029066 231.866086 
L 212.940601 231.598914 
L 207.852136 231.343413 
L 202.763671 231.096804 
L 197.675206 230.855958 
L 192.586741 230.617581 
L 187.498275 230.378395 
L 182.40981 230.135327 
L 177.321345 229.885684 
L 172.23288 229.627322 
L 167.144415 229.35878 
L 162.055949 229.079406 
L 156.967484 228.789433 
L 151.879019 228.490036 
L 146.790554 228.183346 
L 141.702089 227.872423 
L 136.613623 227.561199 
L 131.525158 227.254384 
L 126.436693 226.957336 
L 121.348228 226.675908 
L 116.259763 226.416271 
L 111.171297 226.184722 
L 106.082832 225.987477 
L 100.994367 225.830473 
L 95.905902 225.71916 
L 90.817437 225.658318 
L 85.728972 225.651886 
L 80.640506 225.702818 
L 75.552041 225.812966 
L 70.463576 225.983001 
L 65.375111 226.212368 
L 60.286646 226.499279 
L 55.19818 226.840752 
L 50.109715 227.232676 
L 45.02125 227.669923 
z
" clip-path="url(#p4cf3f3d039)" style="fill: #4ea8c0; fill-opacity: 0.92"/>
   </g>
   <g id="FillBetweenPolyCollection_4">
    <path d="M 45.02125 217.778161 
L 45.02125 227.669923 
L 50.109715 227.232676 
L 55.19818 226.840752 
L 60.286646 226.499279 
L 65.375111 226.212368 
L 70.463576 225.983001 
L 75.552041 225.812966 
L 80.640506 225.702818 
L 85.728972 225.651886 
L 90.817437 225.658318 
L 95.905902 225.71916 
L 100.994367 225.830473 
L 106.082832 225.987477 
L 111.171297 226.184722 
L 116.259763 226.416271 
L 121.348228 226.675908 
L 126.436693 226.957336 
L 131.525158 227.254384 
L 136.613623 227.561199 
L 141.702089 227.872423 
L 146.790554 228.183346 
L 151.879019 228.490036 
L 156.967484 228.789433 
L 162.055949 229.079406 
L 167.144415 229.35878 
L 172.23288 229.627322 
L 177.321345 229.885684 
L 182.40981 230.135327 
L 187.498275 230.378395 
L 192.586741 230.617581 
L 197.675206 230.855958 
L 202.763671 231.096804 
L 207.852136 231.343413 
L 212.940601 231.598914 
L 218.029066 231.866086 
L 223.117532 232.147191 
L 228.205997 232.443833 
L 233.294462 232.756826 
L 238.382927 233.086113 
L 243.471392 233.430699 
L 248.559858 233.788634 
L 253.648323 234.157023 
L 258.736788 234.532087 
L 263.825253 234.909239 
L 268.913718 235.283212 
L 274.002184 235.648205 
L 279.090649 235.998053 
L 284.179114 236.326419 
L 289.267579 236.626989 
L 294.356044 236.893679 
L 299.444509 237.120833 
L 304.532975 237.303412 
L 309.62144 237.437163 
L 314.709905 237.518772 
L 319.79837 237.545977 
L 324.886835 237.51766 
L 329.975301 237.433888 
L 335.063766 237.295932 
L 340.152231 237.106235 
L 345.240696 236.868348 
L 350.329161 236.586825 
L 355.417627 236.267097 
L 360.506092 235.915303 
L 365.594557 235.538109 
L 370.683022 235.142513 
L 375.771487 234.735628 
L 380.859953 234.324484 
L 385.948418 233.915812 
L 391.036883 233.515861 
L 396.125348 233.130222 
L 401.213813 232.76368 
L 406.302278 232.420098 
L 411.390744 232.102334 
L 416.479209 231.812193 
L 421.567674 231.550418 
L 426.656139 231.316718 
L 431.744604 231.109837 
L 436.83307 230.92765 
L 441.921535 230.767292 
L 447.01 230.625316 
L 447.01 220.949277 
L 447.01 220.949277 
L 441.921535 220.960817 
L 436.83307 221.010553 
L 431.744604 221.101167 
L 426.656139 221.234382 
L 421.567674 221.410877 
L 416.479209 221.630244 
L 411.390744 221.890974 
L 406.302278 222.190482 
L 401.213813 222.525165 
L 396.125348 222.890495 
L 391.036883 223.281142 
L 385.948418 223.691118 
L 380.859953 224.11395 
L 375.771487 224.542858 
L 370.683022 224.970951 
L 365.594557 225.391419 
L 360.506092 225.79772 
L 355.417627 226.183762 
L 350.329161 226.544061 
L 345.240696 226.873881 
L 340.152231 227.169344 
L 335.063766 227.427515 
L 329.975301 227.646442 
L 324.886835 227.825179 
L 319.79837 227.963758 
L 314.709905 228.063134 
L 309.62144 228.125108 
L 304.532975 228.152203 
L 299.444509 228.147538 
L 294.356044 228.114668 
L 289.267579 228.05742 
L 284.179114 227.979725 
L 279.090649 227.885443 
L 274.002184 227.778206 
L 268.913718 227.661262 
L 263.825253 227.537349 
L 258.736788 227.408585 
L 253.648323 227.276392 
L 248.559858 227.141447 
L 243.471392 227.003666 
L 238.382927 226.862221 
L 233.294462 226.715591 
L 228.205997 226.561645 
L 223.117532 226.397748 
L 218.029066 226.220895 
L 212.940601 226.027859 
L 207.852136 225.815362 
L 202.763671 225.580241 
L 197.675206 225.31962 
L 192.586741 225.031079 
L 187.498275 224.712806 
L 182.40981 224.363735 
L 177.321345 223.983651 
L 172.23288 223.573284 
L 167.144415 223.134355 
L 162.055949 222.669597 
L 156.967484 222.18274 
L 151.879019 221.678458 
L 146.790554 221.162286 
L 141.702089 220.640504 
L 136.613623 220.119992 
L 131.525158 219.608067 
L 126.436693 219.112296 
L 121.348228 218.640301 
L 116.259763 218.199561 
L 111.171297 217.797211 
L 106.082832 217.439852 
L 100.994367 217.133376 
L 95.905902 216.882811 
L 90.817437 216.692191 
L 85.728972 216.564455 
L 80.640506 216.501384 
L 75.552041 216.503566 
L 70.463576 216.570401 
L 65.375111 216.700146 
L 60.286646 216.889981 
L 55.19818 217.136122 
L 50.109715 217.433949 
L 45.02125 217.778161 
z
" clip-path="url(#p4cf3f3d039)" style="fill: #ffa453; fill-opacity: 0.92"/>
   </g>
   <g id="FillBetweenPolyCollection_5">
    <path d="M 45.02125 208.213507 
L 45.02125 217.778161 
L 50.109715 217.433949 
L 55.19818 217.136122 
L 60.286646 216.889981 
L 65.375111 216.700146 
L 70.463576 216.570401 
L 75.552041 216.503566 
L 80.640506 216.501384 
L 85.728972 216.564455 
L 90.817437 216.692191 
L 95.905902 216.882811 
L 100.994367 217.133376 
L 106.082832 217.439852 
L 111.171297 217.797211 
L 116.259763 218.199561 
L 121.348228 218.640301 
L 126.436693 219.112296 
L 131.525158 219.608067 
L 136.613623 220.119992 
L 141.702089 220.640504 
L 146.790554 221.162286 
L 151.879019 221.678458 
L 156.967484 222.18274 
L 162.055949 222.669597 
L 167.144415 223.134355 
L 172.23288 223.573284 
L 177.321345 223.983651 
L 182.40981 224.363735 
L 187.498275 224.712806 
L 192.586741 225.031079 
L 197.675206 225.31962 
L 202.763671 225.580241 
L 207.852136 225.815362 
L 212.940601 226.027859 
L 218.029066 226.220895 
L 223.117532 226.397748 
L 228.205997 226.561645 
L 233.294462 226.715591 
L 238.382927 226.862221 
L 243.471392 227.003666 
L 248.559858 227.141447 
L 253.648323 227.276392 
L 258.736788 227.408585 
L 263.825253 227.537349 
L 268.913718 227.661262 
L 274.002184 227.778206 
L 279.090649 227.885443 
L 284.179114 227.979725 
L 289.267579 228.05742 
L 294.356044 228.114668 
L 299.444509 228.147538 
L 304.532975 228.152203 
L 309.62144 228.125108 
L 314.709905 228.063134 
L 319.79837 227.963758 
L 324.886835 227.825179 
L 329.975301 227.646442 
L 335.063766 227.427515 
L 340.152231 227.169344 
L 345.240696 226.873881 
L 350.329161 226.544061 
L 355.417627 226.183762 
L 360.506092 225.79772 
L 365.594557 225.391419 
L 370.683022 224.970951 
L 375.771487 224.542858 
L 380.859953 224.11395 
L 385.948418 223.691118 
L 391.036883 223.281142 
L 396.125348 222.890495 
L 401.213813 222.525165 
L 406.302278 222.190482 
L 411.390744 221.890974 
L 416.479209 221.630244 
L 421.567674 221.410877 
L 426.656139 221.234382 
L 431.744604 221.101167 
L 436.83307 221.010553 
L 441.921535 220.960817 
L 447.01 220.949277 
L 447.01 213.424764 
L 447.01 213.424764 
L 441.921535 213.336565 
L 436.83307 213.272503 
L 431.744604 213.234278 
L 426.656139 213.222902 
L 421.567674 213.238686 
L 416.479209 213.281256 
L 411.390744 213.349588 
L 406.302278 213.442066 
L 401.213813 213.556556 
L 396.125348 213.6905 
L 391.036883 213.841013 
L 385.948418 214.004996 
L 380.859953 214.179249 
L 375.771487 214.360586 
L 370.683022 214.54594 
L 365.594557 214.732465 
L 360.506092 214.917623 
L 355.417627 215.099254 
L 350.329161 215.275636 
L 345.240696 215.445511 
L 340.152231 215.608105 
L 335.063766 215.763115 
L 329.975301 215.910687 
L 324.886835 216.051359 
L 319.79837 216.186004 
L 314.709905 216.315746 
L 309.62144 216.441867 
L 304.532975 216.565712 
L 299.444509 216.688583 
L 294.356044 216.811638 
L 289.267579 216.93579 
L 284.179114 217.061622 
L 279.090649 217.189307 
L 274.002184 217.318547 
L 268.913718 217.448531 
L 263.825253 217.577909 
L 258.736788 217.704797 
L 253.648323 217.826791 
L 248.559858 217.941018 
L 243.471392 218.044192 
L 238.382927 218.132704 
L 233.294462 218.20272 
L 228.205997 218.250292 
L 223.117532 218.271484 
L 218.029066 218.262497 
L 212.940601 218.219801 
L 207.852136 218.140261 
L 202.763671 218.021254 
L 197.675206 217.860777 
L 192.586741 217.65754 
L 187.498275 217.411034 
L 182.40981 217.121588 
L 177.321345 216.790392 
L 172.23288 216.419503 
L 167.144415 216.011824 
L 162.055949 215.571055 
L 156.967484 215.101628 
L 151.879019 214.608616 
L 146.790554 214.097625 
L 141.702089 213.574671 
L 136.613623 213.046048 
L 131.525158 212.518188 
L 126.436693 211.997516 
L 121.348228 211.490318 
L 116.259763 211.002598 
L 111.171297 210.539963 
L 106.082832 210.107514 
L 100.994367 209.709751 
L 95.905902 209.350511 
L 90.817437 209.032912 
L 85.728972 208.759332 
L 80.640506 208.531404 
L 75.552041 208.35004 
L 70.463576 208.215468 
L 65.375111 208.127295 
L 60.286646 208.084578 
L 55.19818 208.085923 
L 50.109715 208.12957 
L 45.02125 208.213507 
z
" clip-path="url(#p4cf3f3d039)" style="fill: #e9f6f7; fill-opacity: 0.92"/>
   </g>
   <g id="FillBetweenPolyCollection_6">
    <path d="M 45.02125 199.111185 
L 45.02125 208.213507 
L 50.109715 208.12957 
L 55.19818 208.085923 
L 60.286646 208.084578 
L 65.375111 208.127295 
L 70.463576 208.215468 
L 75.552041 208.35004 
L 80.640506 208.531404 
L 85.728972 208.759332 
L 90.817437 209.032912 
L 95.905902 209.350511 
L 100.994367 209.709751 
L 106.082832 210.107514 
L 111.171297 210.539963 
L 116.259763 211.002598 
L 121.348228 211.490318 
L 126.436693 211.997516 
L 131.525158 212.518188 
L 136.613623 213.046048 
L 141.702089 213.574671 
L 146.790554 214.097625 
L 151.879019 214.608616 
L 156.967484 215.101628 
L 162.055949 215.571055 
L 167.144415 216.011824 
L 172.23288 216.419503 
L 177.321345 216.790392 
L 182.40981 217.121588 
L 187.498275 217.411034 
L 192.586741 217.65754 
L 197.675206 217.860777 
L 202.763671 218.021254 
L 207.852136 218.140261 
L 212.940601 218.219801 
L 218.029066 218.262497 
L 223.117532 218.271484 
L 228.205997 218.250292 
L 233.294462 218.20272 
L 238.382927 218.132704 
L 243.471392 218.044192 
L 248.559858 217.941018 
L 253.648323 217.826791 
L 258.736788 217.704797 
L 263.825253 217.577909 
L 268.913718 217.448531 
L 274.002184 217.318547 
L 279.090649 217.189307 
L 284.179114 217.061622 
L 289.267579 216.93579 
L 294.356044 216.811638 
L 299.444509 216.688583 
L 304.532975 216.565712 
L 309.62144 216.441867 
L 314.709905 216.315746 
L 319.79837 216.186004 
L 324.886835 216.051359 
L 329.975301 215.910687 
L 335.063766 215.763115 
L 340.152231 215.608105 
L 345.240696 215.445511 
L 350.329161 215.275636 
L 355.417627 215.099254 
L 360.506092 214.917623 
L 365.594557 214.732465 
L 370.683022 214.54594 
L 375.771487 214.360586 
L 380.859953 214.179249 
L 385.948418 214.004996 
L 391.036883 213.841013 
L 396.125348 213.6905 
L 401.213813 213.556556 
L 406.302278 213.442066 
L 411.390744 213.349588 
L 416.479209 213.281256 
L 421.567674 213.238686 
L 426.656139 213.222902 
L 431.744604 213.234278 
L 436.83307 213.272503 
L 441.921535 213.336565 
L 447.01 213.424764 
L 447.01 206.184673 
L 447.01 206.184673 
L 441.921535 206.189543 
L 436.83307 206.183003 
L 431.744604 206.165636 
L 426.656139 206.138053 
L 421.567674 206.100897 
L 416.479209 206.054848 
L 411.390744 206.000627 
L 406.302278 205.939005 
L 401.213813 205.870816 
L 396.125348 205.79696 
L 391.036883 205.718414 
L 385.948418 205.636239 
L 380.859953 205.551583 
L 375.771487 205.465681 
L 370.683022 205.379853 
L 365.594557 205.295497 
L 360.506092 205.214076 
L 355.417627 205.137105 
L 350.329161 205.066126 
L 345.240696 205.002688 
L 340.152231 204.948316 
L 335.063766 204.904482 
L 329.975301 204.872569 
L 324.886835 204.853837 
L 319.79837 204.849388 
L 314.709905 204.86013 
L 309.62144 204.886745 
L 304.532975 204.92966 
L 299.444509 204.989019 
L 294.356044 205.064661 
L 289.267579 205.156107 
L 284.179114 205.26255 
L 279.090649 205.382849 
L 274.002184 205.515543 
L 268.913718 205.658853 
L 263.825253 205.810712 
L 258.736788 205.968784 
L 253.648323 206.130504 
L 248.559858 206.293114 
L 243.471392 206.453712 
L 238.382927 206.609296 
L 233.294462 206.756819 
L 228.205997 206.893242 
L 223.117532 207.01559 
L 218.029066 207.121002 
L 212.940601 207.206784 
L 207.852136 207.270457 
L 202.763671 207.309801 
L 197.675206 207.322891 
L 192.586741 207.308133 
L 187.498275 207.264287 
L 182.40981 207.190487 
L 177.321345 207.086252 
L 172.23288 206.95149 
L 167.144415 206.786496 
L 162.055949 206.591941 
L 156.967484 206.36886 
L 151.879019 206.118628 
L 146.790554 205.842935 
L 141.702089 205.543763 
L 136.613623 205.223345 
L 131.525158 204.884141 
L 126.436693 204.528802 
L 121.348228 204.160134 
L 116.259763 203.781069 
L 111.171297 203.394633 
L 106.082832 203.00392 
L 100.994367 202.612065 
L 95.905902 202.222222 
L 90.817437 201.837544 
L 85.728972 201.46117 
L 80.640506 201.096206 
L 75.552041 200.74572 
L 70.463576 200.412727 
L 65.375111 200.100185 
L 60.286646 199.810985 
L 55.19818 199.547943 
L 50.109715 199.313796 
L 45.02125 199.111185 
z
" clip-path="url(#p4cf3f3d039)" style="fill: #bde2ea; fill-opacity: 0.92"/>
   </g>
   <g id="FillBetweenPolyCollection_7">
    <path d="M 45.02125 190.184888 
L 45.02125 199.111185 
L 50.109715 199.313796 
L 55.19818 199.547943 
L 60.286646 199.810985 
L 65.375111 200.100185 
L 70.463576 200.412727 
L 75.552041 200.74572 
L 80.640506 201.096206 
L 85.728972 201.46117 
L 90.817437 201.837544 
L 95.905902 202.222222 
L 100.994367 202.612065 
L 106.082832 203.00392 
L 111.171297 203.394633 
L 116.259763 203.781069 
L 121.348228 204.160134 
L 126.436693 204.528802 
L 131.525158 204.884141 
L 136.613623 205.223345 
L 141.702089 205.543763 
L 146.790554 205.842935 
L 151.879019 206.118628 
L 156.967484 206.36886 
L 162.055949 206.591941 
L 167.144415 206.786496 
L 172.23288 206.95149 
L 177.321345 207.086252 
L 182.40981 207.190487 
L 187.498275 207.264287 
L 192.586741 207.308133 
L 197.675206 207.322891 
L 202.763671 207.309801 
L 207.852136 207.270457 
L 212.940601 207.206784 
L 218.029066 207.121002 
L 223.117532 207.01559 
L 228.205997 206.893242 
L 233.294462 206.756819 
L 238.382927 206.609296 
L 243.471392 206.453712 
L 248.559858 206.293114 
L 253.648323 206.130504 
L 258.736788 205.968784 
L 263.825253 205.810712 
L 268.913718 205.658853 
L 274.002184 205.515543 
L 279.090649 205.382849 
L 284.179114 205.26255 
L 289.267579 205.156107 
L 294.356044 205.064661 
L 299.444509 204.989019 
L 304.532975 204.92966 
L 309.62144 204.886745 
L 314.709905 204.86013 
L 319.79837 204.849388 
L 324.886835 204.853837 
L 329.975301 204.872569 
L 335.063766 204.904482 
L 340.152231 204.948316 
L 345.240696 205.002688 
L 350.329161 205.066126 
L 355.417627 205.137105 
L 360.506092 205.214076 
L 365.594557 205.295497 
L 370.683022 205.379853 
L 375.771487 205.465681 
L 380.859953 205.551583 
L 385.948418 205.636239 
L 391.036883 205.718414 
L 396.125348 205.79696 
L 401.213813 205.870816 
L 406.302278 205.939005 
L 411.390744 206.000627 
L 416.479209 206.054848 
L 421.567674 206.100897 
L 426.656139 206.138053 
L 431.744604 206.165636 
L 436.83307 206.183003 
L 441.921535 206.189543 
L 447.01 206.184673 
L 447.01 196.142889 
L 447.01 196.142889 
L 441.921535 196.355252 
L 436.83307 196.539757 
L 431.744604 196.696105 
L 426.656139 196.824454 
L 421.567674 196.925386 
L 416.479209 196.999843 
L 411.390744 197.049074 
L 406.302278 197.074568 
L 401.213813 197.077987 
L 396.125348 197.061105 
L 391.036883 197.025747 
L 385.948418 196.973729 
L 380.859953 196.906813 
L 375.771487 196.826665 
L 370.683022 196.734826 
L 365.594557 196.632692 
L 360.506092 196.521506 
L 355.417627 196.402355 
L 350.329161 196.276189 
L 345.240696 196.143832 
L 340.152231 196.006017 
L 335.063766 195.863415 
L 329.975301 195.716674 
L 324.886835 195.566456 
L 319.79837 195.413473 
L 314.709905 195.258528 
L 309.62144 195.102542 
L 304.532975 194.946576 
L 299.444509 194.791851 
L 294.356044 194.639754 
L 289.267579 194.491832 
L 284.179114 194.349779 
L 279.090649 194.215412 
L 274.002184 194.090631 
L 268.913718 193.977383 
L 263.825253 193.8776 
L 258.736788 193.793145 
L 253.648323 193.725746 
L 248.559858 193.676931 
L 243.471392 193.647964 
L 238.382927 193.639777 
L 233.294462 193.652918 
L 228.205997 193.687496 
L 223.117532 193.743144 
L 218.029066 193.818987 
L 212.940601 193.913628 
L 207.852136 194.025148 
L 202.763671 194.151116 
L 197.675206 194.288623 
L 192.586741 194.434324 
L 187.498275 194.584495 
L 182.40981 194.73511 
L 177.321345 194.881918 
L 172.23288 195.020541 
L 167.144415 195.14657 
L 162.055949 195.25567 
L 156.967484 195.343685 
L 151.879019 195.406739 
L 146.790554 195.441337 
L 141.702089 195.444456 
L 136.613623 195.413623 
L 131.525158 195.34699 
L 126.436693 195.243381 
L 121.348228 195.102337 
L 116.259763 194.924134 
L 111.171297 194.709791 
L 106.082832 194.461051 
L 100.994367 194.180358 
L 95.905902 193.870809 
L 90.817437 193.536089 
L 85.728972 193.180406 
L 80.640506 192.8084 
L 75.552041 192.425056 
L 70.463576 192.035609 
L 65.375111 191.645438 
L 60.286646 191.259975 
L 55.19818 190.884602 
L 50.109715 190.524565 
L 45.02125 190.184888 
z
" clip-path="url(#p4cf3f3d039)" style="fill: #4eabc0; fill-opacity: 0.92"/>
   </g>
   <g id="FillBetweenPolyCollection_8">
    <path d="M 45.02125 180.815444 
L 45.02125 190.184888 
L 50.109715 190.524565 
L 55.19818 190.884602 
L 60.286646 191.259975 
L 65.375111 191.645438 
L 70.463576 192.035609 
L 75.552041 192.425056 
L 80.640506 192.8084 
L 85.728972 193.180406 
L 90.817437 193.536089 
L 95.905902 193.870809 
L 100.994367 194.180358 
L 106.082832 194.461051 
L 111.171297 194.709791 
L 116.259763 194.924134 
L 121.348228 195.102337 
L 126.436693 195.243381 
L 131.525158 195.34699 
L 136.613623 195.413623 
L 141.702089 195.444456 
L 146.790554 195.441337 
L 151.879019 195.406739 
L 156.967484 195.343685 
L 162.055949 195.25567 
L 167.144415 195.14657 
L 172.23288 195.020541 
L 177.321345 194.881918 
L 182.40981 194.73511 
L 187.498275 194.584495 
L 192.586741 194.434324 
L 197.675206 194.288623 
L 202.763671 194.151116 
L 207.852136 194.025148 
L 212.940601 193.913628 
L 218.029066 193.818987 
L 223.117532 193.743144 
L 228.205997 193.687496 
L 233.294462 193.652918 
L 238.382927 193.639777 
L 243.471392 193.647964 
L 248.559858 193.676931 
L 253.648323 193.725746 
L 258.736788 193.793145 
L 263.825253 193.8776 
L 268.913718 193.977383 
L 274.002184 194.090631 
L 279.090649 194.215412 
L 284.179114 194.349779 
L 289.267579 194.491832 
L 294.356044 194.639754 
L 299.444509 194.791851 
L 304.532975 194.946576 
L 309.62144 195.102542 
L 314.709905 195.258528 
L 319.79837 195.413473 
L 324.886835 195.566456 
L 329.975301 195.716674 
L 335.063766 195.863415 
L 340.152231 196.006017 
L 345.240696 196.143832 
L 350.329161 196.276189 
L 355.417627 196.402355 
L 360.506092 196.521506 
L 365.594557 196.632692 
L 370.683022 196.734826 
L 375.771487 196.826665 
L 380.859953 196.906813 
L 385.948418 196.973729 
L 391.036883 197.025747 
L 396.125348 197.061105 
L 401.213813 197.077987 
L 406.302278 197.074568 
L 411.390744 197.049074 
L 416.479209 196.999843 
L 421.567674 196.925386 
L 426.656139 196.824454 
L 431.744604 196.696105 
L 436.83307 196.539757 
L 441.921535 196.355252 
L 447.01 196.142889 
L 447.01 182.718799 
L 447.01 182.718799 
L 441.921535 182.989407 
L 436.83307 183.256858 
L 431.744604 183.521574 
L 426.656139 183.784053 
L 421.567674 184.044758 
L 416.479209 184.304006 
L 411.390744 184.561874 
L 406.302278 184.818104 
L 401.213813 185.072036 
L 396.125348 185.322545 
L 391.036883 185.56802 
L 385.948418 185.806344 
L 380.859953 186.034922 
L 375.771487 186.250714 
L 370.683022 186.450308 
L 365.594557 186.630003 
L 360.506092 186.785922 
L 355.417627 186.914132 
L 350.329161 187.010783 
L 345.240696 187.072246 
L 340.152231 187.095261 
L 335.063766 187.077074 
L 329.975301 187.01557 
L 324.886835 186.90939 
L 319.79837 186.758026 
L 314.709905 186.5619 
L 309.62144 186.322407 
L 304.532975 186.04194 
L 299.444509 185.723875 
L 294.356044 185.372529 
L 289.267579 184.993088 
L 284.179114 184.591505 
L 279.090649 184.174372 
L 274.002184 183.748768 
L 268.913718 183.322089 
L 263.825253 182.901868 
L 258.736788 182.495579 
L 253.648323 182.110449 
L 248.559858 181.753267 
L 243.471392 181.430203 
L 238.382927 181.146649 
L 233.294462 180.907072 
L 228.205997 180.714896 
L 223.117532 180.572417 
L 218.029066 180.480741 
L 212.940601 180.439765 
L 207.852136 180.448183 
L 202.763671 180.503533 
L 197.675206 180.602273 
L 192.586741 180.739886 
L 187.498275 180.911013 
L 182.40981 181.109607 
L 177.321345 181.329108 
L 172.23288 181.562617 
L 167.144415 181.803096 
L 162.055949 182.043547 
L 156.967484 182.2772 
L 151.879019 182.497684 
L 146.790554 182.699178 
L 141.702089 182.876549 
L 136.613623 183.025458 
L 131.525158 183.142445 
L 126.436693 183.224979 
L 121.348228 183.271482 
L 116.259763 183.281324 
L 111.171297 183.254786 
L 106.082832 183.193002 
L 100.994367 183.097875 
L 95.905902 182.971972 
L 90.817437 182.81841 
L 85.728972 182.64073 
L 80.640506 182.442764 
L 75.552041 182.228503 
L 70.463576 182.001975 
L 65.375111 181.767127 
L 60.286646 181.527722 
L 55.19818 181.287258 
L 50.109715 181.048902 
L 45.02125 180.815444 
z
" clip-path="url(#p4cf3f3d039)" style="fill: #2f7f95; fill-opacity: 0.92"/>
   </g>
   <g id="FillBetweenPolyCollection_9">
    <path d="M 45.02125 170.186338 
L 45.02125 180.815444 
L 50.109715 181.048902 
L 55.19818 181.287258 
L 60.286646 181.527722 
L 65.375111 181.767127 
L 70.463576 182.001975 
L 75.552041 182.228503 
L 80.640506 182.442764 
L 85.728972 182.64073 
L 90.817437 182.81841 
L 95.905902 182.971972 
L 100.994367 183.097875 
L 106.082832 183.193002 
L 111.171297 183.254786 
L 116.259763 183.281324 
L 121.348228 183.271482 
L 126.436693 183.224979 
L 131.525158 183.142445 
L 136.613623 183.025458 
L 141.702089 182.876549 
L 146.790554 182.699178 
L 151.879019 182.497684 
L 156.967484 182.2772 
L 162.055949 182.043547 
L 167.144415 181.803096 
L 172.23288 181.562617 
L 177.321345 181.329108 
L 182.40981 181.109607 
L 187.498275 180.911013 
L 192.586741 180.739886 
L 197.675206 180.602273 
L 202.763671 180.503533 
L 207.852136 180.448183 
L 212.940601 180.439765 
L 218.029066 180.480741 
L 223.117532 180.572417 
L 228.205997 180.714896 
L 233.294462 180.907072 
L 238.382927 181.146649 
L 243.471392 181.430203 
L 248.559858 181.753267 
L 253.648323 182.110449 
L 258.736788 182.495579 
L 263.825253 182.901868 
L 268.913718 183.322089 
L 274.002184 183.748768 
L 279.090649 184.174372 
L 284.179114 184.591505 
L 289.267579 184.993088 
L 294.356044 185.372529 
L 299.444509 185.723875 
L 304.532975 186.04194 
L 309.62144 186.322407 
L 314.709905 186.5619 
L 319.79837 186.758026 
L 324.886835 186.90939 
L 329.975301 187.01557 
L 335.063766 187.077074 
L 340.152231 187.095261 
L 345.240696 187.072246 
L 350.329161 187.010783 
L 355.417627 186.914132 
L 360.506092 186.785922 
L 365.594557 186.630003 
L 370.683022 186.450308 
L 375.771487 186.250714 
L 380.859953 186.034922 
L 385.948418 185.806344 
L 391.036883 185.56802 
L 396.125348 185.322545 
L 401.213813 185.072036 
L 406.302278 184.818104 
L 411.390744 184.561874 
L 416.479209 184.304006 
L 421.567674 184.044758 
L 426.656139 183.784053 
L 431.744604 183.521574 
L 436.83307 183.256858 
L 441.921535 182.989407 
L 447.01 182.718799 
L 447.01 168.451317 
L 447.01 168.451317 
L 441.921535 168.513109 
L 436.83307 168.610771 
L 431.744604 168.74774 
L 426.656139 168.926657 
L 421.567674 169.149213 
L 416.479209 169.416019 
L 411.390744 169.726516 
L 406.302278 170.078907 
L 401.213813 170.470137 
L 396.125348 170.895912 
L 391.036883 171.350756 
L 385.948418 171.828105 
L 380.859953 172.320446 
L 375.771487 172.819483 
L 370.683022 173.316338 
L 365.594557 173.801767 
L 360.506092 174.266398 
L 355.417627 174.70098 
L 350.329161 175.09663 
L 345.240696 175.445072 
L 340.152231 175.738865 
L 335.063766 175.971613 
L 329.975301 176.138141 
L 324.886835 176.234638 
L 319.79837 176.258772 
L 314.709905 176.209745 
L 309.62144 176.088326 
L 304.532975 175.896822 
L 299.444509 175.639017 
L 294.356044 175.320064 
L 289.267579 174.946339 
L 284.179114 174.525269 
L 279.090649 174.065125 
L 274.002184 173.574796 
L 268.913718 173.063553 
L 263.825253 172.540803 
L 258.736788 172.015849 
L 253.648323 171.497653 
L 248.559858 170.994625 
L 243.471392 170.514421 
L 238.382927 170.063785 
L 233.294462 169.648411 
L 228.205997 169.272848 
L 223.117532 168.940442 
L 218.029066 168.653316 
L 212.940601 168.412391 
L 207.852136 168.217439 
L 202.763671 168.067172 
L 197.675206 167.959364 
L 192.586741 167.890988 
L 187.498275 167.858377 
L 182.40981 167.857397 
L 177.321345 167.883626 
L 172.23288 167.932521 
L 167.144415 167.999592 
L 162.055949 168.080553 
L 156.967484 168.171453 
L 151.879019 168.268789 
L 146.790554 168.369584 
L 141.702089 168.471447 
L 136.613623 168.572588 
L 131.525158 168.671817 
L 126.436693 168.768502 
L 121.348228 168.862512 
L 116.259763 168.954129 
L 111.171297 169.043944 
L 106.082832 169.132743 
L 100.994367 169.221383 
L 95.905902 169.310667 
L 90.817437 169.401225 
L 85.728972 169.493407 
L 80.640506 169.587186 
L 75.552041 169.682089 
L 70.463576 169.777149 
L 65.375111 169.870884 
L 60.286646 169.961309 
L 55.19818 170.045975 
L 50.109715 170.122033 
L 45.02125 170.186338 
z
" clip-path="url(#p4cf3f3d039)" style="fill: #1b5666; fill-opacity: 0.92"/>
   </g>
   <g id="FillBetweenPolyCollection_10">
    <path d="M 45.02125 157.545501 
L 45.02125 170.186338 
L 50.109715 170.122033 
L 55.19818 170.045975 
L 60.286646 169.961309 
L 65.375111 169.870884 
L 70.463576 169.777149 
L 75.552041 169.682089 
L 80.640506 169.587186 
L 85.728972 169.493407 
L 90.817437 169.401225 
L 95.905902 169.310667 
L 100.994367 169.221383 
L 106.082832 169.132743 
L 111.171297 169.043944 
L 116.259763 168.954129 
L 121.348228 168.862512 
L 126.436693 168.768502 
L 131.525158 168.671817 
L 136.613623 168.572588 
L 141.702089 168.471447 
L 146.790554 168.369584 
L 151.879019 168.268789 
L 156.967484 168.171453 
L 162.055949 168.080553 
L 167.144415 167.999592 
L 172.23288 167.932521 
L 177.321345 167.883626 
L 182.40981 167.857397 
L 187.498275 167.858377 
L 192.586741 167.890988 
L 197.675206 167.959364 
L 202.763671 168.067172 
L 207.852136 168.217439 
L 212.940601 168.412391 
L 218.029066 168.653316 
L 223.117532 168.940442 
L 228.205997 169.272848 
L 233.294462 169.648411 
L 238.382927 170.063785 
L 243.471392 170.514421 
L 248.559858 170.994625 
L 253.648323 171.497653 
L 258.736788 172.015849 
L 263.825253 172.540803 
L 268.913718 173.063553 
L 274.002184 173.574796 
L 279.090649 174.065125 
L 284.179114 174.525269 
L 289.267579 174.946339 
L 294.356044 175.320064 
L 299.444509 175.639017 
L 304.532975 175.896822 
L 309.62144 176.088326 
L 314.709905 176.209745 
L 319.79837 176.258772 
L 324.886835 176.234638 
L 329.975301 176.138141 
L 335.063766 175.971613 
L 340.152231 175.738865 
L 345.240696 175.445072 
L 350.329161 175.09663 
L 355.417627 174.70098 
L 360.506092 174.266398 
L 365.594557 173.801767 
L 370.683022 173.316338 
L 375.771487 172.819483 
L 380.859953 172.320446 
L 385.948418 171.828105 
L 391.036883 171.350756 
L 396.125348 170.895912 
L 401.213813 170.470137 
L 406.302278 170.078907 
L 411.390744 169.726516 
L 416.479209 169.416019 
L 421.567674 169.149213 
L 426.656139 168.926657 
L 431.744604 168.74774 
L 436.83307 168.610771 
L 441.921535 168.513109 
L 447.01 168.451317 
L 447.01 155.838584 
L 447.01 155.838584 
L 441.921535 155.647188 
L 436.83307 155.497534 
L 431.744604 155.395964 
L 426.656139 155.34766 
L 421.567674 155.35649 
L 416.479209 155.424888 
L 411.390744 155.553791 
L 406.302278 155.742598 
L 401.213813 155.989194 
L 396.125348 156.290001 
L 391.036883 156.640084 
L 385.948418 157.033283 
L 380.859953 157.46239 
L 375.771487 157.919343 
L 370.683022 158.395446 
L 365.594557 158.881608 
L 360.506092 159.368577 
L 355.417627 159.847185 
L 350.329161 160.308576 
L 345.240696 160.744424 
L 340.152231 161.147127 
L 335.063766 161.509973 
L 329.975301 161.827278 
L 324.886835 162.094485 
L 319.79837 162.308227 
L 314.709905 162.466354 
L 309.62144 162.567923 
L 304.532975 162.613146 
L 299.444509 162.603317 
L 294.356044 162.5407 
L 289.267579 162.428399 
L 284.179114 162.270209 
L 279.090649 162.070455 
L 274.002184 161.833826 
L 268.913718 161.565211 
L 263.825253 161.269536 
L 258.736788 160.951626 
L 253.648323 160.61607 
L 248.559858 160.267118 
L 243.471392 159.908602 
L 238.382927 159.543877 
L 233.294462 159.175799 
L 228.205997 158.806726 
L 223.117532 158.438544 
L 218.029066 158.07272 
L 212.940601 157.710375 
L 207.852136 157.352371 
L 202.763671 156.999408 
L 197.675206 156.652134 
L 192.586741 156.311248 
L 187.498275 155.977598 
L 182.40981 155.652271 
L 177.321345 155.33667 
L 172.23288 155.032562 
L 167.144415 154.742113 
L 162.055949 154.467889 
L 156.967484 154.212839 
L 151.879019 153.980237 
L 146.790554 153.773617 
L 141.702089 153.596662 
L 136.613623 153.453093 
L 131.525158 153.346526 
L 126.436693 153.280325 
L 121.348228 153.257448 
L 116.259763 153.28029 
L 111.171297 153.35054 
L 106.082832 153.469043 
L 100.994367 153.635684 
L 95.905902 153.8493 
L 90.817437 154.107614 
L 85.728972 154.407212 
L 80.640506 154.743548 
L 75.552041 155.110991 
L 70.463576 155.502909 
L 65.375111 155.91179 
L 60.286646 156.329399 
L 55.19818 156.746964 
L 50.109715 157.155392 
L 45.02125 157.545501 
z
" clip-path="url(#p4cf3f3d039)" style="fill: #fff1e2; fill-opacity: 0.92"/>
   </g>
   <g id="FillBetweenPolyCollection_11">
    <path d="M 45.02125 142.582606 
L 45.02125 157.545501 
L 50.109715 157.155392 
L 55.19818 156.746964 
L 60.286646 156.329399 
L 65.375111 155.91179 
L 70.463576 155.502909 
L 75.552041 155.110991 
L 80.640506 154.743548 
L 85.728972 154.407212 
L 90.817437 154.107614 
L 95.905902 153.8493 
L 100.994367 153.635684 
L 106.082832 153.469043 
L 111.171297 153.35054 
L 116.259763 153.28029 
L 121.348228 153.257448 
L 126.436693 153.280325 
L 131.525158 153.346526 
L 136.613623 153.453093 
L 141.702089 153.596662 
L 146.790554 153.773617 
L 151.879019 153.980237 
L 156.967484 154.212839 
L 162.055949 154.467889 
L 167.144415 154.742113 
L 172.23288 155.032562 
L 177.321345 155.33667 
L 182.40981 155.652271 
L 187.498275 155.977598 
L 192.586741 156.311248 
L 197.675206 156.652134 
L 202.763671 156.999408 
L 207.852136 157.352371 
L 212.940601 157.710375 
L 218.029066 158.07272 
L 223.117532 158.438544 
L 228.205997 158.806726 
L 233.294462 159.175799 
L 238.382927 159.543877 
L 243.471392 159.908602 
L 248.559858 160.267118 
L 253.648323 160.61607 
L 258.736788 160.951626 
L 263.825253 161.269536 
L 268.913718 161.565211 
L 274.002184 161.833826 
L 279.090649 162.070455 
L 284.179114 162.270209 
L 289.267579 162.428399 
L 294.356044 162.5407 
L 299.444509 162.603317 
L 304.532975 162.613146 
L 309.62144 162.567923 
L 314.709905 162.466354 
L 319.79837 162.308227 
L 324.886835 162.094485 
L 329.975301 161.827278 
L 335.063766 161.509973 
L 340.152231 161.147127 
L 345.240696 160.744424 
L 350.329161 160.308576 
L 355.417627 159.847185 
L 360.506092 159.368577 
L 365.594557 158.881608 
L 370.683022 158.395446 
L 375.771487 157.919343 
L 380.859953 157.46239 
L 385.948418 157.033283 
L 391.036883 156.640084 
L 396.125348 156.290001 
L 401.213813 155.989194 
L 406.302278 155.742598 
L 411.390744 155.553791 
L 416.479209 155.424888 
L 421.567674 155.35649 
L 426.656139 155.34766 
L 431.744604 155.395964 
L 436.83307 155.497534 
L 441.921535 155.647188 
L 447.01 155.838584 
L 447.01 144.331658 
L 447.01 144.331658 
L 441.921535 144.169915 
L 436.83307 144.012911 
L 431.744604 143.865676 
L 426.656139 143.732739 
L 421.567674 143.61804 
L 416.479209 143.52486 
L 411.390744 143.455779 
L 406.302278 143.412654 
L 401.213813 143.396625 
L 396.125348 143.408139 
L 391.036883 143.446998 
L 385.948418 143.512418 
L 380.859953 143.603105 
L 375.771487 143.717338 
L 370.683022 143.85306 
L 365.594557 144.007964 
L 360.506092 144.179585 
L 355.417627 144.365377 
L 350.329161 144.562788 
L 345.240696 144.769319 
L 340.152231 144.982567 
L 335.063766 145.20026 
L 329.975301 145.420272 
L 324.886835 145.64062 
L 319.79837 145.859454 
L 314.709905 146.07503 
L 309.62144 146.285673 
L 304.532975 146.489736 
L 299.444509 146.685552 
L 294.356044 146.871387 
L 289.267579 147.045397 
L 284.179114 147.205588 
L 279.090649 147.349792 
L 274.002184 147.475649 
L 268.913718 147.580606 
L 263.825253 147.661936 
L 258.736788 147.716772 
L 253.648323 147.742151 
L 248.559858 147.735092 
L 243.471392 147.692671 
L 238.382927 147.612124 
L 233.294462 147.490947 
L 228.205997 147.327017 
L 223.117532 147.118701 
L 218.029066 146.864974 
L 212.940601 146.565526 
L 207.852136 146.220857 
L 202.763671 145.832358 
L 197.675206 145.402373 
L 192.586741 144.934235 
L 187.498275 144.432279 
L 182.40981 143.901819 
L 177.321345 143.349105 
L 172.23288 142.781242 
L 167.144415 142.206083 
L 162.055949 141.632091 
L 156.967484 141.068177 
L 151.879019 140.523516 
L 146.790554 140.007349 
L 141.702089 139.528765 
L 136.613623 139.096484 
L 131.525158 138.718638 
L 126.436693 138.402554 
L 121.348228 138.15456 
L 116.259763 137.979794 
L 111.171297 137.882054 
L 106.082832 137.863668 
L 100.994367 137.925401 
L 95.905902 138.0664 
L 90.817437 138.284178 
L 85.728972 138.574642 
L 80.640506 138.93216 
L 75.552041 139.34967 
L 70.463576 139.818826 
L 65.375111 140.330183 
L 60.286646 140.873402 
L 55.19818 141.437493 
L 50.109715 142.011068 
L 45.02125 142.582606 
z
" clip-path="url(#p4cf3f3d039)" style="fill: #ffd7b3; fill-opacity: 0.92"/>
   </g>
   <g id="FillBetweenPolyCollection_12">
    <path d="M 45.02125 125.722751 
L 45.02125 142.582606 
L 50.109715 142.011068 
L 55.19818 141.437493 
L 60.286646 140.873402 
L 65.375111 140.330183 
L 70.463576 139.818826 
L 75.552041 139.34967 
L 80.640506 138.93216 
L 85.728972 138.574642 
L 90.817437 138.284178 
L 95.905902 138.0664 
L 100.994367 137.925401 
L 106.082832 137.863668 
L 111.171297 137.882054 
L 116.259763 137.979794 
L 121.348228 138.15456 
L 126.436693 138.402554 
L 131.525158 138.718638 
L 136.613623 139.096484 
L 141.702089 139.528765 
L 146.790554 140.007349 
L 151.879019 140.523516 
L 156.967484 141.068177 
L 162.055949 141.632091 
L 167.144415 142.206083 
L 172.23288 142.781242 
L 177.321345 143.349105 
L 182.40981 143.901819 
L 187.498275 144.432279 
L 192.586741 144.934235 
L 197.675206 145.402373 
L 202.763671 145.832358 
L 207.852136 146.220857 
L 212.940601 146.565526 
L 218.029066 146.864974 
L 223.117532 147.118701 
L 228.205997 147.327017 
L 233.294462 147.490947 
L 238.382927 147.612124 
L 243.471392 147.692671 
L 248.559858 147.735092 
L 253.648323 147.742151 
L 258.736788 147.716772 
L 263.825253 147.661936 
L 268.913718 147.580606 
L 274.002184 147.475649 
L 279.090649 147.349792 
L 284.179114 147.205588 
L 289.267579 147.045397 
L 294.356044 146.871387 
L 299.444509 146.685552 
L 304.532975 146.489736 
L 309.62144 146.285673 
L 314.709905 146.07503 
L 319.79837 145.859454 
L 324.886835 145.64062 
L 329.975301 145.420272 
L 335.063766 145.20026 
L 340.152231 144.982567 
L 345.240696 144.769319 
L 350.329161 144.562788 
L 355.417627 144.365377 
L 360.506092 144.179585 
L 365.594557 144.007964 
L 370.683022 143.85306 
L 375.771487 143.717338 
L 380.859953 143.603105 
L 385.948418 143.512418 
L 391.036883 143.446998 
L 396.125348 143.408139 
L 401.213813 143.396625 
L 406.302278 143.412654 
L 411.390744 143.455779 
L 416.479209 143.52486 
L 421.567674 143.61804 
L 426.656139 143.732739 
L 431.744604 143.865676 
L 436.83307 144.012911 
L 441.921535 144.169915 
L 447.01 144.331658 
L 447.01 131.124683 
L 447.01 131.124683 
L 441.921535 131.287883 
L 436.83307 131.4203 
L 431.744604 131.520967 
L 426.656139 131.589395 
L 421.567674 131.625598 
L 416.479209 131.630096 
L 411.390744 131.603931 
L 406.302278 131.54866 
L 401.213813 131.46635 
L 396.125348 131.359563 
L 391.036883 131.231326 
L 385.948418 131.085099 
L 380.859953 130.924729 
L 375.771487 130.754391 
L 370.683022 130.578526 
L 365.594557 130.401763 
L 360.506092 130.228836 
L 355.417627 130.064492 
L 350.329161 129.913393 
L 345.240696 129.780016 
L 340.152231 129.668549 
L 335.063766 129.582786 
L 329.975301 129.52603 
L 324.886835 129.500994 
L 319.79837 129.509721 
L 314.709905 129.553499 
L 309.62144 129.632807 
L 304.532975 129.747264 
L 299.444509 129.8956 
L 294.356044 130.075647 
L 289.267579 130.284349 
L 284.179114 130.517795 
L 279.090649 130.77127 
L 274.002184 131.039334 
L 268.913718 131.315912 
L 263.825253 131.594411 
L 258.736788 131.867849 
L 253.648323 132.129002 
L 248.559858 132.370556 
L 243.471392 132.585271 
L 238.382927 132.766153 
L 233.294462 132.906615 
L 228.205997 133.000644 
L 223.117532 133.042956 
L 218.029066 133.029136 
L 212.940601 132.955769 
L 207.852136 132.820542 
L 202.763671 132.622334 
L 197.675206 132.361272 
L 192.586741 132.038765 
L 187.498275 131.657508 
L 182.40981 131.221457 
L 177.321345 130.735776 
L 172.23288 130.206755 
L 167.144415 129.641703 
L 162.055949 129.04881 
L 156.967484 128.437003 
L 151.879019 127.815764 
L 146.790554 127.194949 
L 141.702089 126.584591 
L 136.613623 125.994694 
L 131.525158 125.435039 
L 126.436693 124.914972 
L 121.348228 124.443226 
L 116.259763 124.027733 
L 111.171297 123.675466 
L 106.082832 123.392299 
L 100.994367 123.182883 
L 95.905902 123.050562 
L 90.817437 122.997301 
L 85.728972 123.023654 
L 80.640506 123.128758 
L 75.552041 123.310356 
L 70.463576 123.564848 
L 65.375111 123.887372 
L 60.286646 124.271905 
L 55.19818 124.711393 
L 50.109715 125.197897 
L 45.02125 125.722751 
z
" clip-path="url(#p4cf3f3d039)" style="fill: #e67e22; fill-opacity: 0.92"/>
   </g>
   <g id="FillBetweenPolyCollection_13">
    <path d="M 45.02125 108.062573 
L 45.02125 125.722751 
L 50.109715 125.197897 
L 55.19818 124.711393 
L 60.286646 124.271905 
L 65.375111 123.887372 
L 70.463576 123.564848 
L 75.552041 123.310356 
L 80.640506 123.128758 
L 85.728972 123.023654 
L 90.817437 122.997301 
L 95.905902 123.050562 
L 100.994367 123.182883 
L 106.082832 123.392299 
L 111.171297 123.675466 
L 116.259763 124.027733 
L 121.348228 124.443226 
L 126.436693 124.914972 
L 131.525158 125.435039 
L 136.613623 125.994694 
L 141.702089 126.584591 
L 146.790554 127.194949 
L 151.879019 127.815764 
L 156.967484 128.437003 
L 162.055949 129.04881 
L 167.144415 129.641703 
L 172.23288 130.206755 
L 177.321345 130.735776 
L 182.40981 131.221457 
L 187.498275 131.657508 
L 192.586741 132.038765 
L 197.675206 132.361272 
L 202.763671 132.622334 
L 207.852136 132.820542 
L 212.940601 132.955769 
L 218.029066 133.029136 
L 223.117532 133.042956 
L 228.205997 133.000644 
L 233.294462 132.906615 
L 238.382927 132.766153 
L 243.471392 132.585271 
L 248.559858 132.370556 
L 253.648323 132.129002 
L 258.736788 131.867849 
L 263.825253 131.594411 
L 268.913718 131.315912 
L 274.002184 131.039334 
L 279.090649 130.77127 
L 284.179114 130.517795 
L 289.267579 130.284349 
L 294.356044 130.075647 
L 299.444509 129.8956 
L 304.532975 129.747264 
L 309.62144 129.632807 
L 314.709905 129.553499 
L 319.79837 129.509721 
L 324.886835 129.500994 
L 329.975301 129.52603 
L 335.063766 129.582786 
L 340.152231 129.668549 
L 345.240696 129.780016 
L 350.329161 129.913393 
L 355.417627 130.064492 
L 360.506092 130.228836 
L 365.594557 130.401763 
L 370.683022 130.578526 
L 375.771487 130.754391 
L 380.859953 130.924729 
L 385.948418 131.085099 
L 391.036883 131.231326 
L 396.125348 131.359563 
L 401.213813 131.46635 
L 406.302278 131.54866 
L 411.390744 131.603931 
L 416.479209 131.630096 
L 421.567674 131.625598 
L 426.656139 131.589395 
L 431.744604 131.520967 
L 436.83307 131.4203 
L 441.921535 131.287883 
L 447.01 131.124683 
L 447.01 114.661612 
L 447.01 114.661612 
L 441.921535 115.074158 
L 436.83307 115.467873 
L 431.744604 115.837077 
L 426.656139 116.176622 
L 421.567674 116.48198 
L 416.479209 116.749311 
L 411.390744 116.975525 
L 406.302278 117.158321 
L 401.213813 117.296217 
L 396.125348 117.388558 
L 391.036883 117.435516 
L 385.948418 117.438068 
L 380.859953 117.397965 
L 375.771487 117.317687 
L 370.683022 117.200384 
L 365.594557 117.049811 
L 360.506092 116.870246 
L 355.417627 116.666411 
L 350.329161 116.443378 
L 345.240696 116.206471 
L 340.152231 115.961168 
L 335.063766 115.713004 
L 329.975301 115.467462 
L 324.886835 115.229878 
L 319.79837 115.005341 
L 314.709905 114.798601 
L 309.62144 114.613976 
L 304.532975 114.455277 
L 299.444509 114.325725 
L 294.356044 114.227894 
L 289.267579 114.163651 
L 284.179114 114.134112 
L 279.090649 114.139611 
L 274.002184 114.179684 
L 268.913718 114.253057 
L 263.825253 114.357661 
L 258.736788 114.49065 
L 253.648323 114.648443 
L 248.559858 114.826777 
L 243.471392 115.020769 
L 238.382927 115.225002 
L 233.294462 115.433618 
L 228.205997 115.640422 
L 223.117532 115.839 
L 218.029066 116.022844 
L 212.940601 116.185481 
L 207.852136 116.320616 
L 202.763671 116.422262 
L 197.675206 116.484885 
L 192.586741 116.503533 
L 187.498275 116.473967 
L 182.40981 116.392778 
L 177.321345 116.257493 
L 172.23288 116.066667 
L 167.144415 115.819953 
L 162.055949 115.518159 
L 156.967484 115.163277 
L 151.879019 114.758486 
L 146.790554 114.308142 
L 141.702089 113.817724 
L 136.613623 113.293772 
L 131.525158 112.743789 
L 126.436693 112.176121 
L 121.348228 111.599815 
L 116.259763 111.024458 
L 111.171297 110.459997 
L 106.082832 109.916547 
L 100.994367 109.404186 
L 95.905902 108.932747 
L 90.817437 108.511606 
L 85.728972 108.149479 
L 80.640506 107.85422 
L 75.552041 107.632638 
L 70.463576 107.490326 
L 65.375111 107.43152 
L 60.286646 107.458974 
L 55.19818 107.573873 
L 50.109715 107.775772 
L 45.02125 108.062573 
z
" clip-path="url(#p4cf3f3d039)" style="fill: #b55516; fill-opacity: 0.92"/>
   </g>
   <g id="FillBetweenPolyCollection_14">
    <path d="M 45.02125 90.853766 
L 45.02125 108.062573 
L 50.109715 107.775772 
L 55.19818 107.573873 
L 60.286646 107.458974 
L 65.375111 107.43152 
L 70.463576 107.490326 
L 75.552041 107.632638 
L 80.640506 107.85422 
L 85.728972 108.149479 
L 90.817437 108.511606 
L 95.905902 108.932747 
L 100.994367 109.404186 
L 106.082832 109.916547 
L 111.171297 110.459997 
L 116.259763 111.024458 
L 121.348228 111.599815 
L 126.436693 112.176121 
L 131.525158 112.743789 
L 136.613623 113.293772 
L 141.702089 113.817724 
L 146.790554 114.308142 
L 151.879019 114.758486 
L 156.967484 115.163277 
L 162.055949 115.518159 
L 167.144415 115.819953 
L 172.23288 116.066667 
L 177.321345 116.257493 
L 182.40981 116.392778 
L 187.498275 116.473967 
L 192.586741 116.503533 
L 197.675206 116.484885 
L 202.763671 116.422262 
L 207.852136 116.320616 
L 212.940601 116.185481 
L 218.029066 116.022844 
L 223.117532 115.839 
L 228.205997 115.640422 
L 233.294462 115.433618 
L 238.382927 115.225002 
L 243.471392 115.020769 
L 248.559858 114.826777 
L 253.648323 114.648443 
L 258.736788 114.49065 
L 263.825253 114.357661 
L 268.913718 114.253057 
L 274.002184 114.179684 
L 279.090649 114.139611 
L 284.179114 114.134112 
L 289.267579 114.163651 
L 294.356044 114.227894 
L 299.444509 114.325725 
L 304.532975 114.455277 
L 309.62144 114.613976 
L 314.709905 114.798601 
L 319.79837 115.005341 
L 324.886835 115.229878 
L 329.975301 115.467462 
L 335.063766 115.713004 
L 340.152231 115.961168 
L 345.240696 116.206471 
L 350.329161 116.443378 
L 355.417627 116.666411 
L 360.506092 116.870246 
L 365.594557 117.049811 
L 370.683022 117.200384 
L 375.771487 117.317687 
L 380.859953 117.397965 
L 385.948418 117.438068 
L 391.036883 117.435516 
L 396.125348 117.388558 
L 401.213813 117.296217 
L 406.302278 117.158321 
L 411.390744 116.975525 
L 416.479209 116.749311 
L 421.567674 116.48198 
L 426.656139 116.176622 
L 431.744604 115.837077 
L 436.83307 115.467873 
L 441.921535 115.074158 
L 447.01 114.661612 
L 447.01 96.487596 
L 447.01 96.487596 
L 441.921535 96.745353 
L 436.83307 97.031235 
L 431.744604 97.342953 
L 426.656139 97.677665 
L 421.567674 98.03198 
L 416.479209 98.401967 
L 411.390744 98.783177 
L 406.302278 99.17069 
L 401.213813 99.559164 
L 396.125348 99.942915 
L 391.036883 100.316007 
L 385.948418 100.672356 
L 380.859953 101.005852 
L 375.771487 101.310493 
L 370.683022 101.580518 
L 365.594557 101.810562 
L 360.506092 101.995796 
L 355.417627 102.132075 
L 350.329161 102.216068 
L 345.240696 102.245385 
L 340.152231 102.218684 
L 335.063766 102.135752 
L 329.975301 101.997566 
L 324.886835 101.806323 
L 319.79837 101.565441 
L 314.709905 101.279523 
L 309.62144 100.95429 
L 304.532975 100.596483 
L 299.444509 100.213723 
L 294.356044 99.814353 
L 289.267579 99.407247 
L 284.179114 99.001594 
L 279.090649 98.60667 
L 274.002184 98.231597 
L 268.913718 97.885096 
L 263.825253 97.575245 
L 258.736788 97.309242 
L 253.648323 97.093192 
L 248.559858 96.931905 
L 243.471392 96.828738 
L 238.382927 96.785464 
L 233.294462 96.802181 
L 228.205997 96.877272 
L 223.117532 97.0074 
L 218.029066 97.187567 
L 212.940601 97.411204 
L 207.852136 97.670322 
L 202.763671 97.955698 
L 197.675206 98.257101 
L 192.586741 98.563557 
L 187.498275 98.863635 
L 182.40981 99.145757 
L 177.321345 99.398518 
L 172.23288 99.611006 
L 167.144415 99.773124 
L 162.055949 99.875881 
L 156.967484 99.911681 
L 151.879019 99.874554 
L 146.790554 99.760372 
L 141.702089 99.566999 
L 136.613623 99.294402 
L 131.525158 98.944705 
L 126.436693 98.522176 
L 121.348228 98.033175 
L 116.259763 97.486023 
L 111.171297 96.890836 
L 106.082832 96.259294 
L 100.994367 95.604376 
L 95.905902 94.940049 
L 90.817437 94.280933 
L 85.728972 93.641942 
L 80.640506 93.037912 
L 75.552041 92.483231 
L 70.463576 91.991475 
L 65.375111 91.575061 
L 60.286646 91.244926 
L 55.19818 91.010248 
L 50.109715 90.878201 
L 45.02125 90.853766 
z
" clip-path="url(#p4cf3f3d039)" style="fill: #f7f7f7; fill-opacity: 0.92"/>
   </g>
   <g id="FillBetweenPolyCollection_15">
    <path d="M 45.02125 74.777568 
L 45.02125 90.853766 
L 50.109715 90.878201 
L 55.19818 91.010248 
L 60.286646 91.244926 
L 65.375111 91.575061 
L 70.463576 91.991475 
L 75.552041 92.483231 
L 80.640506 93.037912 
L 85.728972 93.641942 
L 90.817437 94.280933 
L 95.905902 94.940049 
L 100.994367 95.604376 
L 106.082832 96.259294 
L 111.171297 96.890836 
L 116.259763 97.486023 
L 121.348228 98.033175 
L 126.436693 98.522176 
L 131.525158 98.944705 
L 136.613623 99.294402 
L 141.702089 99.566999 
L 146.790554 99.760372 
L 151.879019 99.874554 
L 156.967484 99.911681 
L 162.055949 99.875881 
L 167.144415 99.773124 
L 172.23288 99.611006 
L 177.321345 99.398518 
L 182.40981 99.145757 
L 187.498275 98.863635 
L 192.586741 98.563557 
L 197.675206 98.257101 
L 202.763671 97.955698 
L 207.852136 97.670322 
L 212.940601 97.411204 
L 218.029066 97.187567 
L 223.117532 97.0074 
L 228.205997 96.877272 
L 233.294462 96.802181 
L 238.382927 96.785464 
L 243.471392 96.828738 
L 248.559858 96.931905 
L 253.648323 97.093192 
L 258.736788 97.309242 
L 263.825253 97.575245 
L 268.913718 97.885096 
L 274.002184 98.231597 
L 279.090649 98.60667 
L 284.179114 99.001594 
L 289.267579 99.407247 
L 294.356044 99.814353 
L 299.444509 100.213723 
L 304.532975 100.596483 
L 309.62144 100.95429 
L 314.709905 101.279523 
L 319.79837 101.565441 
L 324.886835 101.806323 
L 329.975301 101.997566 
L 335.063766 102.135752 
L 340.152231 102.218684 
L 345.240696 102.245385 
L 350.329161 102.216068 
L 355.417627 102.132075 
L 360.506092 101.995796 
L 365.594557 101.810562 
L 370.683022 101.580518 
L 375.771487 101.310493 
L 380.859953 101.005852 
L 385.948418 100.672356 
L 391.036883 100.316007 
L 396.125348 99.942915 
L 401.213813 99.559164 
L 406.302278 99.17069 
L 411.390744 98.783177 
L 416.479209 98.401967 
L 421.567674 98.03198 
L 426.656139 97.677665 
L 431.744604 97.342953 
L 436.83307 97.031235 
L 441.921535 96.745353 
L 447.01 96.487596 
L 447.01 79.221928 
L 447.01 79.221928 
L 441.921535 79.063945 
L 436.83307 78.956145 
L 431.744604 78.906092 
L 426.656139 78.919909 
L 421.567674 79.002048 
L 416.479209 79.155106 
L 411.390744 79.379689 
L 406.302278 79.674339 
L 401.213813 80.035517 
L 396.125348 80.457645 
L 391.036883 80.933218 
L 385.948418 81.452967 
L 380.859953 82.006087 
L 375.771487 82.580504 
L 370.683022 83.163196 
L 365.594557 83.740541 
L 360.506092 84.298688 
L 355.417627 84.823945 
L 350.329161 85.303169 
L 345.240696 85.724141 
L 340.152231 86.075922 
L 335.063766 86.349181 
L 329.975301 86.536472 
L 324.886835 86.632468 
L 319.79837 86.63413 
L 314.709905 86.540818 
L 309.62144 86.354325 
L 304.532975 86.078853 
L 299.444509 85.720908 
L 294.356044 85.289135 
L 289.267579 84.794089 
L 284.179114 84.24795 
L 279.090649 83.664189 
L 274.002184 83.057194 
L 268.913718 82.441874 
L 263.825253 81.833241 
L 258.736788 81.245992 
L 253.648323 80.694095 
L 248.559858 80.190404 
L 243.471392 79.746293 
L 238.382927 79.371343 
L 233.294462 79.07308 
L 228.205997 78.856761 
L 223.117532 78.725241 
L 218.029066 78.678899 
L 212.940601 78.715637 
L 207.852136 78.830948 
L 202.763671 79.018061 
L 197.675206 79.268139 
L 192.586741 79.570545 
L 187.498275 79.913148 
L 182.40981 80.282686 
L 177.321345 80.66514 
L 172.23288 81.046144 
L 167.144415 81.411396 
L 162.055949 81.747066 
L 156.967484 82.040187 
L 151.879019 82.279026 
L 146.790554 82.453406 
L 141.702089 82.555001 
L 136.613623 82.577558 
L 131.525158 82.517076 
L 126.436693 82.371913 
L 121.348228 82.142829 
L 116.259763 81.832968 
L 111.171297 81.447768 
L 106.082832 80.994816 
L 100.994367 80.483643 
L 95.905902 79.925471 
L 90.817437 79.332921 
L 85.728972 78.719676 
L 80.640506 78.100135 
L 75.552041 77.489041 
L 70.463576 76.901113 
L 65.375111 76.350672 
L 60.286646 75.851299 
L 55.19818 75.415501 
L 50.109715 75.054419 
L 45.02125 74.777568 
z
" clip-path="url(#p4cf3f3d039)" style="fill: #e5e7eb; fill-opacity: 0.92"/>
   </g>
   <g id="FillBetweenPolyCollection_16">
    <path d="M 45.02125 59.477231 
L 45.02125 74.777568 
L 50.109715 75.054419 
L 55.19818 75.415501 
L 60.286646 75.851299 
L 65.375111 76.350672 
L 70.463576 76.901113 
L 75.552041 77.489041 
L 80.640506 78.100135 
L 85.728972 78.719676 
L 90.817437 79.332921 
L 95.905902 79.925471 
L 100.994367 80.483643 
L 106.082832 80.994816 
L 111.171297 81.447768 
L 116.259763 81.832968 
L 121.348228 82.142829 
L 126.436693 82.371913 
L 131.525158 82.517076 
L 136.613623 82.577558 
L 141.702089 82.555001 
L 146.790554 82.453406 
L 151.879019 82.279026 
L 156.967484 82.040187 
L 162.055949 81.747066 
L 167.144415 81.411396 
L 172.23288 81.046144 
L 177.321345 80.66514 
L 182.40981 80.282686 
L 187.498275 79.913148 
L 192.586741 79.570545 
L 197.675206 79.268139 
L 202.763671 79.018061 
L 207.852136 78.830948 
L 212.940601 78.715637 
L 218.029066 78.678899 
L 223.117532 78.725241 
L 228.205997 78.856761 
L 233.294462 79.07308 
L 238.382927 79.371343 
L 243.471392 79.746293 
L 248.559858 80.190404 
L 253.648323 80.694095 
L 258.736788 81.245992 
L 263.825253 81.833241 
L 268.913718 82.441874 
L 274.002184 83.057194 
L 279.090649 83.664189 
L 284.179114 84.24795 
L 289.267579 84.794089 
L 294.356044 85.289135 
L 299.444509 85.720908 
L 304.532975 86.078853 
L 309.62144 86.354325 
L 314.709905 86.540818 
L 319.79837 86.63413 
L 324.886835 86.632468 
L 329.975301 86.536472 
L 335.063766 86.349181 
L 340.152231 86.075922 
L 345.240696 85.724141 
L 350.329161 85.303169 
L 355.417627 84.823945 
L 360.506092 84.298688 
L 365.594557 83.740541 
L 370.683022 83.163196 
L 375.771487 82.580504 
L 380.859953 82.006087 
L 385.948418 81.452967 
L 391.036883 80.933218 
L 396.125348 80.457645 
L 401.213813 80.035517 
L 406.302278 79.674339 
L 411.390744 79.379689 
L 416.479209 79.155106 
L 421.567674 79.002048 
L 426.656139 78.919909 
L 431.744604 78.906092 
L 436.83307 78.956145 
L 441.921535 79.063945 
L 447.01 79.221928 
L 447.01 63.267068 
L 447.01 63.267068 
L 441.921535 62.922592 
L 436.83307 62.593533 
L 431.744604 62.292849 
L 426.656139 62.032666 
L 421.567674 61.823908 
L 416.479209 61.675962 
L 411.390744 61.596395 
L 406.302278 61.590729 
L 401.213813 61.662269 
L 396.125348 61.812005 
L 391.036883 62.03858 
L 385.948418 62.338331 
L 380.859953 62.705392 
L 375.771487 63.131869 
L 370.683022 63.608063 
L 365.594557 64.122757 
L 360.506092 64.663537 
L 355.417627 65.217145 
L 350.329161 65.76986 
L 345.240696 66.307881 
L 340.152231 66.817718 
L 335.063766 67.286562 
L 329.975301 67.70264 
L 324.886835 68.055527 
L 319.79837 68.336425 
L 314.709905 68.53839 
L 309.62144 68.656501 
L 304.532975 68.687971 
L 299.444509 68.632203 
L 294.356044 68.490773 
L 289.267579 68.267362 
L 284.179114 67.967626 
L 279.090649 67.599013 
L 274.002184 67.17054 
L 268.913718 66.692523 
L 263.825253 66.17628 
L 258.736788 65.633817 
L 253.648323 65.07749 
L 248.559858 64.519682 
L 243.471392 63.972467 
L 238.382927 63.447309 
L 233.294462 62.954767 
L 228.205997 62.504246 
L 223.117532 62.103779 
L 218.029066 61.759849 
L 212.940601 61.477259 
L 207.852136 61.259055 
L 202.763671 61.10649 
L 197.675206 61.019038 
L 192.586741 60.994463 
L 187.498275 61.028914 
L 182.40981 61.117077 
L 177.321345 61.25235 
L 172.23288 61.427048 
L 167.144415 61.632632 
L 162.055949 61.859952 
L 156.967484 62.099497 
L 151.879019 62.34165 
L 146.790554 62.576937 
L 141.702089 62.796265 
L 136.613623 62.991144 
L 131.525158 63.153891 
L 126.436693 63.277808 
L 121.348228 63.357332 
L 116.259763 63.388154 
L 111.171297 63.367313 
L 106.082832 63.293248 
L 100.994367 63.165824 
L 95.905902 62.98633 
L 90.817437 62.757436 
L 85.728972 62.483133 
L 80.640506 62.168642 
L 75.552041 61.820296 
L 70.463576 61.44541 
L 65.375111 61.052127 
L 60.286646 60.649251 
L 55.19818 60.246069 
L 50.109715 59.852166 
L 45.02125 59.477231 
z
" clip-path="url(#p4cf3f3d039)" style="fill: #cbd5e1; fill-opacity: 0.92"/>
   </g>
   <g id="FillBetweenPolyCollection_17">
    <path d="M 45.02125 43.703641 
L 45.02125 59.477231 
L 50.109715 59.852166 
L 55.19818 60.246069 
L 60.286646 60.649251 
L 65.375111 61.052127 
L 70.463576 61.44541 
L 75.552041 61.820296 
L 80.640506 62.168642 
L 85.728972 62.483133 
L 90.817437 62.757436 
L 95.905902 62.98633 
L 100.994367 63.165824 
L 106.082832 63.293248 
L 111.171297 63.367313 
L 116.259763 63.388154 
L 121.348228 63.357332 
L 126.436693 63.277808 
L 131.525158 63.153891 
L 136.613623 62.991144 
L 141.702089 62.796265 
L 146.790554 62.576937 
L 151.879019 62.34165 
L 156.967484 62.099497 
L 162.055949 61.859952 
L 167.144415 61.632632 
L 172.23288 61.427048 
L 177.321345 61.25235 
L 182.40981 61.117077 
L 187.498275 61.028914 
L 192.586741 60.994463 
L 197.675206 61.019038 
L 202.763671 61.10649 
L 207.852136 61.259055 
L 212.940601 61.477259 
L 218.029066 61.759849 
L 223.117532 62.103779 
L 228.205997 62.504246 
L 233.294462 62.954767 
L 238.382927 63.447309 
L 243.471392 63.972467 
L 248.559858 64.519682 
L 253.648323 65.07749 
L 258.736788 65.633817 
L 263.825253 66.17628 
L 268.913718 66.692523 
L 274.002184 67.17054 
L 279.090649 67.599013 
L 284.179114 67.967626 
L 289.267579 68.267362 
L 294.356044 68.490773 
L 299.444509 68.632203 
L 304.532975 68.687971 
L 309.62144 68.656501 
L 314.709905 68.53839 
L 319.79837 68.336425 
L 324.886835 68.055527 
L 329.975301 67.70264 
L 335.063766 67.286562 
L 340.152231 66.817718 
L 345.240696 66.307881 
L 350.329161 65.76986 
L 355.417627 65.217145 
L 360.506092 64.663537 
L 365.594557 64.122757 
L 370.683022 63.608063 
L 375.771487 63.131869 
L 380.859953 62.705392 
L 385.948418 62.338331 
L 391.036883 62.03858 
L 396.125348 61.812005 
L 401.213813 61.662269 
L 406.302278 61.590729 
L 411.390744 61.596395 
L 416.479209 61.675962 
L 421.567674 61.823908 
L 426.656139 62.032666 
L 431.744604 62.292849 
L 436.83307 62.593533 
L 441.921535 62.922592 
L 447.01 63.267068 
L 447.01 46.372519 
L 447.01 46.372519 
L 441.921535 46.32545 
L 436.83307 46.244188 
L 431.744604 46.134303 
L 426.656139 46.002065 
L 421.567674 45.854259 
L 416.479209 45.697994 
L 411.390744 45.540494 
L 406.302278 45.388909 
L 401.213813 45.250113 
L 396.125348 45.130528 
L 391.036883 45.03595 
L 385.948418 44.971407 
L 380.859953 44.941022 
L 375.771487 44.947918 
L 370.683022 44.994136 
L 365.594557 45.080586 
L 360.506092 45.207024 
L 355.417627 45.372063 
L 350.329161 45.573198 
L 345.240696 45.806874 
L 340.152231 46.068564 
L 335.063766 46.352875 
L 329.975301 46.653677 
L 324.886835 46.964242 
L 319.79837 47.277396 
L 314.709905 47.58569 
L 309.62144 47.881569 
L 304.532975 48.157545 
L 299.444509 48.40637 
L 294.356044 48.621209 
L 289.267579 48.795797 
L 284.179114 48.924595 
L 279.090649 49.00292 
L 274.002184 49.027066 
L 268.913718 48.994408 
L 263.825253 48.903472 
L 258.736788 48.753995 
L 253.648323 48.54695 
L 248.559858 48.284545 
L 243.471392 47.970203 
L 238.382927 47.608507 
L 233.294462 47.205117 
L 228.205997 46.766668 
L 223.117532 46.300639 
L 218.029066 45.815202 
L 212.940601 45.319046 
L 207.852136 44.821194 
L 202.763671 44.330799 
L 197.675206 43.856934 
L 192.586741 43.408383 
L 187.498275 42.993419 
L 182.40981 42.61961 
L 177.321345 42.293612 
L 172.23288 42.020996 
L 167.144415 41.806089 
L 162.055949 41.651841 
L 156.967484 41.559727 
L 151.879019 41.529676 
L 146.790554 41.560045 
L 141.702089 41.647629 
L 136.613623 41.787712 
L 131.525158 41.97416 
L 126.436693 42.199556 
L 121.348228 42.455371 
L 116.259763 42.732174 
L 111.171297 43.019874 
L 106.082832 43.30798 
L 100.994367 43.585896 
L 95.905902 43.843216 
L 90.817437 44.070028 
L 85.728972 44.257222 
L 80.640506 44.396775 
L 75.552041 44.482024 
L 70.463576 44.507907 
L 65.375111 44.471168 
L 60.286646 44.370518 
L 55.19818 44.206745 
L 50.109715 43.98277 
L 45.02125 43.703641 
z
" clip-path="url(#p4cf3f3d039)" style="fill: #64748b; fill-opacity: 0.92"/>
   </g>
   <g id="FillBetweenPolyCollection_18">
    <path d="M 45.02125 26.025962 
L 45.02125 43.703641 
L 50.109715 43.98277 
L 55.19818 44.206745 
L 60.286646 44.370518 
L 65.375111 44.471168 
L 70.463576 44.507907 
L 75.552041 44.482024 
L 80.640506 44.396775 
L 85.728972 44.257222 
L 90.817437 44.070028 
L 95.905902 43.843216 
L 100.994367 43.585896 
L 106.082832 43.30798 
L 111.171297 43.019874 
L 116.259763 42.732174 
L 121.348228 42.455371 
L 126.436693 42.199556 
L 131.525158 41.97416 
L 136.613623 41.787712 
L 141.702089 41.647629 
L 146.790554 41.560045 
L 151.879019 41.529676 
L 156.967484 41.559727 
L 162.055949 41.651841 
L 167.144415 41.806089 
L 172.23288 42.020996 
L 177.321345 42.293612 
L 182.40981 42.61961 
L 187.498275 42.993419 
L 192.586741 43.408383 
L 197.675206 43.856934 
L 202.763671 44.330799 
L 207.852136 44.821194 
L 212.940601 45.319046 
L 218.029066 45.815202 
L 223.117532 46.300639 
L 228.205997 46.766668 
L 233.294462 47.205117 
L 238.382927 47.608507 
L 243.471392 47.970203 
L 248.559858 48.284545 
L 253.648323 48.54695 
L 258.736788 48.753995 
L 263.825253 48.903472 
L 268.913718 48.994408 
L 274.002184 49.027066 
L 279.090649 49.00292 
L 284.179114 48.924595 
L 289.267579 48.795797 
L 294.356044 48.621209 
L 299.444509 48.40637 
L 304.532975 48.157545 
L 309.62144 47.881569 
L 314.709905 47.58569 
L 319.79837 47.277396 
L 324.886835 46.964242 
L 329.975301 46.653677 
L 335.063766 46.352875 
L 340.152231 46.068564 
L 345.240696 45.806874 
L 350.329161 45.573198 
L 355.417627 45.372063 
L 360.506092 45.207024 
L 365.594557 45.080586 
L 370.683022 44.994136 
L 375.771487 44.947918 
L 380.859953 44.941022 
L 385.948418 44.971407 
L 391.036883 45.03595 
L 396.125348 45.130528 
L 401.213813 45.250113 
L 406.302278 45.388909 
L 411.390744 45.540494 
L 416.479209 45.697994 
L 421.567674 45.854259 
L 426.656139 46.002065 
L 431.744604 46.134303 
L 436.83307 46.244188 
L 441.921535 46.32545 
L 447.01 46.372519 
L 447.01 26.536366 
L 447.01 26.536366 
L 441.921535 26.94597 
L 436.83307 27.323923 
L 431.744604 27.661929 
L 426.656139 27.952793 
L 421.567674 28.190644 
L 416.479209 28.371113 
L 411.390744 28.491484 
L 406.302278 28.550784 
L 401.213813 28.549826 
L 396.125348 28.491201 
L 391.036883 28.379217 
L 385.948418 28.219776 
L 380.859953 28.020216 
L 375.771487 27.789089 
L 370.683022 27.535916 
L 365.594557 27.270891 
L 360.506092 27.004579 
L 355.417627 26.747577 
L 350.329161 26.510186 
L 345.240696 26.302079 
L 340.152231 26.131979 
L 335.063766 26.007372 
L 329.975301 25.934241 
L 324.886835 25.916853 
L 319.79837 25.957588 
L 314.709905 26.056827 
L 309.62144 26.212899 
L 304.532975 26.422093 
L 299.444509 26.678732 
L 294.356044 26.975308 
L 289.267579 27.302684 
L 284.179114 27.650342 
L 279.090649 28.006682 
L 274.002184 28.359365 
L 268.913718 28.695683 
L 263.825253 29.002944 
L 258.736788 29.268873 
L 253.648323 29.482002 
L 248.559858 29.632046 
L 243.471392 29.71025 
L 238.382927 29.709694 
L 233.294462 29.625555 
L 228.205997 29.455298 
L 223.117532 29.198814 
L 218.029066 28.858478 
L 212.940601 28.439131 
L 207.852136 27.947996 
L 202.763671 27.394509 
L 197.675206 26.790087 
L 192.586741 26.147826 
L 187.498275 25.482143 
L 182.40981 24.808377 
L 177.321345 24.142347 
L 172.23288 23.499892 
L 167.144415 22.896402 
L 162.055949 22.346353 
L 156.967484 21.862867 
L 151.879019 21.457296 
L 146.790554 21.138866 
L 141.702089 20.914372 
L 136.613623 20.787944 
L 131.525158 20.760893 
L 126.436693 20.831638 
L 121.348228 20.995726 
L 116.259763 21.245936 
L 111.171297 21.572472 
L 106.082832 21.963237 
L 100.994367 22.404185 
L 95.905902 22.879741 
L 90.817437 23.373264 
L 85.728972 23.867565 
L 80.640506 24.345442 
L 75.552041 24.790224 
L 70.463576 25.18631 
L 65.375111 25.519685 
L 60.286646 25.778387 
L 55.19818 25.952932 
L 50.109715 26.036651 
L 45.02125 26.025962 
z
" clip-path="url(#p4cf3f3d039)" style="fill: #334155; fill-opacity: 0.92"/>
   </g>
   <g id="matplotlib.axis_1">
    <g id="xtick_1">
     <g id="line2d_1">
      <defs>
       <path id="m4d1cb5e691" d="M 0 0 
L 0 3.2 
" style="stroke: #92949a; stroke-width: 0.65"/>
      </defs>
      <g>
       <use xlink:href="#m4d1cb5e691" x="45.02125" y="251.97875" style="fill: #92949a; stroke: #92949a; stroke-width: 0.65"/>
      </g>
     </g>
     <g id="text_1">
      <text style="font-size: 8.4px; font-family: 'Arial', 'Helvetica', 'DejaVu Sans', sans-serif; text-anchor: middle; fill: #334155" x="45.02125" y="264.691312" transform="rotate(-0 45.02125 264.691312)">0</text>
     </g>
    </g>
    <g id="xtick_2">
     <g id="line2d_2">
      <g>
       <use xlink:href="#m4d1cb5e691" x="112.019375" y="251.97875" style="fill: #92949a; stroke: #92949a; stroke-width: 0.65"/>
      </g>
     </g>
     <g id="text_2">
      <text style="font-size: 8.4px; font-family: 'Arial', 'Helvetica', 'DejaVu Sans', sans-serif; text-anchor: middle; fill: #334155" x="112.019375" y="264.691312" transform="rotate(-0 112.019375 264.691312)">2</text>
     </g>
    </g>
    <g id="xtick_3">
     <g id="line2d_3">
      <g>
       <use xlink:href="#m4d1cb5e691" x="179.0175" y="251.97875" style="fill: #92949a; stroke: #92949a; stroke-width: 0.65"/>
      </g>
     </g>
     <g id="text_3">
      <text style="font-size: 8.4px; font-family: 'Arial', 'Helvetica', 'DejaVu Sans', sans-serif; text-anchor: middle; fill: #334155" x="179.0175" y="264.691312" transform="rotate(-0 179.0175 264.691312)">4</text>
     </g>
    </g>
    <g id="xtick_4">
     <g id="line2d_4">
      <g>
       <use xlink:href="#m4d1cb5e691" x="246.015625" y="251.97875" style="fill: #92949a; stroke: #92949a; stroke-width: 0.65"/>
      </g>
     </g>
     <g id="text_4">
      <text style="font-size: 8.4px; font-family: 'Arial', 'Helvetica', 'DejaVu Sans', sans-serif; text-anchor: middle; fill: #334155" x="246.015625" y="264.691312" transform="rotate(-0 246.015625 264.691312)">6</text>
     </g>
    </g>
    <g id="xtick_5">
     <g id="line2d_5">
      <g>
       <use xlink:href="#m4d1cb5e691" x="313.01375" y="251.97875" style="fill: #92949a; stroke: #92949a; stroke-width: 0.65"/>
      </g>
     </g>
     <g id="text_5">
      <text style="font-size: 8.4px; font-family: 'Arial', 'Helvetica', 'DejaVu Sans', sans-serif; text-anchor: middle; fill: #334155" x="313.01375" y="264.691312" transform="rotate(-0 313.01375 264.691312)">8</text>
     </g>
    </g>
    <g id="xtick_6">
     <g id="line2d_6">
      <g>
       <use xlink:href="#m4d1cb5e691" x="380.011875" y="251.97875" style="fill: #92949a; stroke: #92949a; stroke-width: 0.65"/>
      </g>
     </g>
     <g id="text_6">
      <text style="font-size: 8.4px; font-family: 'Arial', 'Helvetica', 'DejaVu Sans', sans-serif; text-anchor: middle; fill: #334155" x="380.011875" y="264.691312" transform="rotate(-0 380.011875 264.691312)">10</text>
     </g>
    </g>
    <g id="xtick_7">
     <g id="line2d_7">
      <g>
       <use xlink:href="#m4d1cb5e691" x="447.01" y="251.97875" style="fill: #92949a; stroke: #92949a; stroke-width: 0.65"/>
      </g>
     </g>
     <g id="text_7">
      <text style="font-size: 8.4px; font-family: 'Arial', 'Helvetica', 'DejaVu Sans', sans-serif; text-anchor: middle; fill: #334155" x="447.01" y="264.691312" transform="rotate(-0 447.01 264.691312)">12</text>
     </g>
    </g>
    <g id="text_8">
     <text style="font-size: 9.4px; font-family: 'Arial', 'Helvetica', 'DejaVu Sans', sans-serif; text-anchor: middle; fill: #334155" x="246.015625" y="277.203719" transform="rotate(-0 246.015625 277.203719)">Time (months)</text>
    </g>
   </g>
   <g id="matplotlib.axis_2">
    <g id="ytick_1">
     <g id="line2d_8">
      <defs>
       <path id="m3c9c038670" d="M 0 0 
L -3.2 0 
" style="stroke: #92949a; stroke-width: 0.65"/>
      </defs>
      <g>
       <use xlink:href="#m3c9c038670" x="45.02125" y="251.97875" style="fill: #92949a; stroke: #92949a; stroke-width: 0.65"/>
      </g>
     </g>
     <g id="text_9">
      <text style="font-size: 8.4px; font-family: 'Arial', 'Helvetica', 'DejaVu Sans', sans-serif; text-anchor: end; fill: #334155" x="38.32125" y="254.985031" transform="rotate(-0 38.32125 254.985031)">0.0</text>
     </g>
    </g>
    <g id="ytick_2">
     <g id="line2d_9">
      <g>
       <use xlink:href="#m3c9c038670" x="45.02125" y="219.253954" style="fill: #92949a; stroke: #92949a; stroke-width: 0.65"/>
      </g>
     </g>
     <g id="text_10">
      <text style="font-size: 8.4px; font-family: 'Arial', 'Helvetica', 'DejaVu Sans', sans-serif; text-anchor: end; fill: #334155" x="38.32125" y="222.260235" transform="rotate(-0 38.32125 222.260235)">2.5</text>
     </g>
    </g>
    <g id="ytick_3">
     <g id="line2d_10">
      <g>
       <use xlink:href="#m3c9c038670" x="45.02125" y="186.529157" style="fill: #92949a; stroke: #92949a; stroke-width: 0.65"/>
      </g>
     </g>
     <g id="text_11">
      <text style="font-size: 8.4px; font-family: 'Arial', 'Helvetica', 'DejaVu Sans', sans-serif; text-anchor: end; fill: #334155" x="38.32125" y="189.535438" transform="rotate(-0 38.32125 189.535438)">5.0</text>
     </g>
    </g>
    <g id="ytick_4">
     <g id="line2d_11">
      <g>
       <use xlink:href="#m3c9c038670" x="45.02125" y="153.804361" style="fill: #92949a; stroke: #92949a; stroke-width: 0.65"/>
      </g>
     </g>
     <g id="text_12">
      <text style="font-size: 8.4px; font-family: 'Arial', 'Helvetica', 'DejaVu Sans', sans-serif; text-anchor: end; fill: #334155" x="38.32125" y="156.810642" transform="rotate(-0 38.32125 156.810642)">7.5</text>
     </g>
    </g>
    <g id="ytick_5">
     <g id="line2d_12">
      <g>
       <use xlink:href="#m3c9c038670" x="45.02125" y="121.079564" style="fill: #92949a; stroke: #92949a; stroke-width: 0.65"/>
      </g>
     </g>
     <g id="text_13">
      <text style="font-size: 8.4px; font-family: 'Arial', 'Helvetica', 'DejaVu Sans', sans-serif; text-anchor: end; fill: #334155" x="38.32125" y="124.085845" transform="rotate(-0 38.32125 124.085845)">10.0</text>
     </g>
    </g>
    <g id="ytick_6">
     <g id="line2d_13">
      <g>
       <use xlink:href="#m3c9c038670" x="45.02125" y="88.354768" style="fill: #92949a; stroke: #92949a; stroke-width: 0.65"/>
      </g>
     </g>
     <g id="text_14">
      <text style="font-size: 8.4px; font-family: 'Arial', 'Helvetica', 'DejaVu Sans', sans-serif; text-anchor: end; fill: #334155" x="38.32125" y="91.361049" transform="rotate(-0 38.32125 91.361049)">12.5</text>
     </g>
    </g>
    <g id="ytick_7">
     <g id="line2d_14">
      <g>
       <use xlink:href="#m3c9c038670" x="45.02125" y="55.629971" style="fill: #92949a; stroke: #92949a; stroke-width: 0.65"/>
      </g>
     </g>
     <g id="text_15">
      <text style="font-size: 8.4px; font-family: 'Arial', 'Helvetica', 'DejaVu Sans', sans-serif; text-anchor: end; fill: #334155" x="38.32125" y="58.636253" transform="rotate(-0 38.32125 58.636253)">15.0</text>
     </g>
    </g>
    <g id="ytick_8">
     <g id="line2d_15">
      <g>
       <use xlink:href="#m3c9c038670" x="45.02125" y="22.905175" style="fill: #92949a; stroke: #92949a; stroke-width: 0.65"/>
      </g>
     </g>
     <g id="text_16">
      <text style="font-size: 8.4px; font-family: 'Arial', 'Helvetica', 'DejaVu Sans', sans-serif; text-anchor: end; fill: #334155" x="38.32125" y="25.911456" transform="rotate(-0 38.32125 25.911456)">17.5</text>
     </g>
    </g>
    <g id="text_17">
     <text style="font-size: 9.4px; font-family: 'Arial', 'Helvetica', 'DejaVu Sans', sans-serif; text-anchor: middle; fill: #334155" x="16.105813" y="130.589375" transform="rotate(-90 16.105813 130.589375)">Relative composition</text>
    </g>
   </g>
   <g id="patch_3">
    <path d="M 45.02125 251.97875 
L 45.02125 9.2 
" style="fill: none; stroke: #bfc1c5; stroke-width: 0.7; stroke-linejoin: miter; stroke-linecap: square"/>
   </g>
   <g id="patch_4">
    <path d="M 45.02125 251.97875 
L 447.01 251.97875 
" style="fill: none; stroke: #bfc1c5; stroke-width: 0.7; stroke-linejoin: miter; stroke-linecap: square"/>
   </g>
  </g>
 </g>
 <defs>
  <clipPath id="p4cf3f3d039">
   <rect x="45.02125" y="9.2" width="401.98875" height="242.77875"/>
  </clipPath>
 </defs>
</svg>
