<?xml version="1.0" encoding="utf-8" standalone="no"?>
<!DOCTYPE svg PUBLIC "-//W3C//DTD SVG 1.1//EN"
  "http://www.w3.org/Graphics/SVG/1.1/DTD/svg11.dtd">
<svg xmlns:xlink="http://www.w3.org/1999/xlink" width="460.8pt" height="288pt" viewBox="0 0 460.8 288" xmlns="http://www.w3.org/2000/svg" version="1.1">
 <metadata>
  <rdf:RDF xmlns:dc="http://purl.org/dc/elements/1.1/" xmlns:cc="http://creativecommons.org/ns#" xmlns:rdf="http://www.w3.org/1999/02/22-rdf-syntax-ns#">
   <cc:Work>
    <dc:type rdf:resource="http://purl.org/dc/dcmitype/StillImage"/>
    <dc:date>2026-07-31T21:31:28.932181</dc:date>
    <dc:format>image/svg+xml</dc:format>
    <dc:creator>
     <cc:Agent>
      <dc:title>Matplotlib v3.10.9, https://matplotlib.org/</dc:title>
     </cc:Agent>
    </dc:creator>
   </cc:Work>
  </rdf:RDF>
 </metadata>
 <defs>
  <style type="text/css">*{stroke-linejoin: round; stroke-linecap: butt}</style>
 </defs>
 <g id="figure_1">
  <g id="patch_1">
   <path d="M 0 288 
L 460.8 288 
L 460.8 0 
L 0 0 
z
" style="fill: #ffffff"/>
  </g>
  <g id="axes_1">
   <g id="patch_2">
    <path d="M 100.95 268.1 
L 359.85 268.1 
L 359.85 9.2 
L 100.95 9.2 
z
" style="fill: #ffffff"/>
   </g>
   <g id="PathCollection_1">
    <path d="M 130.823077 49.843407 
C 133.679402 49.843407 136.419123 48.708577 138.43885 46.68885 
C 140.458577 44.669123 141.593407 41.929402 141.593407 39.073077 
C 141.593407 36.216752 140.458577 33.47703 138.43885 31.457304 
C 136.419123 29.437577 133.679402 28.302747 130.823077 28.302747 
C 127.966752 28.302747 125.22703 29.437577 123.207304 31.457304 
C 121.187577 33.47703 120.052747 36.216752 120.052747 39.073077 
C 120.052747 41.929402 121.187577 44.669123 123.207304 46.68885 
C 125.22703 48.708577 127.966752 49.843407 130.823077 49.843407 
z
" clip-path="url(#pbe1bfd3c72)" style="fill: #d6f0f1; fill-opacity: 0.92"/>
   </g>
   <g id="PathCollection_2">
    <path d="M 180.611538 42.102398 
C 181.414924 42.102398 182.185513 41.78321 182.753592 41.21513 
C 183.321671 40.647051 183.64086 39.876462 183.64086 39.073077 
C 183.64086 38.269692 183.321671 37.499103 182.753592 36.931023 
C 182.185513 36.362944 181.414924 36.043756 180.611538 36.043756 
C 179.808153 36.043756 179.037564 36.362944 178.469485 36.931023 
C 177.901406 37.499103 177.582217 38.269692 177.582217 39.073077 
C 177.582217 39.876462 177.901406 40.647051 178.469485 41.21513 
C 179.037564 41.78321 179.808153 42.102398 180.611538 42.102398 
z
" clip-path="url(#pbe1bfd3c72)" style="fill: #d6f0f1; fill-opacity: 0.244281"/>
   </g>
   <g id="PathCollection_3">
    <path d="M 230.4 47.568885 
C 232.653115 47.568885 234.814251 46.673713 236.407443 45.08052 
C 238.000636 43.487328 238.895808 41.326192 238.895808 39.073077 
C 238.895808 36.819962 238.000636 34.658826 236.407443 33.065634 
C 234.814251 31.472441 232.653115 30.577269 230.4 30.577269 
C 228.146885 30.577269 225.985749 31.472441 224.392557 33.065634 
C 222.799364 34.658826 221.904192 36.819962 221.904192 39.073077 
C 221.904192 41.326192 222.799364 43.487328 224.392557 45.08052 
C 225.985749 46.673713 228.146885 47.568885 230.4 47.568885 
z
" clip-path="url(#pbe1bfd3c72)" style="fill: #d6f0f1; fill-opacity: 0.642805"/>
   </g>
   <g id="PathCollection_4">
    <path d="M 280.188462 44.929829 
C 281.74169 44.929829 283.231512 44.312725 284.329811 43.214426 
C 285.428109 42.116127 286.045213 40.626306 286.045213 39.073077 
C 286.045213 37.519848 285.428109 36.030026 284.329811 34.931728 
C 283.231512 33.833429 281.74169 33.216325 280.188462 33.216325 
C 278.635233 33.216325 277.145411 33.833429 276.047113 34.931728 
C 274.948814 36.030026 274.33171 37.519848 274.33171 39.073077 
C 274.33171 40.626306 274.948814 42.116127 276.047113 43.214426 
C 277.145411 44.312725 278.635233 44.929829 280.188462 44.929829 
z
" clip-path="url(#pbe1bfd3c72)" style="fill: #d6f0f1; fill-opacity: 0.40321"/>
   </g>
   <g id="PathCollection_5">
    <path d="M 329.976923 46.729598 
C 332.007456 46.729598 333.955097 45.922859 335.390901 44.487055 
C 336.826705 43.051251 337.633444 41.10361 337.633444 39.073077 
C 337.633444 37.042544 336.826705 35.094903 335.390901 33.659099 
C 333.955097 32.223295 332.007456 31.416556 329.976923 31.416556 
C 327.94639 31.416556 325.998749 32.223295 324.562945 33.659099 
C 323.127141 35.094903 322.320402 37.042544 322.320402 39.073077 
C 322.320402 41.10361 323.127141 43.051251 324.562945 44.487055 
C 325.998749 45.922859 327.94639 46.729598 329.976923 46.729598 
z
" clip-path="url(#pbe1bfd3c72)" style="fill: #d6f0f1; fill-opacity: 0.557053"/>
   </g>
   <g id="PathCollection_6">
    <path d="M 130.823077 91.89086 
C 131.626462 91.89086 132.397051 91.571671 132.96513 91.003592 
C 133.53321 90.435513 133.852398 89.664924 133.852398 88.861538 
C 133.852398 88.058153 133.53321 87.287564 132.96513 86.719485 
C 132.397051 86.151406 131.626462 85.832217 130.823077 85.832217 
C 130.019692 85.832217 129.249103 86.151406 128.681023 86.719485 
C 128.112944 87.287564 127.793756 88.058153 127.793756 88.861538 
C 127.793756 89.664924 128.112944 90.435513 128.681023 91.003592 
C 129.249103 91.571671 130.019692 91.89086 130.823077 91.89086 
z
" clip-path="url(#pbe1bfd3c72)" style="fill: #f9e8d4; fill-opacity: 0.244281"/>
   </g>
   <g id="PathCollection_7">
    <path d="M 180.611538 99.631868 
C 183.467863 99.631868 186.207585 98.497038 188.227312 96.477312 
C 190.247038 94.457585 191.381868 91.717863 191.381868 88.861538 
C 191.381868 86.005214 190.247038 83.265492 188.227312 81.245765 
C 186.207585 79.226039 183.467863 78.091209 180.611538 78.091209 
C 177.755214 78.091209 175.015492 79.226039 172.995765 81.245765 
C 170.976039 83.265492 169.841209 86.005214 169.841209 88.861538 
C 169.841209 91.717863 170.976039 94.457585 172.995765 96.477312 
C 175.015492 98.497038 177.755214 99.631868 180.611538 99.631868 
z
" clip-path="url(#pbe1bfd3c72)" style="fill: #f9e8d4; fill-opacity: 0.92"/>
   </g>
   <g id="PathCollection_8">
    <path d="M 230.4 93.718162 
C 231.687992 93.718162 232.923404 93.206437 233.834151 92.29569 
C 234.744899 91.384942 235.256623 90.14953 235.256623 88.861538 
C 235.256623 87.573547 234.744899 86.338135 233.834151 85.427387 
C 232.923404 84.51664 231.687992 84.004915 230.4 84.004915 
C 229.112008 84.004915 227.876596 84.51664 226.965849 85.427387 
C 226.055101 86.338135 225.543377 87.573547 225.543377 88.861538 
C 225.543377 90.14953 226.055101 91.384942 226.965849 92.29569 
C 227.876596 93.206437 229.112008 93.718162 230.4 93.718162 
z
" clip-path="url(#pbe1bfd3c72)" style="fill: #f9e8d4; fill-opacity: 0.335433"/>
   </g>
   <g id="PathCollection_9">
    <path d="M 280.188462 96.856198 
C 282.30867 96.856198 284.342326 96.01383 285.841539 94.514616 
C 287.340753 93.015403 288.183121 90.981747 288.183121 88.861538 
C 288.183121 86.74133 287.340753 84.707674 285.841539 83.208461 
C 284.342326 81.709247 282.30867 80.866879 280.188462 80.866879 
C 278.068253 80.866879 276.034597 81.709247 274.535384 83.208461 
C 273.03617 84.707674 272.193802 86.74133 272.193802 88.861538 
C 272.193802 90.981747 273.03617 93.015403 274.535384 94.514616 
C 276.034597 96.01383 278.068253 96.856198 280.188462 96.856198 
z
" clip-path="url(#pbe1bfd3c72)" style="fill: #f9e8d4; fill-opacity: 0.590529"/>
   </g>
   <g id="PathCollection_10">
    <path d="M 329.976923 94.519078 
C 331.47732 94.519078 332.916467 93.922964 333.977408 92.862023 
C 335.038348 91.801082 335.634463 90.361935 335.634463 88.861538 
C 335.634463 87.361141 335.038348 85.921995 333.977408 84.861054 
C 332.916467 83.800113 331.47732 83.203999 329.976923 83.203999 
C 328.476526 83.203999 327.037379 83.800113 325.976439 84.861054 
C 324.915498 85.921995 324.319384 87.361141 324.319384 88.861538 
C 324.319384 90.361935 324.915498 91.801082 325.976439 92.862023 
C 327.037379 93.922964 328.476526 94.519078 329.976923 94.519078 
z
" clip-path="url(#pbe1bfd3c72)" style="fill: #f9e8d4; fill-opacity: 0.3887"/>
   </g>
   <g id="PathCollection_11">
    <path d="M 130.823077 147.145808 
C 133.076192 147.145808 135.237328 146.250636 136.83052 144.657443 
C 138.423713 143.064251 139.318885 140.903115 139.318885 138.65 
C 139.318885 136.396885 138.423713 134.235749 136.83052 132.642557 
C 135.237328 131.049364 133.076192 130.154192 130.823077 130.154192 
C 128.569962 130.154192 126.408826 131.049364 124.815634 132.642557 
C 123.222441 134.235749 122.327269 136.396885 122.327269 138.65 
C 122.327269 140.903115 123.222441 143.064251 124.815634 144.657443 
C 126.408826 146.250636 128.569962 147.145808 130.823077 147.145808 
z
" clip-path="url(#pbe1bfd3c72)" style="fill: #4ea8c0; fill-opacity: 0.642805"/>
   </g>
   <g id="PathCollection_12">
    <path d="M 180.611538 143.506623 
C 181.89953 143.506623 183.134942 142.994899 184.04569 142.084151 
C 184.956437 141.173404 185.468162 139.937992 185.468162 138.65 
C 185.468162 137.362008 184.956437 136.126596 184.04569 135.215849 
C 183.134942 134.305101 181.89953 133.793377 180.611538 133.793377 
C 179.323547 133.793377 178.088135 134.305101 177.177387 135.215849 
C 176.26664 136.126596 175.754915 137.362008 175.754915 138.65 
C 175.754915 139.937992 176.26664 141.173404 177.177387 142.084151 
C 178.088135 142.994899 179.323547 143.506623 180.611538 143.506623 
z
" clip-path="url(#pbe1bfd3c72)" style="fill: #4ea8c0; fill-opacity: 0.335433"/>
   </g>
   <g id="PathCollection_13">
    <path d="M 230.4 149.42033 
C 233.256325 149.42033 235.996046 148.2855 238.015773 146.265773 
C 240.0355 144.246046 241.17033 141.506325 241.17033 138.65 
C 241.17033 135.793675 240.0355 133.053954 238.015773 131.034227 
C 235.996046 129.0145 233.256325 127.87967 230.4 127.87967 
C 227.543675 127.87967 224.803954 129.0145 222.784227 131.034227 
C 220.7645 133.053954 219.62967 135.793675 219.62967 138.65 
C 219.62967 141.506325 220.7645 144.246046 222.784227 146.265773 
C 224.803954 148.2855 227.543675 149.42033 230.4 149.42033 
z
" clip-path="url(#pbe1bfd3c72)" style="fill: #4ea8c0; fill-opacity: 0.92"/>
   </g>
   <g id="PathCollection_14">
    <path d="M 280.188462 148.273452 
C 282.740631 148.273452 285.188614 147.259465 286.99327 145.454808 
C 288.797926 143.650152 289.811914 141.202169 289.811914 138.65 
C 289.811914 136.097831 288.797926 133.649848 286.99327 131.845192 
C 285.188614 130.040535 282.740631 129.026548 280.188462 129.026548 
C 277.636292 129.026548 275.188309 130.040535 273.383653 131.845192 
C 271.578997 133.649848 270.565009 136.097831 270.565009 138.65 
C 270.565009 141.202169 271.578997 143.650152 273.383653 145.454808 
C 275.188309 147.259465 277.636292 148.273452 280.188462 148.273452 
z
" clip-path="url(#pbe1bfd3c72)" style="fill: #4ea8c0; fill-opacity: 0.77205"/>
   </g>
   <g id="PathCollection_15">
    <path d="M 329.976923 145.509431 
C 331.796065 145.509431 333.540945 144.786678 334.827273 143.50035 
C 336.113601 142.214022 336.836354 140.469142 336.836354 138.65 
C 336.836354 136.830858 336.113601 135.085978 334.827273 133.79965 
C 333.540945 132.513322 331.796065 131.790569 329.976923 131.790569 
C 328.157781 131.790569 326.412901 132.513322 325.126573 133.79965 
C 323.840245 135.085978 323.117492 136.830858 323.117492 138.65 
C 323.117492 140.469142 323.840245 142.214022 325.126573 143.50035 
C 326.412901 144.786678 328.157781 145.509431 329.976923 145.509431 
z
" clip-path="url(#pbe1bfd3c72)" style="fill: #4ea8c0; fill-opacity: 0.483862"/>
   </g>
   <g id="PathCollection_16">
    <path d="M 130.823077 194.295213 
C 132.376306 194.295213 133.866127 193.678109 134.964426 192.579811 
C 136.062725 191.481512 136.679829 189.99169 136.679829 188.438462 
C 136.679829 186.885233 136.062725 185.395411 134.964426 184.297113 
C 133.866127 183.198814 132.376306 182.58171 130.823077 182.58171 
C 129.269848 182.58171 127.780026 183.198814 126.681728 184.297113 
C 125.583429 185.395411 124.966325 186.885233 124.966325 188.438462 
C 124.966325 189.99169 125.583429 191.481512 126.681728 192.579811 
C 127.780026 193.678109 129.269848 194.295213 130.823077 194.295213 
z
" clip-path="url(#pbe1bfd3c72)" style="fill: #ffa453; fill-opacity: 0.40321"/>
   </g>
   <g id="PathCollection_17">
    <path d="M 180.611538 196.433121 
C 182.731747 196.433121 184.765403 195.590753 186.264616 194.091539 
C 187.76383 192.592326 188.606198 190.55867 188.606198 188.438462 
C 188.606198 186.318253 187.76383 184.284597 186.264616 182.785384 
C 184.765403 181.28617 182.731747 180.443802 180.611538 180.443802 
C 178.49133 180.443802 176.457674 181.28617 174.958461 182.785384 
C 173.459247 184.284597 172.616879 186.318253 172.616879 188.438462 
C 172.616879 190.55867 173.459247 192.592326 174.958461 194.091539 
C 176.457674 195.590753 178.49133 196.433121 180.611538 196.433121 
z
" clip-path="url(#pbe1bfd3c72)" style="fill: #ffa453; fill-opacity: 0.590529"/>
   </g>
   <g id="PathCollection_18">
    <path d="M 230.4 198.061914 
C 232.952169 198.061914 235.400152 197.047926 237.204808 195.24327 
C 239.009465 193.438614 240.023452 190.990631 240.023452 188.438462 
C 240.023452 185.886292 239.009465 183.438309 237.204808 181.633653 
C 235.400152 179.828997 232.952169 178.815009 230.4 178.815009 
C 227.847831 178.815009 225.399848 179.828997 223.595192 181.633653 
C 221.790535 183.438309 220.776548 185.886292 220.776548 188.438462 
C 220.776548 190.990631 221.790535 193.438614 223.595192 195.24327 
C 225.399848 197.047926 227.847831 198.061914 230.4 198.061914 
z
" clip-path="url(#pbe1bfd3c72)" style="fill: #ffa453; fill-opacity: 0.77205"/>
   </g>
   <g id="PathCollection_19">
    <path d="M 280.188462 199.208791 
C 283.044786 199.208791 285.784508 198.073961 287.804235 196.054235 
C 289.823961 194.034508 290.958791 191.294786 290.958791 188.438462 
C 290.958791 185.582137 289.823961 182.842415 287.804235 180.822688 
C 285.784508 178.802962 283.044786 177.668132 280.188462 177.668132 
C 277.332137 177.668132 274.592415 178.802962 272.572688 180.822688 
C 270.552962 182.842415 269.418132 185.582137 269.418132 188.438462 
C 269.418132 191.294786 270.552962 194.034508 272.572688 196.054235 
C 274.592415 198.073961 277.332137 199.208791 280.188462 199.208791 
z
" clip-path="url(#pbe1bfd3c72)" style="fill: #ffa453; fill-opacity: 0.92"/>
   </g>
   <g id="PathCollection_20">
    <path d="M 329.976923 196.012128 
C 331.985483 196.012128 333.912048 195.214119 335.332314 193.793852 
C 336.75258 192.373586 337.550589 190.447021 337.550589 188.438462 
C 337.550589 186.429902 336.75258 184.503337 335.332314 183.083071 
C 333.912048 181.662804 331.985483 180.864795 329.976923 180.864795 
C 327.968363 180.864795 326.041798 181.662804 324.621532 183.083071 
C 323.201266 184.503337 322.403257 186.429902 322.403257 188.438462 
C 322.403257 190.447021 323.201266 192.373586 324.621532 193.793852 
C 326.041798 195.214119 327.968363 196.012128 329.976923 196.012128 
z
" clip-path="url(#pbe1bfd3c72)" style="fill: #ffa453; fill-opacity: 0.549071"/>
   </g>
   <g id="PathCollection_21">
    <path d="M 130.823077 245.883444 
C 132.85361 245.883444 134.801251 245.076705 136.237055 243.640901 
C 137.672859 242.205097 138.479598 240.257456 138.479598 238.226923 
C 138.479598 236.19639 137.672859 234.248749 136.237055 232.812945 
C 134.801251 231.377141 132.85361 230.570402 130.823077 230.570402 
C 128.792544 230.570402 126.844903 231.377141 125.409099 232.812945 
C 123.973295 234.248749 123.166556 236.19639 123.166556 238.226923 
C 123.166556 240.257456 123.973295 242.205097 125.409099 243.640901 
C 126.844903 245.076705 128.792544 245.883444 130.823077 245.883444 
z
" clip-path="url(#pbe1bfd3c72)" style="fill: #e9f6f7; fill-opacity: 0.557053"/>
   </g>
   <g id="PathCollection_22">
    <path d="M 180.611538 243.884463 
C 182.111935 243.884463 183.551082 243.288348 184.612023 242.227408 
C 185.672964 241.166467 186.269078 239.72732 186.269078 238.226923 
C 186.269078 236.726526 185.672964 235.287379 184.612023 234.226439 
C 183.551082 233.165498 182.111935 232.569384 180.611538 232.569384 
C 179.111141 232.569384 177.671995 233.165498 176.611054 234.226439 
C 175.550113 235.287379 174.953999 236.726526 174.953999 238.226923 
C 174.953999 239.72732 175.550113 241.166467 176.611054 242.227408 
C 177.671995 243.288348 179.111141 243.884463 180.611538 243.884463 
z
" clip-path="url(#pbe1bfd3c72)" style="fill: #e9f6f7; fill-opacity: 0.3887"/>
   </g>
   <g id="PathCollection_23">
    <path d="M 230.4 245.086354 
C 232.219142 245.086354 233.964022 244.363601 235.25035 243.077273 
C 236.536678 241.790945 237.259431 240.046065 237.259431 238.226923 
C 237.259431 236.407781 236.536678 234.662901 235.25035 233.376573 
C 233.964022 232.090245 232.219142 231.367492 230.4 231.367492 
C 228.580858 231.367492 226.835978 232.090245 225.54965 233.376573 
C 224.263322 234.662901 223.540569 236.407781 223.540569 238.226923 
C 223.540569 240.046065 224.263322 241.790945 225.54965 243.077273 
C 226.835978 244.363601 228.580858 245.086354 230.4 245.086354 
z
" clip-path="url(#pbe1bfd3c72)" style="fill: #e9f6f7; fill-opacity: 0.483862"/>
   </g>
   <g id="PathCollection_24">
    <path d="M 280.188462 245.800589 
C 282.197021 245.800589 284.123586 245.00258 285.543852 243.582314 
C 286.964119 242.162048 287.762128 240.235483 287.762128 238.226923 
C 287.762128 236.218363 286.964119 234.291798 285.543852 232.871532 
C 284.123586 231.451266 282.197021 230.653257 280.188462 230.653257 
C 278.179902 230.653257 276.253337 231.451266 274.833071 232.871532 
C 273.412804 234.291798 272.614795 236.218363 272.614795 238.226923 
C 272.614795 240.235483 273.412804 242.162048 274.833071 243.582314 
C 276.253337 245.00258 278.179902 245.800589 280.188462 245.800589 
z
" clip-path="url(#pbe1bfd3c72)" style="fill: #e9f6f7; fill-opacity: 0.549071"/>
   </g>
   <g id="PathCollection_25">
    <path d="M 329.976923 248.997253 
C 332.833248 248.997253 335.57297 247.862423 337.592696 245.842696 
C 339.612423 243.82297 340.747253 241.083248 340.747253 238.226923 
C 340.747253 235.370598 339.612423 232.630877 337.592696 230.61115 
C 335.57297 228.591423 332.833248 227.456593 329.976923 227.456593 
C 327.120598 227.456593 324.380877 228.591423 322.36115 230.61115 
C 320.341423 232.630877 319.206593 235.370598 319.206593 238.226923 
C 319.206593 241.083248 320.341423 243.82297 322.36115 245.842696 
C 324.380877 247.862423 327.120598 248.997253 329.976923 248.997253 
z
" clip-path="url(#pbe1bfd3c72)" style="fill: #e9f6f7; fill-opacity: 0.92"/>
   </g>
   <g id="matplotlib.axis_1">
    <g id="xtick_1">
     <g id="line2d_1"/>
     <g id="text_1">
      <text style="font-size: 8.4px; font-family: 'Arial', 'Helvetica', 'DejaVu Sans', sans-serif; text-anchor: middle" x="130.823077" y="277.612562" transform="rotate(-0 130.823077 277.612562)">V1</text>
     </g>
    </g>
    <g id="xtick_2">
     <g id="line2d_2"/>
     <g id="text_2">
      <text style="font-size: 8.4px; font-family: 'Arial', 'Helvetica', 'DejaVu Sans', sans-serif; text-anchor: middle" x="180.611538" y="277.612562" transform="rotate(-0 180.611538 277.612562)">V2</text>
     </g>
    </g>
    <g id="xtick_3">
     <g id="line2d_3"/>
     <g id="text_3">
      <text style="font-size: 8.4px; font-family: 'Arial', 'Helvetica', 'DejaVu Sans', sans-serif; text-anchor: middle" x="230.4" y="277.612562" transform="rotate(-0 230.4 277.612562)">V3</text>
     </g>
    </g>
    <g id="xtick_4">
     <g id="line2d_4"/>
     <g id="text_4">
      <text style="font-size: 8.4px; font-family: 'Arial', 'Helvetica', 'DejaVu Sans', sans-serif; text-anchor: middle" x="280.188462" y="277.612562" transform="rotate(-0 280.188462 277.612562)">V4</text>
     </g>
    </g>
    <g id="xtick_5">
     <g id="line2d_5"/>
     <g id="text_5">
      <text style="font-size: 8.4px; font-family: 'Arial', 'Helvetica', 'DejaVu Sans', sans-serif; text-anchor: middle" x="329.976923" y="277.612562" transform="rotate(-0 329.976923 277.612562)">V5</text>
     </g>
    </g>
   </g>
   <g id="matplotlib.axis_2">
    <g id="ytick_1">
     <g id="line2d_6"/>
     <g id="text_6">
      <text style="font-size: 8.4px; font-family: 'Arial', 'Helvetica', 'DejaVu Sans', sans-serif; text-anchor: end" x="97.45" y="42.079358" transform="rotate(-0 97.45 42.079358)">V1</text>
     </g>
    </g>
    <g id="ytick_2">
     <g id="line2d_7"/>
     <g id="text_7">
      <text style="font-size: 8.4px; font-family: 'Arial', 'Helvetica', 'DejaVu Sans', sans-serif; text-anchor: end" x="97.45" y="91.86782" transform="rotate(-0 97.45 91.86782)">V2</text>
     </g>
    </g>
    <g id="ytick_3">
     <g id="line2d_8"/>
     <g id="text_8">
      <text style="font-size: 8.4px; font-family: 'Arial', 'Helvetica', 'DejaVu Sans', sans-serif; text-anchor: end" x="97.45" y="141.656281" transform="rotate(-0 97.45 141.656281)">V3</text>
     </g>
    </g>
    <g id="ytick_4">
     <g id="line2d_9"/>
     <g id="text_9">
      <text style="font-size: 8.4px; font-family: 'Arial', 'Helvetica', 'DejaVu Sans', sans-serif; text-anchor: end" x="97.45" y="191.444743" transform="rotate(-0 97.45 191.444743)">V4</text>
     </g>
    </g>
    <g id="ytick_5">
     <g id="line2d_10"/>
     <g id="text_10">
      <text style="font-size: 8.4px; font-family: 'Arial', 'Helvetica', 'DejaVu Sans', sans-serif; text-anchor: end" x="97.45" y="241.233204" transform="rotate(-0 97.45 241.233204)">V5</text>
     </g>
    </g>
   </g>
  </g>
 </g>
 <defs>
  <clipPath id="pbe1bfd3c72">
   <rect x="100.95" y="9.2" width="258.9" height="258.9"/>
  </clipPath>
 </defs>
</svg>
