<?xml version="1.0" encoding="utf-8" standalone="no"?>
<!DOCTYPE svg PUBLIC "-//W3C//DTD SVG 1.1//EN"
  "http://www.w3.org/Graphics/SVG/1.1/DTD/svg11.dtd">
<svg xmlns:xlink="http://www.w3.org/1999/xlink" width="460.8pt" height="288pt" viewBox="0 0 460.8 288" xmlns="http://www.w3.org/2000/svg" version="1.1">
 <metadata>
  <rdf:RDF xmlns:dc="http://purl.org/dc/elements/1.1/" xmlns:cc="http://creativecommons.org/ns#" xmlns:rdf="http://www.w3.org/1999/02/22-rdf-syntax-ns#">
   <cc:Work>
    <dc:type rdf:resource="http://purl.org/dc/dcmitype/StillImage"/>
    <dc:date>2026-09-08T04:33:32.517845</dc:date>
    <dc:format>image/svg+xml</dc:format>
    <dc:creator>
     <cc:Agent>
      <dc:title>Matplotlib v3.10.9, https://matplotlib.org/</dc:title>
     </cc:Agent>
    </dc:creator>
   </cc:Work>
  </rdf:RDF>
 </metadata>
 <defs>
  <style type="text/css">*{stroke-linejoin: round; stroke-linecap: butt}</style>
 </defs>
 <g id="figure_1">
  <g id="patch_1">
   <path d="M 0 288 
L 460.8 288 
L 460.8 0 
L 0 0 
z
" style="fill: #fafbfb"/>
  </g>
  <g id="axes_1">
   <g id="patch_2">
    <path d="M 100.95 268.1 
L 359.85 268.1 
L 359.85 9.2 
L 100.95 9.2 
z
" style="fill: #fafbfb"/>
   </g>
   <g id="matplotlib.axis_1">
    <g id="xtick_1">
     <g id="line2d_1"/>
     <g id="text_1">
      <text style="font-size: 8.4px; font-family: 'Arial', 'Helvetica', 'DejaVu Sans', sans-serif; text-anchor: middle" x="114.819643" y="277.612562" transform="rotate(-0 114.819643 277.612562)">V1</text>
     </g>
    </g>
    <g id="xtick_2">
     <g id="line2d_2"/>
     <g id="text_2">
      <text style="font-size: 8.4px; font-family: 'Arial', 'Helvetica', 'DejaVu Sans', sans-serif; text-anchor: middle" x="137.935714" y="277.612562" transform="rotate(-0 137.935714 277.612562)">V2</text>
     </g>
    </g>
    <g id="xtick_3">
     <g id="line2d_3"/>
     <g id="text_3">
      <text style="font-size: 8.4px; font-family: 'Arial', 'Helvetica', 'DejaVu Sans', sans-serif; text-anchor: middle" x="161.051786" y="277.612562" transform="rotate(-0 161.051786 277.612562)">V3</text>
     </g>
    </g>
    <g id="xtick_4">
     <g id="line2d_4"/>
     <g id="text_4">
      <text style="font-size: 8.4px; font-family: 'Arial', 'Helvetica', 'DejaVu Sans', sans-serif; text-anchor: middle" x="184.167857" y="277.612562" transform="rotate(-0 184.167857 277.612562)">V4</text>
     </g>
    </g>
    <g id="xtick_5">
     <g id="line2d_5"/>
     <g id="text_5">
      <text style="font-size: 8.4px; font-family: 'Arial', 'Helvetica', 'DejaVu Sans', sans-serif; text-anchor: middle" x="207.283929" y="277.612562" transform="rotate(-0 207.283929 277.612562)">V5</text>
     </g>
    </g>
    <g id="xtick_6">
     <g id="line2d_6"/>
     <g id="text_6">
      <text style="font-size: 8.4px; font-family: 'Arial', 'Helvetica', 'DejaVu Sans', sans-serif; text-anchor: middle" x="230.4" y="277.612562" transform="rotate(-0 230.4 277.612562)">V6</text>
     </g>
    </g>
    <g id="xtick_7">
     <g id="line2d_7"/>
     <g id="text_7">
      <text style="font-size: 8.4px; font-family: 'Arial', 'Helvetica', 'DejaVu Sans', sans-serif; text-anchor: middle" x="253.516071" y="277.612562" transform="rotate(-0 253.516071 277.612562)">V7</text>
     </g>
    </g>
    <g id="xtick_8">
     <g id="line2d_8"/>
     <g id="text_8">
      <text style="font-size: 8.4px; font-family: 'Arial', 'Helvetica', 'DejaVu Sans', sans-serif; text-anchor: middle" x="276.632143" y="277.612562" transform="rotate(-0 276.632143 277.612562)">V8</text>
     </g>
    </g>
    <g id="xtick_9">
     <g id="line2d_9"/>
     <g id="text_9">
      <text style="font-size: 8.4px; font-family: 'Arial', 'Helvetica', 'DejaVu Sans', sans-serif; text-anchor: middle" x="299.748214" y="277.612562" transform="rotate(-0 299.748214 277.612562)">V9</text>
     </g>
    </g>
    <g id="xtick_10">
     <g id="line2d_10"/>
     <g id="text_10">
      <text style="font-size: 8.4px; font-family: 'Arial', 'Helvetica', 'DejaVu Sans', sans-serif; text-anchor: middle" x="322.864286" y="277.612562" transform="rotate(-0 322.864286 277.612562)">V10</text>
     </g>
    </g>
    <g id="xtick_11">
     <g id="line2d_11"/>
     <g id="text_11">
      <text style="font-size: 8.4px; font-family: 'Arial', 'Helvetica', 'DejaVu Sans', sans-serif; text-anchor: middle" x="345.980357" y="277.612562" transform="rotate(-0 345.980357 277.612562)">V11</text>
     </g>
    </g>
   </g>
   <g id="matplotlib.axis_2">
    <g id="ytick_1">
     <g id="line2d_12"/>
     <g id="text_12">
      <text style="font-size: 8.4px; font-family: 'Arial', 'Helvetica', 'DejaVu Sans', sans-serif; text-anchor: end" x="97.45" y="26.075924" transform="rotate(-0 97.45 26.075924)">V1</text>
     </g>
    </g>
    <g id="ytick_2">
     <g id="line2d_13"/>
     <g id="text_13">
      <text style="font-size: 8.4px; font-family: 'Arial', 'Helvetica', 'DejaVu Sans', sans-serif; text-anchor: end" x="97.45" y="49.191996" transform="rotate(-0 97.45 49.191996)">V2</text>
     </g>
    </g>
    <g id="ytick_3">
     <g id="line2d_14"/>
     <g id="text_14">
      <text style="font-size: 8.4px; font-family: 'Arial', 'Helvetica', 'DejaVu Sans', sans-serif; text-anchor: end" x="97.45" y="72.308067" transform="rotate(-0 97.45 72.308067)">V3</text>
     </g>
    </g>
    <g id="ytick_4">
     <g id="line2d_15"/>
     <g id="text_15">
      <text style="font-size: 8.4px; font-family: 'Arial', 'Helvetica', 'DejaVu Sans', sans-serif; text-anchor: end" x="97.45" y="95.424138" transform="rotate(-0 97.45 95.424138)">V4</text>
     </g>
    </g>
    <g id="ytick_5">
     <g id="line2d_16"/>
     <g id="text_16">
      <text style="font-size: 8.4px; font-family: 'Arial', 'Helvetica', 'DejaVu Sans', sans-serif; text-anchor: end" x="97.45" y="118.54021" transform="rotate(-0 97.45 118.54021)">V5</text>
     </g>
    </g>
    <g id="ytick_6">
     <g id="line2d_17"/>
     <g id="text_17">
      <text style="font-size: 8.4px; font-family: 'Arial', 'Helvetica', 'DejaVu Sans', sans-serif; text-anchor: end" x="97.45" y="141.656281" transform="rotate(-0 97.45 141.656281)">V6</text>
     </g>
    </g>
    <g id="ytick_7">
     <g id="line2d_18"/>
     <g id="text_18">
      <text style="font-size: 8.4px; font-family: 'Arial', 'Helvetica', 'DejaVu Sans', sans-serif; text-anchor: end" x="97.45" y="164.772353" transform="rotate(-0 97.45 164.772353)">V7</text>
     </g>
    </g>
    <g id="ytick_8">
     <g id="line2d_19"/>
     <g id="text_19">
      <text style="font-size: 8.4px; font-family: 'Arial', 'Helvetica', 'DejaVu Sans', sans-serif; text-anchor: end" x="97.45" y="187.888424" transform="rotate(-0 97.45 187.888424)">V8</text>
     </g>
    </g>
    <g id="ytick_9">
     <g id="line2d_20"/>
     <g id="text_20">
      <text style="font-size: 8.4px; font-family: 'Arial', 'Helvetica', 'DejaVu Sans', sans-serif; text-anchor: end" x="97.45" y="211.004496" transform="rotate(-0 97.45 211.004496)">V9</text>
     </g>
    </g>
    <g id="ytick_10">
     <g id="line2d_21"/>
     <g id="text_21">
      <text style="font-size: 8.4px; font-family: 'Arial', 'Helvetica', 'DejaVu Sans', sans-serif; text-anchor: end" x="97.45" y="234.120567" transform="rotate(-0 97.45 234.120567)">V10</text>
     </g>
    </g>
    <g id="ytick_11">
     <g id="line2d_22"/>
     <g id="text_22">
      <text style="font-size: 8.4px; font-family: 'Arial', 'Helvetica', 'DejaVu Sans', sans-serif; text-anchor: end" x="97.45" y="257.236638" transform="rotate(-0 97.45 257.236638)">V11</text>
     </g>
    </g>
   </g>
   <g id="PathCollection_1">
    <path d="M 114.819643 33.839972 
C 117.675968 33.839972 120.415689 32.705143 122.435416 30.685416 
C 124.455143 28.665689 125.589972 25.925968 125.589972 23.069643 
C 125.589972 20.213318 124.455143 17.473596 122.435416 15.45387 
C 120.415689 13.434143 117.675968 12.299313 114.819643 12.299313 
C 111.963318 12.299313 109.223596 13.434143 107.20387 15.45387 
C 105.184143 17.473596 104.049313 20.213318 104.049313 23.069643 
C 104.049313 25.925968 105.184143 28.665689 107.20387 30.685416 
C 109.223596 32.705143 111.963318 33.839972 114.819643 33.839972 
z
" clip-path="url(#pbe1bfd3c72)" style="fill: #9fb8ca; fill-opacity: 0.92"/>
   </g>
   <g id="PathCollection_2">
    <path d="M 137.935714 28.604967 
C 139.403699 28.604967 140.811757 28.021731 141.84978 26.983708 
C 142.887802 25.945686 143.471039 24.537628 143.471039 23.069643 
C 143.471039 21.601658 142.887802 20.1936 141.84978 19.155577 
C 140.811757 18.117555 139.403699 17.534319 137.935714 17.534319 
C 136.467729 17.534319 135.059671 18.117555 134.021649 19.155577 
C 132.983627 20.1936 132.40039 21.601658 132.40039 23.069643 
C 132.40039 24.537628 132.983627 25.945686 134.021649 26.983708 
C 135.059671 28.021731 136.467729 28.604967 137.935714 28.604967 
z
" clip-path="url(#pbe1bfd3c72)" style="fill: #9fb8ca; fill-opacity: 0.380047"/>
   </g>
   <g id="PathCollection_3">
    <path d="M 161.051786 28.858518 
C 162.587013 28.858518 164.059569 28.248565 165.145138 27.162996 
C 166.230708 26.077426 166.840661 24.60487 166.840661 23.069643 
C 166.840661 21.534415 166.230708 20.06186 165.145138 18.97629 
C 164.059569 17.89072 162.587013 17.280768 161.051786 17.280768 
C 159.516558 17.280768 158.044003 17.89072 156.958433 18.97629 
C 155.872863 20.06186 155.262911 21.534415 155.262911 23.069643 
C 155.262911 24.60487 155.872863 26.077426 156.958433 27.162996 
C 158.044003 28.248565 159.516558 28.858518 161.051786 28.858518 
z
" clip-path="url(#pbe1bfd3c72)" style="fill: #9fb8ca; fill-opacity: 0.39821"/>
   </g>
   <g id="PathCollection_4">
    <path d="M 184.167857 32.425911 
C 186.649168 32.425911 189.029186 31.440076 190.783738 29.685524 
C 192.53829 27.930971 193.524125 25.550954 193.524125 23.069643 
C 193.524125 20.588332 192.53829 18.208314 190.783738 16.453762 
C 189.029186 14.69921 186.649168 13.713375 184.167857 13.713375 
C 181.686546 13.713375 179.306529 14.69921 177.551976 16.453762 
C 175.797424 18.208314 174.811589 20.588332 174.811589 23.069643 
C 174.811589 25.550954 175.797424 27.930971 177.551976 29.685524 
C 179.306529 31.440076 181.686546 32.425911 184.167857 32.425911 
z
" clip-path="url(#pbe1bfd3c72)" style="fill: #9fb8ca; fill-opacity: 0.739972"/>
   </g>
   <g id="PathCollection_5">
    <path d="M 207.283929 28.772151 
C 208.796251 28.772151 210.246837 28.171298 211.316211 27.101925 
C 212.385584 26.032551 212.986436 24.581966 212.986436 23.069643 
C 212.986436 21.55732 212.385584 20.106735 211.316211 19.037361 
C 210.246837 17.967987 208.796251 17.367135 207.283929 17.367135 
C 205.771606 17.367135 204.32102 17.967987 203.251647 19.037361 
C 202.182273 20.106735 201.581421 21.55732 201.581421 23.069643 
C 201.581421 24.581966 202.182273 26.032551 203.251647 27.101925 
C 204.32102 28.171298 205.771606 28.772151 207.283929 28.772151 
z
" clip-path="url(#pbe1bfd3c72)" style="fill: #9fb8ca; fill-opacity: 0.391932"/>
   </g>
   <g id="PathCollection_6">
    <path d="M 230.4 31.785276 
C 232.711413 31.785276 234.928467 30.866942 236.562883 29.232526 
C 238.197299 27.59811 239.115633 25.381056 239.115633 23.069643 
C 239.115633 20.75823 238.197299 18.541175 236.562883 16.90676 
C 234.928467 15.272344 232.711413 14.35401 230.4 14.35401 
C 228.088587 14.35401 225.871533 15.272344 224.237117 16.90676 
C 222.602701 18.541175 221.684367 20.75823 221.684367 23.069643 
C 221.684367 25.381056 222.602701 27.59811 224.237117 29.232526 
C 225.871533 30.866942 228.088587 31.785276 230.4 31.785276 
z
" clip-path="url(#pbe1bfd3c72)" style="fill: #9fb8ca; fill-opacity: 0.666738"/>
   </g>
   <g id="PathCollection_7">
    <path d="M 253.516071 27.307227 
C 254.639892 27.307227 255.717835 26.860729 256.512496 26.066068 
C 257.307157 25.271406 257.753656 24.193463 257.753656 23.069643 
C 257.753656 21.945822 257.307157 20.867879 256.512496 20.073218 
C 255.717835 19.278557 254.639892 18.832058 253.516071 18.832058 
C 252.392251 18.832058 251.314308 19.278557 250.519647 20.073218 
C 249.724986 20.867879 249.278487 21.945822 249.278487 23.069643 
C 249.278487 24.193463 249.724986 25.271406 250.519647 26.066068 
C 251.314308 26.860729 252.392251 27.307227 253.516071 27.307227 
z
" clip-path="url(#pbe1bfd3c72)" style="fill: #9fb8ca; fill-opacity: 0.299822"/>
   </g>
   <g id="PathCollection_8">
    <path d="M 276.632143 31.213136 
C 278.791822 31.213136 280.863338 30.355086 282.390462 28.827962 
C 283.917586 27.300838 284.775636 25.229322 284.775636 23.069643 
C 284.775636 20.909963 283.917586 18.838448 282.390462 17.311324 
C 280.863338 15.7842 278.791822 14.92615 276.632143 14.92615 
C 274.472463 14.92615 272.400948 15.7842 270.873824 17.311324 
C 269.3467 18.838448 268.48865 20.909963 268.48865 23.069643 
C 268.48865 25.229322 269.3467 27.300838 270.873824 28.827962 
C 272.400948 30.355086 274.472463 31.213136 276.632143 31.213136 
z
" clip-path="url(#pbe1bfd3c72)" style="fill: #9fb8ca; fill-opacity: 0.605723"/>
   </g>
   <g id="PathCollection_9">
    <path d="M 299.748214 31.957834 
C 302.10539 31.957834 304.36634 31.021318 306.033115 29.354543 
C 307.69989 27.687768 308.636406 25.426819 308.636406 23.069643 
C 308.636406 20.712467 307.69989 18.451517 306.033115 16.784742 
C 304.36634 15.117967 302.10539 14.181451 299.748214 14.181451 
C 297.391038 14.181451 295.130089 15.117967 293.463314 16.784742 
C 291.796539 18.451517 290.860023 20.712467 290.860023 23.069643 
C 290.860023 25.426819 291.796539 27.687768 293.463314 29.354543 
C 295.130089 31.021318 297.391038 31.957834 299.748214 31.957834 
z
" clip-path="url(#pbe1bfd3c72)" style="fill: #9fb8ca; fill-opacity: 0.685953"/>
   </g>
   <g id="PathCollection_10">
    <path d="M 322.864286 26.963418 
C 323.896927 26.963418 324.887413 26.553145 325.617601 25.822958 
C 326.347788 25.09277 326.758061 24.102284 326.758061 23.069643 
C 326.758061 22.037002 326.347788 21.046516 325.617601 20.316328 
C 324.887413 19.58614 323.896927 19.175868 322.864286 19.175868 
C 321.831644 19.175868 320.841158 19.58614 320.110971 20.316328 
C 319.380783 21.046516 318.97051 22.037002 318.97051 23.069643 
C 318.97051 24.102284 319.380783 25.09277 320.110971 25.822958 
C 320.841158 26.553145 321.831644 26.963418 322.864286 26.963418 
z
" clip-path="url(#pbe1bfd3c72)" style="fill: #9fb8ca; fill-opacity: 0.282138"/>
   </g>
   <g id="PathCollection_11">
    <path d="M 345.980357 29.026226 
C 347.560062 29.026226 349.075278 28.398603 350.192298 27.281583 
C 351.309317 26.164564 351.936941 24.649347 351.936941 23.069643 
C 351.936941 21.489938 351.309317 19.974722 350.192298 18.857702 
C 349.075278 17.740683 347.560062 17.113059 345.980357 17.113059 
C 344.400653 17.113059 342.885436 17.740683 341.768417 18.857702 
C 340.651397 19.974722 340.023774 21.489938 340.023774 23.069643 
C 340.023774 24.649347 340.651397 26.164564 341.768417 27.281583 
C 342.885436 28.398603 344.400653 29.026226 345.980357 29.026226 
z
" clip-path="url(#pbe1bfd3c72)" style="fill: #9fb8ca; fill-opacity: 0.41067"/>
   </g>
   <g id="PathCollection_12">
    <path d="M 114.819643 51.721039 
C 116.287628 51.721039 117.695686 51.137802 118.733708 50.09978 
C 119.771731 49.061757 120.354967 47.653699 120.354967 46.185714 
C 120.354967 44.717729 119.771731 43.309671 118.733708 42.271649 
C 117.695686 41.233627 116.287628 40.65039 114.819643 40.65039 
C 113.351658 40.65039 111.9436 41.233627 110.905577 42.271649 
C 109.867555 43.309671 109.284319 44.717729 109.284319 46.185714 
C 109.284319 47.653699 109.867555 49.061757 110.905577 50.09978 
C 111.9436 51.137802 113.351658 51.721039 114.819643 51.721039 
z
" clip-path="url(#pbe1bfd3c72)" style="fill: #b0c5d2; fill-opacity: 0.380047"/>
   </g>
   <g id="PathCollection_13">
    <path d="M 137.935714 56.956044 
C 140.792039 56.956044 143.531761 55.821214 145.551487 53.801487 
C 147.571214 51.781761 148.706044 49.042039 148.706044 46.185714 
C 148.706044 43.329389 147.571214 40.589668 145.551487 38.569941 
C 143.531761 36.550215 140.792039 35.415385 137.935714 35.415385 
C 135.079389 35.415385 132.339668 36.550215 130.319941 38.569941 
C 128.300215 40.589668 127.165385 43.329389 127.165385 46.185714 
C 127.165385 49.042039 128.300215 51.781761 130.319941 53.801487 
C 132.339668 55.821214 135.079389 56.956044 137.935714 56.956044 
z
" clip-path="url(#pbe1bfd3c72)" style="fill: #b0c5d2; fill-opacity: 0.92"/>
   </g>
   <g id="PathCollection_14">
    <path d="M 161.051786 50.470464 
C 162.188115 50.470464 163.278055 50.018995 164.081561 49.21549 
C 164.885067 48.411984 165.336535 47.322043 165.336535 46.185714 
C 165.336535 45.049385 164.885067 43.959445 164.081561 43.155939 
C 163.278055 42.352433 162.188115 41.900965 161.051786 41.900965 
C 159.915457 41.900965 158.825516 42.352433 158.02201 43.155939 
C 157.218505 43.959445 156.767036 45.049385 156.767036 46.185714 
C 156.767036 47.322043 157.218505 48.411984 158.02201 49.21549 
C 158.825516 50.018995 159.915457 50.470464 161.051786 50.470464 
z
" clip-path="url(#pbe1bfd3c72)" style="fill: #b0c5d2; fill-opacity: 0.302364"/>
   </g>
   <g id="PathCollection_15">
    <path d="M 184.167857 53.02718 
C 185.982235 53.02718 187.722545 52.30632 189.005504 51.023361 
C 190.288463 49.740402 191.009323 48.000092 191.009323 46.185714 
C 191.009323 44.371336 190.288463 42.631027 189.005504 41.348068 
C 187.722545 40.065109 185.982235 39.344249 184.167857 39.344249 
C 182.353479 39.344249 180.613169 40.065109 179.330211 41.348068 
C 178.047252 42.631027 177.326392 44.371336 177.326392 46.185714 
C 177.326392 48.000092 178.047252 49.740402 179.330211 51.023361 
C 180.613169 52.30632 182.353479 53.02718 184.167857 53.02718 
z
" clip-path="url(#pbe1bfd3c72)" style="fill: #b0c5d2; fill-opacity: 0.482306"/>
   </g>
   <g id="PathCollection_16">
    <path d="M 207.283929 50.477636 
C 208.42216 50.477636 209.513925 50.025412 210.318776 49.220561 
C 211.123626 48.415711 211.57585 47.323945 211.57585 46.185714 
C 211.57585 45.047483 211.123626 43.955718 210.318776 43.150867 
C 209.513925 42.346016 208.42216 41.893792 207.283929 41.893792 
C 206.145698 41.893792 205.053932 42.346016 204.249082 43.150867 
C 203.444231 43.955718 202.992007 45.047483 202.992007 46.185714 
C 202.992007 47.323945 203.444231 48.415711 204.249082 49.220561 
C 205.053932 50.025412 206.145698 50.477636 207.283929 50.477636 
z
" clip-path="url(#pbe1bfd3c72)" style="fill: #b0c5d2; fill-opacity: 0.302754"/>
   </g>
   <g id="PathCollection_17">
    <path d="M 230.4 55.195285 
C 232.789366 55.195285 235.081191 54.24598 236.770728 52.556443 
C 238.460265 50.866906 239.409571 48.57508 239.409571 46.185714 
C 239.409571 43.796348 238.460265 41.504523 236.770728 39.814986 
C 235.081191 38.125449 232.789366 37.176144 230.4 37.176144 
C 228.010634 37.176144 225.718809 38.125449 224.029272 39.814986 
C 222.339735 41.504523 221.390429 43.796348 221.390429 46.185714 
C 221.390429 48.57508 222.339735 50.866906 224.029272 52.556443 
C 225.718809 54.24598 228.010634 55.195285 230.4 55.195285 
z
" clip-path="url(#pbe1bfd3c72)" style="fill: #b0c5d2; fill-opacity: 0.699695"/>
   </g>
   <g id="PathCollection_18">
    <path d="M 253.516071 51.880211 
C 255.02627 51.880211 256.474817 51.280203 257.542689 50.212331 
C 258.61056 49.14446 259.210568 47.695912 259.210568 46.185714 
C 259.210568 44.675516 258.61056 43.226968 257.542689 42.159097 
C 256.474817 41.091226 255.02627 40.491218 253.516071 40.491218 
C 252.005873 40.491218 250.557326 41.091226 249.489454 42.159097 
C 248.421583 43.226968 247.821575 44.675516 247.821575 46.185714 
C 247.821575 47.695912 248.421583 49.14446 249.489454 50.212331 
C 250.557326 51.280203 252.005873 51.880211 253.516071 51.880211 
z
" clip-path="url(#pbe1bfd3c72)" style="fill: #b0c5d2; fill-opacity: 0.391354"/>
   </g>
   <g id="PathCollection_19">
    <path d="M 276.632143 52.275675 
C 278.247219 52.275675 279.796364 51.633999 280.938396 50.491967 
C 282.080427 49.349935 282.722104 47.800791 282.722104 46.185714 
C 282.722104 44.570638 282.080427 43.021493 280.938396 41.879462 
C 279.796364 40.73743 278.247219 40.095753 276.632143 40.095753 
C 275.017066 40.095753 273.467922 40.73743 272.32589 41.879462 
C 271.183859 43.021493 270.542182 44.570638 270.542182 46.185714 
C 270.542182 47.800791 271.183859 49.349935 272.32589 50.491967 
C 273.467922 51.633999 275.017066 52.275675 276.632143 52.275675 
z
" clip-path="url(#pbe1bfd3c72)" style="fill: #b0c5d2; fill-opacity: 0.420833"/>
   </g>
   <g id="PathCollection_20">
    <path d="M 299.748214 51.730936 
C 301.218824 51.730936 302.6294 51.146657 303.669278 50.106778 
C 304.709157 49.0669 305.293436 47.656324 305.293436 46.185714 
C 305.293436 44.715104 304.709157 43.304528 303.669278 42.26465 
C 302.6294 41.224772 301.218824 40.640492 299.748214 40.640492 
C 298.277604 40.640492 296.867028 41.224772 295.82715 42.26465 
C 294.787272 43.304528 294.202992 44.715104 294.202992 46.185714 
C 294.202992 47.656324 294.787272 49.0669 295.82715 50.106778 
C 296.867028 51.146657 298.277604 51.730936 299.748214 51.730936 
z
" clip-path="url(#pbe1bfd3c72)" style="fill: #b0c5d2; fill-opacity: 0.380741"/>
   </g>
   <g id="PathCollection_21">
    <path d="M 322.864286 50.629188 
C 324.042709 50.629188 325.173025 50.160995 326.006296 49.327725 
C 326.839567 48.494454 327.307759 47.364137 327.307759 46.185714 
C 327.307759 45.007291 326.839567 43.876975 326.006296 43.043704 
C 325.173025 42.210433 324.042709 41.742241 322.864286 41.742241 
C 321.685863 41.742241 320.555546 42.210433 319.722275 43.043704 
C 318.889005 43.876975 318.420812 45.007291 318.420812 46.185714 
C 318.420812 47.364137 318.889005 48.494454 319.722275 49.327725 
C 320.555546 50.160995 321.685863 50.629188 322.864286 50.629188 
z
" clip-path="url(#pbe1bfd3c72)" style="fill: #b0c5d2; fill-opacity: 0.311128"/>
   </g>
   <g id="PathCollection_22">
    <path d="M 345.980357 53.137434 
C 347.823975 53.137434 349.592331 52.404957 350.895965 51.101322 
C 352.1996 49.797688 352.932077 48.029332 352.932077 46.185714 
C 352.932077 44.342097 352.1996 42.573741 350.895965 41.270106 
C 349.592331 39.966472 347.823975 39.233995 345.980357 39.233995 
C 344.13674 39.233995 342.368384 39.966472 341.064749 41.270106 
C 339.761115 42.573741 339.028638 44.342097 339.028638 46.185714 
C 339.028638 48.029332 339.761115 49.797688 341.064749 51.101322 
C 342.368384 52.404957 344.13674 53.137434 345.980357 53.137434 
z
" clip-path="url(#pbe1bfd3c72)" style="fill: #b0c5d2; fill-opacity: 0.491925"/>
   </g>
   <g id="PathCollection_23">
    <path d="M 114.819643 75.090661 
C 116.35487 75.090661 117.827426 74.480708 118.912996 73.395138 
C 119.998565 72.309569 120.608518 70.837013 120.608518 69.301786 
C 120.608518 67.766558 119.998565 66.294003 118.912996 65.208433 
C 117.827426 64.122863 116.35487 63.512911 114.819643 63.512911 
C 113.284415 63.512911 111.81186 64.122863 110.72629 65.208433 
C 109.64072 66.294003 109.030768 67.766558 109.030768 69.301786 
C 109.030768 70.837013 109.64072 72.309569 110.72629 73.395138 
C 111.81186 74.480708 113.284415 75.090661 114.819643 75.090661 
z
" clip-path="url(#pbe1bfd3c72)" style="fill: #c1d2de; fill-opacity: 0.39821"/>
   </g>
   <g id="PathCollection_24">
    <path d="M 137.935714 73.586535 
C 139.072043 73.586535 140.161984 73.135067 140.96549 72.331561 
C 141.768995 71.528055 142.220464 70.438115 142.220464 69.301786 
C 142.220464 68.165457 141.768995 67.075516 140.96549 66.27201 
C 140.161984 65.468505 139.072043 65.017036 137.935714 65.017036 
C 136.799385 65.017036 135.709445 65.468505 134.905939 66.27201 
C 134.102433 67.075516 133.650965 68.165457 133.650965 69.301786 
C 133.650965 70.438115 134.102433 71.528055 134.905939 72.331561 
C 135.709445 73.135067 136.799385 73.586535 137.935714 73.586535 
z
" clip-path="url(#pbe1bfd3c72)" style="fill: #c1d2de; fill-opacity: 0.302364"/>
   </g>
   <g id="PathCollection_25">
    <path d="M 161.051786 80.072115 
C 163.908111 80.072115 166.647832 78.937285 168.667559 76.917559 
C 170.687285 74.897832 171.822115 72.158111 171.822115 69.301786 
C 171.822115 66.445461 170.687285 63.705739 168.667559 61.686013 
C 166.647832 59.666286 163.908111 58.531456 161.051786 58.531456 
C 158.195461 58.531456 155.455739 59.666286 153.436013 61.686013 
C 151.416286 63.705739 150.281456 66.445461 150.281456 69.301786 
C 150.281456 72.158111 151.416286 74.897832 153.436013 76.917559 
C 155.455739 78.937285 158.195461 80.072115 161.051786 80.072115 
z
" clip-path="url(#pbe1bfd3c72)" style="fill: #c1d2de; fill-opacity: 0.92"/>
   </g>
   <g id="PathCollection_26">
    <path d="M 184.167857 74.707327 
C 185.601423 74.707327 186.976468 74.137765 187.990152 73.124081 
C 189.003837 72.110396 189.573399 70.735352 189.573399 69.301786 
C 189.573399 67.868219 189.003837 66.493175 187.990152 65.479491 
C 186.976468 64.465806 185.601423 63.896244 184.167857 63.896244 
C 182.734291 63.896244 181.359247 64.465806 180.345562 65.479491 
C 179.331878 66.493175 178.762316 67.868219 178.762316 69.301786 
C 178.762316 70.735352 179.331878 72.110396 180.345562 73.124081 
C 181.359247 74.137765 182.734291 74.707327 184.167857 74.707327 
z
" clip-path="url(#pbe1bfd3c72)" style="fill: #c1d2de; fill-opacity: 0.371065"/>
   </g>
   <g id="PathCollection_27">
    <path d="M 207.283929 76.086957 
C 209.083377 76.086957 210.809367 75.372028 212.081769 74.099626 
C 213.354171 72.827224 214.0691 71.101234 214.0691 69.301786 
C 214.0691 67.502337 213.354171 65.776347 212.081769 64.503945 
C 210.809367 63.231543 209.083377 62.516615 207.283929 62.516615 
C 205.48448 62.516615 203.75849 63.231543 202.486088 64.503945 
C 201.213686 65.776347 200.498757 67.502337 200.498757 69.301786 
C 200.498757 71.101234 201.213686 72.827224 202.486088 74.099626 
C 203.75849 75.372028 205.48448 76.086957 207.283929 76.086957 
z
" clip-path="url(#pbe1bfd3c72)" style="fill: #c1d2de; fill-opacity: 0.477453"/>
   </g>
   <g id="PathCollection_28">
    <path d="M 230.4 74.768283 
C 231.849732 74.768283 233.240282 74.192298 234.265397 73.167183 
C 235.290512 72.142068 235.866497 70.751518 235.866497 69.301786 
C 235.866497 67.852054 235.290512 66.461504 234.265397 65.436389 
C 233.240282 64.411273 231.849732 63.835289 230.4 63.835289 
C 228.950268 63.835289 227.559718 64.411273 226.534603 65.436389 
C 225.509488 66.461504 224.933503 67.852054 224.933503 69.301786 
C 224.933503 70.751518 225.509488 72.142068 226.534603 73.167183 
C 227.559718 74.192298 228.950268 74.768283 230.4 74.768283 
z
" clip-path="url(#pbe1bfd3c72)" style="fill: #c1d2de; fill-opacity: 0.375257"/>
   </g>
   <g id="PathCollection_29">
    <path d="M 253.516071 72.846411 
C 254.456117 72.846411 255.357787 72.472927 256.0225 71.808214 
C 256.687213 71.143502 257.060697 70.241831 257.060697 69.301786 
C 257.060697 68.36174 256.687213 67.46007 256.0225 66.795357 
C 255.357787 66.130644 254.456117 65.75716 253.516071 65.75716 
C 252.576026 65.75716 251.674355 66.130644 251.009643 66.795357 
C 250.34493 67.46007 249.971446 68.36174 249.971446 69.301786 
C 249.971446 70.241831 250.34493 71.143502 251.009643 71.808214 
C 251.674355 72.472927 252.576026 72.846411 253.516071 72.846411 
z
" clip-path="url(#pbe1bfd3c72)" style="fill: #c1d2de; fill-opacity: 0.265709"/>
   </g>
   <g id="PathCollection_30">
    <path d="M 276.632143 78.33397 
C 279.027506 78.33397 281.325084 77.382282 283.018861 75.688504 
C 284.712639 73.994727 285.664327 71.697149 285.664327 69.301786 
C 285.664327 66.906423 284.712639 64.608845 283.018861 62.915067 
C 281.325084 61.22129 279.027506 60.269602 276.632143 60.269602 
C 274.23678 60.269602 271.939202 61.22129 270.245424 62.915067 
C 268.551647 64.608845 267.599959 66.906423 267.599959 69.301786 
C 267.599959 71.697149 268.551647 73.994727 270.245424 75.688504 
C 271.939202 77.382282 274.23678 78.33397 276.632143 78.33397 
z
" clip-path="url(#pbe1bfd3c72)" style="fill: #c1d2de; fill-opacity: 0.702276"/>
   </g>
   <g id="PathCollection_31">
    <path d="M 299.748214 73.579455 
C 300.882665 73.579455 301.970805 73.128732 302.772983 72.326554 
C 303.575161 71.524376 304.025883 70.436237 304.025883 69.301786 
C 304.025883 68.167335 303.575161 67.079195 302.772983 66.277017 
C 301.970805 65.474839 300.882665 65.024117 299.748214 65.024117 
C 298.613763 65.024117 297.525624 65.474839 296.723446 66.277017 
C 295.921268 67.079195 295.470545 68.167335 295.470545 69.301786 
C 295.470545 70.436237 295.921268 71.524376 296.723446 72.326554 
C 297.525624 73.128732 298.613763 73.579455 299.748214 73.579455 
z
" clip-path="url(#pbe1bfd3c72)" style="fill: #c1d2de; fill-opacity: 0.301981"/>
   </g>
   <g id="PathCollection_32">
    <path d="M 322.864286 76.456454 
C 324.761726 76.456454 326.581707 75.702593 327.9234 74.3609 
C 329.265093 73.019207 330.018954 71.199226 330.018954 69.301786 
C 330.018954 67.404346 329.265093 65.584364 327.9234 64.242671 
C 326.581707 62.900979 324.761726 62.147118 322.864286 62.147118 
C 320.966846 62.147118 319.146864 62.900979 317.805171 64.242671 
C 316.463479 65.584364 315.709618 67.404346 315.709618 69.301786 
C 315.709618 71.199226 316.463479 73.019207 317.805171 74.3609 
C 319.146864 75.702593 320.966846 76.456454 322.864286 76.456454 
z
" clip-path="url(#pbe1bfd3c72)" style="fill: #c1d2de; fill-opacity: 0.510034"/>
   </g>
   <g id="PathCollection_33">
    <path d="M 345.980357 72.852785 
C 346.922093 72.852785 347.825385 72.478629 348.491293 71.812721 
C 349.157201 71.146813 349.531356 70.243522 349.531356 69.301786 
C 349.531356 68.36005 349.157201 67.456758 348.491293 66.79085 
C 347.825385 66.124942 346.922093 65.750787 345.980357 65.750787 
C 345.038621 65.750787 344.13533 66.124942 343.469422 66.79085 
C 342.803514 67.456758 342.429358 68.36005 342.429358 69.301786 
C 342.429358 70.243522 342.803514 71.146813 343.469422 71.812721 
C 344.13533 72.478629 345.038621 72.852785 345.980357 72.852785 
z
" clip-path="url(#pbe1bfd3c72)" style="fill: #c1d2de; fill-opacity: 0.265996"/>
   </g>
   <g id="PathCollection_34">
    <path d="M 114.819643 101.774125 
C 117.300954 101.774125 119.680971 100.78829 121.435524 99.033738 
C 123.190076 97.279186 124.175911 94.899168 124.175911 92.417857 
C 124.175911 89.936546 123.190076 87.556529 121.435524 85.801976 
C 119.680971 84.047424 117.300954 83.061589 114.819643 83.061589 
C 112.338332 83.061589 109.958314 84.047424 108.203762 85.801976 
C 106.44921 87.556529 105.463375 89.936546 105.463375 92.417857 
C 105.463375 94.899168 106.44921 97.279186 108.203762 99.033738 
C 109.958314 100.78829 112.338332 101.774125 114.819643 101.774125 
z
" clip-path="url(#pbe1bfd3c72)" style="fill: #d6e0e8; fill-opacity: 0.739972"/>
   </g>
   <g id="PathCollection_35">
    <path d="M 137.935714 99.259323 
C 139.750092 99.259323 141.490402 98.538463 142.773361 97.255504 
C 144.05632 95.972545 144.77718 94.232235 144.77718 92.417857 
C 144.77718 90.603479 144.05632 88.863169 142.773361 87.580211 
C 141.490402 86.297252 139.750092 85.576392 137.935714 85.576392 
C 136.121336 85.576392 134.381027 86.297252 133.098068 87.580211 
C 131.815109 88.863169 131.094249 90.603479 131.094249 92.417857 
C 131.094249 94.232235 131.815109 95.972545 133.098068 97.255504 
C 134.381027 98.538463 136.121336 99.259323 137.935714 99.259323 
z
" clip-path="url(#pbe1bfd3c72)" style="fill: #d6e0e8; fill-opacity: 0.482306"/>
   </g>
   <g id="PathCollection_36">
    <path d="M 161.051786 97.823399 
C 162.485352 97.823399 163.860396 97.253837 164.874081 96.240152 
C 165.887765 95.226468 166.457327 93.851423 166.457327 92.417857 
C 166.457327 90.984291 165.887765 89.609247 164.874081 88.595562 
C 163.860396 87.581878 162.485352 87.012316 161.051786 87.012316 
C 159.618219 87.012316 158.243175 87.581878 157.229491 88.595562 
C 156.215806 89.609247 155.646244 90.984291 155.646244 92.417857 
C 155.646244 93.851423 156.215806 95.226468 157.229491 96.240152 
C 158.243175 97.253837 159.618219 97.823399 161.051786 97.823399 
z
" clip-path="url(#pbe1bfd3c72)" style="fill: #d6e0e8; fill-opacity: 0.371065"/>
   </g>
   <g id="PathCollection_37">
    <path d="M 184.167857 103.188187 
C 187.024182 103.188187 189.763904 102.053357 191.78363 100.03363 
C 193.803357 98.013904 194.938187 95.274182 194.938187 92.417857 
C 194.938187 89.561532 193.803357 86.821811 191.78363 84.802084 
C 189.763904 82.782357 187.024182 81.647528 184.167857 81.647528 
C 181.311532 81.647528 178.571811 82.782357 176.552084 84.802084 
C 174.532357 86.821811 173.397528 89.561532 173.397528 92.417857 
C 173.397528 95.274182 174.532357 98.013904 176.552084 100.03363 
C 178.571811 102.053357 181.311532 103.188187 184.167857 103.188187 
z
" clip-path="url(#pbe1bfd3c72)" style="fill: #d6e0e8; fill-opacity: 0.92"/>
   </g>
   <g id="PathCollection_38">
    <path d="M 207.283929 97.723755 
C 208.691069 97.723755 210.040767 97.164693 211.035765 96.169694 
C 212.030764 95.174695 212.589827 93.824998 212.589827 92.417857 
C 212.589827 91.010716 212.030764 89.661019 211.035765 88.66602 
C 210.040767 87.671022 208.691069 87.111959 207.283929 87.111959 
C 205.876788 87.111959 204.527091 87.671022 203.532092 88.66602 
C 202.537093 89.661019 201.97803 91.010716 201.97803 92.417857 
C 201.97803 93.824998 202.537093 95.174695 203.532092 96.169694 
C 204.527091 97.164693 205.876788 97.723755 207.283929 97.723755 
z
" clip-path="url(#pbe1bfd3c72)" style="fill: #d6e0e8; fill-opacity: 0.364314"/>
   </g>
   <g id="PathCollection_39">
    <path d="M 230.4 96.164094 
C 231.393514 96.164094 232.346469 95.769367 233.04899 95.066847 
C 233.75151 94.364326 234.146237 93.411371 234.146237 92.417857 
C 234.146237 91.424343 233.75151 90.471388 233.04899 89.768868 
C 232.346469 89.066347 231.393514 88.67162 230.4 88.67162 
C 229.406486 88.67162 228.453531 89.066347 227.75101 89.768868 
C 227.04849 90.471388 226.653763 91.424343 226.653763 92.417857 
C 226.653763 93.411371 227.04849 94.364326 227.75101 95.066847 
C 228.453531 95.769367 229.406486 96.164094 230.4 96.164094 
z
" clip-path="url(#pbe1bfd3c72)" style="fill: #d6e0e8; fill-opacity: 0.275008"/>
   </g>
   <g id="PathCollection_40">
    <path d="M 253.516071 98.144707 
C 255.03485 98.144707 256.491627 97.54129 257.565565 96.467351 
C 258.639504 95.393413 259.242921 93.936635 259.242921 92.417857 
C 259.242921 90.899079 258.639504 89.442301 257.565565 88.368363 
C 256.491627 87.294425 255.03485 86.691008 253.516071 86.691008 
C 251.997293 86.691008 250.540516 87.294425 249.466577 88.368363 
C 248.392639 89.442301 247.789222 90.899079 247.789222 92.417857 
C 247.789222 93.936635 248.392639 95.393413 249.466577 96.467351 
C 250.540516 97.54129 251.997293 98.144707 253.516071 98.144707 
z
" clip-path="url(#pbe1bfd3c72)" style="fill: #d6e0e8; fill-opacity: 0.393691"/>
   </g>
   <g id="PathCollection_41">
    <path d="M 276.632143 100.268321 
C 278.71411 100.268321 280.711086 99.441147 282.183259 97.968973 
C 283.655432 96.4968 284.482607 94.499824 284.482607 92.417857 
C 284.482607 90.33589 283.655432 88.338914 282.183259 86.866741 
C 280.711086 85.394568 278.71411 84.567393 276.632143 84.567393 
C 274.550176 84.567393 272.5532 85.394568 271.081027 86.866741 
C 269.608853 88.338914 268.781679 90.33589 268.781679 92.417857 
C 268.781679 94.499824 269.608853 96.4968 271.081027 97.968973 
C 272.5532 99.441147 274.550176 100.268321 276.632143 100.268321 
z
" clip-path="url(#pbe1bfd3c72)" style="fill: #d6e0e8; fill-opacity: 0.576077"/>
   </g>
   <g id="PathCollection_42">
    <path d="M 299.748214 100.13066 
C 301.793674 100.13066 303.755632 99.317991 305.20199 97.871633 
C 306.648348 96.425274 307.461017 94.463316 307.461017 92.417857 
C 307.461017 90.372398 306.648348 88.41044 305.20199 86.964082 
C 303.755632 85.517724 301.793674 84.705054 299.748214 84.705054 
C 297.702755 84.705054 295.740797 85.517724 294.294439 86.964082 
C 292.848081 88.41044 292.035411 90.372398 292.035411 92.417857 
C 292.035411 94.463316 292.848081 96.425274 294.294439 97.871633 
C 295.740797 99.317991 297.702755 100.13066 299.748214 100.13066 
z
" clip-path="url(#pbe1bfd3c72)" style="fill: #d6e0e8; fill-opacity: 0.562525"/>
   </g>
   <g id="PathCollection_43">
    <path d="M 322.864286 98.41268 
C 324.454131 98.41268 325.979075 97.781028 327.103266 96.656837 
C 328.227456 95.532646 328.859109 94.007703 328.859109 92.417857 
C 328.859109 90.828012 328.227456 89.303068 327.103266 88.178877 
C 325.979075 87.054687 324.454131 86.423034 322.864286 86.423034 
C 321.27444 86.423034 319.749496 87.054687 318.625306 88.178877 
C 317.501115 89.303068 316.869463 90.828012 316.869463 92.417857 
C 316.869463 94.007703 317.501115 95.532646 318.625306 96.656837 
C 319.749496 97.781028 321.27444 98.41268 322.864286 98.41268 
z
" clip-path="url(#pbe1bfd3c72)" style="fill: #d6e0e8; fill-opacity: 0.413561"/>
   </g>
   <g id="PathCollection_44">
    <path d="M 345.980357 98.977162 
C 347.719905 98.977162 349.38844 98.286033 350.618486 97.055986 
C 351.848533 95.82594 352.539662 94.157405 352.539662 92.417857 
C 352.539662 90.678309 351.848533 89.009774 350.618486 87.779728 
C 349.38844 86.549682 347.719905 85.858552 345.980357 85.858552 
C 344.240809 85.858552 342.572274 86.549682 341.342228 87.779728 
C 340.112182 89.009774 339.421052 90.678309 339.421052 92.417857 
C 339.421052 94.157405 340.112182 95.82594 341.342228 97.055986 
C 342.572274 98.286033 344.240809 98.977162 345.980357 98.977162 
z
" clip-path="url(#pbe1bfd3c72)" style="fill: #d6e0e8; fill-opacity: 0.458387"/>
   </g>
   <g id="PathCollection_45">
    <path d="M 114.819643 121.236436 
C 116.331966 121.236436 117.782551 120.635584 118.851925 119.566211 
C 119.921298 118.496837 120.522151 117.046251 120.522151 115.533929 
C 120.522151 114.021606 119.921298 112.57102 118.851925 111.501647 
C 117.782551 110.432273 116.331966 109.831421 114.819643 109.831421 
C 113.30732 109.831421 111.856735 110.432273 110.787361 111.501647 
C 109.717987 112.57102 109.117135 114.021606 109.117135 115.533929 
C 109.117135 117.046251 109.717987 118.496837 110.787361 119.566211 
C 111.856735 120.635584 113.30732 121.236436 114.819643 121.236436 
z
" clip-path="url(#pbe1bfd3c72)" style="fill: #e6ecf1; fill-opacity: 0.391932"/>
   </g>
   <g id="PathCollection_46">
    <path d="M 137.935714 119.82585 
C 139.073945 119.82585 140.165711 119.373626 140.970561 118.568776 
C 141.775412 117.763925 142.227636 116.67216 142.227636 115.533929 
C 142.227636 114.395698 141.775412 113.303932 140.970561 112.499082 
C 140.165711 111.694231 139.073945 111.242007 137.935714 111.242007 
C 136.797483 111.242007 135.705718 111.694231 134.900867 112.499082 
C 134.096016 113.303932 133.643792 114.395698 133.643792 115.533929 
C 133.643792 116.67216 134.096016 117.763925 134.900867 118.568776 
C 135.705718 119.373626 136.797483 119.82585 137.935714 119.82585 
z
" clip-path="url(#pbe1bfd3c72)" style="fill: #e6ecf1; fill-opacity: 0.302754"/>
   </g>
   <g id="PathCollection_47">
    <path d="M 161.051786 122.3191 
C 162.851234 122.3191 164.577224 121.604171 165.849626 120.331769 
C 167.122028 119.059367 167.836957 117.333377 167.836957 115.533929 
C 167.836957 113.73448 167.122028 112.00849 165.849626 110.736088 
C 164.577224 109.463686 162.851234 108.748757 161.051786 108.748757 
C 159.252337 108.748757 157.526347 109.463686 156.253945 110.736088 
C 154.981543 112.00849 154.266615 113.73448 154.266615 115.533929 
C 154.266615 117.333377 154.981543 119.059367 156.253945 120.331769 
C 157.526347 121.604171 159.252337 122.3191 161.051786 122.3191 
z
" clip-path="url(#pbe1bfd3c72)" style="fill: #e6ecf1; fill-opacity: 0.477453"/>
   </g>
   <g id="PathCollection_48">
    <path d="M 184.167857 120.839827 
C 185.574998 120.839827 186.924695 120.280764 187.919694 119.285765 
C 188.914693 118.290767 189.473755 116.941069 189.473755 115.533929 
C 189.473755 114.126788 188.914693 112.777091 187.919694 111.782092 
C 186.924695 110.787093 185.574998 110.22803 184.167857 110.22803 
C 182.760716 110.22803 181.411019 110.787093 180.41602 111.782092 
C 179.421022 112.777091 178.861959 114.126788 178.861959 115.533929 
C 178.861959 116.941069 179.421022 118.290767 180.41602 119.285765 
C 181.411019 120.280764 182.760716 120.839827 184.167857 120.839827 
z
" clip-path="url(#pbe1bfd3c72)" style="fill: #e6ecf1; fill-opacity: 0.364314"/>
   </g>
   <g id="PathCollection_49">
    <path d="M 207.283929 126.304258 
C 210.140253 126.304258 212.879975 125.169428 214.899702 123.149702 
C 216.919428 121.129975 218.054258 118.390253 218.054258 115.533929 
C 218.054258 112.677604 216.919428 109.937882 214.899702 107.918155 
C 212.879975 105.898429 210.140253 104.763599 207.283929 104.763599 
C 204.427604 104.763599 201.687882 105.898429 199.668155 107.918155 
C 197.648429 109.937882 196.513599 112.677604 196.513599 115.533929 
C 196.513599 118.390253 197.648429 121.129975 199.668155 123.149702 
C 201.687882 125.169428 204.427604 126.304258 207.283929 126.304258 
z
" clip-path="url(#pbe1bfd3c72)" style="fill: #e6ecf1; fill-opacity: 0.92"/>
   </g>
   <g id="PathCollection_50">
    <path d="M 230.4 122.726554 
C 232.307507 122.726554 234.137143 121.968693 235.485954 120.619883 
C 236.834765 119.271072 237.592625 117.441435 237.592625 115.533929 
C 237.592625 113.626422 236.834765 111.796785 235.485954 110.447975 
C 234.137143 109.099164 232.307507 108.341303 230.4 108.341303 
C 228.492493 108.341303 226.662857 109.099164 225.314046 110.447975 
C 223.965235 111.796785 223.207375 113.626422 223.207375 115.533929 
C 223.207375 117.441435 223.965235 119.271072 225.314046 120.619883 
C 226.662857 121.968693 228.492493 122.726554 230.4 122.726554 
z
" clip-path="url(#pbe1bfd3c72)" style="fill: #e6ecf1; fill-opacity: 0.513479"/>
   </g>
   <g id="PathCollection_51">
    <path d="M 253.516071 121.137803 
C 255.002236 121.137803 256.427732 120.547344 257.478609 119.496466 
C 258.529486 118.445589 259.119946 117.020093 259.119946 115.533929 
C 259.119946 114.047764 258.529486 112.622268 257.478609 111.571391 
C 256.427732 110.520514 255.002236 109.930054 253.516071 109.930054 
C 252.029907 109.930054 250.604411 110.520514 249.553534 111.571391 
C 248.502656 112.622268 247.912197 114.047764 247.912197 115.533929 
C 247.912197 117.020093 248.502656 118.445589 249.553534 119.496466 
C 250.604411 120.547344 252.029907 121.137803 253.516071 121.137803 
z
" clip-path="url(#pbe1bfd3c72)" style="fill: #e6ecf1; fill-opacity: 0.384877"/>
   </g>
   <g id="PathCollection_52">
    <path d="M 276.632143 119.567972 
C 277.701984 119.567972 278.72815 119.142919 279.484642 118.386428 
C 280.241134 117.629936 280.666186 116.603769 280.666186 115.533929 
C 280.666186 114.464088 280.241134 113.437921 279.484642 112.681429 
C 278.72815 111.924938 277.701984 111.499885 276.632143 111.499885 
C 275.562302 111.499885 274.536135 111.924938 273.779644 112.681429 
C 273.023152 113.437921 272.5981 114.464088 272.5981 115.533929 
C 272.5981 116.603769 273.023152 117.629936 273.779644 118.386428 
C 274.536135 119.142919 275.562302 119.567972 276.632143 119.567972 
z
" clip-path="url(#pbe1bfd3c72)" style="fill: #e6ecf1; fill-opacity: 0.289172"/>
   </g>
   <g id="PathCollection_53">
    <path d="M 299.748214 119.793227 
C 300.877793 119.793227 301.96126 119.34444 302.759993 118.545707 
C 303.558726 117.746974 304.007512 116.663508 304.007512 115.533929 
C 304.007512 114.40435 303.558726 113.320883 302.759993 112.52215 
C 301.96126 111.723417 300.877793 111.27463 299.748214 111.27463 
C 298.618635 111.27463 297.535169 111.723417 296.736436 112.52215 
C 295.937703 113.320883 295.488916 114.40435 295.488916 115.533929 
C 295.488916 116.663508 295.937703 117.746974 296.736436 118.545707 
C 297.535169 119.34444 298.618635 119.793227 299.748214 119.793227 
z
" clip-path="url(#pbe1bfd3c72)" style="fill: #e6ecf1; fill-opacity: 0.300989"/>
   </g>
   <g id="PathCollection_54">
    <path d="M 322.864286 122.548193 
C 324.72449 122.548193 326.508756 121.809126 327.82412 120.493763 
C 329.139483 119.178399 329.87855 117.394133 329.87855 115.533929 
C 329.87855 113.673724 329.139483 111.889458 327.82412 110.574095 
C 326.508756 109.258731 324.72449 108.519664 322.864286 108.519664 
C 321.004081 108.519664 319.219815 109.258731 317.904452 110.574095 
C 316.589088 111.889458 315.850021 113.673724 315.850021 115.533929 
C 315.850021 117.394133 316.589088 119.178399 317.904452 120.493763 
C 319.219815 121.809126 321.004081 122.548193 322.864286 122.548193 
z
" clip-path="url(#pbe1bfd3c72)" style="fill: #e6ecf1; fill-opacity: 0.497451"/>
   </g>
   <g id="PathCollection_55">
    <path d="M 345.980357 119.491346 
C 347.029876 119.491346 348.036551 119.074367 348.778674 118.332245 
C 349.520796 117.590123 349.937774 116.583448 349.937774 115.533929 
C 349.937774 114.484409 349.520796 113.477734 348.778674 112.735612 
C 348.036551 111.99349 347.029876 111.576511 345.980357 111.576511 
C 344.930838 111.576511 343.924163 111.99349 343.182041 112.735612 
C 342.439918 113.477734 342.02294 114.484409 342.02294 115.533929 
C 342.02294 116.583448 342.439918 117.590123 343.182041 118.332245 
C 343.924163 119.074367 344.930838 119.491346 345.980357 119.491346 
z
" clip-path="url(#pbe1bfd3c72)" style="fill: #e6ecf1; fill-opacity: 0.285298"/>
   </g>
   <g id="PathCollection_56">
    <path d="M 114.819643 147.365633 
C 117.131056 147.365633 119.34811 146.447299 120.982526 144.812883 
C 122.616942 143.178467 123.535276 140.961413 123.535276 138.65 
C 123.535276 136.338587 122.616942 134.121533 120.982526 132.487117 
C 119.34811 130.852701 117.131056 129.934367 114.819643 129.934367 
C 112.50823 129.934367 110.291175 130.852701 108.65676 132.487117 
C 107.022344 134.121533 106.10401 136.338587 106.10401 138.65 
C 106.10401 140.961413 107.022344 143.178467 108.65676 144.812883 
C 110.291175 146.447299 112.50823 147.365633 114.819643 147.365633 
z
" clip-path="url(#pbe1bfd3c72)" style="fill: #fafbfb; fill-opacity: 0.666738"/>
   </g>
   <g id="PathCollection_57">
    <path d="M 137.935714 147.659571 
C 140.32508 147.659571 142.616906 146.710265 144.306443 145.020728 
C 145.99598 143.331191 146.945285 141.039366 146.945285 138.65 
C 146.945285 136.260634 145.99598 133.968809 144.306443 132.279272 
C 142.616906 130.589735 140.32508 129.640429 137.935714 129.640429 
C 135.546348 129.640429 133.254523 130.589735 131.564986 132.279272 
C 129.875449 133.968809 128.926144 136.260634 128.926144 138.65 
C 128.926144 141.039366 129.875449 143.331191 131.564986 145.020728 
C 133.254523 146.710265 135.546348 147.659571 137.935714 147.659571 
z
" clip-path="url(#pbe1bfd3c72)" style="fill: #fafbfb; fill-opacity: 0.699695"/>
   </g>
   <g id="PathCollection_58">
    <path d="M 161.051786 144.116497 
C 162.501518 144.116497 163.892068 143.540512 164.917183 142.515397 
C 165.942298 141.490282 166.518283 140.099732 166.518283 138.65 
C 166.518283 137.200268 165.942298 135.809718 164.917183 134.784603 
C 163.892068 133.759488 162.501518 133.183503 161.051786 133.183503 
C 159.602054 133.183503 158.211504 133.759488 157.186389 134.784603 
C 156.161273 135.809718 155.585289 137.200268 155.585289 138.65 
C 155.585289 140.099732 156.161273 141.490282 157.186389 142.515397 
C 158.211504 143.540512 159.602054 144.116497 161.051786 144.116497 
z
" clip-path="url(#pbe1bfd3c72)" style="fill: #fafbfb; fill-opacity: 0.375257"/>
   </g>
   <g id="PathCollection_59">
    <path d="M 184.167857 142.396237 
C 185.161371 142.396237 186.114326 142.00151 186.816847 141.29899 
C 187.519367 140.596469 187.914094 139.643514 187.914094 138.65 
C 187.914094 137.656486 187.519367 136.703531 186.816847 136.00101 
C 186.114326 135.29849 185.161371 134.903763 184.167857 134.903763 
C 183.174343 134.903763 182.221388 135.29849 181.518868 136.00101 
C 180.816347 136.703531 180.42162 137.656486 180.42162 138.65 
C 180.42162 139.643514 180.816347 140.596469 181.518868 141.29899 
C 182.221388 142.00151 183.174343 142.396237 184.167857 142.396237 
z
" clip-path="url(#pbe1bfd3c72)" style="fill: #fafbfb; fill-opacity: 0.275008"/>
   </g>
   <g id="PathCollection_60">
    <path d="M 207.283929 145.842625 
C 209.191435 145.842625 211.021072 145.084765 212.369883 143.735954 
C 213.718693 142.387143 214.476554 140.557507 214.476554 138.65 
C 214.476554 136.742493 213.718693 134.912857 212.369883 133.564046 
C 211.021072 132.215235 209.191435 131.457375 207.283929 131.457375 
C 205.376422 131.457375 203.546785 132.215235 202.197975 133.564046 
C 200.849164 134.912857 200.091303 136.742493 200.091303 138.65 
C 200.091303 140.557507 200.849164 142.387143 202.197975 143.735954 
C 203.546785 145.084765 205.376422 145.842625 207.283929 145.842625 
z
" clip-path="url(#pbe1bfd3c72)" style="fill: #fafbfb; fill-opacity: 0.513479"/>
   </g>
   <g id="PathCollection_61">
    <path d="M 230.4 149.42033 
C 233.256325 149.42033 235.996046 148.2855 238.015773 146.265773 
C 240.0355 144.246046 241.17033 141.506325 241.17033 138.65 
C 241.17033 135.793675 240.0355 133.053954 238.015773 131.034227 
C 235.996046 129.0145 233.256325 127.87967 230.4 127.87967 
C 227.543675 127.87967 224.803954 129.0145 222.784227 131.034227 
C 220.7645 133.053954 219.62967 135.793675 219.62967 138.65 
C 219.62967 141.506325 220.7645 144.246046 222.784227 146.265773 
C 224.803954 148.2855 227.543675 149.42033 230.4 149.42033 
z
" clip-path="url(#pbe1bfd3c72)" style="fill: #fafbfb; fill-opacity: 0.92"/>
   </g>
   <g id="PathCollection_62">
    <path d="M 253.516071 142.509993 
C 254.539754 142.509993 255.521646 142.10328 256.245499 141.379427 
C 256.969351 140.655575 257.376064 139.673682 257.376064 138.65 
C 257.376064 137.626318 256.969351 136.644425 256.245499 135.920573 
C 255.521646 135.19672 254.539754 134.790007 253.516071 134.790007 
C 252.492389 134.790007 251.510497 135.19672 250.786644 135.920573 
C 250.062792 136.644425 249.656079 137.626318 249.656079 138.65 
C 249.656079 139.673682 250.062792 140.655575 250.786644 141.379427 
C 251.510497 142.10328 252.492389 142.509993 253.516071 142.509993 
z
" clip-path="url(#pbe1bfd3c72)" style="fill: #fafbfb; fill-opacity: 0.280481"/>
   </g>
   <g id="PathCollection_63">
    <path d="M 276.632143 144.224194 
C 278.110436 144.224194 279.528382 143.636862 280.573693 142.591551 
C 281.619005 141.546239 282.206337 140.128294 282.206337 138.65 
C 282.206337 137.171706 281.619005 135.753761 280.573693 134.708449 
C 279.528382 133.663138 278.110436 133.075806 276.632143 133.075806 
C 275.153849 133.075806 273.735904 133.663138 272.690592 134.708449 
C 271.645281 135.753761 271.057949 137.171706 271.057949 138.65 
C 271.057949 140.128294 271.645281 141.546239 272.690592 142.591551 
C 273.735904 143.636862 275.153849 144.224194 276.632143 144.224194 
z
" clip-path="url(#pbe1bfd3c72)" style="fill: #fafbfb; fill-opacity: 0.382779"/>
   </g>
   <g id="PathCollection_64">
    <path d="M 299.748214 146.560738 
C 301.846166 146.560738 303.858474 145.727213 305.341951 144.243736 
C 306.825427 142.76026 307.658952 140.747952 307.658952 138.65 
C 307.658952 136.552048 306.825427 134.53974 305.341951 133.056264 
C 303.858474 131.572787 301.846166 130.739262 299.748214 130.739262 
C 297.650262 130.739262 295.637954 131.572787 294.154478 133.056264 
C 292.671002 134.53974 291.837477 136.552048 291.837477 138.65 
C 291.837477 140.747952 292.671002 142.76026 294.154478 144.243736 
C 295.637954 145.727213 297.650262 146.560738 299.748214 146.560738 
z
" clip-path="url(#pbe1bfd3c72)" style="fill: #fafbfb; fill-opacity: 0.582086"/>
   </g>
   <g id="PathCollection_65">
    <path d="M 322.864286 142.255094 
C 323.820368 142.255094 324.73742 141.875238 325.413472 141.199186 
C 326.089524 140.523134 326.469379 139.606082 326.469379 138.65 
C 326.469379 137.693918 326.089524 136.776866 325.413472 136.100814 
C 324.73742 135.424762 323.820368 135.044906 322.864286 135.044906 
C 321.908204 135.044906 320.991152 135.424762 320.3151 136.100814 
C 319.639048 136.776866 319.259192 137.693918 319.259192 138.65 
C 319.259192 139.606082 319.639048 140.523134 320.3151 141.199186 
C 320.991152 141.875238 321.908204 142.255094 322.864286 142.255094 
z
" clip-path="url(#pbe1bfd3c72)" style="fill: #fafbfb; fill-opacity: 0.268444"/>
   </g>
   <g id="PathCollection_66">
    <path d="M 345.980357 144.726405 
C 347.591839 144.726405 349.137535 144.086157 350.277024 142.946667 
C 351.416514 141.807178 352.056762 140.261481 352.056762 138.65 
C 352.056762 137.038519 351.416514 135.492822 350.277024 134.353333 
C 349.137535 133.213843 347.591839 132.573595 345.980357 132.573595 
C 344.368876 132.573595 342.823179 133.213843 341.68369 134.353333 
C 340.5442 135.492822 339.903952 137.038519 339.903952 138.65 
C 339.903952 140.261481 340.5442 141.807178 341.68369 142.946667 
C 342.823179 144.086157 344.368876 144.726405 345.980357 144.726405 
z
" clip-path="url(#pbe1bfd3c72)" style="fill: #fafbfb; fill-opacity: 0.41979"/>
   </g>
   <g id="PathCollection_67">
    <path d="M 114.819643 166.003656 
C 115.943463 166.003656 117.021406 165.557157 117.816068 164.762496 
C 118.610729 163.967835 119.057227 162.889892 119.057227 161.766071 
C 119.057227 160.642251 118.610729 159.564308 117.816068 158.769647 
C 117.021406 157.974986 115.943463 157.528487 114.819643 157.528487 
C 113.695822 157.528487 112.617879 157.974986 111.823218 158.769647 
C 111.028557 159.564308 110.582058 160.642251 110.582058 161.766071 
C 110.582058 162.889892 111.028557 163.967835 111.823218 164.762496 
C 112.617879 165.557157 113.695822 166.003656 114.819643 166.003656 
z
" clip-path="url(#pbe1bfd3c72)" style="fill: #f1d9d1; fill-opacity: 0.299822"/>
   </g>
   <g id="PathCollection_68">
    <path d="M 137.935714 167.460568 
C 139.445912 167.460568 140.89446 166.86056 141.962331 165.792689 
C 143.030203 164.724817 143.630211 163.27627 143.630211 161.766071 
C 143.630211 160.255873 143.030203 158.807326 141.962331 157.739454 
C 140.89446 156.671583 139.445912 156.071575 137.935714 156.071575 
C 136.425516 156.071575 134.976968 156.671583 133.909097 157.739454 
C 132.841226 158.807326 132.241218 160.255873 132.241218 161.766071 
C 132.241218 163.27627 132.841226 164.724817 133.909097 165.792689 
C 134.976968 166.86056 136.425516 167.460568 137.935714 167.460568 
z
" clip-path="url(#pbe1bfd3c72)" style="fill: #f1d9d1; fill-opacity: 0.391354"/>
   </g>
   <g id="PathCollection_69">
    <path d="M 161.051786 165.310697 
C 161.991831 165.310697 162.893502 164.937213 163.558214 164.2725 
C 164.222927 163.607787 164.596411 162.706117 164.596411 161.766071 
C 164.596411 160.826026 164.222927 159.924355 163.558214 159.259643 
C 162.893502 158.59493 161.991831 158.221446 161.051786 158.221446 
C 160.11174 158.221446 159.21007 158.59493 158.545357 159.259643 
C 157.880644 159.924355 157.50716 160.826026 157.50716 161.766071 
C 157.50716 162.706117 157.880644 163.607787 158.545357 164.2725 
C 159.21007 164.937213 160.11174 165.310697 161.051786 165.310697 
z
" clip-path="url(#pbe1bfd3c72)" style="fill: #f1d9d1; fill-opacity: 0.265709"/>
   </g>
   <g id="PathCollection_70">
    <path d="M 184.167857 167.492921 
C 185.686635 167.492921 187.143413 166.889504 188.217351 165.815565 
C 189.29129 164.741627 189.894707 163.28485 189.894707 161.766071 
C 189.894707 160.247293 189.29129 158.790516 188.217351 157.716577 
C 187.143413 156.642639 185.686635 156.039222 184.167857 156.039222 
C 182.649079 156.039222 181.192301 156.642639 180.118363 157.716577 
C 179.044425 158.790516 178.441008 160.247293 178.441008 161.766071 
C 178.441008 163.28485 179.044425 164.741627 180.118363 165.815565 
C 181.192301 166.889504 182.649079 167.492921 184.167857 167.492921 
z
" clip-path="url(#pbe1bfd3c72)" style="fill: #f1d9d1; fill-opacity: 0.393691"/>
   </g>
   <g id="PathCollection_71">
    <path d="M 207.283929 167.369946 
C 208.770093 167.369946 210.195589 166.779486 211.246466 165.728609 
C 212.297344 164.677732 212.887803 163.252236 212.887803 161.766071 
C 212.887803 160.279907 212.297344 158.854411 211.246466 157.803534 
C 210.195589 156.752656 208.770093 156.162197 207.283929 156.162197 
C 205.797764 156.162197 204.372268 156.752656 203.321391 157.803534 
C 202.270514 158.854411 201.680054 160.279907 201.680054 161.766071 
C 201.680054 163.252236 202.270514 164.677732 203.321391 165.728609 
C 204.372268 166.779486 205.797764 167.369946 207.283929 167.369946 
z
" clip-path="url(#pbe1bfd3c72)" style="fill: #f1d9d1; fill-opacity: 0.384877"/>
   </g>
   <g id="PathCollection_72">
    <path d="M 230.4 165.626064 
C 231.423682 165.626064 232.405575 165.219351 233.129427 164.495499 
C 233.85328 163.771646 234.259993 162.789754 234.259993 161.766071 
C 234.259993 160.742389 233.85328 159.760497 233.129427 159.036644 
C 232.405575 158.312792 231.423682 157.906079 230.4 157.906079 
C 229.376318 157.906079 228.394425 158.312792 227.670573 159.036644 
C 226.94672 159.760497 226.540007 160.742389 226.540007 161.766071 
C 226.540007 162.789754 226.94672 163.771646 227.670573 164.495499 
C 228.394425 165.219351 229.376318 165.626064 230.4 165.626064 
z
" clip-path="url(#pbe1bfd3c72)" style="fill: #f1d9d1; fill-opacity: 0.280481"/>
   </g>
   <g id="PathCollection_73">
    <path d="M 253.516071 172.536401 
C 256.372396 172.536401 259.112118 171.401571 261.131845 169.381845 
C 263.151571 167.362118 264.286401 164.622396 264.286401 161.766071 
C 264.286401 158.909747 263.151571 156.170025 261.131845 154.150298 
C 259.112118 152.130572 256.372396 150.995742 253.516071 150.995742 
C 250.659747 150.995742 247.920025 152.130572 245.900298 154.150298 
C 243.880572 156.170025 242.745742 158.909747 242.745742 161.766071 
C 242.745742 164.622396 243.880572 167.362118 245.900298 169.381845 
C 247.920025 171.401571 250.659747 172.536401 253.516071 172.536401 
z
" clip-path="url(#pbe1bfd3c72)" style="fill: #f1d9d1; fill-opacity: 0.92"/>
   </g>
   <g id="PathCollection_74">
    <path d="M 276.632143 165.352072 
C 277.583161 165.352072 278.495356 164.974228 279.167828 164.301757 
C 279.8403 163.629285 280.218143 162.71709 280.218143 161.766071 
C 280.218143 160.815053 279.8403 159.902858 279.167828 159.230386 
C 278.495356 158.557915 277.583161 158.180071 276.632143 158.180071 
C 275.681124 158.180071 274.768929 158.557915 274.096458 159.230386 
C 273.423986 159.902858 273.046142 160.815053 273.046142 161.766071 
C 273.046142 162.71709 273.423986 163.629285 274.096458 164.301757 
C 274.768929 164.974228 275.681124 165.352072 276.632143 165.352072 
z
" clip-path="url(#pbe1bfd3c72)" style="fill: #f1d9d1; fill-opacity: 0.267576"/>
   </g>
   <g id="PathCollection_75">
    <path d="M 299.748214 166.75348 
C 301.07089 166.75348 302.339571 166.227975 303.274844 165.292702 
C 304.210118 164.357428 304.735622 163.088748 304.735622 161.766071 
C 304.735622 160.443395 304.210118 159.174715 303.274844 158.239441 
C 302.339571 157.304168 301.07089 156.778663 299.748214 156.778663 
C 298.425538 156.778663 297.156857 157.304168 296.221584 158.239441 
C 295.286311 159.174715 294.760806 160.443395 294.760806 161.766071 
C 294.760806 163.088748 295.286311 164.357428 296.221584 165.292702 
C 297.156857 166.227975 298.425538 166.75348 299.748214 166.75348 
z
" clip-path="url(#pbe1bfd3c72)" style="fill: #f1d9d1; fill-opacity: 0.343577"/>
   </g>
   <g id="PathCollection_76">
    <path d="M 322.864286 171.179629 
C 325.36079 171.179629 327.755381 170.187757 329.520676 168.422462 
C 331.285972 166.657167 332.277843 164.262576 332.277843 161.766071 
C 332.277843 159.269567 331.285972 156.874976 329.520676 155.109681 
C 327.755381 153.344385 325.36079 152.352514 322.864286 152.352514 
C 320.367781 152.352514 317.973191 153.344385 316.207895 155.109681 
C 314.4426 156.874976 313.450728 159.269567 313.450728 161.766071 
C 313.450728 164.262576 314.4426 166.657167 316.207895 168.422462 
C 317.973191 170.187757 320.367781 171.179629 322.864286 171.179629 
z
" clip-path="url(#pbe1bfd3c72)" style="fill: #f1d9d1; fill-opacity: 0.746774"/>
   </g>
   <g id="PathCollection_77">
    <path d="M 345.980357 168.482077 
C 347.761463 168.482077 349.469858 167.774436 350.72929 166.515004 
C 351.988722 165.255573 352.696362 163.547177 352.696362 161.766071 
C 352.696362 159.984966 351.988722 158.27657 350.72929 157.017139 
C 349.469858 155.757707 347.761463 155.050066 345.980357 155.050066 
C 344.199252 155.050066 342.490856 155.757707 341.231424 157.017139 
C 339.971993 158.27657 339.264352 159.984966 339.264352 161.766071 
C 339.264352 163.547177 339.971993 165.255573 341.231424 166.515004 
C 342.490856 167.774436 344.199252 168.482077 345.980357 168.482077 
z
" clip-path="url(#pbe1bfd3c72)" style="fill: #f1d9d1; fill-opacity: 0.471546"/>
   </g>
   <g id="PathCollection_78">
    <path d="M 114.819643 193.025636 
C 116.979322 193.025636 119.050838 192.167586 120.577962 190.640462 
C 122.105086 189.113338 122.963136 187.041822 122.963136 184.882143 
C 122.963136 182.722463 122.105086 180.650948 120.577962 179.123824 
C 119.050838 177.5967 116.979322 176.73865 114.819643 176.73865 
C 112.659963 176.73865 110.588448 177.5967 109.061324 179.123824 
C 107.5342 180.650948 106.67615 182.722463 106.67615 184.882143 
C 106.67615 187.041822 107.5342 189.113338 109.061324 190.640462 
C 110.588448 192.167586 112.659963 193.025636 114.819643 193.025636 
z
" clip-path="url(#pbe1bfd3c72)" style="fill: #eab9a8; fill-opacity: 0.605723"/>
   </g>
   <g id="PathCollection_79">
    <path d="M 137.935714 190.972104 
C 139.550791 190.972104 141.099935 190.330427 142.241967 189.188396 
C 143.383999 188.046364 144.025675 186.497219 144.025675 184.882143 
C 144.025675 183.267066 143.383999 181.717922 142.241967 180.57589 
C 141.099935 179.433859 139.550791 178.792182 137.935714 178.792182 
C 136.320638 178.792182 134.771493 179.433859 133.629462 180.57589 
C 132.48743 181.717922 131.845753 183.267066 131.845753 184.882143 
C 131.845753 186.497219 132.48743 188.046364 133.629462 189.188396 
C 134.771493 190.330427 136.320638 190.972104 137.935714 190.972104 
z
" clip-path="url(#pbe1bfd3c72)" style="fill: #eab9a8; fill-opacity: 0.420833"/>
   </g>
   <g id="PathCollection_80">
    <path d="M 161.051786 193.914327 
C 163.447149 193.914327 165.744727 192.962639 167.438504 191.268861 
C 169.132282 189.575084 170.08397 187.277506 170.08397 184.882143 
C 170.08397 182.48678 169.132282 180.189202 167.438504 178.495424 
C 165.744727 176.801647 163.447149 175.849959 161.051786 175.849959 
C 158.656423 175.849959 156.358845 176.801647 154.665067 178.495424 
C 152.97129 180.189202 152.019602 182.48678 152.019602 184.882143 
C 152.019602 187.277506 152.97129 189.575084 154.665067 191.268861 
C 156.358845 192.962639 158.656423 193.914327 161.051786 193.914327 
z
" clip-path="url(#pbe1bfd3c72)" style="fill: #eab9a8; fill-opacity: 0.702276"/>
   </g>
   <g id="PathCollection_81">
    <path d="M 184.167857 192.732607 
C 186.249824 192.732607 188.2468 191.905432 189.718973 190.433259 
C 191.191147 188.961086 192.018321 186.96411 192.018321 184.882143 
C 192.018321 182.800176 191.191147 180.8032 189.718973 179.331027 
C 188.2468 177.858853 186.249824 177.031679 184.167857 177.031679 
C 182.08589 177.031679 180.088914 177.858853 178.616741 179.331027 
C 177.144568 180.8032 176.317393 182.800176 176.317393 184.882143 
C 176.317393 186.96411 177.144568 188.961086 178.616741 190.433259 
C 180.088914 191.905432 182.08589 192.732607 184.167857 192.732607 
z
" clip-path="url(#pbe1bfd3c72)" style="fill: #eab9a8; fill-opacity: 0.576077"/>
   </g>
   <g id="PathCollection_82">
    <path d="M 207.283929 188.916186 
C 208.353769 188.916186 209.379936 188.491134 210.136428 187.734642 
C 210.892919 186.97815 211.317972 185.951984 211.317972 184.882143 
C 211.317972 183.812302 210.892919 182.786135 210.136428 182.029644 
C 209.379936 181.273152 208.353769 180.8481 207.283929 180.8481 
C 206.214088 180.8481 205.187921 181.273152 204.431429 182.029644 
C 203.674938 182.786135 203.249885 183.812302 203.249885 184.882143 
C 203.249885 185.951984 203.674938 186.97815 204.431429 187.734642 
C 205.187921 188.491134 206.214088 188.916186 207.283929 188.916186 
z
" clip-path="url(#pbe1bfd3c72)" style="fill: #eab9a8; fill-opacity: 0.289172"/>
   </g>
   <g id="PathCollection_83">
    <path d="M 230.4 190.456337 
C 231.878294 190.456337 233.296239 189.869005 234.341551 188.823693 
C 235.386862 187.778382 235.974194 186.360436 235.974194 184.882143 
C 235.974194 183.403849 235.386862 181.985904 234.341551 180.940592 
C 233.296239 179.895281 231.878294 179.307949 230.4 179.307949 
C 228.921706 179.307949 227.503761 179.895281 226.458449 180.940592 
C 225.413138 181.985904 224.825806 183.403849 224.825806 184.882143 
C 224.825806 186.360436 225.413138 187.778382 226.458449 188.823693 
C 227.503761 189.869005 228.921706 190.456337 230.4 190.456337 
z
" clip-path="url(#pbe1bfd3c72)" style="fill: #eab9a8; fill-opacity: 0.382779"/>
   </g>
   <g id="PathCollection_84">
    <path d="M 253.516071 188.468143 
C 254.46709 188.468143 255.379285 188.0903 256.051757 187.417828 
C 256.724228 186.745356 257.102072 185.833161 257.102072 184.882143 
C 257.102072 183.931124 256.724228 183.018929 256.051757 182.346458 
C 255.379285 181.673986 254.46709 181.296142 253.516071 181.296142 
C 252.565053 181.296142 251.652858 181.673986 250.980386 182.346458 
C 250.307915 183.018929 249.930071 183.931124 249.930071 184.882143 
C 249.930071 185.833161 250.307915 186.745356 250.980386 187.417828 
C 251.652858 188.0903 252.565053 188.468143 253.516071 188.468143 
z
" clip-path="url(#pbe1bfd3c72)" style="fill: #eab9a8; fill-opacity: 0.267576"/>
   </g>
   <g id="PathCollection_85">
    <path d="M 276.632143 195.652472 
C 279.488468 195.652472 282.228189 194.517643 284.247916 192.497916 
C 286.267643 190.478189 287.402472 187.738468 287.402472 184.882143 
C 287.402472 182.025818 286.267643 179.286096 284.247916 177.26637 
C 282.228189 175.246643 279.488468 174.111813 276.632143 174.111813 
C 273.775818 174.111813 271.036096 175.246643 269.01637 177.26637 
C 266.996643 179.286096 265.861813 182.025818 265.861813 184.882143 
C 265.861813 187.738468 266.996643 190.478189 269.01637 192.497916 
C 271.036096 194.517643 273.775818 195.652472 276.632143 195.652472 
z
" clip-path="url(#pbe1bfd3c72)" style="fill: #eab9a8; fill-opacity: 0.92"/>
   </g>
   <g id="PathCollection_86">
    <path d="M 299.748214 188.164389 
C 300.618676 188.164389 301.453603 187.81855 302.069112 187.203041 
C 302.684622 186.587532 303.03046 185.752605 303.03046 184.882143 
C 303.03046 184.011681 302.684622 183.176754 302.069112 182.561245 
C 301.453603 181.945735 300.618676 181.599897 299.748214 181.599897 
C 298.877753 181.599897 298.042825 181.945735 297.427316 182.561245 
C 296.811807 183.176754 296.465969 184.011681 296.465969 184.882143 
C 296.465969 185.752605 296.811807 186.587532 297.427316 187.203041 
C 298.042825 187.81855 298.877753 188.164389 299.748214 188.164389 
z
" clip-path="url(#pbe1bfd3c72)" style="fill: #eab9a8; fill-opacity: 0.254379"/>
   </g>
   <g id="PathCollection_87">
    <path d="M 322.864286 189.29677 
C 324.035058 189.29677 325.158037 188.831617 325.985898 188.003755 
C 326.81376 187.175894 327.278913 186.052916 327.278913 184.882143 
C 327.278913 183.71137 326.81376 182.588392 325.985898 181.76053 
C 325.158037 180.932669 324.035058 180.467516 322.864286 180.467516 
C 321.693513 180.467516 320.570534 180.932669 319.742673 181.76053 
C 318.914812 182.588392 318.449659 183.71137 318.449659 184.882143 
C 318.449659 186.052916 318.914812 187.175894 319.742673 188.003755 
C 320.570534 188.831617 321.693513 189.29677 322.864286 189.29677 
z
" clip-path="url(#pbe1bfd3c72)" style="fill: #eab9a8; fill-opacity: 0.309511"/>
   </g>
   <g id="PathCollection_88">
    <path d="M 345.980357 192.074685 
C 347.887841 192.074685 349.717457 191.316833 351.066252 189.968038 
C 352.415047 188.619243 353.172899 186.789627 353.172899 184.882143 
C 353.172899 182.974659 352.415047 181.145043 351.066252 179.796248 
C 349.717457 178.447453 347.887841 177.689601 345.980357 177.689601 
C 344.072873 177.689601 342.243257 178.447453 340.894462 179.796248 
C 339.545667 181.145043 338.787815 182.974659 338.787815 184.882143 
C 338.787815 186.789627 339.545667 188.619243 340.894462 189.968038 
C 342.243257 191.316833 344.072873 192.074685 345.980357 192.074685 
z
" clip-path="url(#pbe1bfd3c72)" style="fill: #eab9a8; fill-opacity: 0.513472"/>
   </g>
   <g id="PathCollection_89">
    <path d="M 114.819643 216.886406 
C 117.176819 216.886406 119.437768 215.94989 121.104543 214.283115 
C 122.771318 212.61634 123.707834 210.35539 123.707834 207.998214 
C 123.707834 205.641038 122.771318 203.380089 121.104543 201.713314 
C 119.437768 200.046539 117.176819 199.110023 114.819643 199.110023 
C 112.462467 199.110023 110.201517 200.046539 108.534742 201.713314 
C 106.867967 203.380089 105.931451 205.641038 105.931451 207.998214 
C 105.931451 210.35539 106.867967 212.61634 108.534742 214.283115 
C 110.201517 215.94989 112.462467 216.886406 114.819643 216.886406 
z
" clip-path="url(#pbe1bfd3c72)" style="fill: #e3987d; fill-opacity: 0.685953"/>
   </g>
   <g id="PathCollection_90">
    <path d="M 137.935714 213.543436 
C 139.406324 213.543436 140.8169 212.959157 141.856778 211.919278 
C 142.896657 210.8794 143.480936 209.468824 143.480936 207.998214 
C 143.480936 206.527604 142.896657 205.117028 141.856778 204.07715 
C 140.8169 203.037272 139.406324 202.452992 137.935714 202.452992 
C 136.465104 202.452992 135.054528 203.037272 134.01465 204.07715 
C 132.974772 205.117028 132.390492 206.527604 132.390492 207.998214 
C 132.390492 209.468824 132.974772 210.8794 134.01465 211.919278 
C 135.054528 212.959157 136.465104 213.543436 137.935714 213.543436 
z
" clip-path="url(#pbe1bfd3c72)" style="fill: #e3987d; fill-opacity: 0.380741"/>
   </g>
   <g id="PathCollection_91">
    <path d="M 161.051786 212.275883 
C 162.186237 212.275883 163.274376 211.825161 164.076554 211.022983 
C 164.878732 210.220805 165.329455 209.132665 165.329455 207.998214 
C 165.329455 206.863763 164.878732 205.775624 164.076554 204.973446 
C 163.274376 204.171268 162.186237 203.720545 161.051786 203.720545 
C 159.917335 203.720545 158.829195 204.171268 158.027017 204.973446 
C 157.224839 205.775624 156.774117 206.863763 156.774117 207.998214 
C 156.774117 209.132665 157.224839 210.220805 158.027017 211.022983 
C 158.829195 211.825161 159.917335 212.275883 161.051786 212.275883 
z
" clip-path="url(#pbe1bfd3c72)" style="fill: #e3987d; fill-opacity: 0.301981"/>
   </g>
   <g id="PathCollection_92">
    <path d="M 184.167857 215.711017 
C 186.213316 215.711017 188.175274 214.898348 189.621633 213.45199 
C 191.067991 212.005632 191.88066 210.043674 191.88066 207.998214 
C 191.88066 205.952755 191.067991 203.990797 189.621633 202.544439 
C 188.175274 201.098081 186.213316 200.285411 184.167857 200.285411 
C 182.122398 200.285411 180.16044 201.098081 178.714082 202.544439 
C 177.267724 203.990797 176.455054 205.952755 176.455054 207.998214 
C 176.455054 210.043674 177.267724 212.005632 178.714082 213.45199 
C 180.16044 214.898348 182.122398 215.711017 184.167857 215.711017 
z
" clip-path="url(#pbe1bfd3c72)" style="fill: #e3987d; fill-opacity: 0.562525"/>
   </g>
   <g id="PathCollection_93">
    <path d="M 207.283929 212.257512 
C 208.413508 212.257512 209.496974 211.808726 210.295707 211.009993 
C 211.09444 210.21126 211.543227 209.127793 211.543227 207.998214 
C 211.543227 206.868635 211.09444 205.785169 210.295707 204.986436 
C 209.496974 204.187703 208.413508 203.738916 207.283929 203.738916 
C 206.15435 203.738916 205.070883 204.187703 204.27215 204.986436 
C 203.473417 205.785169 203.02463 206.868635 203.02463 207.998214 
C 203.02463 209.127793 203.473417 210.21126 204.27215 211.009993 
C 205.070883 211.808726 206.15435 212.257512 207.283929 212.257512 
z
" clip-path="url(#pbe1bfd3c72)" style="fill: #e3987d; fill-opacity: 0.300989"/>
   </g>
   <g id="PathCollection_94">
    <path d="M 230.4 215.908952 
C 232.497952 215.908952 234.51026 215.075427 235.993736 213.591951 
C 237.477213 212.108474 238.310738 210.096166 238.310738 207.998214 
C 238.310738 205.900262 237.477213 203.887954 235.993736 202.404478 
C 234.51026 200.921002 232.497952 200.087477 230.4 200.087477 
C 228.302048 200.087477 226.28974 200.921002 224.806264 202.404478 
C 223.322787 203.887954 222.489262 205.900262 222.489262 207.998214 
C 222.489262 210.096166 223.322787 212.108474 224.806264 213.591951 
C 226.28974 215.075427 228.302048 215.908952 230.4 215.908952 
z
" clip-path="url(#pbe1bfd3c72)" style="fill: #e3987d; fill-opacity: 0.582086"/>
   </g>
   <g id="PathCollection_95">
    <path d="M 253.516071 212.985622 
C 254.838748 212.985622 256.107428 212.460118 257.042702 211.524844 
C 257.977975 210.589571 258.50348 209.32089 258.50348 207.998214 
C 258.50348 206.675538 257.977975 205.406857 257.042702 204.471584 
C 256.107428 203.536311 254.838748 203.010806 253.516071 203.010806 
C 252.193395 203.010806 250.924715 203.536311 249.989441 204.471584 
C 249.054168 205.406857 248.528663 206.675538 248.528663 207.998214 
C 248.528663 209.32089 249.054168 210.589571 249.989441 211.524844 
C 250.924715 212.460118 252.193395 212.985622 253.516071 212.985622 
z
" clip-path="url(#pbe1bfd3c72)" style="fill: #e3987d; fill-opacity: 0.343577"/>
   </g>
   <g id="PathCollection_96">
    <path d="M 276.632143 211.28046 
C 277.502605 211.28046 278.337532 210.934622 278.953041 210.319112 
C 279.56855 209.703603 279.914389 208.868676 279.914389 207.998214 
C 279.914389 207.127753 279.56855 206.292825 278.953041 205.677316 
C 278.337532 205.061807 277.502605 204.715969 276.632143 204.715969 
C 275.761681 204.715969 274.926754 205.061807 274.311245 205.677316 
C 273.695735 206.292825 273.349897 207.127753 273.349897 207.998214 
C 273.349897 208.868676 273.695735 209.703603 274.311245 210.319112 
C 274.926754 210.934622 275.761681 211.28046 276.632143 211.28046 
z
" clip-path="url(#pbe1bfd3c72)" style="fill: #e3987d; fill-opacity: 0.254379"/>
   </g>
   <g id="PathCollection_97">
    <path d="M 299.748214 218.768544 
C 302.604539 218.768544 305.344261 217.633714 307.363987 215.613987 
C 309.383714 213.594261 310.518544 210.854539 310.518544 207.998214 
C 310.518544 205.141889 309.383714 202.402168 307.363987 200.382441 
C 305.344261 198.362715 302.604539 197.227885 299.748214 197.227885 
C 296.891889 197.227885 294.152168 198.362715 292.132441 200.382441 
C 290.112715 202.402168 288.977885 205.141889 288.977885 207.998214 
C 288.977885 210.854539 290.112715 213.594261 292.132441 215.613987 
C 294.152168 217.633714 296.891889 218.768544 299.748214 218.768544 
z
" clip-path="url(#pbe1bfd3c72)" style="fill: #e3987d; fill-opacity: 0.92"/>
   </g>
   <g id="PathCollection_98">
    <path d="M 322.864286 214.957221 
C 324.709836 214.957221 326.480046 214.223977 327.785047 212.918975 
C 329.090048 211.613974 329.823293 209.843765 329.823293 207.998214 
C 329.823293 206.152664 329.090048 204.382454 327.785047 203.077453 
C 326.480046 201.772452 324.709836 201.039207 322.864286 201.039207 
C 321.018735 201.039207 319.248526 201.772452 317.943525 203.077453 
C 316.638523 204.382454 315.905279 206.152664 315.905279 207.998214 
C 315.905279 209.843765 316.638523 211.613974 317.943525 212.918975 
C 319.248526 214.223977 321.018735 214.957221 322.864286 214.957221 
z
" clip-path="url(#pbe1bfd3c72)" style="fill: #e3987d; fill-opacity: 0.492566"/>
   </g>
   <g id="PathCollection_99">
    <path d="M 345.980357 214.828751 
C 347.791837 214.828751 349.529367 214.109043 350.810276 212.828133 
C 352.091186 211.547224 352.810894 209.809694 352.810894 207.998214 
C 352.810894 206.186735 352.091186 204.449205 350.810276 203.168295 
C 349.529367 201.887386 347.791837 201.167677 345.980357 201.167677 
C 344.168878 201.167677 342.431348 201.887386 341.150438 203.168295 
C 339.869529 204.449205 339.14982 206.186735 339.14982 207.998214 
C 339.14982 209.809694 339.869529 211.547224 341.150438 212.828133 
C 342.431348 214.109043 344.168878 214.828751 345.980357 214.828751 
z
" clip-path="url(#pbe1bfd3c72)" style="fill: #e3987d; fill-opacity: 0.48136"/>
   </g>
   <g id="PathCollection_100">
    <path d="M 114.819643 235.008061 
C 115.852284 235.008061 116.84277 234.597788 117.572958 233.867601 
C 118.303145 233.137413 118.713418 232.146927 118.713418 231.114286 
C 118.713418 230.081644 118.303145 229.091158 117.572958 228.360971 
C 116.84277 227.630783 115.852284 227.22051 114.819643 227.22051 
C 113.787002 227.22051 112.796516 227.630783 112.066328 228.360971 
C 111.33614 229.091158 110.925868 230.081644 110.925868 231.114286 
C 110.925868 232.146927 111.33614 233.137413 112.066328 233.867601 
C 112.796516 234.597788 113.787002 235.008061 114.819643 235.008061 
z
" clip-path="url(#pbe1bfd3c72)" style="fill: #e07452; fill-opacity: 0.282138"/>
   </g>
   <g id="PathCollection_101">
    <path d="M 137.935714 235.557759 
C 139.114137 235.557759 140.244454 235.089567 141.077725 234.256296 
C 141.910995 233.423025 142.379188 232.292709 142.379188 231.114286 
C 142.379188 229.935863 141.910995 228.805546 141.077725 227.972275 
C 140.244454 227.139005 139.114137 226.670812 137.935714 226.670812 
C 136.757291 226.670812 135.626975 227.139005 134.793704 227.972275 
C 133.960433 228.805546 133.492241 229.935863 133.492241 231.114286 
C 133.492241 232.292709 133.960433 233.423025 134.793704 234.256296 
C 135.626975 235.089567 136.757291 235.557759 137.935714 235.557759 
z
" clip-path="url(#pbe1bfd3c72)" style="fill: #e07452; fill-opacity: 0.311128"/>
   </g>
   <g id="PathCollection_102">
    <path d="M 161.051786 238.268954 
C 162.949226 238.268954 164.769207 237.515093 166.1109 236.1734 
C 167.452593 234.831707 168.206454 233.011726 168.206454 231.114286 
C 168.206454 229.216846 167.452593 227.396864 166.1109 226.055171 
C 164.769207 224.713479 162.949226 223.959618 161.051786 223.959618 
C 159.154346 223.959618 157.334364 224.713479 155.992671 226.055171 
C 154.650979 227.396864 153.897118 229.216846 153.897118 231.114286 
C 153.897118 233.011726 154.650979 234.831707 155.992671 236.1734 
C 157.334364 237.515093 159.154346 238.268954 161.051786 238.268954 
z
" clip-path="url(#pbe1bfd3c72)" style="fill: #e07452; fill-opacity: 0.510034"/>
   </g>
   <g id="PathCollection_103">
    <path d="M 184.167857 237.109109 
C 185.757703 237.109109 187.282646 236.477456 188.406837 235.353266 
C 189.531028 234.229075 190.16268 232.704131 190.16268 231.114286 
C 190.16268 229.52444 189.531028 227.999496 188.406837 226.875306 
C 187.282646 225.751115 185.757703 225.119463 184.167857 225.119463 
C 182.578012 225.119463 181.053068 225.751115 179.928877 226.875306 
C 178.804687 227.999496 178.173034 229.52444 178.173034 231.114286 
C 178.173034 232.704131 178.804687 234.229075 179.928877 235.353266 
C 181.053068 236.477456 182.578012 237.109109 184.167857 237.109109 
z
" clip-path="url(#pbe1bfd3c72)" style="fill: #e07452; fill-opacity: 0.413561"/>
   </g>
   <g id="PathCollection_104">
    <path d="M 207.283929 238.12855 
C 209.144133 238.12855 210.928399 237.389483 212.243763 236.07412 
C 213.559126 234.758756 214.298193 232.97449 214.298193 231.114286 
C 214.298193 229.254081 213.559126 227.469815 212.243763 226.154452 
C 210.928399 224.839088 209.144133 224.100021 207.283929 224.100021 
C 205.423724 224.100021 203.639458 224.839088 202.324095 226.154452 
C 201.008731 227.469815 200.269664 229.254081 200.269664 231.114286 
C 200.269664 232.97449 201.008731 234.758756 202.324095 236.07412 
C 203.639458 237.389483 205.423724 238.12855 207.283929 238.12855 
z
" clip-path="url(#pbe1bfd3c72)" style="fill: #e07452; fill-opacity: 0.497451"/>
   </g>
   <g id="PathCollection_105">
    <path d="M 230.4 234.719379 
C 231.356082 234.719379 232.273134 234.339524 232.949186 233.663472 
C 233.625238 232.98742 234.005094 232.070368 234.005094 231.114286 
C 234.005094 230.158204 233.625238 229.241152 232.949186 228.5651 
C 232.273134 227.889048 231.356082 227.509192 230.4 227.509192 
C 229.443918 227.509192 228.526866 227.889048 227.850814 228.5651 
C 227.174762 229.241152 226.794906 230.158204 226.794906 231.114286 
C 226.794906 232.070368 227.174762 232.98742 227.850814 233.663472 
C 228.526866 234.339524 229.443918 234.719379 230.4 234.719379 
z
" clip-path="url(#pbe1bfd3c72)" style="fill: #e07452; fill-opacity: 0.268444"/>
   </g>
   <g id="PathCollection_106">
    <path d="M 253.516071 240.527843 
C 256.012576 240.527843 258.407167 239.535972 260.172462 237.770676 
C 261.937757 236.005381 262.929629 233.61079 262.929629 231.114286 
C 262.929629 228.617781 261.937757 226.223191 260.172462 224.457895 
C 258.407167 222.6926 256.012576 221.700728 253.516071 221.700728 
C 251.019567 221.700728 248.624976 222.6926 246.859681 224.457895 
C 245.094385 226.223191 244.102514 228.617781 244.102514 231.114286 
C 244.102514 233.61079 245.094385 236.005381 246.859681 237.770676 
C 248.624976 239.535972 251.019567 240.527843 253.516071 240.527843 
z
" clip-path="url(#pbe1bfd3c72)" style="fill: #e07452; fill-opacity: 0.746774"/>
   </g>
   <g id="PathCollection_107">
    <path d="M 276.632143 235.528913 
C 277.802916 235.528913 278.925894 235.06376 279.753755 234.235898 
C 280.581617 233.408037 281.04677 232.285058 281.04677 231.114286 
C 281.04677 229.943513 280.581617 228.820534 279.753755 227.992673 
C 278.925894 227.164812 277.802916 226.699659 276.632143 226.699659 
C 275.46137 226.699659 274.338392 227.164812 273.51053 227.992673 
C 272.682669 228.820534 272.217516 229.943513 272.217516 231.114286 
C 272.217516 232.285058 272.682669 233.408037 273.51053 234.235898 
C 274.338392 235.06376 275.46137 235.528913 276.632143 235.528913 
z
" clip-path="url(#pbe1bfd3c72)" style="fill: #e07452; fill-opacity: 0.309511"/>
   </g>
   <g id="PathCollection_108">
    <path d="M 299.748214 238.073293 
C 301.593765 238.073293 303.363974 237.340048 304.668975 236.035047 
C 305.973977 234.730046 306.707221 232.959836 306.707221 231.114286 
C 306.707221 229.268735 305.973977 227.498526 304.668975 226.193525 
C 303.363974 224.888523 301.593765 224.155279 299.748214 224.155279 
C 297.902664 224.155279 296.132454 224.888523 294.827453 226.193525 
C 293.522452 227.498526 292.789207 229.268735 292.789207 231.114286 
C 292.789207 232.959836 293.522452 234.730046 294.827453 236.035047 
C 296.132454 237.340048 297.902664 238.073293 299.748214 238.073293 
z
" clip-path="url(#pbe1bfd3c72)" style="fill: #e07452; fill-opacity: 0.492566"/>
   </g>
   <g id="PathCollection_109">
    <path d="M 322.864286 241.884615 
C 325.720611 241.884615 328.460332 240.749785 330.480059 238.730059 
C 332.499785 236.710332 333.634615 233.970611 333.634615 231.114286 
C 333.634615 228.257961 332.499785 225.518239 330.480059 223.498513 
C 328.460332 221.478786 325.720611 220.343956 322.864286 220.343956 
C 320.007961 220.343956 317.268239 221.478786 315.248513 223.498513 
C 313.228786 225.518239 312.093956 228.257961 312.093956 231.114286 
C 312.093956 233.970611 313.228786 236.710332 315.248513 238.730059 
C 317.268239 240.749785 320.007961 241.884615 322.864286 241.884615 
z
" clip-path="url(#pbe1bfd3c72)" style="fill: #e07452; fill-opacity: 0.92"/>
   </g>
   <g id="PathCollection_110">
    <path d="M 345.980357 239.28903 
C 348.148325 239.28903 350.22779 238.427687 351.760774 236.894703 
C 353.293759 235.361718 354.155101 233.282253 354.155101 231.114286 
C 354.155101 228.946318 353.293759 226.866853 351.760774 225.333869 
C 350.22779 223.800884 348.148325 222.939542 345.980357 222.939542 
C 343.81239 222.939542 341.732925 223.800884 340.19994 225.333869 
C 338.666956 226.866853 337.805613 228.946318 337.805613 231.114286 
C 337.805613 233.282253 338.666956 235.361718 340.19994 236.894703 
C 341.732925 238.427687 343.81239 239.28903 345.980357 239.28903 
z
" clip-path="url(#pbe1bfd3c72)" style="fill: #e07452; fill-opacity: 0.608949"/>
   </g>
   <g id="PathCollection_111">
    <path d="M 114.819643 260.186941 
C 116.399347 260.186941 117.914564 259.559317 119.031583 258.442298 
C 120.148603 257.325278 120.776226 255.810062 120.776226 254.230357 
C 120.776226 252.650653 120.148603 251.135436 119.031583 250.018417 
C 117.914564 248.901397 116.399347 248.273774 114.819643 248.273774 
C 113.239938 248.273774 111.724722 248.901397 110.607702 250.018417 
C 109.490683 251.135436 108.863059 252.650653 108.863059 254.230357 
C 108.863059 255.810062 109.490683 257.325278 110.607702 258.442298 
C 111.724722 259.559317 113.239938 260.186941 114.819643 260.186941 
z
" clip-path="url(#pbe1bfd3c72)" style="fill: #d9542b; fill-opacity: 0.41067"/>
   </g>
   <g id="PathCollection_112">
    <path d="M 137.935714 261.182077 
C 139.779332 261.182077 141.547688 260.4496 142.851322 259.145965 
C 144.154957 257.842331 144.887434 256.073975 144.887434 254.230357 
C 144.887434 252.38674 144.154957 250.618384 142.851322 249.314749 
C 141.547688 248.011115 139.779332 247.278638 137.935714 247.278638 
C 136.092097 247.278638 134.323741 248.011115 133.020106 249.314749 
C 131.716472 250.618384 130.983995 252.38674 130.983995 254.230357 
C 130.983995 256.073975 131.716472 257.842331 133.020106 259.145965 
C 134.323741 260.4496 136.092097 261.182077 137.935714 261.182077 
z
" clip-path="url(#pbe1bfd3c72)" style="fill: #d9542b; fill-opacity: 0.491925"/>
   </g>
   <g id="PathCollection_113">
    <path d="M 161.051786 257.781356 
C 161.993522 257.781356 162.896813 257.407201 163.562721 256.741293 
C 164.228629 256.075385 164.602785 255.172093 164.602785 254.230357 
C 164.602785 253.288621 164.228629 252.38533 163.562721 251.719422 
C 162.896813 251.053514 161.993522 250.679358 161.051786 250.679358 
C 160.11005 250.679358 159.206758 251.053514 158.54085 251.719422 
C 157.874942 252.38533 157.500787 253.288621 157.500787 254.230357 
C 157.500787 255.172093 157.874942 256.075385 158.54085 256.741293 
C 159.206758 257.407201 160.11005 257.781356 161.051786 257.781356 
z
" clip-path="url(#pbe1bfd3c72)" style="fill: #d9542b; fill-opacity: 0.265996"/>
   </g>
   <g id="PathCollection_114">
    <path d="M 184.167857 260.789662 
C 185.907405 260.789662 187.57594 260.098533 188.805986 258.868486 
C 190.036033 257.63844 190.727162 255.969905 190.727162 254.230357 
C 190.727162 252.490809 190.036033 250.822274 188.805986 249.592228 
C 187.57594 248.362182 185.907405 247.671052 184.167857 247.671052 
C 182.428309 247.671052 180.759774 248.362182 179.529728 249.592228 
C 178.299682 250.822274 177.608552 252.490809 177.608552 254.230357 
C 177.608552 255.969905 178.299682 257.63844 179.529728 258.868486 
C 180.759774 260.098533 182.428309 260.789662 184.167857 260.789662 
z
" clip-path="url(#pbe1bfd3c72)" style="fill: #d9542b; fill-opacity: 0.458387"/>
   </g>
   <g id="PathCollection_115">
    <path d="M 207.283929 258.187774 
C 208.333448 258.187774 209.340123 257.770796 210.082245 257.028674 
C 210.824367 256.286551 211.241346 255.279876 211.241346 254.230357 
C 211.241346 253.180838 210.824367 252.174163 210.082245 251.432041 
C 209.340123 250.689918 208.333448 250.27294 207.283929 250.27294 
C 206.234409 250.27294 205.227734 250.689918 204.485612 251.432041 
C 203.74349 252.174163 203.326511 253.180838 203.326511 254.230357 
C 203.326511 255.279876 203.74349 256.286551 204.485612 257.028674 
C 205.227734 257.770796 206.234409 258.187774 207.283929 258.187774 
z
" clip-path="url(#pbe1bfd3c72)" style="fill: #d9542b; fill-opacity: 0.285298"/>
   </g>
   <g id="PathCollection_116">
    <path d="M 230.4 260.306762 
C 232.011481 260.306762 233.557178 259.666514 234.696667 258.527024 
C 235.836157 257.387535 236.476405 255.841839 236.476405 254.230357 
C 236.476405 252.618876 235.836157 251.073179 234.696667 249.93369 
C 233.557178 248.7942 232.011481 248.153952 230.4 248.153952 
C 228.788519 248.153952 227.242822 248.7942 226.103333 249.93369 
C 224.963843 251.073179 224.323595 252.618876 224.323595 254.230357 
C 224.323595 255.841839 224.963843 257.387535 226.103333 258.527024 
C 227.242822 259.666514 228.788519 260.306762 230.4 260.306762 
z
" clip-path="url(#pbe1bfd3c72)" style="fill: #d9542b; fill-opacity: 0.41979"/>
   </g>
   <g id="PathCollection_117">
    <path d="M 253.516071 260.946362 
C 255.297177 260.946362 257.005573 260.238722 258.265004 258.97929 
C 259.524436 257.719858 260.232077 256.011463 260.232077 254.230357 
C 260.232077 252.449252 259.524436 250.740856 258.265004 249.481424 
C 257.005573 248.221993 255.297177 247.514352 253.516071 247.514352 
C 251.734966 247.514352 250.02657 248.221993 248.767139 249.481424 
C 247.507707 250.740856 246.800066 252.449252 246.800066 254.230357 
C 246.800066 256.011463 247.507707 257.719858 248.767139 258.97929 
C 250.02657 260.238722 251.734966 260.946362 253.516071 260.946362 
z
" clip-path="url(#pbe1bfd3c72)" style="fill: #d9542b; fill-opacity: 0.471546"/>
   </g>
   <g id="PathCollection_118">
    <path d="M 276.632143 261.422899 
C 278.539627 261.422899 280.369243 260.665047 281.718038 259.316252 
C 283.066833 257.967457 283.824685 256.137841 283.824685 254.230357 
C 283.824685 252.322873 283.066833 250.493257 281.718038 249.144462 
C 280.369243 247.795667 278.539627 247.037815 276.632143 247.037815 
C 274.724659 247.037815 272.895043 247.795667 271.546248 249.144462 
C 270.197453 250.493257 269.439601 252.322873 269.439601 254.230357 
C 269.439601 256.137841 270.197453 257.967457 271.546248 259.316252 
C 272.895043 260.665047 274.724659 261.422899 276.632143 261.422899 
z
" clip-path="url(#pbe1bfd3c72)" style="fill: #d9542b; fill-opacity: 0.513472"/>
   </g>
   <g id="PathCollection_119">
    <path d="M 299.748214 261.060894 
C 301.559694 261.060894 303.297224 260.341186 304.578133 259.060276 
C 305.859043 257.779367 306.578751 256.041837 306.578751 254.230357 
C 306.578751 252.418878 305.859043 250.681348 304.578133 249.400438 
C 303.297224 248.119529 301.559694 247.39982 299.748214 247.39982 
C 297.936735 247.39982 296.199205 248.119529 294.918295 249.400438 
C 293.637386 250.681348 292.917677 252.418878 292.917677 254.230357 
C 292.917677 256.041837 293.637386 257.779367 294.918295 259.060276 
C 296.199205 260.341186 297.936735 261.060894 299.748214 261.060894 
z
" clip-path="url(#pbe1bfd3c72)" style="fill: #d9542b; fill-opacity: 0.48136"/>
   </g>
   <g id="PathCollection_120">
    <path d="M 322.864286 262.405101 
C 325.032253 262.405101 327.111718 261.543759 328.644703 260.010774 
C 330.177687 258.47779 331.03903 256.398325 331.03903 254.230357 
C 331.03903 252.06239 330.177687 249.982925 328.644703 248.44994 
C 327.111718 246.916956 325.032253 246.055613 322.864286 246.055613 
C 320.696318 246.055613 318.616853 246.916956 317.083869 248.44994 
C 315.550884 249.982925 314.689542 252.06239 314.689542 254.230357 
C 314.689542 256.398325 315.550884 258.47779 317.083869 260.010774 
C 318.616853 261.543759 320.696318 262.405101 322.864286 262.405101 
z
" clip-path="url(#pbe1bfd3c72)" style="fill: #d9542b; fill-opacity: 0.608949"/>
   </g>
   <g id="PathCollection_121">
    <path d="M 345.980357 265.000687 
C 348.836682 265.000687 351.576404 263.865857 353.59613 261.84613 
C 355.615857 259.826404 356.750687 257.086682 356.750687 254.230357 
C 356.750687 251.374032 355.615857 248.634311 353.59613 246.614584 
C 351.576404 244.594857 348.836682 243.460028 345.980357 243.460028 
C 343.124032 243.460028 340.384311 244.594857 338.364584 246.614584 
C 336.344857 248.634311 335.210028 251.374032 335.210028 254.230357 
C 335.210028 257.086682 336.344857 259.826404 338.364584 261.84613 
C 340.384311 263.865857 343.124032 265.000687 345.980357 265.000687 
z
" clip-path="url(#pbe1bfd3c72)" style="fill: #d9542b; fill-opacity: 0.92"/>
   </g>
  </g>
 </g>
 <defs>
  <clipPath id="pbe1bfd3c72">
   <rect x="100.95" y="9.2" width="258.9" height="258.9"/>
  </clipPath>
 </defs>
</svg>
