<?xml version="1.0" encoding="utf-8" standalone="no"?>
<!DOCTYPE svg PUBLIC "-//W3C//DTD SVG 1.1//EN"
  "http://www.w3.org/Graphics/SVG/1.1/DTD/svg11.dtd">
<svg xmlns:xlink="http://www.w3.org/1999/xlink" width="460.8pt" height="288pt" viewBox="0 0 460.8 288" xmlns="http://www.w3.org/2000/svg" version="1.1">
 <metadata>
  <rdf:RDF xmlns:dc="http://purl.org/dc/elements/1.1/" xmlns:cc="http://creativecommons.org/ns#" xmlns:rdf="http://www.w3.org/1999/02/22-rdf-syntax-ns#">
   <cc:Work>
    <dc:type rdf:resource="http://purl.org/dc/dcmitype/StillImage"/>
    <dc:date>2026-07-31T20:02:33.331940</dc:date>
    <dc:format>image/svg+xml</dc:format>
    <dc:creator>
     <cc:Agent>
      <dc:title>Matplotlib v3.10.9, https://matplotlib.org/</dc:title>
     </cc:Agent>
    </dc:creator>
   </cc:Work>
  </rdf:RDF>
 </metadata>
 <defs>
  <style type="text/css">*{stroke-linejoin: round; stroke-linecap: butt}</style>
 </defs>
 <g id="figure_1">
  <g id="patch_1">
   <path d="M 0 288 
L 460.8 288 
L 460.8 0 
L 0 0 
z
" style="fill: #ffffff"/>
  </g>
  <g id="axes_1">
   <g id="patch_2">
    <path d="M 100.95 268.1 
L 359.85 268.1 
L 359.85 9.2 
L 100.95 9.2 
z
" style="fill: #ffffff"/>
   </g>
   <g id="PathCollection_1">
    <path d="M 119.893902 38.914232 
C 122.750227 38.914232 125.489949 37.779402 127.509676 35.759676 
C 129.529402 33.739949 130.664232 31.000227 130.664232 28.143902 
C 130.664232 25.287578 129.529402 22.547856 127.509676 20.528129 
C 125.489949 18.508403 122.750227 17.373573 119.893902 17.373573 
C 117.037578 17.373573 114.297856 18.508403 112.278129 20.528129 
C 110.258403 22.547856 109.123573 25.287578 109.123573 28.143902 
C 109.123573 31.000227 110.258403 33.739949 112.278129 35.759676 
C 114.297856 37.779402 117.037578 38.914232 119.893902 38.914232 
z
" clip-path="url(#pbe1bfd3c72)" style="fill: #fad6de; fill-opacity: 0.92"/>
   </g>
   <g id="PathCollection_2">
    <path d="M 151.467073 32.433421 
C 152.604667 32.433421 153.695821 31.98145 154.500221 31.17705 
C 155.304621 30.37265 155.756592 29.281496 155.756592 28.143902 
C 155.756592 27.006309 155.304621 25.915155 154.500221 25.110755 
C 153.695821 24.306355 152.604667 23.854384 151.467073 23.854384 
C 150.32948 23.854384 149.238326 24.306355 148.433925 25.110755 
C 147.629525 25.915155 147.177555 27.006309 147.177555 28.143902 
C 147.177555 29.281496 147.629525 30.37265 148.433925 31.17705 
C 149.238326 31.98145 150.32948 32.433421 151.467073 32.433421 
z
" clip-path="url(#pbe1bfd3c72)" style="fill: #fad6de; fill-opacity: 0.302623"/>
   </g>
   <g id="PathCollection_3">
    <path d="M 183.040244 37.632655 
C 185.55669 37.632655 187.970409 36.63286 189.749805 34.853463 
C 191.529201 33.074067 192.528996 30.660349 192.528996 28.143902 
C 192.528996 25.627456 191.529201 23.213738 189.749805 21.434341 
C 187.970409 19.654945 185.55669 18.65515 183.040244 18.65515 
C 180.523797 18.65515 178.110079 19.654945 176.330683 21.434341 
C 174.551287 23.213738 173.551492 25.627456 173.551492 28.143902 
C 173.551492 30.660349 174.551287 33.074067 176.330683 34.853463 
C 178.110079 36.63286 180.523797 37.632655 183.040244 37.632655 
z
" clip-path="url(#pbe1bfd3c72)" style="fill: #fad6de; fill-opacity: 0.755765"/>
   </g>
   <g id="PathCollection_4">
    <path d="M 214.613415 31.572658 
C 215.522731 31.572658 216.394927 31.211382 217.037911 30.568399 
C 217.680895 29.925415 218.04217 29.053219 218.04217 28.143902 
C 218.04217 27.234586 217.680895 26.36239 217.037911 25.719406 
C 216.394927 25.076422 215.522731 24.715147 214.613415 24.715147 
C 213.704098 24.715147 212.831902 25.076422 212.188919 25.719406 
C 211.545935 26.36239 211.184659 27.234586 211.184659 28.143902 
C 211.184659 29.053219 211.545935 29.925415 212.188919 30.568399 
C 212.831902 31.211382 213.704098 31.572658 214.613415 31.572658 
z
" clip-path="url(#pbe1bfd3c72)" style="fill: #fad6de; fill-opacity: 0.260598"/>
   </g>
   <g id="PathCollection_5">
    <path d="M 246.186585 31.992676 
C 247.207292 31.992676 248.186331 31.587145 248.90808 30.865397 
C 249.629828 30.143648 250.035359 29.164609 250.035359 28.143902 
C 250.035359 27.123196 249.629828 26.144157 248.90808 25.422408 
C 248.186331 24.70066 247.207292 24.295128 246.186585 24.295128 
C 245.165879 24.295128 244.18684 24.70066 243.465091 25.422408 
C 242.743342 26.144157 242.337811 27.123196 242.337811 28.143902 
C 242.337811 29.164609 242.743342 30.143648 243.465091 30.865397 
C 244.18684 31.587145 245.165879 31.992676 246.186585 31.992676 
z
" clip-path="url(#pbe1bfd3c72)" style="fill: #fad6de; fill-opacity: 0.279934"/>
   </g>
   <g id="PathCollection_6">
    <path d="M 277.759756 37.716903 
C 280.298546 37.716903 282.733695 36.708232 284.52889 34.913036 
C 286.324085 33.117841 287.332757 30.682692 287.332757 28.143902 
C 287.332757 25.605113 286.324085 23.169964 284.52889 21.374769 
C 282.733695 19.579573 280.298546 18.570902 277.759756 18.570902 
C 275.220967 18.570902 272.785818 19.579573 270.990622 21.374769 
C 269.195427 23.169964 268.186755 25.605113 268.186755 28.143902 
C 268.186755 30.682692 269.195427 33.117841 270.990622 34.913036 
C 272.785818 36.708232 275.220967 37.716903 277.759756 37.716903 
z
" clip-path="url(#pbe1bfd3c72)" style="fill: #fad6de; fill-opacity: 0.765924"/>
   </g>
   <g id="PathCollection_7">
    <path d="M 309.332927 36.62361 
C 311.581771 36.62361 313.738812 35.730134 315.328985 34.139961 
C 316.919159 32.549788 317.812634 30.392747 317.812634 28.143902 
C 317.812634 25.895058 316.919159 23.738017 315.328985 22.147844 
C 313.738812 20.557671 311.581771 19.664195 309.332927 19.664195 
C 307.084082 19.664195 304.927042 20.557671 303.336868 22.147844 
C 301.746695 23.738017 300.85322 25.895058 300.85322 28.143902 
C 300.85322 30.392747 301.746695 32.549788 303.336868 34.139961 
C 304.927042 35.730134 307.084082 36.62361 309.332927 36.62361 
z
" clip-path="url(#pbe1bfd3c72)" style="fill: #fad6de; fill-opacity: 0.641076"/>
   </g>
   <g id="PathCollection_8">
    <path d="M 340.906098 38.278707 
C 343.593879 38.278707 346.171938 37.21084 348.072487 35.310292 
C 349.973035 33.409743 351.040902 30.831684 351.040902 28.143902 
C 351.040902 25.456121 349.973035 22.878062 348.072487 20.977513 
C 346.171938 19.076965 343.593879 18.009098 340.906098 18.009098 
C 338.218316 18.009098 335.640257 19.076965 333.739708 20.977513 
C 331.83916 22.878062 330.771293 25.456121 330.771293 28.143902 
C 330.771293 30.831684 331.83916 33.409743 333.739708 35.310292 
C 335.640257 37.21084 338.218316 38.278707 340.906098 38.278707 
z
" clip-path="url(#pbe1bfd3c72)" style="fill: #fad6de; fill-opacity: 0.83596"/>
   </g>
   <g id="PathCollection_9">
    <path d="M 119.893902 64.006592 
C 121.031496 64.006592 122.12265 63.554621 122.92705 62.750221 
C 123.73145 61.945821 124.183421 60.854667 124.183421 59.717073 
C 124.183421 58.57948 123.73145 57.488326 122.92705 56.683925 
C 122.12265 55.879525 121.031496 55.427555 119.893902 55.427555 
C 118.756309 55.427555 117.665155 55.879525 116.860755 56.683925 
C 116.056355 57.488326 115.604384 58.57948 115.604384 59.717073 
C 115.604384 60.854667 116.056355 61.945821 116.860755 62.750221 
C 117.665155 63.554621 118.756309 64.006592 119.893902 64.006592 
z
" clip-path="url(#pbe1bfd3c72)" style="fill: #f7bfcb; fill-opacity: 0.302623"/>
   </g>
   <g id="PathCollection_10">
    <path d="M 151.467073 70.487403 
C 154.323398 70.487403 157.06312 69.352573 159.082846 67.332846 
C 161.102573 65.31312 162.237403 62.573398 162.237403 59.717073 
C 162.237403 56.860748 161.102573 54.121027 159.082846 52.1013 
C 157.06312 50.081573 154.323398 48.946744 151.467073 48.946744 
C 148.610748 48.946744 145.871027 50.081573 143.8513 52.1013 
C 141.831573 54.121027 140.696744 56.860748 140.696744 59.717073 
C 140.696744 62.573398 141.831573 65.31312 143.8513 67.332846 
C 145.871027 69.352573 148.610748 70.487403 151.467073 70.487403 
z
" clip-path="url(#pbe1bfd3c72)" style="fill: #f7bfcb; fill-opacity: 0.92"/>
   </g>
   <g id="PathCollection_11">
    <path d="M 183.040244 63.576056 
C 184.063658 63.576056 185.045294 63.169449 185.768957 62.445786 
C 186.49262 61.722123 186.899227 60.740487 186.899227 59.717073 
C 186.899227 58.693659 186.49262 57.712023 185.768957 56.98836 
C 185.045294 56.264697 184.063658 55.85809 183.040244 55.85809 
C 182.01683 55.85809 181.035194 56.264697 180.311531 56.98836 
C 179.587868 57.712023 179.181261 58.693659 179.181261 59.717073 
C 179.181261 60.740487 179.587868 61.722123 180.311531 62.445786 
C 181.035194 63.169449 182.01683 63.576056 183.040244 63.576056 
z
" clip-path="url(#pbe1bfd3c72)" style="fill: #f7bfcb; fill-opacity: 0.280432"/>
   </g>
   <g id="PathCollection_12">
    <path d="M 214.613415 67.26412 
C 216.614915 67.26412 218.534708 66.468916 219.949983 65.053641 
C 221.365257 63.638367 222.160462 61.718573 222.160462 59.717073 
C 222.160462 57.715573 221.365257 55.795779 219.949983 54.380505 
C 218.534708 52.965231 216.614915 52.170026 214.613415 52.170026 
C 212.611914 52.170026 210.692121 52.965231 209.276846 54.380505 
C 207.861572 55.795779 207.066367 57.715573 207.066367 59.717073 
C 207.066367 61.718573 207.861572 63.638367 209.276846 65.053641 
C 210.692121 66.468916 212.611914 67.26412 214.613415 67.26412 
z
" clip-path="url(#pbe1bfd3c72)" style="fill: #f7bfcb; fill-opacity: 0.546525"/>
   </g>
   <g id="PathCollection_13">
    <path d="M 246.186585 65.941752 
C 247.837389 65.941752 249.420803 65.28588 250.588098 64.118586 
C 251.755393 62.951291 252.411264 61.367877 252.411264 59.717073 
C 252.411264 58.066269 251.755393 56.482855 250.588098 55.315561 
C 249.420803 54.148266 247.837389 53.492395 246.186585 53.492395 
C 244.535781 53.492395 242.952368 54.148266 241.785073 55.315561 
C 240.617778 56.482855 239.961907 58.066269 239.961907 59.717073 
C 239.961907 61.367877 240.617778 62.951291 241.785073 64.118586 
C 242.952368 65.28588 244.535781 65.941752 246.186585 65.941752 
z
" clip-path="url(#pbe1bfd3c72)" style="fill: #f7bfcb; fill-opacity: 0.431327"/>
   </g>
   <g id="PathCollection_14">
    <path d="M 277.759756 65.770787 
C 279.36522 65.770787 280.905144 65.132929 282.040378 63.997695 
C 283.175612 62.862461 283.81347 61.322537 283.81347 59.717073 
C 283.81347 58.11161 283.175612 56.571685 282.040378 55.436451 
C 280.905144 54.301217 279.36522 53.663359 277.759756 53.663359 
C 276.154292 53.663359 274.614368 54.301217 273.479134 55.436451 
C 272.3439 56.571685 271.706042 58.11161 271.706042 59.717073 
C 271.706042 61.322537 272.3439 62.862461 273.479134 63.997695 
C 274.614368 65.132929 276.154292 65.770787 277.759756 65.770787 
z
" clip-path="url(#pbe1bfd3c72)" style="fill: #f7bfcb; fill-opacity: 0.418049"/>
   </g>
   <g id="PathCollection_15">
    <path d="M 309.332927 63.817573 
C 310.420392 63.817573 311.463464 63.385519 312.232418 62.616564 
C 313.001372 61.84761 313.433427 60.804538 313.433427 59.717073 
C 313.433427 58.629608 313.001372 57.586536 312.232418 56.817582 
C 311.463464 56.048628 310.420392 55.616573 309.332927 55.616573 
C 308.245462 55.616573 307.20239 56.048628 306.433436 56.817582 
C 305.664481 57.586536 305.232427 58.629608 305.232427 59.717073 
C 305.232427 60.804538 305.664481 61.84761 306.433436 62.616564 
C 307.20239 63.385519 308.245462 63.817573 309.332927 63.817573 
z
" clip-path="url(#pbe1bfd3c72)" style="fill: #f7bfcb; fill-opacity: 0.292592"/>
   </g>
   <g id="PathCollection_16">
    <path d="M 340.906098 64.585426 
C 342.1972 64.585426 343.435596 64.072466 344.348543 63.159518 
C 345.26149 62.246571 345.77445 61.008175 345.77445 59.717073 
C 345.77445 58.425971 345.26149 57.187575 344.348543 56.274628 
C 343.435596 55.361681 342.1972 54.84872 340.906098 54.84872 
C 339.614995 54.84872 338.376599 55.361681 337.463652 56.274628 
C 336.550705 57.187575 336.037745 58.425971 336.037745 59.717073 
C 336.037745 61.008175 336.550705 62.246571 337.463652 63.159518 
C 338.376599 64.072466 339.614995 64.585426 340.906098 64.585426 
z
" clip-path="url(#pbe1bfd3c72)" style="fill: #f7bfcb; fill-opacity: 0.336154"/>
   </g>
   <g id="PathCollection_17">
    <path d="M 119.893902 100.778996 
C 122.410349 100.778996 124.824067 99.779201 126.603463 97.999805 
C 128.38286 96.220409 129.382655 93.80669 129.382655 91.290244 
C 129.382655 88.773797 128.38286 86.360079 126.603463 84.580683 
C 124.824067 82.801287 122.410349 81.801492 119.893902 81.801492 
C 117.377456 81.801492 114.963738 82.801287 113.184341 84.580683 
C 111.404945 86.360079 110.40515 88.773797 110.40515 91.290244 
C 110.40515 93.80669 111.404945 96.220409 113.184341 97.999805 
C 114.963738 99.779201 117.377456 100.778996 119.893902 100.778996 
z
" clip-path="url(#pbe1bfd3c72)" style="fill: #dff2e3; fill-opacity: 0.755765"/>
   </g>
   <g id="PathCollection_18">
    <path d="M 151.467073 95.149227 
C 152.490487 95.149227 153.472123 94.74262 154.195786 94.018957 
C 154.919449 93.295294 155.326056 92.313658 155.326056 91.290244 
C 155.326056 90.26683 154.919449 89.285194 154.195786 88.561531 
C 153.472123 87.837868 152.490487 87.431261 151.467073 87.431261 
C 150.443659 87.431261 149.462023 87.837868 148.73836 88.561531 
C 148.014697 89.285194 147.60809 90.26683 147.60809 91.290244 
C 147.60809 92.313658 148.014697 93.295294 148.73836 94.018957 
C 149.462023 94.74262 150.443659 95.149227 151.467073 95.149227 
z
" clip-path="url(#pbe1bfd3c72)" style="fill: #dff2e3; fill-opacity: 0.280432"/>
   </g>
   <g id="PathCollection_19">
    <path d="M 183.040244 102.060574 
C 185.896569 102.060574 188.63629 100.925744 190.656017 98.906017 
C 192.675744 96.88629 193.810574 94.146569 193.810574 91.290244 
C 193.810574 88.433919 192.675744 85.694197 190.656017 83.674471 
C 188.63629 81.654744 185.896569 80.519914 183.040244 80.519914 
C 180.183919 80.519914 177.444197 81.654744 175.424471 83.674471 
C 173.404744 85.694197 172.269914 88.433919 172.269914 91.290244 
C 172.269914 94.146569 173.404744 96.88629 175.424471 98.906017 
C 177.444197 100.925744 180.183919 102.060574 183.040244 102.060574 
z
" clip-path="url(#pbe1bfd3c72)" style="fill: #dff2e3; fill-opacity: 0.92"/>
   </g>
   <g id="PathCollection_20">
    <path d="M 214.613415 95.481952 
C 215.725069 95.481952 216.791342 95.040287 217.5774 94.254229 
C 218.363458 93.468171 218.805123 92.401898 218.805123 91.290244 
C 218.805123 90.17859 218.363458 89.112317 217.5774 88.326258 
C 216.791342 87.5402 215.725069 87.098535 214.613415 87.098535 
C 213.501761 87.098535 212.435487 87.5402 211.649429 88.326258 
C 210.863371 89.112317 210.421706 90.17859 210.421706 91.290244 
C 210.421706 92.401898 210.863371 93.468171 211.649429 94.254229 
C 212.435487 95.040287 213.501761 95.481952 214.613415 95.481952 
z
" clip-path="url(#pbe1bfd3c72)" style="fill: #dff2e3; fill-opacity: 0.297376"/>
   </g>
   <g id="PathCollection_21">
    <path d="M 246.186585 96.182648 
C 247.484066 96.182648 248.72858 95.667153 249.646037 94.749696 
C 250.563495 93.832239 251.078989 92.587725 251.078989 91.290244 
C 251.078989 89.992763 250.563495 88.748249 249.646037 87.830792 
C 248.72858 86.913334 247.484066 86.39784 246.186585 86.39784 
C 244.889105 86.39784 243.644591 86.913334 242.727133 87.830792 
C 241.809676 88.748249 241.294181 89.992763 241.294181 91.290244 
C 241.294181 92.587725 241.809676 93.832239 242.727133 94.749696 
C 243.644591 95.667153 244.889105 96.182648 246.186585 96.182648 
z
" clip-path="url(#pbe1bfd3c72)" style="fill: #dff2e3; fill-opacity: 0.337639"/>
   </g>
   <g id="PathCollection_22">
    <path d="M 277.759756 99.332333 
C 279.892543 99.332333 281.938264 98.484968 283.446372 96.97686 
C 284.95448 95.468752 285.801845 93.423031 285.801845 91.290244 
C 285.801845 89.157457 284.95448 87.111736 283.446372 85.603628 
C 281.938264 84.09552 279.892543 83.248155 277.759756 83.248155 
C 275.626969 83.248155 273.581248 84.09552 272.07314 85.603628 
C 270.565032 87.111736 269.717667 89.157457 269.717667 91.290244 
C 269.717667 93.423031 270.565032 95.468752 272.07314 96.97686 
C 273.581248 98.484968 275.626969 99.332333 277.759756 99.332333 
z
" clip-path="url(#pbe1bfd3c72)" style="fill: #dff2e3; fill-opacity: 0.595341"/>
   </g>
   <g id="PathCollection_23">
    <path d="M 309.332927 96.019884 
C 310.587242 96.019884 311.790353 95.52154 312.677288 94.634605 
C 313.564223 93.74767 314.062567 92.544559 314.062567 91.290244 
C 314.062567 90.035929 313.564223 88.832818 312.677288 87.945883 
C 311.790353 87.058948 310.587242 86.560603 309.332927 86.560603 
C 308.078611 86.560603 306.875501 87.058948 305.988566 87.945883 
C 305.101631 88.832818 304.603286 90.035929 304.603286 91.290244 
C 304.603286 92.544559 305.101631 93.74767 305.988566 94.634605 
C 306.875501 95.52154 308.078611 96.019884 309.332927 96.019884 
z
" clip-path="url(#pbe1bfd3c72)" style="fill: #dff2e3; fill-opacity: 0.327733"/>
   </g>
   <g id="PathCollection_24">
    <path d="M 340.906098 100.91186 
C 343.45778 100.91186 345.905296 99.898066 347.709608 98.093754 
C 349.51392 96.289442 350.527714 93.841926 350.527714 91.290244 
C 350.527714 88.738561 349.51392 86.291046 347.709608 84.486734 
C 345.905296 82.682422 343.45778 81.668628 340.906098 81.668628 
C 338.354415 81.668628 335.906899 82.682422 334.102587 84.486734 
C 332.298276 86.291046 331.284481 88.738561 331.284481 91.290244 
C 331.284481 93.841926 332.298276 96.289442 334.102587 98.093754 
C 335.906899 99.898066 338.354415 100.91186 340.906098 100.91186 
z
" clip-path="url(#pbe1bfd3c72)" style="fill: #dff2e3; fill-opacity: 0.771826"/>
   </g>
   <g id="PathCollection_25">
    <path d="M 119.893902 126.29217 
C 120.803219 126.29217 121.675415 125.930895 122.318399 125.287911 
C 122.961382 124.644927 123.322658 123.772731 123.322658 122.863415 
C 123.322658 121.954098 122.961382 121.081902 122.318399 120.438919 
C 121.675415 119.795935 120.803219 119.434659 119.893902 119.434659 
C 118.984586 119.434659 118.11239 119.795935 117.469406 120.438919 
C 116.826422 121.081902 116.465147 121.954098 116.465147 122.863415 
C 116.465147 123.772731 116.826422 124.644927 117.469406 125.287911 
C 118.11239 125.930895 118.984586 126.29217 119.893902 126.29217 
z
" clip-path="url(#pbe1bfd3c72)" style="fill: #b7e1c1; fill-opacity: 0.260598"/>
   </g>
   <g id="PathCollection_26">
    <path d="M 151.467073 130.410462 
C 153.468573 130.410462 155.388367 129.615257 156.803641 128.199983 
C 158.218916 126.784708 159.01412 124.864915 159.01412 122.863415 
C 159.01412 120.861914 158.218916 118.942121 156.803641 117.526846 
C 155.388367 116.111572 153.468573 115.316367 151.467073 115.316367 
C 149.465573 115.316367 147.545779 116.111572 146.130505 117.526846 
C 144.715231 118.942121 143.920026 120.861914 143.920026 122.863415 
C 143.920026 124.864915 144.715231 126.784708 146.130505 128.199983 
C 147.545779 129.615257 149.465573 130.410462 151.467073 130.410462 
z
" clip-path="url(#pbe1bfd3c72)" style="fill: #b7e1c1; fill-opacity: 0.546525"/>
   </g>
   <g id="PathCollection_27">
    <path d="M 183.040244 127.055123 
C 184.151898 127.055123 185.218171 126.613458 186.004229 125.8274 
C 186.790287 125.041342 187.231952 123.975069 187.231952 122.863415 
C 187.231952 121.751761 186.790287 120.685487 186.004229 119.899429 
C 185.218171 119.113371 184.151898 118.671706 183.040244 118.671706 
C 181.92859 118.671706 180.862317 119.113371 180.076258 119.899429 
C 179.2902 120.685487 178.848535 121.751761 178.848535 122.863415 
C 178.848535 123.975069 179.2902 125.041342 180.076258 125.8274 
C 180.862317 126.613458 181.92859 127.055123 183.040244 127.055123 
z
" clip-path="url(#pbe1bfd3c72)" style="fill: #b7e1c1; fill-opacity: 0.297376"/>
   </g>
   <g id="PathCollection_28">
    <path d="M 214.613415 133.633744 
C 217.469739 133.633744 220.209461 132.498914 222.229188 130.479188 
C 224.248914 128.459461 225.383744 125.719739 225.383744 122.863415 
C 225.383744 120.00709 224.248914 117.267368 222.229188 115.247642 
C 220.209461 113.227915 217.469739 112.093085 214.613415 112.093085 
C 211.75709 112.093085 209.017368 113.227915 206.997642 115.247642 
C 204.977915 117.267368 203.843085 120.00709 203.843085 122.863415 
C 203.843085 125.719739 204.977915 128.459461 206.997642 130.479188 
C 209.017368 132.498914 211.75709 133.633744 214.613415 133.633744 
z
" clip-path="url(#pbe1bfd3c72)" style="fill: #b7e1c1; fill-opacity: 0.92"/>
   </g>
   <g id="PathCollection_29">
    <path d="M 246.186585 127.243017 
C 247.34807 127.243017 248.462139 126.781555 249.283432 125.960261 
C 250.104725 125.138968 250.566188 124.024899 250.566188 122.863415 
C 250.566188 121.70193 250.104725 120.587861 249.283432 119.766568 
C 248.462139 118.945275 247.34807 118.483812 246.186585 118.483812 
C 245.025101 118.483812 243.911032 118.945275 243.089739 119.766568 
C 242.268445 120.587861 241.806983 121.70193 241.806983 122.863415 
C 241.806983 124.024899 242.268445 125.138968 243.089739 125.960261 
C 243.911032 126.781555 245.025101 127.243017 246.186585 127.243017 
z
" clip-path="url(#pbe1bfd3c72)" style="fill: #b7e1c1; fill-opacity: 0.307563"/>
   </g>
   <g id="PathCollection_30">
    <path d="M 277.759756 128.342044 
C 279.212706 128.342044 280.606342 127.764781 281.633732 126.737391 
C 282.661123 125.71 283.238385 124.316364 283.238385 122.863415 
C 283.238385 121.410465 282.661123 120.016829 281.633732 118.989439 
C 280.606342 117.962048 279.212706 117.384785 277.759756 117.384785 
C 276.306807 117.384785 274.913171 117.962048 273.88578 118.989439 
C 272.85839 120.016829 272.281127 121.410465 272.281127 122.863415 
C 272.281127 124.316364 272.85839 125.71 273.88578 126.737391 
C 274.913171 127.764781 276.306807 128.342044 277.759756 128.342044 
z
" clip-path="url(#pbe1bfd3c72)" style="fill: #b7e1c1; fill-opacity: 0.376097"/>
   </g>
   <g id="PathCollection_31">
    <path d="M 309.332927 130.19403 
C 311.277029 130.19403 313.141767 129.42163 314.516454 128.046942 
C 315.891142 126.672255 316.663542 124.807516 316.663542 122.863415 
C 316.663542 120.919313 315.891142 119.054575 314.516454 117.679887 
C 313.141767 116.3052 311.277029 115.5328 309.332927 115.5328 
C 307.388825 115.5328 305.524087 116.3052 304.149399 117.679887 
C 302.774712 119.054575 302.002312 120.919313 302.002312 122.863415 
C 302.002312 124.807516 302.774712 126.672255 304.149399 128.046942 
C 305.524087 129.42163 307.388825 130.19403 309.332927 130.19403 
z
" clip-path="url(#pbe1bfd3c72)" style="fill: #b7e1c1; fill-opacity: 0.526156"/>
   </g>
   <g id="PathCollection_32">
    <path d="M 340.906098 129.335496 
C 342.622514 129.335496 344.268861 128.653557 345.48255 127.439867 
C 346.69624 126.226178 347.378179 124.579831 347.378179 122.863415 
C 347.378179 121.146999 346.69624 119.500651 345.48255 118.286962 
C 344.268861 117.073273 342.622514 116.391333 340.906098 116.391333 
C 339.189682 116.391333 337.543334 117.073273 336.329645 118.286962 
C 335.115956 119.500651 334.434016 121.146999 334.434016 122.863415 
C 334.434016 124.579831 335.115956 126.226178 336.329645 127.439867 
C 337.543334 128.653557 339.189682 129.335496 340.906098 129.335496 
z
" clip-path="url(#pbe1bfd3c72)" style="fill: #b7e1c1; fill-opacity: 0.451197"/>
   </g>
   <g id="PathCollection_33">
    <path d="M 119.893902 158.285359 
C 120.914609 158.285359 121.893648 157.879828 122.615397 157.15808 
C 123.337145 156.436331 123.742676 155.457292 123.742676 154.436585 
C 123.742676 153.415879 123.337145 152.43684 122.615397 151.715091 
C 121.893648 150.993342 120.914609 150.587811 119.893902 150.587811 
C 118.873196 150.587811 117.894157 150.993342 117.172408 151.715091 
C 116.45066 152.43684 116.045128 153.415879 116.045128 154.436585 
C 116.045128 155.457292 116.45066 156.436331 117.172408 157.15808 
C 117.894157 157.879828 118.873196 158.285359 119.893902 158.285359 
z
" clip-path="url(#pbe1bfd3c72)" style="fill: #c8ead5; fill-opacity: 0.279934"/>
   </g>
   <g id="PathCollection_34">
    <path d="M 151.467073 160.661264 
C 153.117877 160.661264 154.701291 160.005393 155.868586 158.838098 
C 157.03588 157.670803 157.691752 156.087389 157.691752 154.436585 
C 157.691752 152.785781 157.03588 151.202368 155.868586 150.035073 
C 154.701291 148.867778 153.117877 148.211907 151.467073 148.211907 
C 149.816269 148.211907 148.232855 148.867778 147.065561 150.035073 
C 145.898266 151.202368 145.242395 152.785781 145.242395 154.436585 
C 145.242395 156.087389 145.898266 157.670803 147.065561 158.838098 
C 148.232855 160.005393 149.816269 160.661264 151.467073 160.661264 
z
" clip-path="url(#pbe1bfd3c72)" style="fill: #c8ead5; fill-opacity: 0.431327"/>
   </g>
   <g id="PathCollection_35">
    <path d="M 183.040244 159.328989 
C 184.337725 159.328989 185.582239 158.813495 186.499696 157.896037 
C 187.417153 156.97858 187.932648 155.734066 187.932648 154.436585 
C 187.932648 153.139105 187.417153 151.894591 186.499696 150.977133 
C 185.582239 150.059676 184.337725 149.544181 183.040244 149.544181 
C 181.742763 149.544181 180.498249 150.059676 179.580792 150.977133 
C 178.663334 151.894591 178.14784 153.139105 178.14784 154.436585 
C 178.14784 155.734066 178.663334 156.97858 179.580792 157.896037 
C 180.498249 158.813495 181.742763 159.328989 183.040244 159.328989 
z
" clip-path="url(#pbe1bfd3c72)" style="fill: #c8ead5; fill-opacity: 0.337639"/>
   </g>
   <g id="PathCollection_36">
    <path d="M 214.613415 158.816188 
C 215.774899 158.816188 216.888968 158.354725 217.710261 157.533432 
C 218.531555 156.712139 218.993017 155.59807 218.993017 154.436585 
C 218.993017 153.275101 218.531555 152.161032 217.710261 151.339739 
C 216.888968 150.518445 215.774899 150.056983 214.613415 150.056983 
C 213.45193 150.056983 212.337861 150.518445 211.516568 151.339739 
C 210.695275 152.161032 210.233812 153.275101 210.233812 154.436585 
C 210.233812 155.59807 210.695275 156.712139 211.516568 157.533432 
C 212.337861 158.354725 213.45193 158.816188 214.613415 158.816188 
z
" clip-path="url(#pbe1bfd3c72)" style="fill: #c8ead5; fill-opacity: 0.307563"/>
   </g>
   <g id="PathCollection_37">
    <path d="M 246.186585 165.206915 
C 249.04291 165.206915 251.782632 164.072085 253.802358 162.052358 
C 255.822085 160.032632 256.956915 157.29291 256.956915 154.436585 
C 256.956915 151.580261 255.822085 148.840539 253.802358 146.820812 
C 251.782632 144.801086 249.04291 143.666256 246.186585 143.666256 
C 243.330261 143.666256 240.590539 144.801086 238.570812 146.820812 
C 236.551086 148.840539 235.416256 151.580261 235.416256 154.436585 
C 235.416256 157.29291 236.551086 160.032632 238.570812 162.052358 
C 240.590539 164.072085 243.330261 165.206915 246.186585 165.206915 
z
" clip-path="url(#pbe1bfd3c72)" style="fill: #c8ead5; fill-opacity: 0.92"/>
   </g>
   <g id="PathCollection_38">
    <path d="M 277.759756 157.562712 
C 278.588815 157.562712 279.384029 157.233324 279.970262 156.647091 
C 280.556495 156.060858 280.885883 155.265644 280.885883 154.436585 
C 280.885883 153.607527 280.556495 152.812313 279.970262 152.22608 
C 279.384029 151.639847 278.588815 151.310458 277.759756 151.310458 
C 276.930698 151.310458 276.135483 151.639847 275.54925 152.22608 
C 274.963017 152.812313 274.633629 153.607527 274.633629 154.436585 
C 274.633629 155.265644 274.963017 156.060858 275.54925 156.647091 
C 276.135483 157.233324 276.930698 157.562712 277.759756 157.562712 
z
" clip-path="url(#pbe1bfd3c72)" style="fill: #c8ead5; fill-opacity: 0.24805"/>
   </g>
   <g id="PathCollection_39">
    <path d="M 309.332927 158.359162 
C 310.373206 158.359162 311.371019 157.945855 312.106607 157.210266 
C 312.842196 156.474677 313.255503 155.476865 313.255503 154.436585 
C 313.255503 153.396306 312.842196 152.398494 312.106607 151.662905 
C 311.371019 150.927316 310.373206 150.514009 309.332927 150.514009 
C 308.292647 150.514009 307.294835 150.927316 306.559246 151.662905 
C 305.823658 152.398494 305.41035 153.396306 305.41035 154.436585 
C 305.41035 155.476865 305.823658 156.474677 306.559246 157.210266 
C 307.294835 157.945855 308.292647 158.359162 309.332927 158.359162 
z
" clip-path="url(#pbe1bfd3c72)" style="fill: #c8ead5; fill-opacity: 0.283562"/>
   </g>
   <g id="PathCollection_40">
    <path d="M 340.906098 160.151948 
C 342.421829 160.151948 343.875685 159.549741 344.947469 158.477957 
C 346.019253 157.406173 346.62146 155.952317 346.62146 154.436585 
C 346.62146 152.920854 346.019253 151.466998 344.947469 150.395214 
C 343.875685 149.323429 342.421829 148.721223 340.906098 148.721223 
C 339.390366 148.721223 337.93651 149.323429 336.864726 150.395214 
C 335.792942 151.466998 335.190735 152.920854 335.190735 154.436585 
C 335.190735 155.952317 335.792942 157.406173 336.864726 158.477957 
C 337.93651 159.549741 339.390366 160.151948 340.906098 160.151948 
z
" clip-path="url(#pbe1bfd3c72)" style="fill: #c8ead5; fill-opacity: 0.39286"/>
   </g>
   <g id="PathCollection_41">
    <path d="M 119.893902 195.582757 
C 122.432692 195.582757 124.867841 194.574085 126.663036 192.77889 
C 128.458232 190.983695 129.466903 188.548546 129.466903 186.009756 
C 129.466903 183.470967 128.458232 181.035818 126.663036 179.240622 
C 124.867841 177.445427 122.432692 176.436755 119.893902 176.436755 
C 117.355113 176.436755 114.919964 177.445427 113.124769 179.240622 
C 111.329573 181.035818 110.320902 183.470967 110.320902 186.009756 
C 110.320902 188.548546 111.329573 190.983695 113.124769 192.77889 
C 114.919964 194.574085 117.355113 195.582757 119.893902 195.582757 
z
" clip-path="url(#pbe1bfd3c72)" style="fill: #d9e6d2; fill-opacity: 0.765924"/>
   </g>
   <g id="PathCollection_42">
    <path d="M 151.467073 192.06347 
C 153.072537 192.06347 154.612461 191.425612 155.747695 190.290378 
C 156.882929 189.155144 157.520787 187.61522 157.520787 186.009756 
C 157.520787 184.404292 156.882929 182.864368 155.747695 181.729134 
C 154.612461 180.5939 153.072537 179.956042 151.467073 179.956042 
C 149.86161 179.956042 148.321685 180.5939 147.186451 181.729134 
C 146.051217 182.864368 145.413359 184.404292 145.413359 186.009756 
C 145.413359 187.61522 146.051217 189.155144 147.186451 190.290378 
C 148.321685 191.425612 149.86161 192.06347 151.467073 192.06347 
z
" clip-path="url(#pbe1bfd3c72)" style="fill: #d9e6d2; fill-opacity: 0.418049"/>
   </g>
   <g id="PathCollection_43">
    <path d="M 183.040244 194.051845 
C 185.173031 194.051845 187.218752 193.20448 188.72686 191.696372 
C 190.234968 190.188264 191.082333 188.142543 191.082333 186.009756 
C 191.082333 183.876969 190.234968 181.831248 188.72686 180.32314 
C 187.218752 178.815032 185.173031 177.967667 183.040244 177.967667 
C 180.907457 177.967667 178.861736 178.815032 177.353628 180.32314 
C 175.84552 181.831248 174.998155 183.876969 174.998155 186.009756 
C 174.998155 188.142543 175.84552 190.188264 177.353628 191.696372 
C 178.861736 193.20448 180.907457 194.051845 183.040244 194.051845 
z
" clip-path="url(#pbe1bfd3c72)" style="fill: #d9e6d2; fill-opacity: 0.595341"/>
   </g>
   <g id="PathCollection_44">
    <path d="M 214.613415 191.488385 
C 216.066364 191.488385 217.46 190.911123 218.487391 189.883732 
C 219.514781 188.856342 220.092044 187.462706 220.092044 186.009756 
C 220.092044 184.556807 219.514781 183.163171 218.487391 182.13578 
C 217.46 181.10839 216.066364 180.531127 214.613415 180.531127 
C 213.160465 180.531127 211.766829 181.10839 210.739439 182.13578 
C 209.712048 183.163171 209.134785 184.556807 209.134785 186.009756 
C 209.134785 187.462706 209.712048 188.856342 210.739439 189.883732 
C 211.766829 190.911123 213.160465 191.488385 214.613415 191.488385 
z
" clip-path="url(#pbe1bfd3c72)" style="fill: #d9e6d2; fill-opacity: 0.376097"/>
   </g>
   <g id="PathCollection_45">
    <path d="M 246.186585 189.135883 
C 247.015644 189.135883 247.810858 188.806495 248.397091 188.220262 
C 248.983324 187.634029 249.312712 186.838815 249.312712 186.009756 
C 249.312712 185.180698 248.983324 184.385483 248.397091 183.79925 
C 247.810858 183.213017 247.015644 182.883629 246.186585 182.883629 
C 245.357527 182.883629 244.562313 183.213017 243.97608 183.79925 
C 243.389847 184.385483 243.060458 185.180698 243.060458 186.009756 
C 243.060458 186.838815 243.389847 187.634029 243.97608 188.220262 
C 244.562313 188.806495 245.357527 189.135883 246.186585 189.135883 
z
" clip-path="url(#pbe1bfd3c72)" style="fill: #d9e6d2; fill-opacity: 0.24805"/>
   </g>
   <g id="PathCollection_46">
    <path d="M 277.759756 196.780086 
C 280.616081 196.780086 283.355803 195.645256 285.375529 193.625529 
C 287.395256 191.605803 288.530086 188.866081 288.530086 186.009756 
C 288.530086 183.153431 287.395256 180.41371 285.375529 178.393983 
C 283.355803 176.374256 280.616081 175.239426 277.759756 175.239426 
C 274.903431 175.239426 272.16371 176.374256 270.143983 178.393983 
C 268.124256 180.41371 266.989426 183.153431 266.989426 186.009756 
C 266.989426 188.866081 268.124256 191.605803 270.143983 193.625529 
C 272.16371 195.645256 274.903431 196.780086 277.759756 196.780086 
z
" clip-path="url(#pbe1bfd3c72)" style="fill: #d9e6d2; fill-opacity: 0.92"/>
   </g>
   <g id="PathCollection_47">
    <path d="M 309.332927 192.840918 
C 311.144572 192.840918 312.882261 192.121144 314.163288 190.840117 
C 315.444315 189.559091 316.164089 187.821402 316.164089 186.009756 
C 316.164089 184.198111 315.444315 182.460422 314.163288 181.179395 
C 312.882261 179.898368 311.144572 179.178594 309.332927 179.178594 
C 307.521281 179.178594 305.783592 179.898368 304.502566 181.179395 
C 303.221539 182.460422 302.501764 184.198111 302.501764 186.009756 
C 302.501764 187.821402 303.221539 189.559091 304.502566 190.840117 
C 305.783592 192.121144 307.521281 192.840918 309.332927 192.840918 
z
" clip-path="url(#pbe1bfd3c72)" style="fill: #d9e6d2; fill-opacity: 0.481414"/>
   </g>
   <g id="PathCollection_48">
    <path d="M 340.906098 195.527935 
C 343.430348 195.527935 345.851552 194.52504 347.636467 192.740125 
C 349.421381 190.95521 350.424277 188.534007 350.424277 186.009756 
C 350.424277 183.485505 349.421381 181.064302 347.636467 179.279387 
C 345.851552 177.494472 343.430348 176.491577 340.906098 176.491577 
C 338.381847 176.491577 335.960643 177.494472 334.175729 179.279387 
C 332.390814 181.064302 331.387918 183.485505 331.387918 186.009756 
C 331.387918 188.534007 332.390814 190.95521 334.175729 192.740125 
C 335.960643 194.52504 338.381847 195.527935 340.906098 195.527935 
z
" clip-path="url(#pbe1bfd3c72)" style="fill: #d9e6d2; fill-opacity: 0.759303"/>
   </g>
   <g id="PathCollection_49">
    <path d="M 119.893902 226.062634 
C 122.142747 226.062634 124.299788 225.169159 125.889961 223.578985 
C 127.480134 221.988812 128.37361 219.831771 128.37361 217.582927 
C 128.37361 215.334082 127.480134 213.177042 125.889961 211.586868 
C 124.299788 209.996695 122.142747 209.10322 119.893902 209.10322 
C 117.645058 209.10322 115.488017 209.996695 113.897844 211.586868 
C 112.307671 213.177042 111.414195 215.334082 111.414195 217.582927 
C 111.414195 219.831771 112.307671 221.988812 113.897844 223.578985 
C 115.488017 225.169159 117.645058 226.062634 119.893902 226.062634 
z
" clip-path="url(#pbe1bfd3c72)" style="fill: #fff6e3; fill-opacity: 0.641076"/>
   </g>
   <g id="PathCollection_50">
    <path d="M 151.467073 221.683427 
C 152.554538 221.683427 153.59761 221.251372 154.366564 220.482418 
C 155.135519 219.713464 155.567573 218.670392 155.567573 217.582927 
C 155.567573 216.495462 155.135519 215.45239 154.366564 214.683436 
C 153.59761 213.914481 152.554538 213.482427 151.467073 213.482427 
C 150.379608 213.482427 149.336536 213.914481 148.567582 214.683436 
C 147.798628 215.45239 147.366573 216.495462 147.366573 217.582927 
C 147.366573 218.670392 147.798628 219.713464 148.567582 220.482418 
C 149.336536 221.251372 150.379608 221.683427 151.467073 221.683427 
z
" clip-path="url(#pbe1bfd3c72)" style="fill: #fff6e3; fill-opacity: 0.292592"/>
   </g>
   <g id="PathCollection_51">
    <path d="M 183.040244 222.312567 
C 184.294559 222.312567 185.49767 221.814223 186.384605 220.927288 
C 187.27154 220.040353 187.769884 218.837242 187.769884 217.582927 
C 187.769884 216.328611 187.27154 215.125501 186.384605 214.238566 
C 185.49767 213.351631 184.294559 212.853286 183.040244 212.853286 
C 181.785929 212.853286 180.582818 213.351631 179.695883 214.238566 
C 178.808948 215.125501 178.310603 216.328611 178.310603 217.582927 
C 178.310603 218.837242 178.808948 220.040353 179.695883 220.927288 
C 180.582818 221.814223 181.785929 222.312567 183.040244 222.312567 
z
" clip-path="url(#pbe1bfd3c72)" style="fill: #fff6e3; fill-opacity: 0.327733"/>
   </g>
   <g id="PathCollection_52">
    <path d="M 214.613415 224.913542 
C 216.557516 224.913542 218.422255 224.141142 219.796942 222.766454 
C 221.17163 221.391767 221.94403 219.527029 221.94403 217.582927 
C 221.94403 215.638825 221.17163 213.774087 219.796942 212.399399 
C 218.422255 211.024712 216.557516 210.252312 214.613415 210.252312 
C 212.669313 210.252312 210.804575 211.024712 209.429887 212.399399 
C 208.0552 213.774087 207.2828 215.638825 207.2828 217.582927 
C 207.2828 219.527029 208.0552 221.391767 209.429887 222.766454 
C 210.804575 224.141142 212.669313 224.913542 214.613415 224.913542 
z
" clip-path="url(#pbe1bfd3c72)" style="fill: #fff6e3; fill-opacity: 0.526156"/>
   </g>
   <g id="PathCollection_53">
    <path d="M 246.186585 221.505503 
C 247.226865 221.505503 248.224677 221.092196 248.960266 220.356607 
C 249.695855 219.621019 250.109162 218.623206 250.109162 217.582927 
C 250.109162 216.542647 249.695855 215.544835 248.960266 214.809246 
C 248.224677 214.073658 247.226865 213.66035 246.186585 213.66035 
C 245.146306 213.66035 244.148494 214.073658 243.412905 214.809246 
C 242.677316 215.544835 242.264009 216.542647 242.264009 217.582927 
C 242.264009 218.623206 242.677316 219.621019 243.412905 220.356607 
C 244.148494 221.092196 245.146306 221.505503 246.186585 221.505503 
z
" clip-path="url(#pbe1bfd3c72)" style="fill: #fff6e3; fill-opacity: 0.283562"/>
   </g>
   <g id="PathCollection_54">
    <path d="M 277.759756 224.414089 
C 279.571402 224.414089 281.309091 223.694315 282.590117 222.413288 
C 283.871144 221.132261 284.590918 219.394572 284.590918 217.582927 
C 284.590918 215.771281 283.871144 214.033592 282.590117 212.752566 
C 281.309091 211.471539 279.571402 210.751764 277.759756 210.751764 
C 275.948111 210.751764 274.210422 211.471539 272.929395 212.752566 
C 271.648368 214.033592 270.928594 215.771281 270.928594 217.582927 
C 270.928594 219.394572 271.648368 221.132261 272.929395 222.413288 
C 274.210422 223.694315 275.948111 224.414089 277.759756 224.414089 
z
" clip-path="url(#pbe1bfd3c72)" style="fill: #fff6e3; fill-opacity: 0.481414"/>
   </g>
   <g id="PathCollection_55">
    <path d="M 309.332927 228.353256 
C 312.189252 228.353256 314.928973 227.218427 316.9487 225.1987 
C 318.968427 223.178973 320.103256 220.439252 320.103256 217.582927 
C 320.103256 214.726602 318.968427 211.98688 316.9487 209.967154 
C 314.928973 207.947427 312.189252 206.812597 309.332927 206.812597 
C 306.476602 206.812597 303.73688 207.947427 301.717154 209.967154 
C 299.697427 211.98688 298.562597 214.726602 298.562597 217.582927 
C 298.562597 220.439252 299.697427 223.178973 301.717154 225.1987 
C 303.73688 227.218427 306.476602 228.353256 309.332927 228.353256 
z
" clip-path="url(#pbe1bfd3c72)" style="fill: #fff6e3; fill-opacity: 0.92"/>
   </g>
   <g id="PathCollection_56">
    <path d="M 340.906098 223.633321 
C 342.510681 223.633321 344.049761 222.995813 345.184372 221.861202 
C 346.318984 220.72659 346.956492 219.18751 346.956492 217.582927 
C 346.956492 215.978344 346.318984 214.439264 345.184372 213.304652 
C 344.049761 212.17004 342.510681 211.532533 340.906098 211.532533 
C 339.301514 211.532533 337.762435 212.17004 336.627823 213.304652 
C 335.493211 214.439264 334.855703 215.978344 334.855703 217.582927 
C 334.855703 219.18751 335.493211 220.72659 336.627823 221.861202 
C 337.762435 222.995813 339.301514 223.633321 340.906098 223.633321 
z
" clip-path="url(#pbe1bfd3c72)" style="fill: #fff6e3; fill-opacity: 0.417795"/>
   </g>
   <g id="PathCollection_57">
    <path d="M 119.893902 259.290902 
C 122.581684 259.290902 125.159743 258.223035 127.060292 256.322487 
C 128.96084 254.421938 130.028707 251.843879 130.028707 249.156098 
C 130.028707 246.468316 128.96084 243.890257 127.060292 241.989708 
C 125.159743 240.08916 122.581684 239.021293 119.893902 239.021293 
C 117.206121 239.021293 114.628062 240.08916 112.727513 241.989708 
C 110.826965 243.890257 109.759098 246.468316 109.759098 249.156098 
C 109.759098 251.843879 110.826965 254.421938 112.727513 256.322487 
C 114.628062 258.223035 117.206121 259.290902 119.893902 259.290902 
z
" clip-path="url(#pbe1bfd3c72)" style="fill: #6baa7a; fill-opacity: 0.83596"/>
   </g>
   <g id="PathCollection_58">
    <path d="M 151.467073 254.02445 
C 152.758175 254.02445 153.996571 253.51149 154.909518 252.598543 
C 155.822466 251.685596 156.335426 250.4472 156.335426 249.156098 
C 156.335426 247.864995 155.822466 246.626599 154.909518 245.713652 
C 153.996571 244.800705 152.758175 244.287745 151.467073 244.287745 
C 150.175971 244.287745 148.937575 244.800705 148.024628 245.713652 
C 147.111681 246.626599 146.59872 247.864995 146.59872 249.156098 
C 146.59872 250.4472 147.111681 251.685596 148.024628 252.598543 
C 148.937575 253.51149 150.175971 254.02445 151.467073 254.02445 
z
" clip-path="url(#pbe1bfd3c72)" style="fill: #6baa7a; fill-opacity: 0.336154"/>
   </g>
   <g id="PathCollection_59">
    <path d="M 183.040244 258.777714 
C 185.591926 258.777714 188.039442 257.76392 189.843754 255.959608 
C 191.648066 254.155296 192.66186 251.70778 192.66186 249.156098 
C 192.66186 246.604415 191.648066 244.156899 189.843754 242.352587 
C 188.039442 240.548276 185.591926 239.534481 183.040244 239.534481 
C 180.488561 239.534481 178.041046 240.548276 176.236734 242.352587 
C 174.432422 244.156899 173.418628 246.604415 173.418628 249.156098 
C 173.418628 251.70778 174.432422 254.155296 176.236734 255.959608 
C 178.041046 257.76392 180.488561 258.777714 183.040244 258.777714 
z
" clip-path="url(#pbe1bfd3c72)" style="fill: #6baa7a; fill-opacity: 0.771826"/>
   </g>
   <g id="PathCollection_60">
    <path d="M 214.613415 255.628179 
C 216.329831 255.628179 217.976178 254.94624 219.189867 253.73255 
C 220.403557 252.518861 221.085496 250.872514 221.085496 249.156098 
C 221.085496 247.439682 220.403557 245.793334 219.189867 244.579645 
C 217.976178 243.365956 216.329831 242.684016 214.613415 242.684016 
C 212.896999 242.684016 211.250651 243.365956 210.036962 244.579645 
C 208.823273 245.793334 208.141333 247.439682 208.141333 249.156098 
C 208.141333 250.872514 208.823273 252.518861 210.036962 253.73255 
C 211.250651 254.94624 212.896999 255.628179 214.613415 255.628179 
z
" clip-path="url(#pbe1bfd3c72)" style="fill: #6baa7a; fill-opacity: 0.451197"/>
   </g>
   <g id="PathCollection_61">
    <path d="M 246.186585 254.87146 
C 247.702317 254.87146 249.156173 254.269253 250.227957 253.197469 
C 251.299741 252.125685 251.901948 250.671829 251.901948 249.156098 
C 251.901948 247.640366 251.299741 246.18651 250.227957 245.114726 
C 249.156173 244.042942 247.702317 243.440735 246.186585 243.440735 
C 244.670854 243.440735 243.216998 244.042942 242.145214 245.114726 
C 241.073429 246.18651 240.471223 247.640366 240.471223 249.156098 
C 240.471223 250.671829 241.073429 252.125685 242.145214 253.197469 
C 243.216998 254.269253 244.670854 254.87146 246.186585 254.87146 
z
" clip-path="url(#pbe1bfd3c72)" style="fill: #6baa7a; fill-opacity: 0.39286"/>
   </g>
   <g id="PathCollection_62">
    <path d="M 277.759756 258.674277 
C 280.284007 258.674277 282.70521 257.671381 284.490125 255.886467 
C 286.27504 254.101552 287.277935 251.680348 287.277935 249.156098 
C 287.277935 246.631847 286.27504 244.210643 284.490125 242.425729 
C 282.70521 240.640814 280.284007 239.637918 277.759756 239.637918 
C 275.235505 239.637918 272.814302 240.640814 271.029387 242.425729 
C 269.244472 244.210643 268.241577 246.631847 268.241577 249.156098 
C 268.241577 251.680348 269.244472 254.101552 271.029387 255.886467 
C 272.814302 257.671381 275.235505 258.674277 277.759756 258.674277 
z
" clip-path="url(#pbe1bfd3c72)" style="fill: #6baa7a; fill-opacity: 0.759303"/>
   </g>
   <g id="PathCollection_63">
    <path d="M 309.332927 255.206492 
C 310.93751 255.206492 312.47659 254.568984 313.611202 253.434372 
C 314.745813 252.299761 315.383321 250.760681 315.383321 249.156098 
C 315.383321 247.551514 314.745813 246.012435 313.611202 244.877823 
C 312.47659 243.743211 310.93751 243.105703 309.332927 243.105703 
C 307.728344 243.105703 306.189264 243.743211 305.054652 244.877823 
C 303.92004 246.012435 303.282533 247.551514 303.282533 249.156098 
C 303.282533 250.760681 303.92004 252.299761 305.054652 253.434372 
C 306.189264 254.568984 307.728344 255.206492 309.332927 255.206492 
z
" clip-path="url(#pbe1bfd3c72)" style="fill: #6baa7a; fill-opacity: 0.417795"/>
   </g>
   <g id="PathCollection_64">
    <path d="M 340.906098 259.926427 
C 343.762422 259.926427 346.502144 258.791597 348.521871 256.771871 
C 350.541597 254.752144 351.676427 252.012422 351.676427 249.156098 
C 351.676427 246.299773 350.541597 243.560051 348.521871 241.540324 
C 346.502144 239.520598 343.762422 238.385768 340.906098 238.385768 
C 338.049773 238.385768 335.310051 239.520598 333.290324 241.540324 
C 331.270598 243.560051 330.135768 246.299773 330.135768 249.156098 
C 330.135768 252.012422 331.270598 254.752144 333.290324 256.771871 
C 335.310051 258.791597 338.049773 259.926427 340.906098 259.926427 
z
" clip-path="url(#pbe1bfd3c72)" style="fill: #6baa7a; fill-opacity: 0.92"/>
   </g>
   <g id="matplotlib.axis_1">
    <g id="xtick_1">
     <g id="line2d_1"/>
     <g id="text_1">
      <text style="font-size: 8.4px; font-family: 'Arial', 'Helvetica', 'DejaVu Sans', sans-serif; text-anchor: middle" x="119.893902" y="277.612562" transform="rotate(-0 119.893902 277.612562)">V1</text>
     </g>
    </g>
    <g id="xtick_2">
     <g id="line2d_2"/>
     <g id="text_2">
      <text style="font-size: 8.4px; font-family: 'Arial', 'Helvetica', 'DejaVu Sans', sans-serif; text-anchor: middle" x="151.467073" y="277.612562" transform="rotate(-0 151.467073 277.612562)">V2</text>
     </g>
    </g>
    <g id="xtick_3">
     <g id="line2d_3"/>
     <g id="text_3">
      <text style="font-size: 8.4px; font-family: 'Arial', 'Helvetica', 'DejaVu Sans', sans-serif; text-anchor: middle" x="183.040244" y="277.612562" transform="rotate(-0 183.040244 277.612562)">V3</text>
     </g>
    </g>
    <g id="xtick_4">
     <g id="line2d_4"/>
     <g id="text_4">
      <text style="font-size: 8.4px; font-family: 'Arial', 'Helvetica', 'DejaVu Sans', sans-serif; text-anchor: middle" x="214.613415" y="277.612562" transform="rotate(-0 214.613415 277.612562)">V4</text>
     </g>
    </g>
    <g id="xtick_5">
     <g id="line2d_5"/>
     <g id="text_5">
      <text style="font-size: 8.4px; font-family: 'Arial', 'Helvetica', 'DejaVu Sans', sans-serif; text-anchor: middle" x="246.186585" y="277.612562" transform="rotate(-0 246.186585 277.612562)">V5</text>
     </g>
    </g>
    <g id="xtick_6">
     <g id="line2d_6"/>
     <g id="text_6">
      <text style="font-size: 8.4px; font-family: 'Arial', 'Helvetica', 'DejaVu Sans', sans-serif; text-anchor: middle" x="277.759756" y="277.612562" transform="rotate(-0 277.759756 277.612562)">V6</text>
     </g>
    </g>
    <g id="xtick_7">
     <g id="line2d_7"/>
     <g id="text_7">
      <text style="font-size: 8.4px; font-family: 'Arial', 'Helvetica', 'DejaVu Sans', sans-serif; text-anchor: middle" x="309.332927" y="277.612562" transform="rotate(-0 309.332927 277.612562)">V7</text>
     </g>
    </g>
    <g id="xtick_8">
     <g id="line2d_8"/>
     <g id="text_8">
      <text style="font-size: 8.4px; font-family: 'Arial', 'Helvetica', 'DejaVu Sans', sans-serif; text-anchor: middle" x="340.906098" y="277.612562" transform="rotate(-0 340.906098 277.612562)">V8</text>
     </g>
    </g>
   </g>
   <g id="matplotlib.axis_2">
    <g id="ytick_1">
     <g id="line2d_9"/>
     <g id="text_9">
      <text style="font-size: 8.4px; font-family: 'Arial', 'Helvetica', 'DejaVu Sans', sans-serif; text-anchor: end" x="97.45" y="31.150184" transform="rotate(-0 97.45 31.150184)">V1</text>
     </g>
    </g>
    <g id="ytick_2">
     <g id="line2d_10"/>
     <g id="text_10">
      <text style="font-size: 8.4px; font-family: 'Arial', 'Helvetica', 'DejaVu Sans', sans-serif; text-anchor: end" x="97.45" y="62.723354" transform="rotate(-0 97.45 62.723354)">V2</text>
     </g>
    </g>
    <g id="ytick_3">
     <g id="line2d_11"/>
     <g id="text_11">
      <text style="font-size: 8.4px; font-family: 'Arial', 'Helvetica', 'DejaVu Sans', sans-serif; text-anchor: end" x="97.45" y="94.296525" transform="rotate(-0 97.45 94.296525)">V3</text>
     </g>
    </g>
    <g id="ytick_4">
     <g id="line2d_12"/>
     <g id="text_12">
      <text style="font-size: 8.4px; font-family: 'Arial', 'Helvetica', 'DejaVu Sans', sans-serif; text-anchor: end" x="97.45" y="125.869696" transform="rotate(-0 97.45 125.869696)">V4</text>
     </g>
    </g>
    <g id="ytick_5">
     <g id="line2d_13"/>
     <g id="text_13">
      <text style="font-size: 8.4px; font-family: 'Arial', 'Helvetica', 'DejaVu Sans', sans-serif; text-anchor: end" x="97.45" y="157.442867" transform="rotate(-0 97.45 157.442867)">V5</text>
     </g>
    </g>
    <g id="ytick_6">
     <g id="line2d_14"/>
     <g id="text_14">
      <text style="font-size: 8.4px; font-family: 'Arial', 'Helvetica', 'DejaVu Sans', sans-serif; text-anchor: end" x="97.45" y="189.016037" transform="rotate(-0 97.45 189.016037)">V6</text>
     </g>
    </g>
    <g id="ytick_7">
     <g id="line2d_15"/>
     <g id="text_15">
      <text style="font-size: 8.4px; font-family: 'Arial', 'Helvetica', 'DejaVu Sans', sans-serif; text-anchor: end" x="97.45" y="220.589208" transform="rotate(-0 97.45 220.589208)">V7</text>
     </g>
    </g>
    <g id="ytick_8">
     <g id="line2d_16"/>
     <g id="text_16">
      <text style="font-size: 8.4px; font-family: 'Arial', 'Helvetica', 'DejaVu Sans', sans-serif; text-anchor: end" x="97.45" y="252.162379" transform="rotate(-0 97.45 252.162379)">V8</text>
     </g>
    </g>
   </g>
  </g>
 </g>
 <defs>
  <clipPath id="pbe1bfd3c72">
   <rect x="100.95" y="9.2" width="258.9" height="258.9"/>
  </clipPath>
 </defs>
</svg>
